<svg
    width="35"
    height="34"
    viewBox="0 0 35 34"
    fill="none"
    xmlns="http://www.w3.org/2000/svg"
>
    <path
        d="M20.3425 8.55542L20.389 10.9629L20.8475 31.6082C20.8475 31.6082 20.8313 32.9979 18.1681 32.9477C16.3163 32.9103 16.1699 32.1228 16.1699 32.1228L17.0426 9.24625C17.6244 9.12901 18.8236 8.85435 20.3425 8.55542Z"
        fill="#CE9559"
    />
    <path
        d="M18.6453 8.84279L18.8477 32.7083C18.8477 32.7083 20.4028 32.8699 20.6133 31.6959C20.8237 30.5218 20.1319 8.55115 20.1319 8.55115L18.6453 8.84279Z"
        fill="#B87F2C"
    />
    <path
        d="M20.3297 8.19946L20.389 10.9629L20.8475 31.6082C20.8475 31.6082 20.9402 32.9979 18.2769 32.9477C16.4251 32.9104 16.1699 31.8097 16.1699 31.8097L17.0286 8.86009"
        stroke="black"
        stroke-width="0.717521"
        stroke-miterlimit="10"
        stroke-linecap="round"
        stroke-linejoin="round"
    />
    <path
        d="M34.6263 5.60324C34.6633 6.86291 34.6667 8.11947 34.6465 9.37916C34.6364 9.89491 34.586 10.4138 34.5658 10.9295C34.5389 11.5953 34.5658 12.2611 34.5356 12.9269C34.5053 13.5802 34.5188 14.2366 34.4179 14.8836C34.3843 15.0837 34.3507 15.2869 34.3103 15.4838C34.2734 15.6651 34.1826 15.8214 34.0952 15.9745C33.9843 16.1652 33.8599 16.3434 33.7423 16.5247C33.6246 16.706 33.4734 16.831 33.2986 16.9216C33.0666 17.0373 32.8448 17.1811 32.5927 17.228C32.2061 17.303 31.8128 17.328 31.4229 17.3499C31.0565 17.3686 30.6901 17.3936 30.3237 17.4061C30.159 17.4124 29.9909 17.3999 29.8229 17.3936C29.3086 17.3811 28.7943 17.4499 28.28 17.4311C27.7119 17.4155 27.1438 17.3905 26.5791 17.3155C26.4312 17.2967 26.2833 17.2967 26.1354 17.2811C25.9371 17.2623 25.7724 17.0717 25.7556 16.831C25.7522 16.7528 25.7287 16.7153 25.6715 16.6903C25.6278 16.6716 25.5875 16.6434 25.5573 16.6028C25.4967 16.5247 25.4497 16.5403 25.3959 16.6122C25.3051 16.731 25.2211 16.8466 25.1438 16.9779C25.0665 17.1092 24.9589 17.2123 24.8547 17.3186C24.811 17.3655 24.7438 17.3655 24.6866 17.353C24.4749 17.3092 24.2631 17.3499 24.0547 17.353C23.0799 17.3592 22.1051 17.3249 21.1303 17.3311C20.0815 17.3374 19.0294 17.2717 17.9773 17.328C17.6277 17.3467 17.2781 17.3749 16.9285 17.4093C16.7201 17.4311 16.5117 17.4186 16.3033 17.4124C15.7083 17.3999 15.1133 17.3717 14.5184 17.3686C14.0343 17.3686 13.5503 17.4343 13.0629 17.4186C12.236 17.3905 11.4057 17.3655 10.5788 17.2655C10.2897 17.2311 10.0006 17.253 9.71494 17.2936C9.28802 17.3499 8.86786 17.3092 8.44431 17.2905C8.16531 17.278 7.88968 17.2811 7.61404 17.2905C7.27118 17.2998 6.92831 17.2873 6.58209 17.2748C6.46445 17.2686 6.35352 17.2061 6.24258 17.1592C6.10477 17.0998 5.96024 17.1029 5.83588 17.1811C5.62073 17.3124 5.39215 17.3374 5.16022 17.3124C4.58542 17.253 4.01062 17.2623 3.43582 17.2498C3.05936 17.2405 2.68286 17.2217 2.31647 17.1279C1.76184 16.9873 1.34503 16.5903 1.05258 16.0027C0.797119 15.4932 0.692902 14.9337 0.669373 14.346C0.608887 12.8238 0.575257 11.3046 0.585358 9.78238C0.588715 9.63235 0.585358 9.47918 0.585358 9.32914C0.582001 9.32914 0.582 9.32914 0.578613 9.32914C0.602142 8.41642 0.629059 7.5037 0.6492 6.59097C0.662658 5.93769 0.655945 5.28128 0.689545 4.62799C0.709717 4.19664 0.733246 3.76216 0.827362 3.34018C0.924835 2.8932 1.0694 2.46496 1.34839 2.14302C1.71814 1.71791 2.15848 1.42096 2.64252 1.22404C2.90808 1.11776 3.17364 1.01773 3.45264 0.980221C3.59381 0.964596 3.73163 0.964596 3.86945 0.967724C4.31314 0.986477 4.76358 0.989606 5.20728 1.03961C5.83588 1.11151 6.46445 1.13339 7.09302 1.16464C7.35187 1.17715 7.61404 1.15527 7.87286 1.12713C8.16531 1.09588 8.45776 1.09275 8.75021 1.10838C9.39896 1.14589 10.0477 1.11776 10.6965 1.124C11.5738 1.13339 12.4444 1.05838 13.3217 1.06462C13.7822 1.06462 14.2461 1.09275 14.71 1.09588C14.8848 1.09901 15.0629 1.08024 15.2377 1.04899C15.4797 1.00836 15.7218 1.0021 15.9671 0.992734C16.6697 0.967725 17.3756 0.989605 18.0781 0.977093C19.1235 0.961468 20.1689 1.03337 21.2109 1.03961C21.6244 1.04274 22.0345 1.04899 22.4479 1.02086C22.8311 0.995862 23.211 1.06462 23.5908 1.0865C24.2295 1.11776 24.8648 1.15214 25.5001 1.08024C25.8732 1.03961 26.2497 1.0021 26.6194 0.936459C26.7774 0.908337 26.9354 0.905209 27.0934 0.911465C27.9102 0.936459 28.7237 0.889584 29.5405 0.889584C30.4481 0.886456 31.3557 0.905209 32.2532 1.06149C32.7406 1.14276 33.191 1.33969 33.591 1.67727C33.9171 1.95547 34.1154 2.34306 34.2263 2.8088C34.3473 3.33705 34.4515 3.86531 34.5188 4.40294C34.5725 4.80303 34.6129 5.20314 34.6263 5.60324ZM34.3473 10.4107C34.3708 9.8699 34.4246 9.32914 34.4146 8.78839C34.4045 8.36953 34.4112 7.95068 34.4112 7.53183C34.3944 6.73788 34.3843 5.94706 34.3608 5.15312C34.3406 4.40606 34.2868 3.67151 34.0919 2.95883C33.9776 2.52748 33.7725 2.17427 33.4633 1.91795C33.1406 1.64601 32.7809 1.47097 32.3876 1.38345C31.6985 1.22715 31.0027 1.1959 30.3036 1.18652C29.4027 1.17715 28.5018 1.19278 27.6043 1.1584C27.2043 1.13965 26.8077 1.17715 26.4144 1.27404C26.2127 1.32719 26.011 1.38032 25.8026 1.35531C25.5841 1.3303 25.369 1.33656 25.1505 1.33969C24.3438 1.34594 23.537 1.31468 22.7269 1.31155C21.7757 1.30844 20.8244 1.31468 19.8731 1.29905C19.1571 1.28656 18.4411 1.27717 17.7218 1.28343C16.7336 1.2928 15.7453 1.30218 14.7537 1.33656C14.2192 1.35531 13.6814 1.3303 13.1436 1.32719C12.1889 1.32093 11.2343 1.37719 10.2796 1.3647C9.68466 1.35531 9.09308 1.2928 8.49811 1.2928C7.73505 1.2928 6.97537 1.31155 6.21234 1.29905C5.49301 1.28967 4.77365 1.2428 4.05432 1.20527C3.34506 1.16464 2.70639 1.41783 2.0946 1.8148C1.76855 2.02736 1.51645 2.32118 1.33829 2.71502C1.30804 2.78067 1.28787 2.84631 1.27444 2.91819C1.1904 3.31205 1.1568 3.7059 1.18704 4.11537C1.22403 4.62799 1.20386 5.14375 1.1904 5.65637C1.18704 5.86892 1.21057 6.08148 1.19711 6.29403C1.16351 6.8598 1.13327 7.42244 1.12988 7.98819C1.12653 8.32577 1.18033 8.66336 1.13327 8.99469C1.07947 9.36354 1.09293 9.72925 1.09628 10.095C1.09964 10.3607 1.08618 10.6201 1.07275 10.8827C1.06265 11.1327 1.04923 11.3859 1.06604 11.636C1.103 12.108 1.12653 12.5768 1.09628 13.0519C1.05594 13.6021 1.04251 14.1553 1.21729 14.6867C1.23746 14.743 1.26099 14.7649 1.29797 14.7867C1.4089 14.8399 1.54334 14.8836 1.58704 15.0212C1.63748 15.19 1.74838 15.2431 1.85596 15.315C1.90302 15.3494 1.94336 15.3931 1.9837 15.4338C2.04083 15.4869 2.0946 15.5432 2.15848 15.5838C2.55514 15.8276 2.98202 15.8807 3.41901 15.9089C3.6644 15.9245 3.90305 15.862 4.14508 15.8339C4.55182 15.7839 4.95517 15.8339 5.35855 15.837C5.75183 15.8432 6.14511 15.8339 6.53503 15.8526C6.88126 15.8714 7.23084 15.8839 7.57709 15.8683C8.02414 15.8464 8.46783 15.8214 8.91492 15.8151C9.06281 15.8151 9.21072 15.8276 9.35861 15.8245C9.75528 15.8182 10.1486 15.8089 10.5452 15.8214C11.2545 15.8432 11.9637 15.8526 12.6763 15.8995C13.5738 15.9589 14.4747 15.9401 15.3755 15.9745C16.2092 16.0089 17.0462 15.9433 17.8798 15.9589C18.5016 15.9714 19.1235 15.9245 19.742 15.9808C20.1386 16.0152 20.5387 16.0402 20.9353 16.0589C21.3152 16.0808 21.6916 16.1402 22.0715 16.1121C22.3404 16.0902 22.6126 16.0777 22.8816 16.1152C23.0328 16.1371 23.1807 16.1308 23.332 16.1214C23.6076 16.1027 23.8765 16.1371 24.1387 16.2402C24.2362 16.2809 24.3505 16.3121 24.4514 16.2684C24.5287 16.234 24.5992 16.2277 24.6732 16.2308C24.7169 16.234 24.7606 16.234 24.7774 16.1683C24.8144 16.0152 24.8883 15.8839 24.9656 15.7557C25.0161 15.6682 25.0127 15.6307 24.932 15.5776C24.811 15.4994 24.7202 15.3744 24.6698 15.2181C24.653 15.1743 24.6295 15.1149 24.6765 15.0806C24.727 15.043 24.7438 15.1087 24.7707 15.1431C24.7908 15.1681 24.8043 15.2056 24.8312 15.2181C25.0127 15.3306 25.2009 15.4213 25.4127 15.44C25.6816 15.465 25.9438 15.5369 26.1455 15.787C26.1925 15.8464 26.2665 15.8745 26.3371 15.8776C26.5825 15.887 26.8245 15.8933 27.0699 15.8901C27.3791 15.8839 27.685 15.787 27.9976 15.812C28.28 15.8307 28.559 15.8026 28.838 15.7714C29.0363 15.7495 29.2346 15.7338 29.433 15.7557C29.5741 15.7714 29.7153 15.7682 29.8565 15.7557C30.0481 15.7432 30.2363 15.7432 30.4246 15.7526C30.5153 15.7557 30.6061 15.7495 30.6935 15.7307C31.0599 15.6494 31.4296 15.6588 31.7994 15.6838C32.1254 15.7026 32.4515 15.6838 32.7439 15.4838C32.9053 15.3744 33.0734 15.2869 33.2515 15.2337C33.3456 15.2087 33.4297 15.1556 33.4868 15.0681C33.5776 14.9274 33.6952 14.8242 33.8028 14.7086C33.9272 14.5773 34.0246 14.4366 34.0011 14.2116C33.991 14.1022 34.0381 14.0022 34.1154 13.9334C34.1322 13.9209 34.1524 13.9053 34.1557 13.8865C34.2061 13.699 34.2734 13.5146 34.2969 13.3208C34.3473 12.8519 34.3473 12.3799 34.3305 11.9079C34.3103 11.4078 34.3238 10.9077 34.3473 10.4107ZM34.1187 15.19C34.1389 15.0399 34.1759 14.893 34.2095 14.7148C34.0112 14.9305 33.8633 15.1618 33.6885 15.3587C33.5977 15.4557 33.5137 15.5369 33.3927 15.5619C33.275 15.5869 33.1574 15.6182 33.0565 15.6995C32.8717 15.8526 32.6666 15.9464 32.4649 16.0558C32.4044 16.0902 32.3439 16.1121 32.2767 16.1121C31.9809 16.1152 31.6817 16.1527 31.3826 16.1214C31.0699 16.0902 30.7506 16.1214 30.4414 16.0621C30.1422 16.0058 29.843 15.9964 29.5472 16.0089C29.1674 16.0214 28.7876 15.9933 28.4111 16.0089C28.196 16.0183 27.9808 16.0245 27.769 16.0152C27.5405 16.0027 27.3119 16.0277 27.0867 16.0277C26.8245 16.0277 26.5623 16.1058 26.2968 16.0683C26.2699 16.0652 26.2598 16.0839 26.2463 16.1058C26.206 16.1714 26.1623 16.234 26.1152 16.2933C26.011 16.4215 25.927 16.559 25.9976 16.7528C26.0077 16.7778 26.0009 16.806 26.0043 16.8341C26.0077 16.9967 26.0312 17.0342 26.1656 17.0373C26.3875 17.0373 26.6094 17.056 26.8312 17.0873C27.1472 17.1342 27.4665 17.1154 27.7825 17.1342C28.1691 17.1561 28.5522 17.1873 28.9388 17.1842C29.7825 17.1779 30.6296 17.2405 31.47 17.0685C31.7927 17.0029 32.1221 16.9967 32.4448 16.9341C32.6868 16.8872 32.9019 16.7497 33.1305 16.6685C33.3423 16.5966 33.5002 16.4403 33.6347 16.2402C33.6952 16.1527 33.749 16.0621 33.8062 15.9745C33.9574 15.7401 34.0818 15.4932 34.1187 15.19ZM25.9976 15.9714C26.0211 15.9495 26.0278 15.9339 26.0009 15.9089C25.9203 15.8432 25.8497 15.7651 25.7421 15.7682C25.6413 15.7714 25.5404 15.7714 25.4161 15.7714C25.4934 15.8964 25.5337 16.0152 25.5875 16.1277C25.6211 16.1965 25.6581 16.259 25.6984 16.3184C25.732 16.3684 25.7623 16.3809 25.7959 16.3027C25.8463 16.1808 25.9035 16.0558 25.9976 15.9714ZM25.3421 16.4153C25.3791 16.3746 25.3892 16.3465 25.369 16.2871C25.3051 16.1183 25.2513 15.9464 25.1976 15.7714C25.174 15.6995 25.1472 15.6995 25.1203 15.7557C25.0362 15.9276 24.9051 16.0652 24.8648 16.2684C24.8581 16.3027 24.8413 16.3246 24.8177 16.3371C24.7236 16.3871 24.6295 16.4403 24.5354 16.4903C24.4749 16.5215 24.4211 16.5153 24.3606 16.4778C24.3068 16.4434 24.253 16.3746 24.1858 16.459C24.169 16.4747 24.1387 16.4621 24.1219 16.4465C24.0446 16.3777 23.9539 16.3809 23.8631 16.3746C23.5505 16.359 23.2379 16.359 22.9286 16.3059C22.7639 16.2777 22.5992 16.2465 22.4311 16.259C21.9975 16.2902 21.5639 16.2902 21.1303 16.2558C20.7773 16.2277 20.4244 16.2152 20.0714 16.1871C19.7286 16.1589 19.3857 16.1152 19.0395 16.1152C18.3336 16.1183 17.6277 16.0996 16.9184 16.1121C16.2361 16.1246 15.5503 16.1496 14.8646 16.1183C14.3301 16.0933 13.7923 16.1277 13.2545 16.0996C12.7032 16.0683 12.1519 16.0433 11.5973 16.0245C10.8948 15.9995 10.1923 16.0089 9.48636 16.0214C9.16367 16.0277 8.83762 16.0027 8.51489 16.0089C8.0712 16.0183 7.6275 16.0683 7.18378 16.0589C6.75018 16.0495 6.31656 16.0214 5.88293 16.0183C5.57703 16.0152 5.26443 16.037 4.95853 15.9964C4.57535 15.9433 4.1955 15.9589 3.81567 16.012C3.42236 16.0683 3.03244 16.0402 2.64252 15.9964C2.41058 15.9683 2.18201 15.8807 2.00723 15.6932C1.87613 15.5525 1.74503 15.4244 1.57361 15.3713C1.51645 15.3556 1.47949 15.3087 1.47275 15.2337C1.46268 15.1243 1.3988 15.0618 1.32486 15.018C1.2778 14.993 1.23074 14.9712 1.18369 14.9524C1.09293 14.918 1.04251 14.843 1.01559 14.7336C0.968536 14.546 0.931579 14.3585 0.938293 14.1585C0.945007 14.0272 0.93158 13.8928 0.928223 13.7615C0.921479 13.5083 0.911408 13.252 0.955109 12.9988C0.988709 12.8175 0.985352 12.63 0.975281 12.4455C0.955109 12.0548 0.948363 11.6641 0.921478 11.2765C0.901306 10.9858 0.94165 10.6982 0.945007 10.4075C0.945007 10.0325 0.921479 9.65735 0.958466 9.28225C0.985352 9.01031 0.985352 8.73526 0.978638 8.46019C0.968537 8.08509 0.981995 7.71 0.985352 7.33491C0.988709 6.85354 1.07275 6.37217 1.00888 5.8908C1.00217 5.8533 1.00888 5.81266 1.00888 5.77516C1.04922 5.10936 1.04251 4.44357 1.00888 3.77778C0.924836 4.24978 0.891235 4.7249 0.867706 5.20314C0.817291 6.3034 0.817291 7.40367 0.803833 8.50082C0.793762 9.50106 0.797119 10.4982 0.803833 11.4984C0.810547 12.2299 0.850891 12.9613 0.847534 13.6927C0.844177 13.7771 0.837463 13.8646 0.847534 13.9459C0.871063 14.1272 0.867707 14.3054 0.857635 14.4867C0.844177 14.718 0.854248 14.943 0.94165 15.1556C0.992065 15.2806 1.04251 15.4056 1.09628 15.5307C1.25427 15.9214 1.45932 16.2684 1.74503 16.5403C2.13831 16.9123 2.59546 17.006 3.0795 16.9873C3.44589 16.9716 3.81229 16.9967 4.17868 17.0092C4.6123 17.0248 5.04257 17.0592 5.4762 17.0904C5.58038 17.0967 5.68124 17.0811 5.77872 17.0342C5.97034 16.9435 6.16864 16.9248 6.37033 17.0154C6.72327 17.1717 7.08966 17.1998 7.45941 17.1529C7.76532 17.1154 8.0712 17.0967 8.38046 17.1029C8.63928 17.1061 8.8981 17.1061 9.16031 17.1311C9.40567 17.1529 9.65442 17.1123 9.89981 17.0904C10.4578 17.0373 11.0158 17.1311 11.5738 17.1529C12.2494 17.1811 12.9217 17.2436 13.5974 17.2123C13.8831 17.1998 14.1688 17.1404 14.4545 17.1592C14.6226 17.1717 14.7873 17.1717 14.9554 17.1811C15.3083 17.1936 15.6646 17.1592 16.0176 17.1779C16.3638 17.1967 16.71 17.1936 17.0562 17.1748C17.6512 17.1404 18.2462 17.0967 18.8378 17.0967C19.5101 17.0998 20.179 17.1186 20.8513 17.1029C21.7622 17.0779 22.6732 17.1217 23.5807 17.1061C23.8127 17.1029 24.0446 17.1248 24.2766 17.0904C24.374 17.0748 24.4749 17.0529 24.5724 17.0904C24.7202 17.1467 24.8413 17.0248 24.9791 17.006C25.0127 17.0029 25.0329 16.9623 25.0396 16.9248C25.0799 16.7028 25.2076 16.5559 25.3421 16.4153Z"
        fill="black"
    />
    <path
        d="M34.4146 8.78835C34.4247 9.32911 34.3709 9.86986 34.3474 10.4106C34.3238 10.9076 34.3104 11.4078 34.3306 11.9079C34.3474 12.3799 34.3474 12.8518 34.297 13.3207C34.2734 13.5145 34.2062 13.6989 34.1558 13.8865C34.1524 13.9052 34.1323 13.9209 34.1154 13.9334C34.0381 14.0021 33.9911 14.1021 34.0011 14.2116C34.0247 14.4366 33.9272 14.5773 33.8028 14.7085C33.6953 14.8242 33.5776 14.9274 33.4869 15.068C33.4297 15.1555 33.3457 15.2087 33.2515 15.2337C33.0734 15.2868 32.9053 15.3743 32.744 15.4837C32.4515 15.6838 32.1255 15.7025 31.7994 15.6838C31.4297 15.6588 31.0599 15.6494 30.6935 15.7307C30.6061 15.7494 30.5154 15.7557 30.4246 15.7526C30.2364 15.7432 30.0481 15.7432 29.8565 15.7557C29.7153 15.7682 29.5742 15.7713 29.433 15.7557C29.2347 15.7338 29.0363 15.7494 28.838 15.7713C28.559 15.8026 28.28 15.8307 27.9977 15.812C27.6851 15.7869 27.3792 15.8838 27.0699 15.8901C26.8245 15.8932 26.5825 15.887 26.3371 15.8776C26.2666 15.8745 26.1926 15.8463 26.1455 15.7869C25.9439 15.5369 25.6817 15.465 25.4127 15.44C25.201 15.4212 25.0127 15.3306 24.8312 15.2181C24.8043 15.2056 24.7909 15.168 24.7707 15.143C24.7438 15.1086 24.727 15.043 24.6766 15.0805C24.6295 15.1149 24.6531 15.1743 24.6699 15.2181C24.7203 15.3743 24.8111 15.4994 24.9321 15.5775C25.0127 15.6307 25.0161 15.6682 24.9657 15.7557C24.8884 15.8838 24.8144 16.0151 24.7775 16.1683C24.7606 16.2339 24.7169 16.2339 24.6732 16.2308C24.5993 16.2277 24.5287 16.2339 24.4514 16.2683C24.3505 16.3121 24.2363 16.2808 24.1388 16.2402C23.8766 16.137 23.6077 16.1027 23.332 16.1214C23.1808 16.1308 23.0329 16.137 22.8816 16.1151C22.6127 16.0776 22.3404 16.0901 22.0715 16.112C21.6917 16.1402 21.3152 16.0808 20.9354 16.0589C20.5387 16.0401 20.1387 16.0151 19.7421 15.9807C19.1236 15.9245 18.5017 15.9714 17.8798 15.9589C17.0462 15.9432 16.2092 16.0089 15.3756 15.9745C14.4747 15.9401 13.5739 15.9589 12.6764 15.8995C11.9638 15.8526 11.2545 15.8432 10.5452 15.8213C10.1486 15.8088 9.75533 15.8182 9.35866 15.8245C9.21077 15.8276 9.06285 15.8151 8.91497 15.8151C8.46788 15.8213 8.02419 15.8463 7.57714 15.8682C7.23088 15.8838 6.8813 15.8713 6.53508 15.8526C6.14516 15.8338 5.75188 15.8432 5.3586 15.8369C4.95522 15.8338 4.55187 15.7838 4.14513 15.8338C3.90309 15.862 3.66445 15.9245 3.41905 15.9088C2.98207 15.8807 2.55519 15.8276 2.15853 15.5838C2.09465 15.5431 2.04088 15.4869 1.98375 15.4337C1.94341 15.3931 1.90306 15.3493 1.85601 15.3149C1.74843 15.2431 1.63753 15.1899 1.58708 15.0211C1.54338 14.8836 1.40895 14.8398 1.29802 14.7867C1.26104 14.7648 1.23751 14.7429 1.21733 14.6867C1.04256 14.1553 1.05599 13.602 1.09633 13.0519C1.12657 12.5768 1.10305 12.1079 1.06609 11.6359C1.04927 11.3859 1.0627 11.1327 1.0728 10.8826C1.08623 10.62 1.09969 10.3606 1.09633 10.0949C1.09297 9.72921 1.07952 9.3635 1.13332 8.99465C1.18038 8.66332 1.12657 8.32573 1.12993 7.98815C1.13332 7.4224 1.16356 6.85976 1.19716 6.294C1.21062 6.08144 1.18709 5.86889 1.19045 5.65633C1.20391 5.14371 1.22408 4.62795 1.18709 4.11533C1.15685 3.70586 1.19045 3.31202 1.27449 2.91816C1.28792 2.84627 1.30809 2.78063 1.33834 2.71499C1.5165 2.32114 1.7686 2.02732 2.09465 1.81476C2.70644 1.41779 3.34511 1.1646 4.05437 1.20524C4.7737 1.24276 5.49306 1.28963 6.21239 1.29902C6.97542 1.31151 7.73509 1.29276 8.49816 1.29276C9.09313 1.29276 9.68471 1.35528 10.2797 1.36466C11.2343 1.37716 12.189 1.3209 13.1436 1.32715C13.6814 1.33027 14.2193 1.35527 14.7537 1.33652C15.7453 1.30214 16.7336 1.29276 17.7218 1.28339C18.4412 1.27713 19.1572 1.28652 19.8732 1.29902C20.8244 1.31464 21.7757 1.3084 22.727 1.31151C23.5371 1.31464 24.3438 1.34591 25.1506 1.33965C25.3691 1.33652 25.5842 1.33027 25.8027 1.35528C26.0111 1.38028 26.2128 1.32715 26.4144 1.27401C26.8077 1.17711 27.2044 1.13961 27.6044 1.15836C28.5019 1.19274 29.4027 1.17711 30.3036 1.18648C31.0028 1.19587 31.6986 1.22712 32.3877 1.38341C32.781 1.47094 33.1406 1.64597 33.4633 1.91791C33.7726 2.17423 33.9776 2.52744 34.0919 2.95879C34.2869 3.67147 34.3407 4.40603 34.3608 5.15308C34.3844 5.94703 34.3944 6.73784 34.4112 7.53179C34.4112 7.95064 34.4045 8.3695 34.4146 8.78835Z"
        fill="#EFB469"
    />
    <path
        d="M34.2094 14.7148C34.1758 14.893 34.1388 15.0399 34.1187 15.19C34.0817 15.4932 33.9573 15.7401 33.8061 15.9745C33.7489 16.0621 33.6951 16.1527 33.6346 16.2402C33.5002 16.4403 33.3422 16.5966 33.1304 16.6685C32.9018 16.7497 32.6867 16.8873 32.4447 16.9341C32.122 16.9967 31.7926 17.0029 31.4699 17.0685C30.6295 17.2405 29.7824 17.1779 28.9387 17.1842C28.5522 17.1873 28.169 17.1561 27.7824 17.1342C27.4664 17.1154 27.1471 17.1342 26.8311 17.0873C26.6093 17.056 26.3874 17.0373 26.1656 17.0373C26.0311 17.0342 26.0076 16.9967 26.0042 16.8341C26.0009 16.806 26.0076 16.7778 25.9975 16.7528C25.9269 16.5591 26.011 16.4215 26.1151 16.2934C26.1622 16.234 26.2059 16.1714 26.2462 16.1058C26.2597 16.0839 26.2698 16.0652 26.2967 16.0683C26.5622 16.1058 26.8244 16.0277 27.0866 16.0277C27.3118 16.0277 27.5404 16.0027 27.769 16.0152C27.9807 16.0245 28.1959 16.0183 28.411 16.0089C28.7875 15.9933 29.1673 16.0214 29.5472 16.0089C29.843 15.9964 30.1421 16.0058 30.4413 16.0621C30.7505 16.1214 31.0699 16.0902 31.3825 16.1214C31.6816 16.1527 31.9808 16.1152 32.2766 16.1121C32.3438 16.1121 32.4043 16.0902 32.4648 16.0558C32.6665 15.9464 32.8716 15.8526 33.0565 15.6995C33.1573 15.6182 33.2749 15.5869 33.3926 15.5619C33.5136 15.5369 33.5976 15.4557 33.6884 15.3587C33.8632 15.1618 34.0111 14.9305 34.2094 14.7148Z"
        fill="#B87F2C"
    />
    <path
        d="M26.0009 15.9089C26.0278 15.9339 26.0211 15.9496 25.9975 15.9715C25.9034 16.0558 25.8463 16.1809 25.7958 16.3028C25.7622 16.3809 25.732 16.3684 25.6984 16.3184C25.658 16.259 25.6211 16.1965 25.5874 16.1277C25.5337 16.0152 25.4933 15.8964 25.416 15.7714C25.5404 15.7714 25.6412 15.7714 25.7421 15.7683C25.8496 15.7652 25.9202 15.8433 26.0009 15.9089Z"
        fill="#B87F2C"
    />
    <path
        d="M25.3689 16.2872C25.389 16.3465 25.379 16.3747 25.342 16.4153C25.2075 16.556 25.0798 16.7029 25.0395 16.9248C25.0328 16.9623 25.0126 17.0029 24.979 17.0061C24.8412 17.0248 24.7201 17.1467 24.5722 17.0905C24.4748 17.053 24.3739 17.0748 24.2764 17.0905C24.0445 17.1249 23.8126 17.103 23.5806 17.1061C22.673 17.1217 21.7621 17.078 20.8512 17.103C20.1789 17.1186 19.51 17.0999 18.8377 17.0967C18.2461 17.0967 17.6511 17.1405 17.0561 17.1749C16.7099 17.1936 16.3637 17.1967 16.0175 17.178C15.6645 17.1592 15.3082 17.1936 14.9552 17.1811C14.7872 17.1717 14.6225 17.1717 14.4544 17.1592C14.1687 17.1405 13.883 17.1999 13.5972 17.2124C12.9216 17.2436 12.2493 17.1811 11.5737 17.153C11.0157 17.1311 10.4577 17.0373 9.8997 17.0905C9.65431 17.1124 9.40556 17.153 9.1602 17.1311C8.89799 17.1061 8.63917 17.1061 8.38035 17.103C8.07108 17.0967 7.76521 17.1155 7.4593 17.153C7.08955 17.1999 6.72315 17.1717 6.37022 17.0155C6.16853 16.9248 5.97022 16.9436 5.7786 17.0342C5.68113 17.0811 5.58027 17.0967 5.47608 17.0905C5.04246 17.0592 4.61219 17.0248 4.17857 17.0092C3.81217 16.9967 3.44578 16.9717 3.07938 16.9873C2.59535 17.0061 2.13819 16.9123 1.74491 16.5403C1.45921 16.2684 1.25416 15.9214 1.09617 15.5307C1.0424 15.4057 0.991952 15.2807 0.941537 15.1556C0.854135 14.9431 0.844064 14.718 0.857522 14.4867C0.867593 14.3054 0.87095 14.1272 0.847421 13.946C0.83735 13.8647 0.844064 13.7772 0.847421 13.6928C0.850778 12.9613 0.810433 12.2299 0.803719 11.4985C0.797005 10.4982 0.793648 9.50111 0.803719 8.50087C0.817177 7.40372 0.817178 6.30345 0.867593 5.20319C0.891122 4.72495 0.924722 4.24983 1.00877 3.77783C1.0424 4.44362 1.04911 5.10941 1.00877 5.77521C1.00877 5.81271 1.00205 5.85335 1.00877 5.89085C1.07264 6.37222 0.988595 6.85359 0.985238 7.33496C0.981881 7.71005 0.968423 8.08514 0.978524 8.46024C0.985238 8.73531 0.985238 9.01036 0.958352 9.2823C0.921365 9.65739 0.944894 10.0325 0.944894 10.4076C0.941537 10.6983 0.901193 10.9859 0.921365 11.2766C0.948251 11.6641 0.954995 12.0549 0.975167 12.4456C0.985238 12.63 0.988595 12.8176 0.954995 12.9988C0.911294 13.252 0.921365 13.5083 0.928109 13.7615C0.931466 13.8928 0.944894 14.0272 0.93818 14.1585C0.931466 14.3586 0.968423 14.5461 1.01548 14.7336C1.0424 14.843 1.09281 14.9181 1.18357 14.9525C1.23063 14.9712 1.27769 14.9931 1.32475 15.0181C1.39869 15.0619 1.46256 15.1244 1.47263 15.2338C1.47938 15.3088 1.51633 15.3557 1.57349 15.3713C1.74491 15.4244 1.87602 15.5526 2.00712 15.6933C2.18189 15.8808 2.41047 15.9683 2.6424 15.9965C3.03233 16.0402 3.42225 16.0683 3.81556 16.0121C4.19538 15.959 4.57523 15.9433 4.95841 15.9965C5.26432 16.0371 5.57691 16.0152 5.88282 16.0183C6.31644 16.0215 6.75007 16.0496 7.18366 16.059C7.62739 16.0683 8.07108 16.0183 8.51478 16.009C8.8375 16.0027 9.16355 16.0277 9.48625 16.0215C10.1921 16.009 10.8947 15.9996 11.5972 16.0246C12.1518 16.0433 12.7031 16.0683 13.2544 16.0996C13.7922 16.1277 14.33 16.0934 14.8645 16.1184C15.5502 16.1496 16.2359 16.1246 16.9183 16.1121C17.6276 16.0996 18.3335 16.1184 19.0393 16.1152C19.3856 16.1152 19.7285 16.159 20.0713 16.1871C20.4243 16.2153 20.7772 16.2278 21.1302 16.2559C21.5638 16.2903 21.9974 16.2903 22.431 16.259C22.5991 16.2465 22.7638 16.2778 22.9285 16.3059C23.2378 16.359 23.5504 16.359 23.863 16.3747C23.9537 16.3809 24.0445 16.3778 24.1218 16.4466C24.1386 16.4622 24.1689 16.4747 24.1857 16.4591C24.2529 16.3747 24.3067 16.4434 24.3605 16.4778C24.421 16.5153 24.4748 16.5216 24.5353 16.4903C24.6294 16.4403 24.7235 16.3872 24.8176 16.3372C24.8412 16.3247 24.8579 16.3028 24.8647 16.2684C24.905 16.0652 25.0361 15.9277 25.1202 15.7558C25.147 15.6995 25.1739 15.6995 25.1975 15.7714C25.2512 15.9464 25.305 16.1184 25.3689 16.2872Z"
        fill="#B87F2C"
    />
    <path
        d="M1.20776 4.95532L15.0186 5.35117"
        stroke="#CE9142"
        stroke-miterlimit="10"
        stroke-linecap="round"
        stroke-linejoin="round"
    />
    <path
        d="M7.10443 8.66182L0.977783 8.46094"
        stroke="#CE9142"
        stroke-miterlimit="10"
        stroke-linecap="round"
        stroke-linejoin="round"
    />
    <path
        d="M24.5736 13.1774C26.944 13.3056 29.3145 13.4338 31.6849 13.5621C32.328 13.5968 32.3261 12.5967 31.6849 12.5621C29.3145 12.4338 26.944 12.3056 24.5736 12.1774C23.9306 12.1426 23.9325 13.1427 24.5736 13.1774Z"
        fill="#CE9142"
    />
    <path
        d="M30.2202 11.089C30.7787 11.183 31.3425 11.2283 31.9087 11.2057C32.1697 11.1953 32.4211 10.9832 32.4087 10.7057C32.397 10.4437 32.1886 10.1945 31.9087 10.2057C31.4782 10.2229 31.0475 10.2034 30.6203 10.1474C30.6646 10.1533 30.7089 10.1593 30.7532 10.1652C30.6639 10.1532 30.5749 10.1396 30.486 10.1247C30.3498 10.1017 30.2241 10.1029 30.1008 10.1751C29.997 10.2358 29.8981 10.3547 29.871 10.4739C29.8418 10.6019 29.8481 10.7456 29.9214 10.8592C29.9878 10.9622 30.0941 11.0677 30.2202 11.089Z"
        fill="#CE9142"
    />
    <path
        d="M23.6297 5.3616C27.0554 5.39528 30.4812 5.42895 33.907 5.46262C34.5506 5.46895 34.5512 4.46895 33.907 4.46262C30.4812 4.42895 27.0554 4.39528 23.6297 4.3616C22.986 4.35528 22.9855 5.35527 23.6297 5.3616Z"
        fill="#CE9142"
    />
    <path
        d="M5.909 13.5854C9.13132 13.3791 12.3627 13.4448 15.5739 13.7821C16.2132 13.8492 16.2085 12.8487 15.5739 12.7821C12.3627 12.4448 9.13132 12.3791 5.909 12.5854C5.26993 12.6263 5.26535 13.6266 5.909 13.5854Z"
        fill="#CE9142"
    />
    <path
        d="M0.578613 9.32914C0.602142 8.41642 0.629059 7.5037 0.6492 6.59097C0.662658 5.93769 0.655945 5.28128 0.689545 4.62799C0.709717 4.19664 0.733246 3.76216 0.827362 3.34018C0.924835 2.8932 1.0694 2.46496 1.34839 2.14302C1.71814 1.71791 2.15848 1.42096 2.64252 1.22404C2.90808 1.11776 3.17364 1.01773 3.45264 0.980221C3.59381 0.964596 3.73163 0.964596 3.86945 0.967724C4.31314 0.986477 4.76358 0.989606 5.20728 1.03961C5.83588 1.11151 6.46445 1.13339 7.09302 1.16464C7.35187 1.17715 7.61404 1.15527 7.87286 1.12713C8.16531 1.09588 8.45776 1.09275 8.75021 1.10838C9.39896 1.14589 10.0477 1.11776 10.6965 1.124C11.5738 1.13339 12.4444 1.05838 13.3217 1.06462C13.7822 1.06462 14.2461 1.09275 14.71 1.09588C14.8848 1.09901 15.0629 1.08024 15.2377 1.04899C15.4797 1.00836 15.7218 1.0021 15.9671 0.992734C16.6697 0.967725 17.3756 0.989605 18.0781 0.977093C19.1235 0.961468 20.1689 1.03337 21.2109 1.03961C21.6244 1.04274 22.0345 1.04899 22.4479 1.02086C22.8311 0.995862 23.211 1.06462 23.5908 1.0865C24.2295 1.11776 24.8648 1.15214 25.5001 1.08024C25.8732 1.03961 26.2497 1.0021 26.6194 0.936459C26.7774 0.908337 26.9354 0.905209 27.0934 0.911465C27.9102 0.936459 28.7237 0.889584 29.5405 0.889584C30.4481 0.886456 31.3557 0.905209 32.2532 1.06149C32.7406 1.14276 33.191 1.33969 33.591 1.67727C33.9171 1.95547 34.1154 2.34306 34.2263 2.8088C34.3473 3.33705 34.4515 3.86531 34.5188 4.40294C34.5725 4.80304 34.6129 5.20314 34.6263 5.60324C34.6633 6.86291 34.6667 8.11947 34.6465 9.37916C34.6364 9.89491 34.586 10.4138 34.5658 10.9295C34.5389 11.5953 34.5658 12.2611 34.5356 12.9269C34.5053 13.5802 34.5188 14.2366 34.4179 14.8836C34.3843 15.0837 34.3507 15.2869 34.3103 15.4838C34.2734 15.6651 34.1826 15.8214 34.0952 15.9745C33.9843 16.1652 33.8599 16.3434 33.7423 16.5247C33.6246 16.706 33.4734 16.831 33.2986 16.9216C33.0666 17.0373 32.8448 17.1811 32.5927 17.228C32.2061 17.303 31.8128 17.328 31.4229 17.3499C31.0565 17.3686 30.6901 17.3936 30.3237 17.4061C30.159 17.4124 29.9909 17.3999 29.8229 17.3936C29.3086 17.3811 28.7943 17.4499 28.28 17.4311C27.7119 17.4155 27.1438 17.3905 26.5791 17.3155C26.4312 17.2967 26.2833 17.2967 26.1354 17.2811C25.9371 17.2623 25.7724 17.0717 25.7556 16.831C25.7522 16.7528 25.7287 16.7153 25.6715 16.6903C25.6278 16.6716 25.5875 16.6434 25.5573 16.6028C25.4967 16.5247 25.4497 16.5403 25.3959 16.6122C25.3051 16.731 25.2211 16.8466 25.1438 16.9779C25.0665 17.1092 24.9589 17.2123 24.8547 17.3186C24.811 17.3655 24.7438 17.3655 24.6866 17.353C24.4749 17.3092 24.2631 17.3499 24.0547 17.353C23.0799 17.3592 22.1051 17.3249 21.1303 17.3311C20.0815 17.3374 19.0294 17.2717 17.9773 17.328C17.6277 17.3467 17.2781 17.3749 16.9285 17.4093C16.7201 17.4311 16.5117 17.4186 16.3033 17.4124C15.7083 17.3999 15.1133 17.3717 14.5184 17.3686C14.0343 17.3686 13.5503 17.4343 13.0629 17.4186C12.236 17.3905 11.4057 17.3655 10.5788 17.2655C10.2897 17.2311 10.0006 17.253 9.71494 17.2936C9.28803 17.3499 8.86786 17.3092 8.44431 17.2905C8.16531 17.278 7.88968 17.2811 7.61404 17.2905C7.27118 17.2998 6.92831 17.2873 6.58209 17.2748C6.46445 17.2686 6.35352 17.2061 6.24258 17.1592C6.10477 17.0998 5.96024 17.1029 5.83588 17.1811C5.62073 17.3124 5.39215 17.3374 5.16022 17.3124C4.58542 17.253 4.01062 17.2623 3.43582 17.2498C3.05936 17.2405 2.68286 17.2217 2.31647 17.1279C1.76184 16.9873 1.34503 16.5903 1.05258 16.0027C0.797119 15.4932 0.692902 14.9337 0.669373 14.346C0.608887 12.8238 0.575257 11.3046 0.585358 9.78238C0.588715 9.63235 0.585358 9.47918 0.585358 9.32914C0.581998 9.32914 0.582 9.32914 0.578613 9.32914Z"
        stroke="black"
        stroke-width="0.324145"
        stroke-miterlimit="10"
    />
    <path
        d="M34.4112 7.53179C34.3944 6.73784 34.3844 5.94703 34.3608 5.15308C34.3407 4.40603 34.2869 3.67147 34.0919 2.95879C33.9776 2.52744 33.7726 2.17423 33.4633 1.91791C33.1406 1.64597 32.781 1.47094 32.3877 1.38341C31.6986 1.22712 31.0028 1.19587 30.3036 1.18648C29.4027 1.17711 28.5019 1.19274 27.6044 1.15836C27.2044 1.13961 26.8077 1.17711 26.4144 1.27401C26.2128 1.32715 26.0111 1.38028 25.8027 1.35528C25.5842 1.33027 25.3691 1.33652 25.1506 1.33965C24.3438 1.34591 23.5371 1.31464 22.727 1.31151C21.7757 1.3084 20.8244 1.31464 19.8732 1.29902C19.1572 1.28652 18.4412 1.27713 17.7218 1.28339C16.7336 1.29276 15.7453 1.30214 14.7537 1.33652C14.2193 1.35527 13.6814 1.33027 13.1436 1.32715C12.189 1.3209 11.2343 1.37716 10.2797 1.36466C9.68471 1.35528 9.09313 1.29276 8.49816 1.29276C7.73509 1.29276 6.97542 1.31151 6.21239 1.29902C5.49306 1.28963 4.7737 1.24276 4.05437 1.20524C3.34511 1.1646 2.70644 1.41779 2.09465 1.81476C1.7686 2.02732 1.5165 2.32114 1.33834 2.71499C1.30809 2.78063 1.28792 2.84627 1.27449 2.91816C1.19045 3.31202 1.15685 3.70586 1.18709 4.11533C1.22408 4.62795 1.20391 5.14371 1.19045 5.65633C1.18709 5.86889 1.21062 6.08144 1.19716 6.294C1.16356 6.85976 1.13332 7.4224 1.12993 7.98815C1.12657 8.32573 1.18038 8.66332 1.13332 8.99465C1.07952 9.3635 1.09297 9.72921 1.09633 10.0949C1.09969 10.3606 1.08623 10.62 1.0728 10.8826C1.0627 11.1327 1.04927 11.3859 1.06609 11.6359C1.10305 12.1079 1.12657 12.5768 1.09633 13.0519C1.05599 13.602 1.04256 14.1553 1.21733 14.6867C1.23751 14.7429 1.26104 14.7648 1.29802 14.7867C1.40895 14.8398 1.54338 14.8836 1.58708 15.0211C1.63753 15.1899 1.74843 15.2431 1.85601 15.3149C1.90306 15.3493 1.94341 15.3931 1.98375 15.4337C2.04088 15.4869 2.09465 15.5431 2.15853 15.5838C2.55519 15.8276 2.98207 15.8807 3.41905 15.9088C3.66445 15.9245 3.90309 15.862 4.14513 15.8338C4.55187 15.7838 4.95522 15.8338 5.3586 15.8369C5.75188 15.8432 6.14516 15.8338 6.53508 15.8526C6.8813 15.8713 7.23088 15.8838 7.57714 15.8682C8.02419 15.8463 8.46788 15.8213 8.91497 15.8151C9.06285 15.8151 9.21077 15.8276 9.35866 15.8245C9.75533 15.8182 10.1486 15.8088 10.5452 15.8213C11.2545 15.8432 11.9638 15.8526 12.6764 15.8995C13.5739 15.9589 14.4747 15.9401 15.3756 15.9745C16.2092 16.0089 17.0462 15.9432 17.8798 15.9589C18.5017 15.9714 19.1236 15.9245 19.7421 15.9807C20.1387 16.0151 20.5387 16.0401 20.9354 16.0589C21.3152 16.0808 21.6917 16.1402 22.0715 16.112C22.3404 16.0901 22.6127 16.0776 22.8816 16.1151C23.0329 16.137 23.1808 16.1308 23.332 16.1214C23.6077 16.1027 23.8766 16.137 24.1388 16.2402C24.2363 16.2808 24.3505 16.3121 24.4514 16.2683C24.5287 16.2339 24.5993 16.2277 24.6732 16.2308C24.7169 16.2339 24.7606 16.2339 24.7775 16.1683C24.8144 16.0151 24.8884 15.8838 24.9657 15.7557C25.0161 15.6682 25.0127 15.6307 24.9321 15.5775C24.8111 15.4994 24.7203 15.3743 24.6699 15.2181C24.6531 15.1743 24.6295 15.1149 24.6766 15.0805C24.727 15.043 24.7438 15.1086 24.7707 15.143C24.7909 15.168 24.8043 15.2056 24.8312 15.2181C25.0127 15.3306 25.201 15.4212 25.4127 15.44C25.6817 15.465 25.9439 15.5369 26.1455 15.7869C26.1926 15.8463 26.2666 15.8745 26.3371 15.8776C26.5825 15.887 26.8245 15.8932 27.0699 15.8901C27.3792 15.8838 27.6851 15.7869 27.9977 15.812C28.28 15.8307 28.559 15.8026 28.838 15.7713C29.0363 15.7494 29.2347 15.7338 29.433 15.7557C29.5742 15.7713 29.7153 15.7682 29.8565 15.7557C30.0481 15.7432 30.2364 15.7432 30.4246 15.7526C30.5154 15.7557 30.6061 15.7494 30.6935 15.7307C31.0599 15.6494 31.4297 15.6588 31.7994 15.6838C32.1255 15.7025 32.4515 15.6838 32.744 15.4837C32.9053 15.3743 33.0734 15.2868 33.2515 15.2337C33.3457 15.2087 33.4297 15.1555 33.4869 15.068C33.5776 14.9274 33.6953 14.8242 33.8028 14.7085C33.9272 14.5773 34.0247 14.4366 34.0011 14.2116C33.9911 14.1021 34.0381 14.0021 34.1154 13.9334C34.1323 13.9209 34.1524 13.9052 34.1558 13.8865C34.2062 13.6989 34.2734 13.5145 34.297 13.3207C34.3474 12.8518 34.3474 12.3799 34.3306 11.9079C34.3104 11.4078 34.3238 10.9076 34.3474 10.4106C34.3709 9.86986 34.4247 9.32911 34.4146 8.78835C34.4045 8.3695 34.4112 7.95064 34.4112 7.53179Z"
        stroke="black"
        stroke-width="0.324145"
        stroke-miterlimit="10"
    />
    <path
        d="M1.00877 3.77783C0.924722 4.24983 0.891122 4.72495 0.867593 5.20319C0.817178 6.30345 0.817177 7.40372 0.803719 8.50087C0.793648 9.50111 0.797005 10.4982 0.803719 11.4985C0.810433 12.2299 0.850778 12.9613 0.847421 13.6928C0.844064 13.7772 0.83735 13.8647 0.847421 13.946C0.87095 14.1272 0.867593 14.3054 0.857522 14.4867C0.844064 14.718 0.854135 14.9431 0.941537 15.1556C0.991952 15.2807 1.0424 15.4057 1.09617 15.5307C1.25416 15.9214 1.45921 16.2684 1.74491 16.5403C2.13819 16.9123 2.59534 17.0061 3.07938 16.9873C3.44578 16.9717 3.81217 16.9967 4.17857 17.0092C4.61219 17.0248 5.04246 17.0592 5.47608 17.0905C5.58027 17.0967 5.68113 17.0811 5.7786 17.0342C5.97022 16.9436 6.16853 16.9248 6.37022 17.0155C6.72315 17.1717 7.08955 17.1999 7.4593 17.153C7.76521 17.1155 8.07108 17.0967 8.38035 17.103C8.63917 17.1061 8.89799 17.1061 9.1602 17.1311C9.40556 17.153 9.65431 17.1124 9.8997 17.0905C10.4577 17.0373 11.0157 17.1311 11.5737 17.153C12.2493 17.1811 12.9216 17.2436 13.5972 17.2124C13.883 17.1999 14.1687 17.1405 14.4544 17.1592C14.6225 17.1717 14.7872 17.1717 14.9552 17.1811C15.3082 17.1936 15.6645 17.1592 16.0175 17.178C16.3637 17.1967 16.7099 17.1936 17.0561 17.1749C17.6511 17.1405 18.2461 17.0967 18.8377 17.0967C19.51 17.0999 20.1789 17.1186 20.8512 17.103C21.7621 17.078 22.673 17.1217 23.5806 17.1061C23.8126 17.103 24.0445 17.1249 24.2764 17.0905C24.3739 17.0748 24.4748 17.053 24.5722 17.0905C24.7201 17.1467 24.8412 17.0248 24.979 17.0061C25.0126 17.0029 25.0328 16.9623 25.0395 16.9248C25.0798 16.7029 25.2075 16.556 25.342 16.4153C25.379 16.3747 25.389 16.3465 25.3689 16.2872C25.305 16.1184 25.2512 15.9464 25.1975 15.7714C25.1739 15.6995 25.147 15.6995 25.1202 15.7558C25.0361 15.9277 24.905 16.0652 24.8647 16.2684C24.8579 16.3028 24.8412 16.3247 24.8176 16.3372C24.7235 16.3872 24.6294 16.4403 24.5353 16.4903C24.4748 16.5216 24.421 16.5153 24.3605 16.4778C24.3067 16.4434 24.2529 16.3747 24.1857 16.4591C24.1689 16.4747 24.1386 16.4622 24.1218 16.4466C24.0445 16.3778 23.9537 16.3809 23.863 16.3747C23.5504 16.359 23.2378 16.359 22.9285 16.3059C22.7638 16.2778 22.5991 16.2465 22.431 16.259C21.9974 16.2903 21.5638 16.2903 21.1302 16.2559C20.7772 16.2278 20.4243 16.2153 20.0713 16.1871C19.7285 16.159 19.3856 16.1152 19.0393 16.1152C18.3335 16.1184 17.6276 16.0996 16.9183 16.1121C16.2359 16.1246 15.5502 16.1496 14.8645 16.1184C14.33 16.0934 13.7922 16.1277 13.2544 16.0996C12.7031 16.0683 12.1518 16.0433 11.5972 16.0246C10.8947 15.9996 10.1921 16.009 9.48625 16.0215C9.16355 16.0277 8.8375 16.0027 8.51478 16.009C8.07108 16.0183 7.62739 16.0683 7.18366 16.059C6.75007 16.0496 6.31645 16.0215 5.88282 16.0183C5.57691 16.0152 5.26432 16.0371 4.95841 15.9965C4.57523 15.9433 4.19538 15.959 3.81556 16.0121C3.42225 16.0683 3.03233 16.0402 2.6424 15.9965C2.41047 15.9683 2.18189 15.8808 2.00712 15.6933C1.87602 15.5526 1.74491 15.4244 1.57349 15.3713C1.51634 15.3557 1.47938 15.3088 1.47263 15.2338C1.46256 15.1244 1.39869 15.0619 1.32475 15.0181C1.27769 14.9931 1.23063 14.9712 1.18357 14.9525C1.09281 14.9181 1.0424 14.843 1.01548 14.7336C0.968423 14.5461 0.931466 14.3586 0.93818 14.1585C0.944894 14.0272 0.931466 13.8928 0.928109 13.7615C0.921365 13.5083 0.911294 13.252 0.954995 12.9988C0.988595 12.8176 0.985238 12.63 0.975167 12.4456C0.954995 12.0549 0.94825 11.6641 0.921365 11.2766C0.901193 10.9859 0.941537 10.6983 0.944894 10.4076C0.944894 10.0325 0.921365 9.65739 0.958352 9.2823C0.985238 9.01036 0.985238 8.73531 0.978524 8.46024C0.968423 8.08514 0.981881 7.71005 0.985238 7.33496C0.988595 6.85359 1.07264 6.37222 1.00877 5.89085C1.00205 5.85335 1.00877 5.81271 1.00877 5.77521C1.04911 5.1094 1.0424 4.44362 1.00877 3.77783Z"
        stroke="black"
        stroke-width="0.324145"
        stroke-miterlimit="10"
    />
    <path
        d="M34.2094 14.7148C34.0111 14.9305 33.8632 15.1618 33.6884 15.3587C33.5976 15.4557 33.5136 15.5369 33.3926 15.5619C33.2749 15.5869 33.1573 15.6182 33.0565 15.6995C32.8716 15.8526 32.6665 15.9464 32.4648 16.0558C32.4043 16.0902 32.3438 16.1121 32.2766 16.1121C31.9808 16.1152 31.6816 16.1527 31.3825 16.1214C31.0699 16.0902 30.7505 16.1214 30.4413 16.0621C30.1421 16.0058 29.843 15.9964 29.5472 16.0089C29.1673 16.0214 28.7875 15.9933 28.411 16.0089C28.1959 16.0183 27.9807 16.0245 27.769 16.0152C27.5404 16.0027 27.3118 16.0277 27.0866 16.0277C26.8244 16.0277 26.5622 16.1058 26.2967 16.0683C26.2698 16.0652 26.2597 16.0839 26.2462 16.1058C26.2059 16.1714 26.1622 16.234 26.1151 16.2934C26.011 16.4215 25.9269 16.5591 25.9975 16.7528C26.0076 16.7778 26.0009 16.806 26.0042 16.8341C26.0076 16.9967 26.0311 17.0342 26.1656 17.0373C26.3874 17.0373 26.6093 17.056 26.8311 17.0873C27.1471 17.1342 27.4664 17.1154 27.7824 17.1342C28.169 17.1561 28.5522 17.1873 28.9387 17.1842C29.7824 17.1779 30.6295 17.2405 31.4699 17.0685C31.7926 17.0029 32.122 16.9967 32.4447 16.9341C32.6867 16.8873 32.9018 16.7497 33.1304 16.6685C33.3422 16.5966 33.5002 16.4403 33.6346 16.2402C33.6951 16.1527 33.7489 16.0621 33.8061 15.9745C33.9573 15.7401 34.0817 15.4932 34.1187 15.19C34.1388 15.0399 34.1758 14.893 34.2094 14.7148Z"
        stroke="black"
        stroke-width="0.324145"
        stroke-miterlimit="10"
    />
    <path
        d="M25.416 15.7714C25.4933 15.8964 25.5337 16.0152 25.5874 16.1277C25.6211 16.1965 25.658 16.259 25.6984 16.3184C25.732 16.3684 25.7622 16.3809 25.7958 16.3028C25.8463 16.1809 25.9034 16.0558 25.9975 15.9715C26.0211 15.9496 26.0278 15.9339 26.0009 15.9089C25.9202 15.8433 25.8496 15.7652 25.7421 15.7683C25.6412 15.7714 25.5404 15.7714 25.416 15.7714Z"
        stroke="black"
        stroke-width="0.324145"
        stroke-miterlimit="10"
    />
    <path
        d="M19.436 19.9412C19.3975 23.0212 19.2883 26.1137 19.5772 29.3827C20.1064 28.5757 19.9783 20.7574 19.436 19.9412Z"
        fill="black"
    />
    <path
        d="M17.5472 32.9562C17.5708 30.7075 17.5944 28.4589 17.618 26.2102C17.5379 26.2049 17.4579 26.1995 17.3778 26.1942C16.9543 28.4263 17.2038 30.6926 17.1094 32.9415C17.2553 32.9464 17.4013 32.9513 17.5472 32.9562Z"
        fill="black"
    />
    <path
        d="M18.6093 17.2209C18.5682 17.7509 18.5204 18.2804 18.4891 18.811C18.4767 19.0205 18.5523 19.2376 18.7967 19.1997C18.8996 19.1837 19.0453 18.9551 19.0417 18.8268C19.0268 18.2917 18.9625 17.758 18.9163 17.2238C18.814 17.2229 18.7117 17.2219 18.6093 17.2209Z"
        fill="black"
    />
    <path
        d="M22.993 8.48804C22.993 11.028 22.3229 13.978 17.593 13.978C13.0229 13.978 12.2529 10.838 12.2529 8.48804C12.2529 6.30804 14.243 6.30804 14.243 6.30804C14.243 6.30804 13.743 2.73804 17.593 2.73804C21.5229 2.73804 20.8029 6.30804 20.8029 6.30804C20.8029 6.30804 22.993 6.30804 22.993 8.48804ZM19.3329 6.20804C19.3329 6.20804 19.3029 4.49805 17.5729 4.49805C15.8529 4.49805 15.7329 6.20804 15.7329 6.20804C16.933 5.96805 18.1329 5.95804 19.3329 6.20804ZM18.1029 10.228C18.5429 10.038 18.843 9.60805 18.843 9.09804C18.843 8.41804 18.2929 7.86804 17.623 7.86804C16.9429 7.86804 16.3929 8.41804 16.3929 9.09804C16.3929 9.60805 16.6929 10.038 17.1329 10.228V10.738C17.1329 11.008 17.3529 11.228 17.623 11.228C17.8829 11.228 18.1029 11.008 18.1029 10.738V10.228Z"
        fill="#FFE448"
    />
    <path
        d="M18.8431 9.09804C18.8431 9.60805 18.5431 10.038 18.1031 10.228V10.738C18.1031 11.008 17.8831 11.228 17.6231 11.228C17.3531 11.228 17.1331 11.008 17.1331 10.738V10.228C16.6931 10.038 16.3931 9.60805 16.3931 9.09804C16.3931 8.41804 16.9431 7.86804 17.6231 7.86804C18.2931 7.86804 18.8431 8.41804 18.8431 9.09804Z"
        fill="#997136"
    />
    <path
        d="M14.243 6.30804C14.243 6.30804 13.743 2.73804 17.593 2.73804C21.5229 2.73804 20.8029 6.30804 20.8029 6.30804C20.8029 6.30804 22.993 6.30804 22.993 8.48804C22.993 11.028 22.3229 13.978 17.593 13.978C13.0229 13.978 12.2529 10.838 12.2529 8.48804C12.2529 6.30804 14.243 6.30804 14.243 6.30804Z"
        stroke="black"
        stroke-width="0.75"
        stroke-miterlimit="10"
        stroke-linecap="round"
        stroke-linejoin="round"
    />
    <path
        d="M15.7329 6.20804C15.7329 6.20804 15.8529 4.49805 17.5729 4.49805C19.3029 4.49805 19.3329 6.20804 19.3329 6.20804C18.1329 5.95804 16.9329 5.96805 15.7329 6.20804Z"
        stroke="black"
        stroke-width="0.75"
        stroke-miterlimit="10"
        stroke-linecap="round"
        stroke-linejoin="round"
    />
    <path
        d="M18.8431 9.09804C18.8431 8.41804 18.2931 7.86804 17.6231 7.86804C16.9431 7.86804 16.3931 8.41804 16.3931 9.09804C16.3931 9.60805 16.6931 10.038 17.1331 10.228V10.738C17.1331 11.008 17.3531 11.228 17.6231 11.228C17.8831 11.228 18.1031 11.008 18.1031 10.738V10.228C18.5431 10.038 18.8431 9.60805 18.8431 9.09804Z"
        stroke="black"
        stroke-width="0.75"
        stroke-miterlimit="10"
        stroke-linecap="round"
        stroke-linejoin="round"
    />
</svg>