<svg width="81" height="45" viewBox="0 0 81 45" fill="none" xmlns="http://www.w3.org/2000/svg">
<path d="M17.1105 11.233C17.8595 10.6235 18.7915 10.2834 19.7569 10.2672C20.3304 10.2218 20.899 10.1281 21.4568 9.98708C21.8141 9.90982 21.6789 9.58142 21.6789 9.36894C21.6541 9.01006 21.7209 8.6508 21.8729 8.32477C22.025 7.99874 22.2573 7.71663 22.5481 7.50491C22.6471 7.40766 22.7675 7.33498 22.8997 7.29263C23.0318 7.25028 23.172 7.23944 23.3091 7.26103C23.4462 7.28263 23.5763 7.33603 23.689 7.41696C23.8017 7.49788 23.8939 7.60412 23.9582 7.72709C24.0065 7.7947 24.0258 7.94921 24.1128 7.89126C24.7116 7.52425 25.4263 8.23893 26.0444 7.67875C26.1024 8.22927 26.1989 8.78948 26.846 8.9247C27.1349 8.98807 27.437 8.93955 27.6915 8.789C27.946 8.63845 28.134 8.39703 28.2175 8.11338C28.2851 7.96851 28.401 7.85264 28.4783 7.71742C28.5004 7.65908 28.5351 7.60634 28.5799 7.56291C28.6247 7.51949 28.6785 7.48646 28.7375 7.46618C28.7965 7.4459 28.8593 7.43885 28.9213 7.44555C28.9833 7.45224 29.0431 7.4725 29.0964 7.50491C29.5679 7.71848 30.0909 7.79226 30.6031 7.71742C31.4434 7.71742 31.7428 7.47593 31.82 6.65498C31.8683 6.11412 32.2353 6.05616 32.612 6.0465C32.8535 6.0688 33.089 6.13424 33.3074 6.23968C33.8483 6.4425 34.2732 6.23967 34.4567 5.80505C34.5033 5.69635 34.5271 5.57931 34.5269 5.46108C34.5266 5.34284 34.5022 5.22589 34.4552 5.11741C34.4082 5.00892 34.3395 4.91119 34.2534 4.83015C34.1673 4.7491 34.0656 4.68649 33.9545 4.64611C33.4483 4.45647 32.8976 4.41948 32.3706 4.53982C32.1194 4.53982 31.9359 4.61708 31.8104 4.35631L32.2836 3.84446C32.9404 4.12455 33.3171 3.54503 33.7517 3.28426C34.6705 2.64782 35.7633 2.31052 36.8809 2.31844C37.7695 2.38605 38.6774 2.55989 39.5756 2.67579C40.0096 2.73137 40.4253 2.88455 40.7916 3.12374C41.1579 3.36294 41.4653 3.68195 41.6908 4.05691C41.7901 4.1777 41.8559 4.3226 41.8813 4.47692C41.9067 4.63125 41.891 4.78955 41.8356 4.93584C41.6618 5.32217 41.4107 5.03243 41.2079 5.0614C41.0493 5.0694 40.897 5.12538 40.7711 5.22198C40.6452 5.31858 40.5516 5.45123 40.5028 5.60226C40.4231 5.81465 40.4109 6.04642 40.468 6.26597C40.525 6.48553 40.6485 6.6821 40.8215 6.82882C40.9185 6.93763 41.0484 7.01171 41.1915 7.03962C41.3345 7.06753 41.4827 7.04777 41.6135 6.98338C42.0288 6.7709 42.0191 6.24936 42.2799 6.01756C42.5407 5.78576 43.1202 6.01753 43.381 5.62154C43.6417 5.22555 43.7576 5.26423 43.9894 5.54432C44.1214 5.7002 44.2907 5.82007 44.4816 5.89271C44.6724 5.96534 44.8786 5.98835 45.0808 5.95961C45.8245 5.90166 46.1625 6.47148 46.5778 6.84816C46.9931 7.22483 47.5436 7.34072 47.901 6.84816C48.0169 6.66465 48.0748 6.42319 48.3646 6.42319C48.722 6.6067 49.1566 6.71296 49.1856 7.23451C48.5058 7.28433 47.8458 7.48562 47.2539 7.82365C47.0607 7.97818 46.7903 8.0941 46.9062 8.39351C47.0221 8.69291 47.3119 8.5094 47.5437 8.5094C48.7026 8.5094 49.9486 8.01683 50.953 9.05026C51.0399 9.14684 51.2331 9.2434 51.3104 9.20477C51.8222 8.96331 52.3824 9.41723 52.8653 9.06954C52.92 9.02952 52.986 9.00794 53.0537 9.00794C53.1214 9.00794 53.1874 9.02952 53.242 9.06954C53.6105 9.31735 53.9172 9.64659 54.1382 10.0318C54.3593 10.4169 54.4888 10.8478 54.5169 11.291C54.5549 11.7153 54.7048 12.1219 54.9515 12.4693C55.7725 13.4351 55.7725 13.7731 54.9515 14.7583C54.8215 14.895 54.7278 15.0621 54.679 15.2443C54.6301 15.4265 54.6277 15.6181 54.6719 15.8015C54.716 15.9849 54.8054 16.1543 54.9319 16.2943C55.0583 16.4343 55.2178 16.5405 55.3958 16.603C55.704 16.6458 56.0176 16.5832 56.2859 16.4254C56.5541 16.2676 56.7611 16.0239 56.8735 15.7337C56.9604 15.2412 57.2405 14.8452 57.3468 14.4106C57.511 13.7442 58.0518 13.8794 58.4285 13.7055C58.8052 13.5317 58.6989 14.0532 58.8728 14.2174C59.0466 14.3816 59.2977 14.6134 59.5006 14.5361C60.1283 14.314 60.534 14.7582 61.1135 14.9321C60.787 15.1178 60.4933 15.356 60.2442 15.6372C60.0376 15.8538 59.9145 16.1367 59.8969 16.4356C59.8792 16.7345 59.968 17.0299 60.1477 17.2694C60.5436 17.6847 61.0555 17.6171 61.6157 17.0859C61.7606 16.9507 61.8958 16.7961 62.0503 16.6706C62.5304 16.19 63.1773 15.9132 63.8564 15.8979C64.1269 15.8979 64.3103 15.898 64.4069 16.236C64.441 16.3571 64.5003 16.4695 64.5811 16.5659C64.6618 16.6624 64.7621 16.7405 64.8753 16.7953C64.9885 16.8501 65.1121 16.8802 65.2378 16.8837C65.3635 16.8871 65.4885 16.8639 65.6046 16.8155C65.8927 16.7406 66.1983 16.774 66.4635 16.9093C66.7287 17.0445 66.9351 17.2723 67.0436 17.5495C67.096 17.6779 67.174 17.7944 67.2728 17.8918C67.3715 17.9891 67.4891 18.0655 67.6182 18.1161C67.7474 18.1666 67.8855 18.1904 68.0241 18.186C68.1628 18.1816 68.2991 18.1491 68.4248 18.0904C68.7048 17.9841 68.9077 17.9938 69.0332 18.2642C69.1588 18.5346 69.4099 18.5636 69.6997 18.6022C70.4047 18.6795 71.1677 18.6023 71.5444 19.4908C71.6312 19.6626 71.775 19.7988 71.9511 19.8763C72.1273 19.9539 72.3249 19.9678 72.5102 19.9158C72.9545 19.8578 73.3505 19.9157 73.4181 20.6015C73.4857 21.2872 74.3839 21.6543 74.2004 22.4559C73.843 22.5525 74.0459 23.103 73.6885 23.1609C72.7806 23.2865 72.3846 23.8756 72.2301 24.8511C71.4285 23.6438 70.2985 23.6631 69.2167 23.7307C68.9148 23.7229 68.6165 23.7979 68.3542 23.9478C68.092 24.0976 67.8759 24.3165 67.7294 24.5807C67.5854 24.85 67.5414 25.1617 67.605 25.4604C67.6686 25.7591 67.8358 26.0256 68.0771 26.2129C68.2702 26.3964 68.193 26.5124 68.0771 26.6765C67.2851 26.1647 66.8988 26.2709 66.5994 27.0822C66.1744 27.3236 66.1937 27.7003 66.2517 28.1156C66.272 28.5588 66.1465 28.9965 65.8943 29.3615C65.7108 29.6995 65.3728 29.3615 65.1023 29.3615C64.7116 29.2824 64.3055 29.3526 63.964 29.5582C63.6225 29.7638 63.3705 30.0899 63.2576 30.4722C63.161 30.7427 63.1417 31.0324 63.0644 31.3125C62.9872 31.5926 62.9679 31.6119 62.6974 31.467C61.9441 31.071 61.5095 30.0279 60.4084 30.3467C60.4084 30.3467 60.3119 30.2694 60.2539 30.2404C59.9566 30.0148 59.5937 29.8927 59.2205 29.8927C58.8473 29.8927 58.4843 30.0148 58.187 30.2404C57.8467 30.4645 57.6026 30.8078 57.5025 31.2027C57.4024 31.5977 57.4536 32.0158 57.6462 32.3749C57.9069 32.9061 57.5786 33.2441 56.9701 33.1765C56.3616 33.1089 55.8111 33.2538 55.6469 33.7464C55.4151 34.4514 54.8839 34.4708 54.3624 34.7122C53.8408 34.9537 53.8119 34.7894 53.5994 34.4417C53.2613 33.8623 52.4404 33.6401 52.1217 34.0844C51.5422 34.886 50.6343 35.4945 50.5667 36.6631C50.5667 37.1074 50.4411 37.8608 49.7844 37.8704C48.4902 37.8704 47.505 38.2567 47.1863 39.5509C46.375 38.9425 45.8052 38.1505 45.0615 37.6193C44.0957 36.8563 43.4389 36.9336 42.7725 37.6869C42.0964 37.5807 41.5652 37.6869 41.4203 38.4982C41.2403 38.8752 40.9759 39.2056 40.6477 39.464C40.5907 39.5278 40.5175 39.5749 40.4359 39.6005C40.3542 39.626 40.2672 39.6289 40.1841 39.6089C39.141 39.4544 38.8706 39.6089 38.3876 40.5747C38.32 40.7003 38.32 40.9321 38.0979 40.8548C37.8758 40.7776 37.924 40.5651 37.9917 40.4009C38.104 40.1806 38.1714 39.9401 38.1899 39.6935C38.2084 39.4469 38.1777 39.1991 38.0995 38.9645C38.0213 38.7299 37.8972 38.5131 37.7344 38.327C37.5717 38.1408 37.3735 37.9889 37.1514 37.8801C37.0072 37.7746 36.8802 37.6476 36.7747 37.5034C36.6491 37.3259 36.4674 37.196 36.2588 37.1347C36.0502 37.0733 35.827 37.0841 35.6254 37.1654C35.3906 37.236 35.1461 37.2686 34.901 37.2619C34.7561 37.2619 34.6306 37.262 34.6789 37.0398C34.8431 36.4603 34.4664 36.0064 34.3119 35.5041C34.259 35.3506 34.1748 35.2097 34.0644 35.0905C33.9541 34.9714 33.8202 34.8765 33.6711 34.812C33.5221 34.7474 33.3612 34.7147 33.1988 34.7158C33.0364 34.7169 32.8761 34.7519 32.7279 34.8184C32.1001 35.0309 31.9359 35.6007 31.6752 36.1706C31.5074 35.9486 31.2937 35.7656 31.0487 35.6339C30.8036 35.5023 30.533 35.425 30.2554 35.4076C29.8766 35.4113 29.5079 35.2862 29.2095 35.0528C28.9112 34.8194 28.7011 34.4915 28.6135 34.123C28.4854 33.5854 28.1768 33.1079 27.7391 32.7704C27.3014 32.4329 26.7612 32.2558 26.2086 32.2686C25.4194 32.3119 24.6721 32.6376 24.1031 33.1862C24.1031 32.7999 23.852 32.5198 23.9872 32.2204C24.0597 32.05 24.0693 31.8594 24.0145 31.6826C23.9597 31.5057 23.8439 31.3541 23.6878 31.2545C23.5183 31.144 23.3203 31.0851 23.118 31.0851C22.9156 31.0851 22.7176 31.144 22.5481 31.2545C22.4129 31.3318 22.326 31.5249 22.1521 31.467C22.0519 31.4149 21.9417 31.3848 21.8289 31.3788C21.7161 31.3728 21.6033 31.3909 21.4981 31.4321C21.3929 31.4733 21.2977 31.5365 21.219 31.6174C21.1402 31.6984 21.0797 31.7953 21.0414 31.9016C21.0057 31.9444 20.9615 31.9793 20.9117 32.0043C20.8618 32.0292 20.8073 32.0436 20.7517 32.0465C20.5399 32.0362 20.3305 32.0958 20.156 32.2162C19.9814 32.3367 19.8514 32.5112 19.7859 32.7129C19.6507 33.0317 19.3899 33.0606 19.1098 32.9157C18.8049 32.7704 18.5649 32.517 18.4364 32.2046C18.3079 31.8923 18.3001 31.5433 18.4144 31.2255C18.4627 31.0613 18.511 30.8875 18.5496 30.7137C18.6037 30.4925 18.5902 30.2603 18.511 30.0468C18.4318 29.8333 18.2905 29.6485 18.1053 29.5161C17.9399 29.3952 17.7404 29.33 17.5355 29.33C17.3306 29.33 17.1311 29.3952 16.9657 29.5161C16.6083 29.7286 16.5214 29.6223 16.3379 29.3036C15.9709 28.6661 15.372 28.5985 14.7443 29.0332C14.3 28.9752 14.2034 28.7337 14.3193 28.3281C14.3665 28.1316 14.3508 27.9253 14.2746 27.7382C14.1984 27.551 14.0654 27.3926 13.8943 27.285C13.7367 27.1812 13.552 27.1258 13.3631 27.1258C13.1743 27.1258 12.9896 27.1812 12.8319 27.285C12.4263 27.4878 12.0882 27.652 12.1462 28.1929C12.1462 28.444 12.0013 28.5985 11.7309 28.6178C11.219 28.7144 10.9872 28.4343 10.881 27.9901C11.3446 27.9321 11.6343 27.7196 11.5667 27.2174C11.565 27.1451 11.5477 27.074 11.516 27.009C11.4843 26.9439 11.4389 26.8865 11.383 26.8407C11.327 26.7948 11.2619 26.7616 11.1919 26.7433C11.1219 26.7249 11.0488 26.722 10.9776 26.7345C10.4367 26.7345 10.3401 27.1208 10.3594 27.5651C10.3594 27.5651 10.3594 27.652 10.3594 27.6907H9.61574C9.3936 27.6907 9.21976 27.6134 9.18112 27.3719C9.03625 26.5027 8.49538 26.2322 7.68409 26.3288C7.44264 26.3288 7.24947 26.3288 7.12391 26.0294C6.86314 25.3244 6.3416 25.2085 5.68484 25.5658C5.26495 25.8452 4.87637 26.169 4.52584 26.5317C4.69969 25.9811 4.85423 25.3727 4.32303 25.0732C3.56003 24.6676 3.85944 24.2716 4.15884 23.7984C4.24017 23.665 4.30503 23.5223 4.352 23.3734C4.63209 22.6104 4.06226 21.5673 3.38618 21.6446C3.15139 21.6301 2.91592 21.6301 2.68113 21.6446C2.1113 21.7991 1.40624 21.5384 0.971619 22.1372C1.09134 21.2425 1.4594 20.3993 2.03403 19.7033C2.38173 20.0316 2.65216 20.5146 3.24131 20.3697C3.56969 20.2924 3.65661 20.4277 3.7532 20.6981C4.03329 21.4611 4.51619 21.6639 5.26953 21.2679C5.75244 21.0168 6.43818 20.9782 6.63135 21.2679C7.01768 21.8764 7.59717 21.9247 8.10906 22.1275C8.21412 22.1823 8.32936 22.2147 8.44756 22.2228C8.56575 22.2309 8.68435 22.2145 8.7959 22.1746C8.90746 22.1347 9.00954 22.0721 9.09578 21.9909C9.18202 21.9097 9.25053 21.8115 9.29702 21.7025C9.3712 21.6026 9.42357 21.4882 9.45071 21.3667C9.47786 21.2452 9.47919 21.1194 9.4546 20.9974C9.43002 20.8754 9.38006 20.7599 9.308 20.6584C9.23593 20.5569 9.14336 20.4717 9.03625 20.4083C8.9389 20.3593 8.85525 20.2869 8.79287 20.1976C8.73048 20.1082 8.69131 20.0047 8.67889 19.8964C8.67889 19.1334 8.23461 18.9306 7.57785 19.0948C7.73688 18.5344 8.07637 18.0421 8.54368 17.6943C8.72718 17.5012 8.96864 17.3274 8.8624 17.0086C8.82294 16.8788 8.7399 16.7666 8.62728 16.6909C8.51466 16.6152 8.37937 16.5808 8.24427 16.5933C8.08974 16.5933 7.98351 16.5933 7.96419 16.3712C9.05194 15.9667 10.2034 15.7607 11.3639 15.7627C11.4286 15.7723 11.4947 15.7649 11.5556 15.7412C11.6166 15.7175 11.6704 15.6783 11.7116 15.6275C12.4939 14.6617 12.5325 14.6617 13.6432 15.1349C13.2859 15.8014 13.8364 16.7382 12.9575 17.2694C12.8333 17.3933 12.7453 17.5486 12.7027 17.7188C12.6602 17.889 12.6648 18.0675 12.716 18.2352C12.7933 18.5346 13.0058 18.7858 12.9672 19.1238C12.9285 19.4618 13.1893 19.6067 13.4501 19.6743C13.5219 19.6912 13.5964 19.6932 13.669 19.6802C13.7416 19.6672 13.8108 19.6395 13.8723 19.5988C13.9338 19.5581 13.9864 19.5052 14.0267 19.4435C14.067 19.3817 14.0943 19.3124 14.1068 19.2397C14.1744 18.6602 14.5318 18.0807 14.1068 17.4626C14.5704 17.4626 15.0727 17.4626 15.0244 16.8251C15.0244 16.6223 15.2272 16.6416 15.3914 16.632C16.2703 16.5354 16.5986 16.1973 16.5986 15.3184C16.5986 13.551 17.6707 12.4692 18.9939 11.542C19.1195 11.4648 19.3223 11.4744 19.274 11.2523C19.2257 11.0302 19.0712 10.9819 18.878 10.9722C18.4092 11.005 17.9568 11.1579 17.5645 11.4165C17.3906 11.5034 17.2168 11.7642 16.985 11.5034L17.1105 11.233ZM27.5318 12.4693C27.8571 12.4683 28.1713 12.3508 28.4176 12.1383C28.6638 11.9257 28.8258 11.6319 28.8743 11.3103C29.0288 10.7694 29.0288 10.3444 28.2948 10.2672C28.2368 10.2672 28.1789 10.103 28.1306 10.0064C28.0475 9.84564 27.9073 9.72177 27.7375 9.65921C27.5677 9.59665 27.3806 9.59989 27.2131 9.66834C26.8728 9.79458 26.5886 10.038 26.4116 10.3549C26.2346 10.6717 26.1763 11.0413 26.2472 11.3972C26.298 11.6999 26.4554 11.9744 26.691 12.171C26.9267 12.3677 27.2249 12.4735 27.5318 12.4693ZM49.031 11.8028C49.7457 11.8028 50.0838 11.4841 50.0934 10.837C50.1026 10.6707 50.078 10.5042 50.0212 10.3476C49.9643 10.191 49.8765 10.0476 49.7628 9.92578C49.6491 9.804 49.512 9.70646 49.3597 9.63899C49.2074 9.57152 49.0431 9.53553 48.8765 9.53317C48.1521 9.53317 47.8141 9.84224 47.8044 10.499C47.7993 10.6642 47.8271 10.8288 47.8862 10.9831C47.9453 11.1375 48.0345 11.2787 48.1487 11.3982C48.2628 11.5178 48.3996 11.6134 48.5511 11.6795C48.7026 11.7457 48.8657 11.781 49.031 11.7835V11.8028ZM19.0132 30.1535C19.0152 30.2932 19.0537 30.43 19.1248 30.5503C19.196 30.6706 19.2973 30.7702 19.4189 30.8392C19.5513 30.9498 19.7125 31.0203 19.8835 31.0425C20.0545 31.0647 20.2284 31.0378 20.3847 30.9648C20.6455 30.8103 20.8676 30.6074 21.2056 30.8875C21.5437 31.1676 21.6209 30.8199 21.7368 30.6364C21.8527 30.4529 22.0169 30.2404 21.8431 30.0183C21.8085 29.9734 21.765 29.9364 21.7153 29.9094C21.6656 29.8824 21.6108 29.8661 21.5544 29.8615C21.498 29.857 21.4412 29.8643 21.3878 29.883C21.3344 29.9016 21.2855 29.9313 21.2443 29.97C20.8096 30.2984 20.7131 29.8347 20.6358 29.6512C20.4716 29.2456 20.2591 28.9849 19.7955 29.0814C19.3319 29.178 19.1098 29.4967 19.0132 30.0859V30.1535ZM62.1952 29.4677C62.6685 29.4677 62.8809 29.1684 62.8616 28.7144C62.8423 28.2605 62.3111 28.048 61.8958 27.9997C61.4805 27.9514 61.3066 28.4537 61.3066 28.7917C61.3066 29.1297 61.7123 29.4098 62.1952 29.4002V29.4677ZM46.2591 37.204C45.9694 37.204 45.7859 37.3586 45.8245 37.658C45.8268 37.7253 45.8429 37.7914 45.8718 37.8523C45.9007 37.9131 45.9417 37.9674 45.9924 38.0117C46.0431 38.0561 46.1024 38.0896 46.1665 38.1101C46.2306 38.1306 46.2983 38.1378 46.3653 38.1312C46.6841 38.1312 46.7613 37.8897 46.742 37.6193C46.7227 37.3489 46.5295 37.1943 46.2591 37.204Z" fill="#B26526"/>
<path d="M10.9098 27.8259C11.016 28.2702 11.2478 28.5502 11.7597 28.4536C11.6465 28.5891 11.5846 28.76 11.5846 28.9365C11.5846 29.1131 11.6465 29.284 11.7597 29.4195C12.0977 29.8541 12.542 29.6609 12.9766 29.4774C12.9469 29.7344 13.0078 29.9937 13.1489 30.2106C13.29 30.4275 13.5023 30.5884 13.7493 30.6654C13.9206 30.7221 14.1051 30.7246 14.2779 30.6728C14.4507 30.6209 14.6033 30.5172 14.7151 30.3756C14.873 30.1709 14.9665 29.9239 14.9837 29.666C15.0009 29.408 14.941 29.1507 14.8117 28.9269C15.4685 28.4922 16.0383 28.5599 16.4053 29.1973C16.5888 29.5161 16.6758 29.6223 17.0331 29.4098C17.1985 29.2889 17.3981 29.2238 17.6029 29.2238C17.8078 29.2238 18.0074 29.2889 18.1728 29.4098C18.358 29.5422 18.4993 29.727 18.5785 29.9405C18.6577 30.154 18.6711 30.3863 18.6171 30.6075C18.6171 30.7813 18.5301 30.9551 18.4818 31.1193C18.3675 31.4371 18.3754 31.7861 18.5039 32.0984C18.6324 32.4107 18.8724 32.6642 19.1772 32.8095C19.4573 32.9544 19.7181 32.9254 19.8533 32.6067C19.9188 32.4049 20.0489 32.2305 20.2234 32.11C20.398 31.9896 20.6073 31.9299 20.8191 31.9402C20.8748 31.9373 20.9292 31.923 20.9791 31.898C21.0289 31.8731 21.0731 31.8382 21.1089 31.7954C21.1471 31.6891 21.2076 31.5922 21.2864 31.5112C21.3652 31.4302 21.4603 31.367 21.5655 31.3259C21.6707 31.2847 21.7835 31.2665 21.8963 31.2725C22.0091 31.2785 22.1194 31.3086 22.2196 31.3608C22.3934 31.4187 22.4804 31.2256 22.6156 31.1483C22.7851 31.0378 22.983 30.9789 23.1854 30.9789C23.3878 30.9789 23.5857 31.0378 23.7552 31.1483C23.9114 31.2478 24.0271 31.3995 24.0819 31.5763C24.1368 31.7532 24.1271 31.9438 24.0546 32.1141C23.9194 32.4329 24.1609 32.7129 24.1705 33.08C24.7395 32.5314 25.4868 32.2057 26.276 32.1624C26.8286 32.1496 27.3688 32.3267 27.8065 32.6642C28.2442 33.0017 28.5529 33.4791 28.6809 34.0168C28.7685 34.3853 28.9787 34.7131 29.277 34.9465C29.5753 35.1799 29.9441 35.305 30.3228 35.3013C30.6005 35.3188 30.8711 35.396 31.1161 35.5276C31.3611 35.6593 31.5748 35.8424 31.7426 36.0643C32.0034 35.4945 32.1676 34.9247 32.7953 34.7122C32.9435 34.6457 33.1039 34.6107 33.2663 34.6096C33.4287 34.6085 33.5895 34.6412 33.7385 34.7057C33.8876 34.7702 34.0215 34.8651 34.1319 34.9843C34.2422 35.1035 34.3265 35.2443 34.3793 35.3979C34.5338 35.9001 34.9105 36.3638 34.7463 36.9336C34.698 37.1268 34.8236 37.1557 34.9684 37.1557C35.2135 37.1623 35.4581 37.1298 35.6928 37.0592C35.8945 36.9779 36.1176 36.9671 36.3262 37.0284C36.5348 37.0898 36.7166 37.2197 36.8421 37.3972C36.9476 37.5413 37.0747 37.6684 37.2188 37.7738C37.4409 37.8827 37.6391 38.0346 37.8019 38.2207C37.9646 38.4069 38.0887 38.6236 38.1669 38.8582C38.2451 39.0928 38.2759 39.3407 38.2574 39.5873C38.2389 39.8339 38.1714 40.0743 38.0591 40.2946C37.9915 40.4588 37.9335 40.6713 38.1653 40.7486C38.3971 40.8259 38.3875 40.594 38.4551 40.4685C38.938 39.5027 39.2084 39.3578 40.2515 39.5027C40.3347 39.5226 40.4217 39.5197 40.5033 39.4942C40.5849 39.4687 40.6581 39.4216 40.7151 39.3578C41.0433 39.0994 41.3077 38.7689 41.4878 38.392C41.4714 38.5797 41.5288 38.7663 41.6478 38.9124C41.7668 39.0585 41.9381 39.1524 42.1252 39.1743C42.3015 39.2075 42.4838 39.182 42.6443 39.1018C42.8048 39.0216 42.9345 38.891 43.0138 38.73C43.1135 38.5455 43.1505 38.3336 43.1191 38.1262C43.0877 37.9189 42.9897 37.7274 42.8399 37.5807C43.5063 36.8273 44.1534 36.7501 45.1289 37.5131C45.8726 38.0926 46.4424 38.8845 47.2537 39.4447C47.5725 38.1505 48.5576 37.7738 49.8518 37.7642C50.5086 37.7642 50.6051 37.0012 50.6341 36.5569C50.7017 35.3883 51.5999 34.7798 52.1891 33.9782C52.5078 33.5339 53.3288 33.756 53.6668 34.3355C53.8793 34.6832 54.0242 34.7605 54.4298 34.6059C54.8355 34.4514 55.4825 34.3741 55.7143 33.6401C55.8785 33.1475 56.487 33.0123 57.0375 33.0703C57.5881 33.1282 58.0034 32.7998 57.7136 32.2686C57.5211 31.9095 57.4698 31.4915 57.5699 31.0965C57.67 30.7015 57.9142 30.3582 58.2545 30.1342C58.5518 29.9085 58.9147 29.7865 59.2879 29.7865C59.6611 29.7865 60.024 29.9085 60.3213 30.1342C60.3793 30.1342 60.4372 30.2598 60.4759 30.2404C61.5769 29.9217 62.0115 30.9648 62.7649 31.3608C63.0353 31.5056 63.0739 31.3608 63.1319 31.2063C63.1898 31.0517 63.2285 30.6364 63.325 30.366C63.4379 29.9837 63.6899 29.6575 64.0314 29.4519C64.3729 29.2463 64.7791 29.1762 65.1698 29.2553C65.4402 29.2553 65.7782 29.5933 65.9617 29.2553C66.2139 28.8902 66.3395 28.4526 66.3191 28.0094C66.2612 27.5941 66.2418 27.2174 66.6668 26.9759C66.6668 27.5168 66.7151 28.0383 67.3718 28.1446C67.5813 28.1562 67.7888 28.0994 67.963 27.9826C68.1373 27.8659 68.2688 27.6956 68.3377 27.4975C68.4922 27.1305 68.3377 26.8504 68.1252 26.5316C68.2025 26.3675 68.2797 26.2516 68.1252 26.0681C67.884 25.8808 67.7167 25.6142 67.6531 25.3155C67.5895 25.0168 67.6335 24.7052 67.7775 24.4358C67.924 24.1717 68.1401 23.9528 68.4024 23.8029C68.6646 23.6531 68.9629 23.578 69.2649 23.5859C70.3659 23.5183 71.4766 23.4989 72.2782 24.7062C72.4328 23.7404 72.8288 23.1416 73.7366 23.016C74.094 22.9581 73.8912 22.4076 74.2485 22.311C75.3206 22.7649 75.3592 22.7553 76.0546 21.8474C76.1705 21.6929 76.3057 21.6253 76.4409 21.7605C76.5155 21.8672 76.6158 21.9534 76.7325 22.0111C76.8493 22.0687 76.9787 22.0959 77.1088 22.0901C77.2389 22.0843 77.3654 22.0458 77.4766 21.978C77.5878 21.9102 77.68 21.8155 77.7448 21.7025C77.7448 21.7025 77.909 21.7025 77.9959 21.7025C78.0828 21.7025 78.3822 21.6156 78.3629 21.3935C78.3436 21.1713 78.1504 20.9878 77.9283 21.0941C77.5033 21.3065 77.3198 20.9299 77.0591 20.785C76.7983 20.6401 76.9335 20.5242 77.1653 20.4952C77.3971 20.4663 77.3971 20.6691 77.455 20.6401C78.5175 20.1379 78.8748 21.1327 79.4833 21.606C79.5406 21.6607 79.5811 21.7307 79.5999 21.8078C79.6188 21.8848 79.6151 21.9655 79.5895 22.0405C79.5819 22.2735 79.6245 22.5053 79.7145 22.7203C79.8045 22.9353 79.9398 23.1285 80.1111 23.2865C80.4061 23.6234 80.5631 24.0593 80.5505 24.507C80.538 24.9547 80.3569 25.3812 80.0434 25.7011C79.6126 26.1313 79.0594 26.418 78.4595 26.522C78.2144 26.5384 77.9781 26.6195 77.7745 26.7569C77.571 26.8943 77.4074 27.0832 77.3005 27.3043C76.9899 27.8648 76.5411 28.3365 75.9967 28.6746C75.4524 29.0127 74.8306 29.2059 74.1906 29.2359C73.6632 29.361 73.1101 29.3206 72.6066 29.12C72.494 29.0918 72.3767 29.0875 72.2623 29.1074C72.1479 29.1273 72.039 29.171 71.9425 29.2356C71.846 29.3003 71.7642 29.3844 71.7022 29.4826C71.6403 29.5808 71.5996 29.6909 71.5828 29.8058C71.5747 30.2122 71.462 30.6096 71.2556 30.9598C71.0492 31.31 70.7561 31.6011 70.4045 31.8051C70.2983 31.8823 70.1244 31.9113 70.0665 32.0175C69.3904 33.2827 68.0383 33.1765 66.9276 33.4953C66.0546 33.7775 65.1096 33.7398 64.2619 33.389C64.1835 33.3459 64.0954 33.3232 64.006 33.3232C63.9165 33.3232 63.8284 33.3459 63.75 33.389C63.6534 33.389 63.5375 33.5242 63.4409 33.5049C62.3496 33.3021 61.9825 34.065 61.5093 34.8377C61.2946 35.2579 60.9905 35.6262 60.6185 35.9165C60.2464 36.2068 59.8153 36.4122 59.3555 36.5183C58.4476 36.6921 58.4669 36.7308 57.8874 37.4841C57.5451 38.0539 57.0491 38.5156 56.4563 38.8162C55.8635 39.1169 55.198 39.2443 54.5361 39.1839C54.1884 39.1839 54.0145 39.5123 53.7537 39.5027C53.366 39.4852 52.9816 39.5821 52.6485 39.7812C52.3154 39.9804 52.0482 40.2732 51.88 40.623C51.782 40.765 51.6402 40.8711 51.4764 40.9252C51.3125 40.9792 51.1354 40.9783 50.9722 40.9224C50.7845 40.8497 50.5776 40.8436 50.386 40.9052C50.1944 40.9667 50.0297 41.0921 49.9194 41.2605V41.3184C49.5427 41.8303 48.9536 41.4633 48.5769 41.5985C48.2002 41.7337 47.9105 42.4581 47.4372 42.1973C47.1607 42.0676 46.8608 41.9947 46.5555 41.9831C46.2503 41.9714 45.9458 42.0213 45.6601 42.1297C45.103 42.1369 44.5597 42.3046 44.0955 42.6126C44.0726 42.6391 44.0445 42.6605 44.0129 42.6755C43.9813 42.6904 43.9469 42.6986 43.912 42.6995C43.0331 42.487 42.4149 43.2694 41.6037 43.337C41.3424 43.4012 41.0963 43.5161 40.8793 43.675C40.6251 43.8615 40.3233 43.9722 40.0089 43.9944C39.6944 44.0166 39.3801 43.9494 39.1022 43.8006C39.0246 43.754 38.9382 43.7239 38.8485 43.7123C38.7587 43.7006 38.6675 43.7077 38.5806 43.733C38.4282 43.7681 38.2702 43.7726 38.116 43.7461C37.9618 43.7195 37.8144 43.6626 37.6824 43.5785C37.0094 43.1109 36.2831 42.7251 35.519 42.4291C35.4323 42.4022 35.3522 42.3573 35.284 42.2974C35.2158 42.2375 35.1609 42.1639 35.123 42.0814C34.8526 41.019 33.7129 40.5554 33.4811 39.5606C31.5494 40.4685 29.7144 41.2991 27.6861 40.0532C27.6447 40.0453 27.6021 40.0453 27.5606 40.0532C26.1988 40.0532 25.6289 38.9907 25.1074 38.0346C24.7138 37.4118 24.2323 36.849 23.678 36.3637C23.4613 36.1881 23.2853 35.9677 23.1619 35.7176C23.0385 35.4676 22.9708 35.1937 22.9633 34.915C22.9633 34.5093 22.828 34.4418 22.461 34.4611C21.4468 34.6062 20.4239 34.6836 19.3994 34.6929C17.9217 34.5963 17.2649 34.1906 16.8206 32.7612C16.7434 32.5101 16.6661 32.4522 16.4053 32.5198C15.7547 32.6811 15.0676 32.5987 14.4737 32.288C13.3652 31.6686 12.209 31.1389 11.016 30.704C10.5814 30.5785 10.4365 30.0956 10.0502 29.8734C9.98258 29.6899 9.82804 29.5836 9.97292 29.3036C10.253 28.7917 9.97292 28.4053 9.35479 28.3957C9.18839 28.3778 9.02034 28.4074 8.86998 28.4809C8.71961 28.5543 8.59306 28.6687 8.50488 28.811C8.23445 29.2456 8.50487 29.5643 8.72701 29.8927C8.51456 29.8676 8.3148 29.7783 8.15434 29.6369C7.99387 29.4954 7.88032 29.3084 7.8288 29.1007C7.5855 28.7046 7.20364 28.4131 6.75742 28.2828C6.31119 28.1525 5.83247 28.1927 5.41424 28.3957C4.64158 28.9172 4.34218 28.7917 3.67576 28.0866C3.00934 27.3816 2.31394 26.889 1.66684 26.2419C0.334004 24.938 0.150498 24.3103 0.807259 22.5621C0.884525 22.3496 0.971444 22.1468 1.05837 21.944C1.49299 21.3452 2.19804 21.6059 2.76788 21.4514C3.00267 21.4369 3.23814 21.4369 3.47293 21.4514C4.15866 21.3741 4.7285 22.4173 4.43875 23.1803C4.39178 23.3292 4.32692 23.4719 4.24559 23.6052C3.94618 24.0785 3.64678 24.4744 4.40978 24.8801C4.94098 25.1795 4.78646 25.788 4.61261 26.3385C4.96313 25.9758 5.3517 25.652 5.77159 25.3726C6.42835 25.0153 6.9499 25.1312 7.21068 25.8363C7.33623 26.1743 7.52939 26.1647 7.77084 26.1357C8.58213 26.0391 9.123 26.3095 9.26787 27.1787C9.26787 27.4202 9.48035 27.4878 9.70249 27.4975H10.4462C10.4964 27.5814 10.5636 27.6539 10.6434 27.7104C10.7232 27.7669 10.8139 27.8063 10.9098 27.8259ZM30.3228 37.3102C30.3228 36.6438 29.8592 36.2382 29.2991 36.499C29.0377 36.6662 28.8205 36.894 28.6659 37.163C28.5112 37.4319 28.4236 37.7342 28.4105 38.0443C28.4152 38.2021 28.4674 38.3549 28.5605 38.4824C28.6536 38.61 28.7831 38.7064 28.932 38.759C29.0668 38.8187 29.2171 38.8341 29.3612 38.8028C29.5053 38.7716 29.6358 38.6953 29.7337 38.5851C29.9147 38.4249 30.0605 38.2289 30.1619 38.0095C30.2633 37.79 30.3181 37.5519 30.3228 37.3102ZM44.4432 39.6185C44.4556 39.5189 44.4465 39.4178 44.4167 39.322C44.3868 39.2261 44.3369 39.1378 44.2701 39.0628C44.2034 38.9879 44.1214 38.928 44.0296 38.8872C43.9379 38.8465 43.8385 38.8258 43.7381 38.8266C43.6422 38.8163 43.5451 38.8274 43.4539 38.8589C43.3627 38.8905 43.2795 38.9417 43.2104 39.009C43.1412 39.0763 43.0877 39.1581 43.0538 39.2484C43.0198 39.3387 43.0061 39.4354 43.0138 39.5317C42.9972 39.6318 43.0038 39.7344 43.0329 39.8317C43.0621 39.929 43.1131 40.0183 43.182 40.0929C43.251 40.1674 43.3361 40.2252 43.4308 40.2619C43.5255 40.2985 43.6273 40.313 43.7285 40.3043C43.8223 40.3144 43.9172 40.3038 44.0065 40.2733C44.0958 40.2428 44.1774 40.1931 44.2455 40.1278C44.3136 40.0625 44.3666 39.9831 44.4007 39.8951C44.4349 39.8071 44.4494 39.7127 44.4432 39.6185Z" fill="#844008"/>
<path d="M77.1655 20.6594C76.9337 20.6594 76.8565 20.8333 77.0593 20.9492C77.2621 21.0651 77.5035 21.4707 77.9285 21.2582C78.1507 21.152 78.3342 21.3451 78.3631 21.5576C78.3921 21.7701 78.1989 21.857 77.9961 21.8667C77.7933 21.8763 77.7837 21.8667 77.745 21.8667C77.6803 21.9796 77.588 22.0744 77.4768 22.1422C77.3656 22.2099 77.2391 22.2485 77.109 22.2543C76.9789 22.2601 76.8495 22.2329 76.7327 22.1752C76.616 22.1176 76.5157 22.0314 76.4412 21.9246C76.3059 21.7894 76.1707 21.8571 76.0548 22.0116C75.3594 22.9195 75.3208 22.9774 74.2487 22.4752C74.4033 21.6735 73.534 21.2872 73.4664 20.6208C73.3988 19.9544 73.0028 19.8771 72.5585 19.935C72.3732 19.9871 72.1756 19.9732 71.9995 19.8957C71.8233 19.8181 71.6795 19.6818 71.5927 19.5101C71.216 18.6408 70.453 18.6988 69.748 18.6215C69.4583 18.6215 69.2264 18.6216 69.0816 18.2835C68.9367 17.9455 68.7532 18.0034 68.4731 18.1097C68.3474 18.1684 68.2111 18.2009 68.0725 18.2053C67.9338 18.2097 67.7957 18.1859 67.6666 18.1353C67.5374 18.0847 67.4199 18.0085 67.3211 17.9111C67.2223 17.8137 67.1444 17.6973 67.092 17.5688C66.9834 17.2916 66.777 17.0638 66.5118 16.9286C66.2466 16.7933 65.941 16.7599 65.6529 16.8348C65.5368 16.8832 65.4118 16.9065 65.2861 16.903C65.1604 16.8995 65.0368 16.8694 64.9236 16.8146C64.8104 16.7598 64.7101 16.6816 64.6294 16.5852C64.5487 16.4888 64.4893 16.3763 64.4553 16.2553C64.3587 15.9558 64.1752 15.9172 63.9048 15.9172C63.2257 15.9325 62.5787 16.2093 62.0987 16.6899C61.9441 16.8154 61.8089 16.97 61.664 17.1052C61.1039 17.6364 60.592 17.704 60.196 17.2887C60.0164 17.0492 59.9275 16.7537 59.9452 16.4549C59.9629 16.156 60.086 15.8731 60.2926 15.6564C60.5416 15.3753 60.8353 15.1371 61.1618 14.9514C60.5823 14.7776 60.196 14.3333 59.5489 14.5554C59.3461 14.6327 59.1143 14.4106 58.9211 14.2367C58.7279 14.0629 58.8728 13.5509 58.4768 13.7248C58.0808 13.8986 57.5593 13.7248 57.3951 14.4299C57.2889 14.8645 57.0088 15.2605 56.9218 15.7531C56.8095 16.0432 56.6024 16.2869 56.3342 16.4447C56.066 16.6025 55.7523 16.665 55.4441 16.6223C55.2661 16.5597 55.1067 16.4536 54.9802 16.3136C54.8538 16.1736 54.7644 16.0042 54.7202 15.8208C54.676 15.6374 54.6785 15.4458 54.7273 15.2636C54.7762 15.0814 54.8699 14.9143 54.9999 14.7776C55.8305 13.8117 55.8305 13.4447 54.9999 12.4886C54.7381 12.1295 54.581 11.7049 54.5459 11.262C54.5179 10.8187 54.3883 10.3879 54.1672 10.0027C53.9462 9.61757 53.6396 9.28838 53.271 9.04057C53.2164 9.00055 53.1504 8.97897 53.0827 8.97897C53.015 8.97897 52.949 9.00055 52.8944 9.04057C52.4114 9.38827 51.8513 8.93435 51.3394 9.1758C51.2621 9.1758 51.069 9.11782 50.982 9.02124C50.0162 7.98781 48.7317 8.47072 47.5727 8.48038C47.3409 8.48038 47.0608 8.67355 46.9352 8.36449C46.8097 8.05542 47.0898 7.94915 47.2829 7.79462C47.8748 7.4566 48.5348 7.25531 49.2146 7.20548C51.4873 7.32587 53.6945 8.00959 55.6373 9.19508C56.3863 9.69111 56.9686 10.4012 57.3082 11.233C57.4241 11.513 57.511 11.7642 57.8587 11.4744C57.9154 11.4353 57.983 11.415 58.0519 11.4165C58.6217 11.4165 58.8438 12.2181 59.6165 11.967C60.3892 11.7159 60.5823 12.363 60.7948 12.9328C60.8209 12.9964 60.8632 13.0522 60.9173 13.0945C60.9715 13.1368 61.0358 13.1643 61.1039 13.1743C61.816 13.3822 62.4748 13.7413 63.0355 14.227C63.0786 14.2612 63.1284 14.2857 63.1817 14.299C63.235 14.3123 63.2905 14.3142 63.3446 14.3043C64.6195 13.947 65.7108 14.7293 66.8988 14.9031C67.3141 14.9611 67.6135 15.357 67.9226 15.6468C68.2791 16.0424 68.7417 16.3273 69.2554 16.4678C69.5645 16.5257 70.0088 16.6513 70.0957 16.9603C70.2888 17.6461 70.7621 17.5108 71.2354 17.5301C71.647 17.4979 72.0589 17.5891 72.4185 17.7921C72.778 17.9951 73.0689 18.3007 73.2539 18.6698C73.3312 18.8437 73.4857 18.8437 73.6403 18.8727C74.3124 18.957 74.9236 19.3043 75.3401 19.8385C75.4016 19.9537 75.5063 20.0399 75.6313 20.0779C75.7563 20.116 75.8913 20.1028 76.0065 20.0413C76.123 19.9999 76.2468 19.9832 76.3701 19.9923C76.4934 20.0015 76.6134 20.0363 76.7225 20.0944C76.8316 20.1526 76.9273 20.2329 77.0036 20.3302C77.0799 20.4275 77.135 20.5396 77.1655 20.6594Z" fill="#FFB66E"/>
<path d="M48.3162 6.39425C48.0265 6.39425 47.9685 6.63571 47.8526 6.81922C47.4952 7.34076 46.9834 7.27315 46.5294 6.81922C46.0755 6.36528 45.7761 5.85335 45.0324 5.93062C44.8302 5.95935 44.624 5.93634 44.4332 5.86371C44.2423 5.79108 44.073 5.6712 43.941 5.51532C43.7092 5.23523 43.5257 5.26422 43.3326 5.5926C43.1394 5.92098 42.4923 5.78574 42.2315 5.98856C41.9707 6.19139 41.9804 6.71293 41.5651 6.95439C41.4343 7.01877 41.2861 7.03854 41.1431 7.01063C41 6.98272 40.8701 6.90869 40.7731 6.79988C40.6001 6.65317 40.4766 6.45659 40.4196 6.23703C40.3625 6.01748 40.3747 5.78565 40.4544 5.57327C40.5032 5.42224 40.5968 5.28965 40.7227 5.19304C40.8486 5.09644 41.0009 5.0404 41.1594 5.03241C41.3623 5.03241 41.6134 5.29318 41.7872 4.90685C41.8426 4.76056 41.8583 4.60225 41.8329 4.44793C41.8074 4.2936 41.7417 4.14876 41.6424 4.02797C41.4169 3.65301 41.1095 3.33394 40.7432 3.09475C40.3769 2.85555 39.9612 2.70244 39.5272 2.64685C38.629 2.53095 37.7211 2.35711 36.8326 2.2895C35.7149 2.28159 34.6221 2.61888 33.7033 3.25532C33.2687 3.5161 32.892 4.09555 32.2352 3.81546C32.3608 3.18767 32.9886 3.10074 33.3942 2.78202C33.8065 2.52488 34.2357 2.29582 34.6788 2.09632C35.9826 1.34298 37.4893 1.4782 38.8801 1.1305C39.6904 0.97084 40.5267 1.00056 41.3236 1.21739C41.858 1.36836 42.3362 1.67321 42.6985 2.09397C43.0609 2.51473 43.2915 3.03282 43.3615 3.58367C43.4485 3.90239 43.5257 4.04726 43.9217 3.99897C44.5235 3.94122 45.1293 4.05478 45.6693 4.32649C46.2093 4.5982 46.6615 5.01702 46.9737 5.53466C47.0317 5.61192 47.0703 5.70849 47.1669 5.69883C47.7753 5.6119 48.0071 6.06587 48.3162 6.39425Z" fill="#FFB66E"/>
<path d="M7.98338 16.2553C7.98338 16.4291 8.10895 16.4774 8.26348 16.4774C8.39858 16.4649 8.53385 16.4993 8.64647 16.575C8.75909 16.6507 8.84215 16.7629 8.88161 16.8927C8.98785 17.2114 8.74639 17.3853 8.56288 17.5784C8.09558 17.9262 7.75609 18.4185 7.59706 18.9789C8.25382 18.8533 8.6981 18.9789 8.6981 19.7805C8.71051 19.8888 8.74968 19.9923 8.81206 20.0816C8.87444 20.171 8.95809 20.2434 9.05545 20.2924C9.16255 20.3558 9.25513 20.441 9.3272 20.5425C9.39927 20.644 9.44922 20.7595 9.47381 20.8815C9.49839 21.0035 9.49706 21.1293 9.46992 21.2508C9.44277 21.3723 9.39041 21.4867 9.31622 21.5866C9.26974 21.6956 9.20122 21.7938 9.11499 21.875C9.02875 21.9562 8.92665 22.0188 8.8151 22.0587C8.70354 22.0986 8.58496 22.115 8.46676 22.1069C8.34857 22.0988 8.23332 22.0663 8.12826 22.0116C7.5874 21.8088 7.03688 21.7605 6.65055 21.152C6.45739 20.8429 5.77165 20.8816 5.28874 21.152C4.5354 21.5383 4.05248 21.3452 3.77239 20.5822C3.67581 20.3118 3.58888 20.1765 3.2605 20.2538C2.67135 20.3986 2.40092 19.9157 2.05322 19.5874C2.19959 19.0138 2.56426 18.5201 3.06946 18.2115C3.57466 17.903 4.18041 17.804 4.75753 17.9358C5.40463 18.0227 5.78131 17.5688 6.20627 17.2501C6.73263 16.8123 7.33502 16.4751 7.98338 16.2553Z" fill="#FFB66E"/>
<path d="M31.7716 4.36596C31.8972 4.62673 32.0807 4.57844 32.3318 4.54947C32.8588 4.42913 33.4096 4.46606 33.9158 4.6557C34.0269 4.69608 34.1286 4.75875 34.2147 4.83979C34.3008 4.92084 34.3695 5.01857 34.4165 5.12705C34.4635 5.23554 34.4878 5.35249 34.4881 5.47073C34.4884 5.58896 34.4645 5.706 34.418 5.8147C34.2731 6.28795 33.8095 6.45215 33.2687 6.24933C33.0503 6.14389 32.8148 6.07845 32.5733 6.05615C32.1966 6.05615 31.8296 6.12377 31.7813 6.66463C31.704 7.48558 31.4046 7.72707 30.5644 7.72707C30.0522 7.8019 29.5292 7.72813 29.0577 7.51456C29.0044 7.48215 28.9446 7.46189 28.8825 7.45519C28.8205 7.4485 28.7578 7.45555 28.6988 7.47583C28.6398 7.49611 28.586 7.52908 28.5412 7.5725C28.4964 7.61593 28.4617 7.66873 28.4396 7.72707C28.3623 7.86228 28.2464 7.97816 28.1788 8.12303C28.0952 8.40668 27.9073 8.6481 27.6528 8.79865C27.3983 8.9492 27.0961 8.99772 26.8073 8.93435C26.1602 8.79913 26.0636 8.23892 26.0057 7.6884C26.1743 7.24557 26.4422 6.84729 26.7888 6.52415C27.1354 6.20101 27.5514 5.96163 28.0049 5.82436C29.2912 5.42154 30.5495 4.93435 31.7716 4.36596Z" fill="#FFB66E"/>
<path d="M16.9558 11.3585C17.1876 11.6193 17.3614 11.3585 17.5353 11.2716C17.9277 11.0131 18.3801 10.86 18.8488 10.8273C19.042 10.8273 19.2062 10.895 19.2448 11.1075C19.2834 11.3199 19.0903 11.3199 18.9647 11.3972C17.6415 12.363 16.5791 13.4061 16.5695 15.1735C16.5695 16.0524 16.2411 16.3905 15.3622 16.487C15.198 16.487 14.9855 16.4871 14.9952 16.6802C14.9952 17.3273 14.5412 17.2887 14.0776 17.3177C14.5219 17.9358 14.1646 18.5153 14.0776 19.0948C14.0651 19.1675 14.0378 19.2369 13.9975 19.2986C13.9572 19.3604 13.9046 19.4132 13.8431 19.454C13.7816 19.4947 13.7124 19.5223 13.6398 19.5353C13.5672 19.5483 13.4927 19.5463 13.4209 19.5294C13.1601 19.4618 12.909 19.3169 12.938 18.9789C12.9669 18.6408 12.7641 18.3897 12.6869 18.0903C12.6356 17.9226 12.631 17.744 12.6735 17.5739C12.7161 17.4037 12.8042 17.2484 12.9283 17.1245C13.8072 16.5933 13.2567 15.6564 13.614 14.99C13.8766 14.9401 14.1226 14.8257 14.3299 14.6571C14.5373 14.4885 14.6995 14.271 14.802 14.0242C15.2506 12.9482 15.998 12.0232 16.9558 11.3585Z" fill="#FFB66E"/>
<path d="M8.64992 29.9506C8.41812 29.6222 8.15735 29.3035 8.42778 28.8689C8.51596 28.7267 8.64252 28.6123 8.79288 28.5388C8.94325 28.4653 9.11131 28.4358 9.27771 28.4536C9.86686 28.4536 10.1759 28.8496 9.89584 29.3615C9.75096 29.6416 9.89582 29.7478 9.97309 29.9313C9.55779 29.7575 9.0942 30.2211 8.64992 29.9506Z" fill="#FFB66E"/>
<path d="M14.7731 28.8882C14.9024 29.1121 14.9623 29.3693 14.9451 29.6273C14.9279 29.8852 14.8344 30.1323 14.6765 30.337C14.5647 30.4786 14.4121 30.5823 14.2393 30.6341C14.0665 30.686 13.882 30.6834 13.7107 30.6267C13.4637 30.5497 13.2513 30.3889 13.1103 30.172C12.9692 29.9551 12.9083 29.6958 12.938 29.4388C12.5034 29.6223 12.0591 29.8154 11.7211 29.3808C11.6079 29.2453 11.546 29.0744 11.546 28.8979C11.546 28.7214 11.6079 28.5505 11.7211 28.415C11.9915 28.415 12.1557 28.2411 12.1364 27.99C12.0784 27.4492 12.4165 27.285 12.8221 27.0822C12.9798 26.9783 13.1645 26.9229 13.3533 26.9229C13.5422 26.9229 13.7268 26.9783 13.8845 27.0822C14.0556 27.1897 14.1886 27.3482 14.2648 27.5354C14.341 27.7225 14.3567 27.9288 14.3095 28.1253C14.2322 28.5985 14.3288 28.8882 14.7731 28.8882Z" fill="#FFB66E"/>
<path d="M27.5317 12.4692C27.2298 12.4666 26.9385 12.3577 26.7089 12.1616C26.4793 11.9656 26.326 11.6949 26.2761 11.3972C26.2052 11.0412 26.2635 10.6717 26.4405 10.3548C26.6175 10.038 26.9017 9.79455 27.2419 9.66831C27.4095 9.59986 27.5965 9.59661 27.7663 9.65917C27.9362 9.72174 28.0764 9.84561 28.1595 10.0064C28.2078 10.103 28.2657 10.2671 28.3236 10.2671C29.0577 10.3251 29.0577 10.7694 28.9032 11.3102C28.854 11.6369 28.6878 11.9346 28.4355 12.1478C28.1832 12.361 27.862 12.4752 27.5317 12.4692Z" fill="#A9651F"/>
<path d="M49.031 11.7835C48.8631 11.7811 48.6975 11.7449 48.544 11.677C48.3906 11.609 48.2524 11.5107 48.1379 11.388C48.0233 11.2654 47.9347 11.1208 47.8774 10.9631C47.8201 10.8053 47.7953 10.6376 47.8044 10.47C47.8044 9.7939 48.1521 9.50415 48.8765 9.50415C49.043 9.5065 49.2074 9.54249 49.3597 9.60996C49.512 9.67743 49.6491 9.77497 49.7628 9.89675C49.8764 10.0185 49.9643 10.1621 50.0211 10.3186C50.0779 10.4752 50.1025 10.6417 50.0934 10.808C50.1224 11.5034 49.7457 11.7835 49.031 11.7835Z" fill="#FFB66E"/>
<path d="M19.0131 30.0858C19.1097 29.4967 19.3319 29.12 19.8341 29.0138C20.3363 28.9075 20.5102 29.1779 20.6743 29.5836C20.7516 29.7671 20.8482 30.2307 21.2828 29.9023C21.3241 29.8636 21.373 29.834 21.4264 29.8153C21.4798 29.7966 21.5365 29.7893 21.5929 29.7939C21.6493 29.7984 21.7041 29.8147 21.7538 29.8417C21.8036 29.8687 21.8471 29.9058 21.8816 29.9506C22.0555 30.1727 21.8816 30.3852 21.7754 30.5688C21.6691 30.7523 21.4567 30.9937 21.2442 30.8199C21.0317 30.646 20.684 30.7426 20.4232 30.8972C20.2669 30.9701 20.0931 30.9971 19.9221 30.9749C19.751 30.9526 19.5898 30.8821 19.4574 30.7716C19.3287 30.7076 19.2195 30.6102 19.1413 30.4896C19.0632 30.3689 19.0189 30.2295 19.0131 30.0858Z" fill="#FFB66E"/>
<path d="M68.1156 26.7151C68.2798 26.9952 68.4826 27.2753 68.3281 27.681C68.2592 27.8791 68.1277 28.0494 67.9535 28.1661C67.7792 28.2829 67.5717 28.3397 67.3623 28.328C66.7055 28.2218 66.6379 27.7003 66.6572 27.1594C66.9373 26.3095 67.3236 26.2032 68.1156 26.7151Z" fill="#FFB66E"/>
<path d="M42.8109 37.5807C42.9608 37.7274 43.0588 37.9189 43.0901 38.1262C43.1215 38.3336 43.0845 38.5455 42.9848 38.73C42.9056 38.891 42.7758 39.0215 42.6153 39.1018C42.4549 39.182 42.2725 39.2075 42.0962 39.1743C41.9091 39.1524 41.7379 39.0584 41.6189 38.9124C41.4999 38.7663 41.4424 38.5797 41.4588 38.392C41.6037 37.6483 42.1349 37.513 42.8109 37.5807Z" fill="#FFB66E"/>
<path d="M62.195 29.4002C61.6638 29.4002 61.3065 29.1973 61.2968 28.7241C61.2871 28.2508 61.2968 27.8741 61.8859 27.9321C62.4751 27.99 62.8518 28.0673 62.8518 28.6468C62.8518 29.2263 62.6779 29.4388 62.195 29.4002Z" fill="#FFB66E"/>
<path d="M10.9099 27.8259C10.8046 27.8189 10.7022 27.7884 10.6103 27.7366C10.5183 27.6847 10.4392 27.6129 10.3787 27.5265C10.3787 27.5265 10.3787 27.4395 10.3787 27.4009C10.3787 26.9566 10.456 26.6089 10.9968 26.5703C11.0681 26.5577 11.1412 26.5607 11.2112 26.579C11.2812 26.5974 11.3463 26.6306 11.4023 26.6765C11.4582 26.7223 11.5036 26.7798 11.5353 26.8448C11.567 26.9098 11.5843 26.9808 11.586 27.0532C11.6633 27.5554 11.3735 27.7679 10.9099 27.8259Z" fill="#FFB66E"/>
<path d="M46.2591 37.204C46.5488 37.204 46.7324 37.3102 46.742 37.6193C46.7517 37.9283 46.6841 38.1119 46.3653 38.1312C46.2983 38.1378 46.2306 38.1306 46.1665 38.1101C46.1023 38.0895 46.0431 38.0561 45.9924 38.0117C45.9417 37.9673 45.9007 37.9131 45.8718 37.8522C45.8429 37.7914 45.8268 37.7253 45.8245 37.6579C45.7665 37.3585 45.95 37.2136 46.2591 37.204Z" fill="#FFB66E"/>
<path d="M30.3229 37.3102C30.3182 37.5519 30.2634 37.79 30.162 38.0094C30.0606 38.2289 29.9148 38.4249 29.7338 38.5851C29.6358 38.6953 29.5054 38.7715 29.3613 38.8028C29.2172 38.834 29.0669 38.8187 28.9321 38.7589C28.7832 38.7063 28.6537 38.61 28.5606 38.4824C28.4675 38.3548 28.4152 38.2021 28.4106 38.0442C28.4237 37.7342 28.5113 37.4319 28.666 37.1629C28.8206 36.8939 29.0378 36.6662 29.2991 36.4989C29.84 36.2381 30.3519 36.6148 30.3229 37.3102Z" fill="#FFB66E"/>
<path d="M44.4433 39.6185C44.4495 39.7127 44.435 39.8071 44.4009 39.8951C44.3667 39.983 44.3137 40.0625 44.2456 40.1278C44.1775 40.1931 44.096 40.2428 44.0067 40.2733C43.9174 40.3038 43.8225 40.3143 43.7286 40.3043C43.6275 40.313 43.5256 40.2985 43.4309 40.2618C43.3362 40.2252 43.2512 40.1674 43.1822 40.0928C43.1132 40.0183 43.0623 39.929 43.0331 39.8317C43.0039 39.7344 42.9974 39.6318 43.0139 39.5316C43.0063 39.4354 43.0199 39.3387 43.0539 39.2484C43.0879 39.1581 43.1414 39.0763 43.2105 39.009C43.2797 38.9417 43.3629 38.8904 43.4541 38.8589C43.5453 38.8274 43.6423 38.8163 43.7383 38.8265C43.8387 38.8258 43.9381 38.8465 44.0298 38.8872C44.1215 38.9279 44.2035 38.9878 44.2703 39.0628C44.337 39.1378 44.387 39.2261 44.4168 39.322C44.4467 39.4178 44.4557 39.5189 44.4433 39.6185Z" fill="#FFB66E"/>
<path d="M12.3972 15.3667C12.5755 15.4528 12.7466 15.5529 12.9091 15.6661C12.9595 15.7033 13.002 15.7501 13.0342 15.8038C13.0664 15.8575 13.0876 15.9171 13.0966 15.9791C13.1056 16.0411 13.1022 16.1043 13.0866 16.1649C13.071 16.2256 13.0435 16.2826 13.0057 16.3325C12.9747 16.3804 12.9342 16.4215 12.8867 16.4531C12.8391 16.4846 12.7856 16.5061 12.7294 16.516C12.6732 16.526 12.6156 16.5243 12.5601 16.511C12.5046 16.4977 12.4524 16.4731 12.4069 16.4387C12.0129 16.2224 11.577 16.0933 11.1288 16.0599C10.6806 16.0266 10.2304 16.0899 9.8088 16.2456C8.41184 16.4895 7.11443 17.1299 6.07106 18.0903C6.03402 18.1449 5.98331 18.1888 5.92399 18.2176C5.86466 18.2464 5.79881 18.2591 5.73302 18.2545C4.65321 18.1976 3.59332 18.5611 2.77577 19.2688C1.95822 19.9765 1.44658 20.9733 1.34819 22.0502C1.12324 22.8677 1.01911 23.7137 1.03912 24.5613C1.13744 25.2058 1.43458 25.8034 1.88905 26.2708C2.41571 26.8958 3.0765 27.3941 3.82227 27.7285C4.56804 28.0629 5.37961 28.2249 6.19663 28.2025C6.73134 28.1311 7.27518 28.1773 7.79023 28.3377C7.9338 28.3699 8.06458 28.444 8.16602 28.5506C8.26745 28.6572 8.33498 28.7915 8.36006 28.9365C8.38465 29.0109 8.38866 29.0906 8.37166 29.1671C8.35466 29.2436 8.31728 29.3141 8.26349 29.3711C8.07998 29.545 8.00271 29.3711 7.87715 29.2649C7.34965 29.0238 6.7766 28.8987 6.19663 28.8979C4.9701 28.8009 3.77667 28.4524 2.69068 27.8741C1.76701 27.4623 1.02145 26.7331 0.589126 25.8189C0.156799 24.9046 0.0663082 23.8657 0.334068 22.8904C0.459625 22.2144 0.585188 21.5383 0.672112 20.8526C0.865277 19.4038 2.02426 18.776 3.1253 18.1193C3.20256 18.071 3.28949 18.0517 3.36675 18.0034C4.11044 17.5784 5.10524 18.0034 5.73302 17.3756C6.36881 16.8476 7.08226 16.4209 7.84818 16.1104C9.02036 15.4441 10.369 15.1541 11.7115 15.2797C12.0399 15.2797 12.1751 15.1735 12.3296 14.9321C12.383 14.8185 12.4624 14.7191 12.5613 14.6418C12.6601 14.5646 12.7758 14.5116 12.8988 14.4872C13.0219 14.4627 13.149 14.4675 13.2699 14.5012C13.3908 14.5348 13.5021 14.5964 13.5948 14.6809C14.2033 15.0866 14.5607 14.9224 14.8407 14.2174C15.2608 13.0429 16.0058 12.0118 16.9889 11.2441C17.972 10.4764 19.1529 10.0036 20.3942 9.88081C20.4616 9.87212 20.5297 9.87212 20.5971 9.88081C20.9447 9.94842 21.5629 9.76492 21.5629 10.2478C21.5629 10.7307 21.0124 10.4506 20.7226 10.4603C19.4912 10.5186 18.3086 10.9592 17.3392 11.7209C16.3699 12.4825 15.662 13.5273 15.314 14.7099C15.314 14.8838 15.2271 14.99 15.0436 15.0383C13.9136 15.386 13.9908 15.4343 14.184 16.6319C14.2419 16.9506 14.184 17.0955 13.8846 17.1245C13.5852 17.1535 13.2761 17.3273 13.3437 17.7233C13.3437 17.9261 13.421 18.0999 13.1795 18.1193C13.128 18.1219 13.0765 18.1142 13.028 18.0965C12.9795 18.0789 12.935 18.0517 12.8972 18.0166C12.8594 17.9815 12.829 17.9391 12.8078 17.8921C12.7867 17.845 12.7751 17.7942 12.7739 17.7426C12.74 17.587 12.7564 17.4246 12.8206 17.2788C12.8848 17.1331 12.9936 17.0114 13.1312 16.9313C13.6141 16.7382 13.5948 16.4001 13.5659 15.9655C13.5659 15.8979 13.5659 15.8109 13.5659 15.7626C13.4113 15.5309 14.0101 15.3667 13.6238 15.1252C13.2375 14.8838 12.8415 14.961 12.3972 15.3667Z" fill="black"/>
<path d="M33.5198 39.4254C33.6067 39.8986 33.2687 40.1304 32.979 40.3912C32.1525 41.0613 31.1279 41.4398 30.0643 41.4678C29.0007 41.4957 27.9576 41.1716 27.0971 40.5458C26.1313 39.8504 25.1654 39.1454 24.9336 37.8415C24.8564 37.3682 24.4507 37.3103 24.0934 37.1847C23.6046 36.9977 23.207 36.6288 22.9838 36.1554C22.7606 35.682 22.7291 35.1407 22.8958 34.6446C22.9119 34.5688 22.9552 34.5015 23.0174 34.4553C23.0796 34.409 23.1566 34.3871 23.2338 34.3935C23.398 34.3935 23.427 34.548 23.427 34.6929C23.4123 34.9148 23.4123 35.1374 23.427 35.3593C23.5235 35.9485 23.6394 36.4796 24.3928 36.6052C24.6043 36.6523 24.799 36.7564 24.9556 36.9063C25.1122 37.0561 25.2249 37.2459 25.2813 37.4551C25.7836 39.1357 27.1647 39.8214 28.6134 40.3526C29.3157 40.5911 30.0635 40.6646 30.7988 40.5675C31.5341 40.4703 32.2371 40.2051 32.8534 39.7924C33.0852 39.6475 33.2397 39.4351 33.5198 39.4254Z" fill="black"/>
<path d="M49.253 7.11857C49.1758 7.07028 49.0888 6.97369 49.0309 6.99301C48.5093 7.07993 48.152 6.99301 47.9975 6.3942C47.9299 6.14309 47.5822 6.33621 47.418 6.17202C47.756 5.7374 48.1134 5.69878 48.3838 6.12374C48.5673 6.38452 48.7315 6.55835 49.0599 6.52937C49.1468 6.52937 49.2917 6.52938 49.311 6.59699C49.7649 7.63042 50.7887 7.30206 51.5227 7.39864C52.692 7.57705 53.8113 7.99731 54.8091 8.63256C55.8069 9.26782 56.6612 10.1041 57.3177 11.0881C57.3869 11.2045 57.4924 11.295 57.6181 11.3456C57.7437 11.3962 57.8825 11.4041 58.0131 11.3682C58.2563 11.3022 58.5157 11.3341 58.7359 11.4568C58.956 11.5795 59.1195 11.7833 59.1914 12.0249C59.2879 12.276 59.3749 12.3727 59.6067 12.1891C59.6611 12.1511 59.7194 12.1187 59.7805 12.0925C60.0316 11.9766 60.3504 12.0926 60.3697 12.2471C60.4276 12.9328 61.5383 12.8942 61.3355 13.7055C61.3154 13.8061 61.2612 13.8966 61.182 13.9617C61.1027 14.0268 61.0034 14.0626 60.9009 14.0628C60.6304 14.0628 60.7753 13.7731 60.756 13.7538C60.3504 13.493 59.9061 13.2709 59.9447 12.6721C59.8578 12.6767 59.7708 12.6767 59.6839 12.6721C59.23 12.6721 58.8244 12.672 58.6022 12.1119C58.496 11.8221 58.1483 11.4455 57.762 12.0153C57.5784 12.2857 57.3949 12.0829 57.2694 11.8704C56.9007 11.2812 56.4771 10.7282 56.0041 10.2188C54.528 8.69599 52.5301 7.78845 50.412 7.67871C49.6809 7.62369 48.946 7.64636 48.2196 7.74632C48.0554 7.74632 47.8623 7.7946 47.814 7.61109C47.7657 7.42758 48.0168 7.46626 48.1327 7.40831C48.4997 7.27309 48.9247 7.37934 49.253 7.11857Z" fill="black"/>
<path d="M19.6601 35.282C19.0298 35.1752 18.4302 34.9323 17.9032 34.5704C17.3761 34.2085 16.9342 33.7361 16.6081 33.1862C16.5115 32.8771 16.3666 32.8675 16.1349 32.8965C14.8823 33.039 13.6231 32.6931 12.6193 31.9306C12.165 31.5984 11.6328 31.3888 11.0739 31.3222C10.8741 31.3127 10.6802 31.2517 10.5109 31.1451C10.3417 31.0385 10.2029 30.8898 10.1081 30.7137C10.0753 30.6546 10.0549 30.5894 10.0483 30.5221C10.0418 30.4548 10.0492 30.3868 10.07 30.3225C10.0908 30.2582 10.1247 30.1988 10.1695 30.1481C10.2142 30.0975 10.269 30.0565 10.3303 30.0279C10.6007 29.8638 10.6103 30.1149 10.7166 30.2984C10.9097 30.6654 11.3347 30.7234 11.6824 30.8393C12.2395 30.9996 12.7608 31.2651 13.2181 31.6216C14.1561 32.2881 15.3146 32.5682 16.4536 32.4039C16.6757 32.4039 16.7626 32.259 16.8785 32.1334C16.9418 32.0514 17.0341 31.9966 17.1365 31.9805C17.2389 31.9643 17.3436 31.988 17.4291 32.0465C17.6512 32.2011 17.4291 32.3073 17.3518 32.4618C17.1103 32.9061 17.3518 33.2731 17.6609 33.5918C18.0985 33.9936 18.6333 34.2743 19.2125 34.4064C19.7918 34.5385 20.3954 34.5174 20.964 34.3452C21.3986 34.2679 22.0843 34.0748 22.1713 34.4611C22.2582 34.8474 21.5338 34.7894 21.2054 34.973C20.7123 35.1653 20.1893 35.2699 19.6601 35.282Z" fill="black"/>
<path d="M43.2553 4.37565C43.1574 3.86577 42.9486 3.3836 42.6438 2.96328C42.3391 2.54296 41.9456 2.19474 41.4914 1.94322C41.0372 1.69171 40.5333 1.54307 40.0153 1.50777C39.4973 1.47246 38.9779 1.5514 38.4938 1.73896C37.9308 1.85362 37.3587 1.91828 36.7843 1.93214C35.288 2.20619 33.8915 2.87281 32.7375 3.86379C32.5096 4.10911 32.2998 4.37056 32.1097 4.6461C32.0324 4.73303 32.1097 4.94548 31.8586 4.85856C31.6074 4.77163 31.7427 4.58815 31.8006 4.4626C32.0126 4.06796 32.3017 3.71985 32.6505 3.43882C34.2283 2.09563 36.2109 1.32025 38.2813 1.23672C38.6676 1.23672 39.0443 1.01457 39.4403 0.985594C40.3241 0.934308 41.2031 1.14884 41.9639 1.60155C42.7248 2.05427 43.3327 2.72445 43.7092 3.52572C43.8348 3.79615 43.9024 3.96037 44.2887 3.86379C44.6057 3.77507 44.9441 3.80329 45.242 3.94337C45.5399 4.08345 45.7774 4.32603 45.9113 4.62677C46.0562 4.87788 46.1624 5.00342 46.5101 4.96478C46.6045 4.93968 46.7037 4.93844 46.7987 4.96119C46.8937 4.98394 46.9815 5.02998 47.0543 5.09512C47.1271 5.16026 47.1826 5.24244 47.2157 5.33434C47.2489 5.42624 47.2586 5.52493 47.2441 5.62154C47.2441 5.77607 47.1959 6.02719 47.0027 6.0465C46.8095 6.06582 46.7612 5.85338 46.7612 5.66988C46.7612 5.32218 46.5391 5.25455 46.2687 5.28352C46.1191 5.31626 45.9627 5.29047 45.8315 5.21143C45.7004 5.13239 45.6045 5.0061 45.5636 4.85856C45.4979 4.70931 45.402 4.57532 45.2818 4.46507C45.1617 4.35482 45.0199 4.27073 44.8656 4.21807C44.7113 4.16542 44.5477 4.14536 44.3852 4.15918C44.2228 4.17301 44.0649 4.22039 43.9217 4.29836C43.8139 4.35271 43.6948 4.38101 43.574 4.38101C43.4532 4.38101 43.3342 4.35271 43.2263 4.29836L43.2553 4.37565Z" fill="black"/>
<path d="M39.141 44.3414C38.1697 44.3164 37.2224 44.0353 36.3947 43.5265C35.567 43.0177 34.8885 42.2993 34.4277 41.444C34.3371 41.3145 34.2685 41.1709 34.2249 41.019C34.2249 40.8645 34.0704 40.6423 34.3022 40.5458C34.534 40.4492 34.5243 40.7293 34.5823 40.8355C36.0117 43.3756 40.0295 44.5829 42.5406 42.3518C42.7435 42.178 42.9849 41.9752 43.2264 42.2649C43.4678 42.5546 43.2264 42.7478 43.0236 42.9313C42.5046 43.4156 41.8932 43.7901 41.2261 44.0324C40.5589 44.2747 39.8497 44.3798 39.141 44.3414Z" fill="black"/>
<path d="M67.8162 33.9781C67.3623 33.6884 67.0049 33.9781 66.5993 34.1809C66.2992 34.307 65.9662 34.3318 65.6508 34.2517C65.3354 34.1715 65.0546 33.9907 64.8512 33.7367C64.7739 33.6111 64.7256 33.4856 64.8512 33.3697C64.9767 33.2538 65.0443 33.3697 65.1409 33.3697C65.4254 33.5295 65.7539 33.5932 66.0775 33.5515C66.4012 33.5097 66.7027 33.3647 66.9373 33.1379C66.9604 33.105 66.9898 33.0771 67.0238 33.0558C67.0579 33.0345 67.0958 33.0203 67.1355 33.014C67.1751 33.0077 67.2156 33.0094 67.2546 33.0191C67.2936 33.0288 67.3302 33.0462 67.3623 33.0703C67.8162 33.4373 68.1929 33.1958 68.5792 32.935C68.7368 32.8112 68.9049 32.7013 69.0815 32.6066C69.601 32.3965 70.0601 32.0605 70.4175 31.629C70.7749 31.1974 71.0194 30.6837 71.129 30.1341C71.2063 29.7961 71.1773 29.0524 71.7665 29.2746C72.3556 29.4967 71.7665 29.941 71.6602 30.2404C71.4306 31.0253 71.0238 31.747 70.4712 32.3498C69.9186 32.9526 69.235 33.4205 68.473 33.7173C68.2609 33.8205 68.0413 33.9077 67.8162 33.9781Z" fill="black"/>
<path d="M60.9974 35.8615C61.0457 35.3592 61.3644 35.1371 61.5479 34.8474C61.7973 34.5037 61.9386 34.0935 61.9536 33.6691C61.9536 32.7033 61.6348 32.4231 60.7077 32.4908C60.6016 32.4988 60.495 32.4988 60.3889 32.4908C60.8525 31.7567 60.3889 31.3125 59.9446 30.8778C59.7901 30.7233 59.5197 30.6074 59.7225 30.3467C59.9253 30.0859 60.1668 30.2791 60.302 30.4239C60.872 31.1855 61.5411 31.8676 62.2916 32.4521C62.4075 32.5198 62.4461 32.7226 62.5041 32.8578C62.7649 33.4662 63.0063 33.5628 63.5472 33.2151C63.721 33.1089 63.8852 32.9158 64.0591 33.1282C64.2329 33.3407 64.0591 33.5049 63.9818 33.6788C63.9055 33.8317 63.7838 33.9573 63.6334 34.0385C63.483 34.1198 63.3113 34.1527 63.1415 34.1327C62.7359 34.0651 62.5717 34.21 62.4075 34.577C62.1189 35.1696 61.6143 35.6293 60.9974 35.8615Z" fill="black"/>
<path d="M69.999 17.8682C70.8103 17.0376 72.8965 17.6654 73.2152 18.5539C73.3408 18.8533 73.447 18.9596 73.8527 18.9403C74.1923 18.9276 74.5277 19.0188 74.8142 19.2017C75.1007 19.3846 75.3245 19.6506 75.4559 19.964C75.5815 20.2345 75.6105 20.3697 75.9968 20.2055C76.3831 20.0413 77.0882 19.8964 77.2813 20.6691C77.2813 20.8719 77.5035 20.8622 77.6387 20.9105C77.7888 20.9622 77.9207 21.0564 78.0184 21.1815C78.1161 21.3067 78.1754 21.4574 78.1892 21.6156C78.202 21.6766 78.2012 21.7397 78.1868 21.8003C78.1725 21.861 78.145 21.9178 78.1063 21.9666C78.0676 22.0155 78.0186 22.0552 77.9629 22.083C77.9071 22.1108 77.8459 22.126 77.7836 22.1275C77.4262 22.1275 77.5807 21.886 77.6001 21.7025C77.6001 21.3548 77.4938 21.21 77.1365 21.2872C76.9433 21.2872 76.6729 21.4031 76.8274 21.0168C76.895 20.8526 76.9723 20.6304 76.7501 20.5435C76.6362 20.4906 76.5073 20.479 76.3857 20.5107C76.2641 20.5424 76.1573 20.6155 76.0837 20.7174C75.8423 21.1133 75.6877 21.0264 75.4946 20.7174C75.3787 20.5339 75.2145 20.3697 75.0889 20.1958C74.8088 19.7902 74.3645 19.23 73.9975 19.4135C73.0993 19.7322 73.138 18.9789 72.7903 18.6215C72.516 18.3584 72.1861 18.1603 71.8251 18.0416C71.464 17.9229 71.081 17.8867 70.7041 17.9358C70.4676 17.9855 70.2217 17.9619 69.999 17.8682Z" fill="black"/>
<path d="M58.9887 35.1275C58.9887 35.3303 58.9887 35.5331 58.9887 35.7359C58.9887 35.9388 58.6796 36.2864 59.0466 36.4313C59.2233 36.5026 59.4162 36.5232 59.6039 36.4907C59.7916 36.4583 59.9665 36.3742 60.109 36.2478C60.2925 36.0933 60.4374 35.7842 60.6692 36.0836C60.7145 36.143 60.7448 36.2124 60.7576 36.286C60.7703 36.3596 60.7651 36.4352 60.7423 36.5063C60.7195 36.5774 60.6799 36.642 60.6268 36.6945C60.5738 36.747 60.5088 36.786 60.4374 36.808C59.9352 37.0012 59.5295 37.7159 58.8438 37.1267C58.641 36.9625 58.612 37.2426 58.5444 37.3585C58.2159 37.8913 57.7821 38.3514 57.2695 38.7106C57.1053 38.8265 56.9315 38.8748 56.7963 38.7106C56.661 38.5465 56.7962 38.4209 56.9121 38.3147C57.2152 38.0486 57.5022 37.7648 57.7717 37.4648C58.085 37.1171 58.3017 36.6933 58.4 36.2357C58.4983 35.7781 58.4748 35.3027 58.3319 34.857C58.2546 34.6445 58.1098 34.4514 58.3319 34.2389C58.3822 34.1782 58.4511 34.1358 58.528 34.1183C58.6048 34.1009 58.6853 34.1093 58.7569 34.1423C59.0466 34.2486 59.0563 34.4997 59.0659 34.7508V35.1467L58.9887 35.1275Z" fill="black"/>
<path d="M56.661 38.8845C56.3225 39.2548 55.9086 39.5482 55.447 39.7448C54.9855 39.9414 54.4872 40.0367 53.9856 40.0242H53.8504C53.5684 39.9453 53.2671 39.9724 53.0037 40.1006C52.7403 40.2287 52.533 40.4489 52.421 40.7196C52.2925 40.973 52.083 41.1762 51.8257 41.2969C51.5685 41.4177 51.2783 41.449 51.0013 41.386C50.7598 41.3377 50.5377 41.2411 50.5859 40.961C50.6342 40.681 50.8274 40.7872 51.0206 40.8162C51.7449 40.9224 52.1409 40.4588 52.4403 39.9179C52.6238 39.5799 52.8267 39.2998 53.213 39.2612C54.3623 39.1356 55.5117 39.0873 56.661 38.8845Z" fill="black"/>
<path d="M30.3906 38.8556C30.632 38.5948 30.7479 38.1698 31.1825 38.3726C31.6172 38.5755 31.6461 39.0487 31.6365 39.4157C31.6268 39.7828 31.2115 39.831 30.9314 39.6475C30.7312 39.4755 30.4911 39.3562 30.233 39.3005C29.975 39.2448 29.7071 39.2546 29.4537 39.3288C29.3218 39.353 29.1856 39.3395 29.061 39.29C28.9363 39.2405 28.828 39.1569 28.7487 39.0487C28.5618 38.7702 28.462 38.4424 28.462 38.107C28.462 37.7716 28.5618 37.4439 28.7487 37.1654C28.7804 37.1182 28.8215 37.078 28.8694 37.0473C28.9173 37.0167 28.971 36.9962 29.0271 36.9872C29.0833 36.9781 29.1407 36.9807 29.1958 36.9947C29.2509 37.0087 29.3025 37.0339 29.3475 37.0687C29.6372 37.2812 29.3475 37.3778 29.2412 37.513C29.135 37.6483 29.077 38.0539 29.0674 38.3436C29.0531 38.4339 29.069 38.5265 29.1127 38.6068C29.1564 38.6871 29.2253 38.7508 29.3088 38.7879C29.3513 38.8028 29.3963 38.8088 29.4411 38.8055C29.486 38.8023 29.5297 38.7898 29.5695 38.769C29.6093 38.7482 29.6445 38.7194 29.6727 38.6845C29.701 38.6495 29.7218 38.6091 29.7338 38.5658C29.8111 38.3727 29.9173 38.2471 30.1298 38.2857C30.3423 38.3243 30.2457 38.6334 30.3906 38.8556Z" fill="black"/>
<path d="M79.9953 22.2337C79.6283 22.6876 79.9953 22.9967 80.2754 23.3927C80.5649 23.9749 80.62 24.646 80.4296 25.2676C80.2391 25.8893 79.8175 26.4143 79.2516 26.7345C79.0874 26.8117 78.9522 26.8407 78.8363 26.7345C78.7204 26.6282 78.8363 26.4061 78.9522 26.2902C79.339 26.0404 79.6682 25.7112 79.918 25.3244C80.0434 25.1601 80.1341 24.972 80.1847 24.7716C80.2352 24.5712 80.2445 24.3626 80.212 24.1585C80.1795 23.9543 80.1058 23.759 79.9955 23.5842C79.8852 23.4094 79.7406 23.2588 79.5703 23.1416C79.2999 22.9291 79.3192 22.9388 79.4544 22.6104C79.522 22.4655 79.5027 22.1178 79.3965 22.1275C78.9039 22.1275 79.0681 21.4804 78.6045 21.4611C78.4403 21.4611 78.5079 21.1906 78.6914 21.1327C78.8749 21.0747 80.0049 21.8377 79.9953 22.2337Z" fill="black"/>
<path d="M62.678 14.8548C63.2192 14.5882 63.8083 14.433 64.4105 14.3982C65.0127 14.3633 65.6157 14.4496 66.184 14.652C67.0508 14.877 67.8184 15.3831 68.3667 16.0911C68.6951 16.516 69.3326 16.5063 69.7865 16.7381C70.0859 16.883 70.2211 17.0279 70.1149 17.337C70.1149 17.4528 69.9121 17.5881 69.8155 17.4722C69.6411 17.2221 69.4006 17.0255 69.1209 16.9044C68.8411 16.7833 68.5332 16.7424 68.2315 16.7864C68.2315 16.7864 68.0867 16.6802 68.0673 16.6126C67.6424 15.2797 66.4351 15.1832 65.3727 14.8644C64.4826 14.6969 63.5693 14.6937 62.678 14.8548Z" fill="black"/>
<path d="M21.6982 9.23375C21.6982 7.93955 22.3549 7.14757 23.3691 7.17654H23.4367C23.9883 7.50636 24.6193 7.67992 25.2621 7.67873C25.5228 7.67873 25.5422 8.22925 25.7836 8.46105C25.8416 8.519 25.7836 8.62525 25.6581 8.65422C25.5858 8.68794 25.5041 8.69579 25.4267 8.67645C25.3494 8.6571 25.281 8.61176 25.2331 8.548C24.8468 7.84294 24.4604 8.13269 24.0644 8.548C23.9872 8.62526 23.8809 8.72187 23.7843 8.63495C23.6878 8.54802 23.7167 8.43212 23.7071 8.32588C23.7071 8.02647 23.823 7.64009 23.398 7.55317C23.2062 7.5292 23.0117 7.56339 22.8395 7.6512C22.6673 7.73902 22.5254 7.87643 22.4322 8.04575C22.2036 8.45474 22.0964 8.92047 22.1231 9.38826C22.1231 9.59108 22.297 9.98706 21.9879 9.98706C21.6789 9.98706 21.7561 9.58143 21.7368 9.33031L21.6982 9.23375Z" fill="black"/>
<path d="M28.6327 5.65053C28.9514 5.81472 29.077 5.53465 29.2315 5.37046C29.4857 5.1292 29.7926 4.95036 30.1279 4.84811C30.4631 4.74586 30.8175 4.72295 31.1631 4.78126C31.3273 4.78126 31.5012 4.84887 31.5108 5.02272C31.5205 5.19656 31.308 5.24487 31.1728 5.28351C31.0606 5.29818 30.947 5.29818 30.8348 5.28351C30.7032 5.29802 30.5704 5.29802 30.4388 5.28351C29.6468 5.16761 29.3571 6.19136 28.8741 6.16238C28.5593 6.13074 28.2417 6.17977 27.9511 6.3048C27.6604 6.42984 27.4064 6.62682 27.2129 6.87714C27.0129 7.06007 26.8802 7.30499 26.8363 7.57251C26.8363 7.81396 26.6914 7.89124 26.4789 7.82363C26.2664 7.75602 26.2761 7.55318 26.3244 7.37933C26.5197 6.91128 26.8368 6.50408 27.2427 6.20005C27.6486 5.89602 28.1286 5.70629 28.6327 5.65053Z" fill="black"/>
<path d="M27.9083 9.96774C27.5628 10.312 27.339 10.7596 27.2709 11.2426C27.2432 11.3167 27.2395 11.3976 27.2603 11.4738C27.2811 11.5501 27.3253 11.6179 27.3868 11.6676C27.551 11.8028 27.7055 11.6676 27.8118 11.6676C28.0956 11.5134 28.3448 11.3028 28.5441 11.0487C28.7435 10.7946 28.8887 10.5023 28.9708 10.1899C28.9708 10.0257 28.9708 9.89048 29.1736 9.9098C29.3764 9.92911 29.5116 9.90985 29.5309 10.1416C29.5747 10.3127 29.5747 10.4921 29.5309 10.6632C29.383 11.038 29.1565 11.3767 28.8666 11.6566C28.5767 11.9365 28.2302 12.151 27.8504 12.2857C27.2419 12.4789 26.8846 12.1699 26.8846 11.5324C26.8347 11.1916 26.9112 10.8442 27.0998 10.556C27.2885 10.2677 27.576 10.0585 27.9083 9.96774Z" fill="black"/>
<path d="M73.8139 29.6609H73.5531C73.3213 29.6609 72.9736 29.7285 72.9736 29.3905C72.9736 29.0525 73.3117 29.1201 73.5048 29.1587C74.5383 29.3326 75.3785 28.6854 76.3347 28.5116C76.9818 28.3957 77.2039 27.623 77.3778 26.9952C77.4261 26.831 77.2426 26.5509 77.5806 26.5703C77.6437 26.571 77.7056 26.5881 77.7602 26.6197C77.8148 26.6514 77.8603 26.6966 77.8923 26.7509C77.9244 26.8053 77.9418 26.867 77.9431 26.9301C77.9443 26.9932 77.9292 27.0555 77.8993 27.1111C77.6289 27.8162 77.3681 28.6565 76.5762 28.84C75.8398 29.1705 75.0732 29.4292 74.2872 29.6126C74.0843 29.6223 73.8912 29.6512 73.8139 29.6609Z" fill="black"/>
<path d="M49.9582 39.831C49.9428 39.8143 49.9242 39.801 49.9034 39.7919C49.8826 39.7828 49.8602 39.7781 49.8375 39.7781C49.8148 39.7781 49.7923 39.7828 49.7716 39.7919C49.7508 39.801 49.7321 39.8143 49.7167 39.831C49.456 40.2173 49.4849 40.7968 48.8475 40.9224C48.7702 40.9224 48.8475 41.1348 48.9634 41.1831C49.0793 41.2314 49.2628 41.4536 49.1372 41.666C49.0869 41.7417 49.0176 41.8029 48.9363 41.8436C48.855 41.8843 48.7644 41.903 48.6736 41.8978C48.5607 41.9141 48.4456 41.8913 48.3473 41.8334C48.249 41.7755 48.1733 41.6858 48.1328 41.5792C48.0591 41.4002 48.0409 41.2032 48.0805 41.0138C48.1201 40.8243 48.2157 40.6512 48.3549 40.5167C48.8572 40.0241 48.9537 39.039 49.9485 39.1259C50.0176 39.1238 50.0863 39.1369 50.1498 39.1641C50.2133 39.1914 50.2701 39.2322 50.3161 39.2838C50.3621 39.3353 50.3963 39.3964 50.4162 39.4625C50.4362 39.5287 50.4414 39.5984 50.4315 39.6668C50.3928 39.9276 50.1707 39.9469 49.9582 39.831Z" fill="black"/>
<path d="M15.2849 31.1289C15.198 30.675 15.0242 30.3659 14.5702 30.3466C14.1163 30.3273 14.1549 30.0955 14.3384 29.854C14.6958 29.3905 14.9469 29.0331 14.039 28.9655C13.6913 28.9655 13.5948 28.6758 13.9231 28.4343C14.2515 28.1929 14.2708 28.1735 14.1742 27.8934C14.1742 27.7872 13.9038 27.6134 14.1742 27.5264C14.2129 27.5148 14.2536 27.511 14.2937 27.5154C14.3339 27.5199 14.3727 27.5324 14.4079 27.5523C14.4431 27.5721 14.4739 27.5989 14.4985 27.631C14.5231 27.663 14.5409 27.6997 14.5509 27.7389C14.6286 28.1613 14.8505 28.5436 15.1787 28.8206C15.1908 28.8393 15.1972 28.8611 15.1972 28.8834C15.1972 28.9057 15.1908 28.9275 15.1787 28.9462C15.0826 29.2194 15.0642 29.514 15.1256 29.797C15.187 30.0801 15.3257 30.3405 15.5264 30.5494C15.7485 30.7619 15.5071 30.9454 15.2849 31.1289Z" fill="black"/>
<path d="M75.0599 26.2322C75.6491 26.126 76.0258 25.9135 75.9485 25.2664C75.9485 25.0346 76.0161 24.938 76.3155 24.9959C76.4507 25.0237 76.5907 25.0186 76.7235 24.9809C76.8563 24.9432 76.9781 24.874 77.0785 24.7792C77.179 24.6845 77.2551 24.5669 77.3005 24.4365C77.3459 24.3062 77.3592 24.1667 77.3393 24.0301C77.3393 23.808 77.3393 23.6728 77.5421 23.6341C77.7449 23.5955 77.8995 23.75 77.9574 23.9721C78.016 24.2964 77.9488 24.6309 77.7693 24.9073C77.5898 25.1836 77.3117 25.3812 76.9916 25.4596C76.8807 25.4888 76.779 25.5459 76.6962 25.6253C76.6134 25.7047 76.5522 25.8039 76.5183 25.9135C76.4706 26.0561 76.3866 26.184 76.2747 26.2845C76.1627 26.385 76.0266 26.4547 75.8796 26.4868C75.7326 26.5189 75.5798 26.5124 75.4362 26.4678C75.2925 26.4231 75.1628 26.3419 75.0599 26.2322Z" fill="black"/>
<path d="M67.8741 26.9566C68.5212 26.8021 68.84 27.0725 68.84 27.6906C68.8313 27.8569 68.79 28.0197 68.7183 28.17C68.6465 28.3202 68.5459 28.4548 68.4221 28.566C68.2983 28.6773 68.1537 28.763 67.9967 28.8183C67.8397 28.8736 67.6733 28.8974 67.5071 28.8882C67.3648 28.8629 67.229 28.8092 67.1077 28.7304C66.9865 28.6516 66.8822 28.5493 66.8012 28.4296C66.7202 28.3098 66.664 28.175 66.6359 28.0332C66.6079 27.8913 66.6085 27.7453 66.6379 27.6037C66.6862 27.3622 66.7731 27.1111 67.0435 27.1787C67.314 27.2463 67.0435 27.4588 67.0435 27.6037C67.0116 27.7468 67.0333 27.8966 67.1045 28.0248C67.1757 28.153 67.2915 28.2506 67.4299 28.2991C67.5324 28.3449 67.6488 28.3482 67.7538 28.3084C67.8587 28.2686 67.9437 28.1888 67.99 28.0866C68.1542 27.8258 68.3667 27.5554 68.1156 27.2367C68.048 27.1015 67.8355 27.1304 67.8741 26.9566Z" fill="black"/>
<path d="M46.4039 41.8013C46.4039 41.5792 46.0079 41.5985 46.1334 41.386C46.259 41.1735 46.5294 41.2025 46.7419 41.2991C46.9544 41.3957 47.1669 41.5985 47.08 41.8786C47.0188 42.0847 46.9015 42.2698 46.7411 42.413C46.5808 42.5563 46.3838 42.6522 46.1721 42.6899C45.969 42.7598 45.751 42.7743 45.5405 42.7318C45.3299 42.6894 45.1346 42.5915 44.9744 42.4484C44.8985 42.379 44.8477 42.2863 44.8302 42.1849C44.8127 42.0835 44.8295 41.9791 44.8779 41.8883C45.0034 41.6565 45.1966 41.7241 45.3898 41.8207C45.5475 41.9006 45.7224 41.9406 45.8992 41.9372C46.076 41.9338 46.2493 41.8872 46.4039 41.8013Z" fill="black"/>
<path d="M9.73152 29.3132C9.38382 28.9269 9.07476 29.4484 8.76569 29.1683C8.79765 29.0623 8.85483 28.9656 8.93233 28.8864C9.00983 28.8073 9.10536 28.7481 9.21073 28.7139C9.3161 28.6797 9.42817 28.6716 9.53737 28.6902C9.64657 28.7088 9.74964 28.7535 9.83776 28.8206C10.2917 29.0717 10.1565 29.4774 9.91503 29.8541C9.47075 30.5495 8.81399 30.6847 8.40834 30.1535C8.28279 29.9989 8.15723 29.8251 8.33108 29.6223C8.50493 29.4195 8.64014 29.3808 8.84296 29.5547C9.25827 29.8541 9.42245 29.4484 9.73152 29.3132Z" fill="black"/>
<path d="M4.72859 25.6624C4.60499 25.7161 4.47151 25.7433 4.33676 25.7423C4.202 25.7413 4.06895 25.7122 3.94615 25.6567C3.82334 25.6012 3.71351 25.5206 3.62371 25.4202C3.53391 25.3197 3.46613 25.2015 3.42473 25.0732C3.2775 24.783 3.21144 24.4583 3.23354 24.1336C3.25564 23.8089 3.36508 23.4962 3.55029 23.2286C3.57312 23.1892 3.60368 23.1548 3.6401 23.1276C3.67652 23.1003 3.71807 23.0807 3.76226 23.0699C3.80644 23.059 3.85237 23.0573 3.89726 23.0646C3.94216 23.072 3.98511 23.0883 4.02355 23.1127C4.20705 23.2092 4.12013 23.3638 4.08149 23.5183C4.01307 23.7745 3.96781 24.0363 3.94628 24.3006C3.91098 24.5818 3.96823 24.8668 4.10939 25.1125C4.25055 25.3582 4.46792 25.5512 4.72859 25.6624Z" fill="black"/>
<path d="M50.0257 11.204C50.0655 11.29 50.0856 11.3838 50.0845 11.4786C50.0835 11.5733 50.0614 11.6666 50.0198 11.7517C49.9781 11.8368 49.918 11.9116 49.8439 11.9705C49.7697 12.0295 49.6834 12.0712 49.5911 12.0926C49.3661 12.1967 49.1139 12.2267 48.8709 12.178C48.6278 12.1294 48.4065 12.0048 48.2389 11.8222C48.0629 11.6064 47.9485 11.3472 47.9077 11.0717C47.8669 10.7963 47.9012 10.515 48.0071 10.2575C48.0178 10.2072 48.0405 10.1601 48.0733 10.1205C48.1061 10.0808 48.1481 10.0497 48.1955 10.0298C48.243 10.0098 48.2946 10.0017 48.3458 10.006C48.3971 10.0103 48.4466 10.0271 48.49 10.0547C48.7218 10.1706 48.49 10.3058 48.49 10.4314C48.3981 10.6129 48.3768 10.822 48.4304 11.0183C48.4839 11.2146 48.6084 11.3841 48.7798 11.4938C48.8786 11.5629 48.991 11.6106 49.1094 11.6335C49.2279 11.6564 49.3498 11.6541 49.4674 11.6267C49.5849 11.5994 49.6953 11.5477 49.7915 11.4748C49.8877 11.402 49.9675 11.3097 50.0257 11.204Z" fill="black"/>
<path d="M56.0139 13.7538C56.1781 14.0822 56.4099 14.285 56.2457 14.5747C56.2033 14.6403 56.1411 14.6906 56.0682 14.7184C55.9952 14.7462 55.9153 14.75 55.8401 14.7293C55.7347 14.7147 55.6358 14.6699 55.5553 14.6004C55.4748 14.5308 55.4162 14.4394 55.3866 14.3372C55.357 14.2351 55.3576 14.1265 55.3883 14.0247C55.4191 13.9228 55.4787 13.8321 55.56 13.7635C55.7082 13.6366 55.8279 13.4798 55.9111 13.3033C55.9944 13.1268 56.0393 12.9348 56.0429 12.7397C56.0534 12.6156 56.0988 12.4971 56.1741 12.3979C56.2493 12.2987 56.3512 12.223 56.4679 12.1795C56.5287 12.1284 56.6057 12.1004 56.6852 12.1004C56.7646 12.1004 56.8416 12.1284 56.9025 12.1795C57.0184 12.334 56.9025 12.4499 56.7576 12.5272C56.4389 12.6527 56.4968 12.9714 56.5741 13.1646C56.7866 13.7634 56.661 13.9663 56.0139 13.7538Z" fill="black"/>
<path d="M43.2264 4.34669C43.1685 4.50122 43.352 4.8006 42.9656 4.74265C42.8531 4.73003 42.7394 4.75305 42.6406 4.8085C42.5418 4.86395 42.463 4.94905 42.4151 5.05172C42.135 5.54429 41.9708 6.12379 41.1885 5.90165C41.0919 5.90165 40.9084 6.02718 40.9181 6.23C40.9278 6.43282 40.9181 6.52941 40.7153 6.47146C40.5124 6.41351 40.3965 6.28796 40.4738 6.05616C40.5155 5.90373 40.6007 5.7668 40.7191 5.66214C40.8375 5.55748 40.9838 5.48965 41.1402 5.46702C41.5266 5.46702 41.6618 5.24486 41.8356 4.96477C41.9641 4.71427 42.1774 4.51755 42.4374 4.40965C42.6974 4.30175 42.9873 4.28968 43.2554 4.37563L43.2264 4.34669Z" fill="black"/>
<path d="M54.4203 37.4068C54.4543 37.7641 54.3731 38.1228 54.1885 38.4306C54.1112 38.5562 53.9953 38.6914 53.8118 38.6238C53.7355 38.5974 53.6726 38.5421 53.6365 38.4699C53.6004 38.3977 53.594 38.3143 53.6186 38.2374C53.7267 37.9927 53.7615 37.722 53.7186 37.4579C53.6758 37.1939 53.5571 36.948 53.3772 36.7501C53.2806 36.6535 53.3772 36.5279 53.4544 36.4603C53.5387 36.4039 53.6379 36.3737 53.7394 36.3737C53.8408 36.3737 53.94 36.4039 54.0243 36.4603C54.1725 36.565 54.2883 36.7092 54.3584 36.8766C54.4284 37.044 54.4498 37.2278 54.4203 37.4068Z" fill="black"/>
<path d="M42.0481 39.1453C42.3378 39.2033 42.3571 38.6527 42.6758 38.9425C42.7297 38.9826 42.7685 39.0396 42.786 39.1044C42.8035 39.1693 42.7987 39.2381 42.7724 39.2999C42.6662 39.551 42.531 39.7828 42.2026 39.7828C41.6617 39.7828 41.4686 39.464 41.4686 38.9618C41.4686 38.4596 41.7873 37.8608 42.2219 37.8994C42.2884 37.8954 42.3544 37.913 42.4101 37.9495C42.4658 37.9861 42.5082 38.0396 42.531 38.1022C42.531 38.2567 42.4247 38.2471 42.3185 38.2857C41.8163 38.4596 42.0481 38.8266 42.0481 39.1453Z" fill="black"/>
<path d="M13.5852 27.1498C13.5852 27.3236 13.4886 27.3719 13.4017 27.3622C12.5711 27.2463 12.7352 27.8355 12.7352 28.3281C12.7352 28.3281 12.7352 28.3763 12.7352 28.386C12.5324 28.782 11.924 28.9655 12.0978 29.5643C12.0119 29.5876 11.9205 29.5789 11.8405 29.5398C11.7606 29.5007 11.6975 29.4339 11.6632 29.3518C11.6007 29.231 11.5792 29.0932 11.6018 28.959C11.6245 28.8249 11.6901 28.7018 11.7887 28.6082C12.143 28.3174 12.3741 27.9033 12.4358 27.4492C12.5711 26.9759 12.9477 26.9373 13.3437 27.0242C13.4693 27.0146 13.5369 27.1111 13.5852 27.1498Z" fill="black"/>
<path d="M38.2812 39.7634C38.128 39.864 37.9962 39.9938 37.8933 40.1454C37.7905 40.297 37.7185 40.4675 37.6817 40.647C37.645 40.8265 37.644 41.0114 37.6789 41.1913C37.7138 41.3712 37.784 41.5424 37.8852 41.6951C37.7372 41.6711 37.5963 41.615 37.4723 41.5306C37.3484 41.4461 37.2446 41.3355 37.1681 41.2065C37.0916 41.0775 37.0444 40.9334 37.0298 40.7842C37.0152 40.6349 37.0336 40.4843 37.0836 40.3429C37.2381 39.7538 37.5665 39.5703 38.2812 39.7634Z" fill="black"/>
<path d="M42.9462 40.2946C42.9462 39.9276 43.0621 39.7152 43.3229 39.6476C43.5837 39.58 43.7961 39.6476 43.7768 39.9566C43.7768 40.0146 43.7768 40.0918 43.8541 40.0918C43.9314 40.0918 44.3177 39.8504 44.2597 40.2367C44.2381 40.3944 44.163 40.5399 44.0469 40.6489C43.9309 40.7579 43.781 40.8237 43.6223 40.8355C43.4884 40.862 43.3494 40.8396 43.2306 40.7722C43.1118 40.7048 43.0212 40.597 42.9752 40.4685C42.9516 40.4138 42.9416 40.3541 42.9462 40.2946Z" fill="black"/>
<path d="M20.1818 31.0227C20.0659 31.4284 19.7761 31.3318 19.5443 31.1966C19.2977 30.9727 19.1237 30.6801 19.0445 30.3566C18.9654 30.0331 18.9847 29.6933 19.1001 29.3808C19.1677 29.2649 19.2353 29.12 19.3898 29.1683C19.5443 29.2166 19.496 29.3905 19.496 29.5064C19.4581 29.8845 19.5145 30.2661 19.6602 30.617C19.7858 30.8392 19.9017 31.0613 20.2011 31.042L20.1818 31.0227Z" fill="black"/>
<path d="M6.02269 25.759C5.79456 25.7797 5.56596 25.7246 5.3722 25.6024C5.17844 25.4802 5.03029 25.2977 4.95063 25.0829C4.89777 24.9461 4.89085 24.7958 4.93093 24.6546C4.971 24.5135 5.05589 24.3892 5.17278 24.3006C5.23527 24.2213 5.32287 24.1657 5.42118 24.1429C5.51948 24.1201 5.62263 24.1314 5.71364 24.175C5.91646 24.2909 5.81022 24.4937 5.71364 24.6386C5.46252 25.0249 5.77158 25.3437 6.02269 25.759Z" fill="black"/>
<path d="M11.5377 27.8162C11.4039 27.9283 11.2372 27.9936 11.0629 28.0024C10.8886 28.0111 10.7162 27.9627 10.5719 27.8645C10.4554 27.7953 10.365 27.6897 10.3144 27.5641C10.2638 27.4384 10.2558 27.2996 10.2918 27.1691C10.3497 26.9276 10.4753 26.7055 10.7747 26.7055C10.9002 26.7055 11.0741 26.7055 11.1513 26.7731C11.2286 26.8407 11.1513 26.9856 11.0451 27.0918C10.6588 27.6617 11.3445 27.5458 11.5377 27.8162Z" fill="black"/>
<path d="M73.0993 26.3964C73.1573 26.2226 73.1862 26.0391 73.2538 25.8846C73.3214 25.73 73.5243 25.4692 73.7657 25.5465C74.0072 25.6238 73.872 25.8653 73.843 26.0681C73.8023 26.33 73.7861 26.5951 73.7947 26.8601C73.7947 26.9856 74.0362 27.1304 73.7947 27.2367C73.5532 27.3429 73.4953 27.2367 73.3891 27.0628C73.2436 26.8653 73.1446 26.6375 73.0993 26.3964Z" fill="black"/>
<path d="M62.1275 13.3771C62.2829 13.3558 62.4411 13.3812 62.5821 13.45C62.7231 13.5188 62.8405 13.6279 62.9194 13.7635C62.9962 13.8443 63.039 13.9514 63.039 14.0629C63.039 14.1743 62.9962 14.2815 62.9194 14.3623C62.6973 14.5748 62.5717 14.3623 62.4558 14.2271C62.3435 14.1192 62.2028 14.0455 62.0502 14.0145C61.8764 13.9373 61.5287 14.0725 61.5769 13.7055C61.6252 13.3385 61.8763 13.4351 62.1275 13.3771Z" fill="black"/>
<path d="M38.6388 41.2701C38.6191 41.1279 38.6512 40.9833 38.7292 40.8627C38.8072 40.7422 38.9259 40.6537 39.0637 40.6134C39.2472 40.5361 39.4404 40.6134 39.4114 40.7775C39.3438 41.1414 39.3438 41.5147 39.4114 41.8786C39.4114 42.0718 39.1989 41.9945 39.0444 41.9559C38.6967 41.8593 38.6195 41.6082 38.6388 41.2701Z" fill="black"/>
<path d="M20.2398 31.042C20.0949 30.675 19.9114 30.308 20.2398 29.9506C20.295 29.8791 20.373 29.8287 20.4608 29.8076C20.5487 29.7865 20.6411 29.7961 20.7227 29.8347C20.9062 29.9216 20.8869 30.0859 20.8096 30.2307C20.6454 30.5301 20.9352 31.1966 20.2012 31.0227L20.2398 31.042Z" fill="black"/>
<path d="M72.9061 27.8065C72.9061 27.9321 72.8288 28.0287 72.6936 27.9997C72.5729 27.9831 72.4574 27.9398 72.3555 27.8729C72.2536 27.8061 72.1678 27.7174 72.1045 27.6133C72.0402 27.5105 72.0062 27.3917 72.0062 27.2705C72.0062 27.1492 72.0402 27.0304 72.1045 26.9276C72.1419 26.8596 72.1985 26.8042 72.2672 26.7682C72.3359 26.7321 72.4136 26.717 72.4908 26.7248C72.7129 26.7248 72.6646 26.9469 72.6646 27.0821C72.6646 27.2174 72.6646 27.623 72.9061 27.8065Z" fill="black"/>
<path d="M56.3132 37.1364C56.3082 37.2499 56.2588 37.3571 56.1758 37.4347C56.0927 37.5123 55.9826 37.5543 55.8689 37.5517C55.4632 37.5517 55.6468 37.146 55.6081 36.9239C55.5695 36.7018 55.5309 36.412 55.8689 36.4217C56.2069 36.4313 56.3035 36.6824 56.3132 37.1364Z" fill="black"/>
<path d="M46.8676 37.5807C47.0379 37.5876 47.1995 37.6577 47.3209 37.7774C47.4424 37.897 47.5149 38.0576 47.5243 38.2277C47.5243 38.3436 47.476 38.5755 47.3408 38.4789C47.0294 38.3171 46.7712 38.0689 46.5972 37.7642C46.5392 37.629 46.742 37.5807 46.8676 37.5807Z" fill="black"/>
<path d="M61.8473 29.3809C61.4899 29.3809 61.1809 29.4484 61.1229 29.0042C61.1229 28.7531 61.1229 28.473 61.432 28.4536C61.7411 28.4343 61.6541 28.6758 61.6155 28.8689C61.5769 29.0621 61.828 29.1297 61.8473 29.3809Z" fill="black"/>
<path d="M75.2336 22.6007C75.1563 22.3689 75.3205 22.2434 75.3592 22.0792C75.3978 21.915 75.4461 21.6349 75.7262 21.6059C75.8034 21.6059 75.958 21.6639 75.8807 21.7315C75.6489 21.9247 76.1318 22.3979 75.5813 22.4365C75.4751 22.4559 75.4364 22.649 75.2336 22.6007Z" fill="black"/>
<path d="M27.3868 37.146C27.3868 37.2136 27.6379 37.4744 27.2515 37.4744C26.8652 37.4744 26.8073 37.3295 26.8459 37.0687C26.8845 36.808 27.0101 36.6438 27.2805 36.6728C27.551 36.7018 27.4447 36.9046 27.3868 37.146Z" fill="black"/>
<path d="M64.7352 32.0271C64.2523 31.9692 63.9722 31.9016 63.895 31.5346C63.895 31.409 63.9626 31.2835 64.0591 31.3028C64.4165 31.3511 64.4648 31.6891 64.7352 32.0271Z" fill="black"/>
</svg>
