<svg width="108" height="44" viewBox="0 0 108 44" fill="none" xmlns="http://www.w3.org/2000/svg">
<path d="M107.293 12.3077C107.409 15.6011 107.419 18.8946 107.351 22.1881C107.351 23.5402 107.168 24.8924 107.1 26.2445C107.023 27.983 107.1 29.7311 107.004 31.4696C106.997 33.1823 106.875 34.8925 106.637 36.5885C106.53 37.11 106.424 37.6413 106.299 38.1628C106.147 38.6231 105.919 39.0543 105.622 39.4377C105.265 39.9399 104.879 40.4035 104.512 40.8864C104.137 41.3402 103.651 41.6895 103.102 41.9005C102.397 42.2534 101.655 42.5255 100.89 42.7118C99.6672 42.8871 98.4353 42.9903 97.2005 43.0209C96.0415 43.0209 94.8922 43.1368 93.7332 43.1754C93.2116 43.1754 92.6804 43.1754 92.1589 43.1754C90.5363 43.1754 88.9137 43.3203 87.3298 43.272C85.5333 43.2237 83.7466 43.1658 81.9598 42.9726C81.4962 42.9243 80.994 42.9243 80.569 42.8857C80.2625 42.862 79.9742 42.7307 79.7551 42.5151C79.536 42.2995 79.4001 42.0134 79.3714 41.7074C79.3748 41.6234 79.35 41.5407 79.301 41.4725C79.252 41.4042 79.1816 41.3543 79.1009 41.3307C78.9642 41.2898 78.8408 41.2131 78.7436 41.1086C78.5504 40.8961 78.4056 40.9444 78.2317 41.1086C77.949 41.4147 77.6845 41.7372 77.4397 42.0744C77.1742 42.4091 76.8694 42.7107 76.5318 42.9726C76.455 43.025 76.3676 43.0599 76.2759 43.0749C76.1841 43.0899 76.0902 43.0847 76.0007 43.0595C75.3357 42.9967 74.6663 42.9967 74.0014 43.0595C70.9301 43.0595 67.8684 42.9919 64.7971 43.0016C61.4843 43.0016 58.1715 42.847 54.8588 43.0016C53.7577 43.0016 52.6567 43.1175 51.5556 43.2141C50.8962 43.2527 50.2351 43.2527 49.5757 43.2141C47.702 43.2141 45.838 43.1078 43.9546 43.1078C42.4286 43.1078 40.9026 43.272 39.3766 43.2334C36.7592 43.1561 34.1515 43.0885 31.5438 42.8374C30.6362 42.7584 29.7227 42.7811 28.8201 42.905C27.4858 43.0016 26.1463 43.0016 24.812 42.905C23.9427 42.905 23.0735 42.905 22.2043 42.905H20.7845V42.6056C21.1032 42.6056 21.4026 42.6056 21.7503 42.5476C22.7126 42.4449 23.6801 42.3998 24.6478 42.4124C25.4591 42.4124 26.28 42.4124 27.101 42.4897C27.8784 42.5121 28.6565 42.4766 29.4286 42.3834C31.1913 42.3367 32.9553 42.3915 34.7117 42.5476C36.8365 42.6152 38.9613 42.7794 41.0861 42.7022C41.9845 42.6087 42.8872 42.5636 43.7904 42.567C44.312 42.567 44.8432 42.567 45.3647 42.6152C46.4754 42.6152 47.5958 42.567 48.7065 42.6152C49.8172 42.6635 50.8892 42.6152 51.9903 42.6152C53.8543 42.5283 55.728 42.4028 57.6017 42.4124C59.7169 42.4124 61.832 42.4704 63.9472 42.4124C66.8446 42.3545 69.6842 42.4704 72.543 42.4124C73.2733 42.4511 74.0051 42.4511 74.7354 42.4124C75.0532 42.339 75.3835 42.339 75.7012 42.4124C76.1745 42.5573 76.5608 42.2482 76.9858 42.1903C77.0358 42.1789 77.0812 42.1524 77.1157 42.1144C77.1503 42.0764 77.1723 42.0287 77.179 41.9778C77.342 41.4376 77.6822 40.9681 78.1448 40.645C78.1721 40.6291 78.1959 40.6079 78.2148 40.5825C78.2336 40.5572 78.247 40.5282 78.2543 40.4975C78.2615 40.4667 78.2624 40.4348 78.2569 40.4037C78.2513 40.3726 78.2395 40.3429 78.222 40.3166C78.0289 39.8723 77.855 39.4184 77.6908 38.9548C77.6232 38.7713 77.5266 38.7713 77.4397 38.9548C77.1086 39.3608 76.8385 39.8131 76.6381 40.2973C76.6282 40.3377 76.6091 40.3753 76.5823 40.4071C76.5555 40.4389 76.5217 40.4641 76.4836 40.4808L75.6047 40.8768C75.5198 40.9216 75.4253 40.945 75.3294 40.945C75.2335 40.945 75.139 40.9216 75.0541 40.8768C74.8803 40.7802 74.7064 40.6063 74.494 40.8188C74.494 40.8671 74.3587 40.8188 74.3008 40.8188C74.0513 40.6778 73.7656 40.6139 73.4799 40.6353C72.514 40.6353 71.5482 40.6353 70.5824 40.4518C70.0626 40.3617 69.5356 40.3196 69.0081 40.3262C67.6414 40.418 66.27 40.418 64.9033 40.3262C63.7926 40.2586 62.6819 40.2297 61.5712 40.1524C60.4605 40.0751 59.4078 39.9689 58.3261 39.9689C56.095 39.9689 53.8736 39.9689 51.6426 39.9689C49.4115 39.9689 47.3253 40.0655 45.1716 39.9689C43.4814 39.9013 41.7815 39.9689 40.0913 39.9109C38.4011 39.853 36.6144 39.7661 34.8759 39.7178C32.6545 39.6502 30.4331 39.7178 28.2213 39.7178C27.1976 39.7178 26.1738 39.6695 25.15 39.7178C23.7592 39.7178 22.3588 39.8723 20.9583 39.8433C19.5579 39.8144 18.2347 39.7467 16.8632 39.7371C15.8971 39.7701 14.9298 39.7508 13.9658 39.6791C12.7671 39.5552 11.5581 39.5714 10.3632 39.7274H9.89966V39.3991C10.4115 39.3991 10.9234 39.2638 11.4257 39.2155C12.7124 39.1416 14.0022 39.1416 15.289 39.2155C16.5252 39.2155 17.7615 39.2155 18.9977 39.2155C20.234 39.2155 21.1805 39.2928 22.2719 39.2155C23.682 39.1576 25.0921 39.0996 26.4925 39.09C26.9658 39.09 27.4583 39.09 27.893 39.09C29.1389 39.09 30.3848 39.0417 31.6307 39.09H31.8239C33.997 39.1479 36.1701 39.1769 38.3432 39.2928C41.173 39.4473 44.0126 39.399 46.8521 39.4956C49.4791 39.5826 52.1158 39.4087 54.7429 39.4473C56.6745 39.4473 58.6544 39.3604 60.6151 39.5053C61.861 39.6019 63.1166 39.6598 64.3721 39.7178C65.5633 39.8255 66.7594 39.8706 67.9553 39.853C68.8035 39.7757 69.6569 39.7757 70.5051 39.853C70.9774 39.8966 71.4526 39.8966 71.9249 39.853C72.7842 39.7948 73.6467 39.903 74.465 40.1717C74.7718 40.2951 75.1098 40.3188 75.4308 40.2393C75.6578 40.1637 75.8969 40.131 76.1359 40.1427C76.2711 40.1427 76.4063 40.1427 76.4546 39.9785C76.5904 39.5862 76.793 39.2202 77.0534 38.8968C77.2176 38.6747 77.1983 38.5781 76.9472 38.4332C76.5616 38.2236 76.2661 37.88 76.1165 37.4674C76.0683 37.3515 75.991 37.197 76.1165 37.11C76.1479 37.0997 76.1818 37.0997 76.2131 37.11C76.3097 37.11 76.358 37.2453 76.4256 37.3129C76.4932 37.3805 76.5318 37.4674 76.6091 37.506C77.1779 37.8152 77.801 38.012 78.4442 38.0855C79.2987 38.0868 80.1219 38.4072 80.7525 38.9837C80.9167 39.1396 81.1346 39.2261 81.361 39.2252C82.124 39.2252 82.8966 39.2735 83.6596 39.2252C84.6255 39.2252 85.5913 38.9548 86.5571 39.0127C87.4374 39.0497 88.3193 39.0141 89.1938 38.9065C89.8202 38.8484 90.4507 38.8484 91.0772 38.9065C91.5208 38.9403 91.9664 38.9403 92.41 38.9065C93.0088 38.9065 93.6076 38.9065 94.2064 38.9065C94.4858 38.9353 94.7674 38.9353 95.0467 38.9065C96.1992 38.72 97.3704 38.6778 98.5333 38.7809C99.5544 38.8952 100.587 38.7142 101.508 38.2594C102.005 37.9654 102.542 37.7442 103.102 37.6026C103.395 37.549 103.662 37.3954 103.855 37.168C104.144 36.8151 104.468 36.4916 104.821 36.2022C105.032 36.0604 105.202 35.8648 105.312 35.6356C105.422 35.4064 105.469 35.1518 105.449 34.8983C105.437 34.7554 105.464 34.612 105.529 34.484C105.594 34.3561 105.693 34.2487 105.816 34.1739C105.864 34.1739 105.922 34.0967 105.941 34.0484C106.127 33.5688 106.273 33.0745 106.376 32.5707C106.517 31.343 106.553 30.1054 106.482 28.8716C106.424 27.558 106.482 26.2542 106.54 24.9503C106.598 23.6465 106.781 22.1301 106.743 20.7007C106.743 19.6093 106.743 18.5179 106.743 17.4266C106.685 15.35 106.656 13.2735 106.588 11.197C106.561 9.62116 106.377 8.05196 106.038 6.51274L106.501 6.39685C106.743 7.3329 106.936 8.28062 107.081 9.23636C107.211 10.2551 107.282 11.2807 107.293 12.3077ZM105.7 37.4191C105.758 37.0328 105.874 36.6465 105.98 36.1732C105.352 36.743 104.888 37.3418 104.328 37.8537C104.086 38.1246 103.765 38.3135 103.411 38.3946C103.034 38.4391 102.672 38.5643 102.348 38.7616C101.751 39.1337 101.124 39.4567 100.475 39.7274C100.295 39.8183 100.097 39.8678 99.8951 39.8723C98.9557 39.9206 98.0144 39.9206 97.0749 39.8723C96.1091 39.795 95.0853 39.8723 94.1002 39.7178C93.1695 39.5861 92.2287 39.5408 91.2896 39.5826C90.092 39.5826 88.9041 39.5826 87.7064 39.5826C87.0304 39.5826 86.3446 39.5826 85.6782 39.5826C85.0118 39.5826 84.2488 39.5826 83.5341 39.5826C82.7094 39.6661 81.8807 39.7016 81.0519 39.6888C80.965 39.6888 80.936 39.6888 80.8877 39.7854C80.8394 39.882 80.6173 40.1234 80.4724 40.278C80.144 40.616 79.8833 40.9734 80.1054 41.4852C80.1054 41.5432 80.1054 41.6204 80.1054 41.6881C80.1054 42.1227 80.1923 42.2193 80.6173 42.2193C81.3127 42.2193 82.0081 42.2772 82.7035 42.3545C83.6693 42.48 84.7124 42.4317 85.7072 42.48C86.9241 42.538 88.1314 42.6249 89.3483 42.6152C92.0116 42.7249 94.6793 42.6216 97.326 42.3062C98.2919 42.1323 99.3736 42.113 100.397 41.9585C101.132 41.7687 101.855 41.5332 102.561 41.2534C103.194 41.0616 103.749 40.6724 104.145 40.1427L104.686 39.4473C105.198 38.8619 105.547 38.1527 105.7 37.3901V37.4191ZM80.1151 39.428C80.1827 39.3797 80.202 39.3314 80.1151 39.2735C79.8981 39.0625 79.6149 38.9328 79.3134 38.9065H78.28C78.4838 39.2147 78.6646 39.5375 78.8209 39.8723C78.9248 40.0416 79.041 40.203 79.1686 40.3552C79.2748 40.4904 79.3714 40.5194 79.4776 40.3552C79.6151 40.0008 79.8333 39.6833 80.1151 39.428Z" fill="black"/>
<path d="M106.617 20.6524C106.617 22.0818 106.492 23.4919 106.414 24.902C106.337 26.3121 106.299 27.5097 106.357 28.8233C106.427 30.0571 106.392 31.2947 106.25 32.5224C106.147 33.0262 106.002 33.5205 105.816 34.0001C105.816 34.0001 105.738 34.087 105.69 34.1256C105.568 34.2004 105.469 34.3078 105.404 34.4357C105.339 34.5636 105.311 34.7071 105.323 34.85C105.344 35.1035 105.297 35.358 105.186 35.5872C105.076 35.8164 104.906 36.0121 104.695 36.1539C104.342 36.4433 104.019 36.7668 103.729 37.1197C103.536 37.3471 103.27 37.5007 102.976 37.5543C102.416 37.6959 101.88 37.917 101.383 38.2111C100.461 38.6659 99.4288 38.8469 98.4078 38.7326C97.2449 38.6295 96.0736 38.6717 94.9212 38.8582C94.6418 38.887 94.3602 38.887 94.0809 38.8582C93.4821 38.8582 92.8833 38.8582 92.2845 38.8582C91.8408 38.892 91.3953 38.892 90.9516 38.8582C90.3252 38.8001 89.6947 38.8001 89.0683 38.8582C88.1938 38.9658 87.3119 39.0014 86.4316 38.9644C85.4657 38.9065 84.4999 39.1576 83.5341 39.1769C82.7711 39.1769 81.9984 39.1769 81.2354 39.1769C81.0091 39.1778 80.7911 39.0913 80.627 38.9354C79.9963 38.3588 79.1731 38.0385 78.3186 38.0372C77.6754 37.9637 77.0524 37.7669 76.4836 37.4577C76.4063 37.4577 76.358 37.3225 76.3001 37.2646C76.2421 37.2066 76.1842 37.0617 76.0876 37.0617V36.5595H79.101C79.9219 36.5595 80.7332 36.4533 81.5542 36.4822C84.1232 36.5788 86.702 36.6078 89.2808 36.6657C90.4011 36.6657 91.5311 36.6657 92.6515 36.6657C93.8176 36.7592 94.9883 36.785 96.1574 36.743C97.2165 36.664 98.2597 36.4397 99.2577 36.0766C100.448 35.5083 101.409 34.5509 101.981 33.3626C102.041 33.2563 102.074 33.1369 102.078 33.0149C102.078 32.5513 102.078 32.0491 102.078 31.6145C102.078 30.4169 101.75 29.2482 101.759 28.0506C101.759 27.7705 101.759 27.4904 101.759 27.2007C101.692 25.9161 101.537 24.6316 101.556 23.3374C101.556 21.6182 101.643 19.8894 101.701 18.1702C101.701 17.4458 101.653 16.7215 101.624 15.9875C101.542 15.1008 101.542 14.2084 101.624 13.3218C101.697 12.8254 101.697 12.3211 101.624 11.8248C101.556 11.3901 101.692 11.0617 102.223 11.1294C102.507 11.1262 102.788 11.0603 103.044 10.9362C103.435 10.7536 103.847 10.6174 104.27 10.5306C104.483 10.5306 104.686 10.4147 104.657 10.1539C104.628 9.89311 104.415 9.83515 104.193 9.82549C103.971 9.81583 103.816 9.8931 103.652 9.82549C103.137 9.61656 102.593 9.48633 102.039 9.43917C101.923 9.43917 101.817 9.43917 101.827 9.27498C101.796 8.75137 101.722 8.23124 101.605 7.72C101.587 7.2974 101.48 6.8834 101.29 6.50542C101.1 6.12745 100.832 5.79412 100.504 5.52757C99.9425 5.09823 99.2744 4.83099 98.572 4.75491C97.4846 4.63877 96.3912 4.5904 95.2978 4.61004C91.9657 4.61004 88.6336 4.71628 85.3015 4.74526C82.1819 4.74526 79.0623 4.90944 75.9427 4.89013C73.4509 4.89013 70.9591 4.89013 68.4672 4.77423C66.5356 4.69697 64.6039 4.61005 62.6723 4.67766C60.5088 4.74527 58.3357 4.67766 56.1723 4.67766H53.7481C53.5742 4.67766 53.4294 4.67766 53.4776 4.41688C53.5259 4.15611 53.4776 4.10782 53.2845 4.09816C53.0913 4.0885 53.0623 4.26235 53.0527 4.41688C53.043 4.57141 53.1299 4.62936 52.9464 4.63902C52.7629 4.64868 52.7243 4.63902 52.6953 4.44586C52.6461 4.19008 52.5683 3.94063 52.4635 3.70217C52.4635 3.63456 52.4056 3.59594 52.338 3.60559C52.2704 3.61525 52.28 3.68285 52.28 3.73114C52.283 3.9756 52.3154 4.21881 52.3766 4.45551C52.3766 4.52312 52.4442 4.61971 52.309 4.62936C52.1738 4.63902 51.9034 4.62936 51.8357 4.38791C51.7681 4.14645 51.6329 3.69252 51.5653 3.33516C51.4205 2.98224 51.4001 2.59054 51.5074 2.22446C51.5846 2.07958 51.7198 1.94436 51.6812 1.7512C51.6426 1.55803 51.6812 1.54839 51.517 1.53873V1.04615H54.0378C56.2979 1.04615 58.5579 1.04615 60.7986 1.04615C63.7926 1.09444 66.7964 1.04615 69.7904 1.04615C71.838 1.04615 73.8855 1.11376 75.9331 1.12342H77.4204C78.1088 1.08489 78.7989 1.08489 79.4873 1.12342C80.1383 1.15472 80.7903 1.08301 81.4189 0.910936C82.6512 0.658021 83.9093 0.554262 85.1663 0.60188C87.9962 0.698463 90.8357 0.659832 93.6752 0.679148C95.8718 0.661515 98.0659 0.832773 100.233 1.19103C101.452 1.41293 102.611 1.89019 103.633 2.59148C104.578 3.25281 105.275 4.21161 105.613 5.31509C105.729 5.66279 105.825 6.02015 105.912 6.3775C106.251 7.91672 106.436 9.48592 106.463 11.0618C106.53 13.1383 106.559 15.2148 106.617 17.2913C106.617 18.4503 106.598 19.5417 106.617 20.6524ZM102.754 12.2594C102.86 12.1821 102.986 12.0469 102.831 11.9406C102.723 11.877 102.6 11.8434 102.474 11.8434C102.348 11.8434 102.225 11.877 102.117 11.9406C101.904 12.0372 101.962 12.1242 102.117 12.2304C101.856 12.5684 102.117 12.6457 102.358 12.7037C102.31 12.9355 102.001 13.0803 102.136 13.3314C102.271 13.5825 102.426 13.3314 102.609 13.3314C102.358 13.1672 102.445 13.0224 102.609 12.8775C102.773 12.7326 102.754 12.636 102.686 12.5395C102.619 12.4429 102.648 12.3366 102.783 12.24L102.754 12.2594ZM102.696 17.0016C102.712 16.2836 102.66 15.5657 102.542 14.8574C102.542 14.7319 102.493 14.6063 102.339 14.6063C102.184 14.6063 102.136 14.7029 102.088 14.8188C102.041 14.9556 102.018 15.0993 102.02 15.2438C102.02 16.5283 102.117 17.8032 102.184 19.1071C102.184 19.5299 102.249 19.9502 102.377 20.353C102.423 20.321 102.46 20.2792 102.487 20.2307C102.513 20.1822 102.529 20.1282 102.532 20.0729C102.675 19.0492 102.74 18.0159 102.725 16.9822L102.696 17.0016ZM102.503 5.41168C102.542 5.38032 102.571 5.33738 102.585 5.28887C102.599 5.24037 102.597 5.18875 102.58 5.14125C102.525 4.99657 102.432 4.86966 102.31 4.77423C101.994 4.48789 101.618 4.27659 101.209 4.15611C99.7818 3.75838 98.3198 3.49962 96.8432 3.38344H96.5341C96.4665 3.38344 96.3699 3.38345 96.3602 3.45106C96.3506 3.51867 96.4472 3.57661 96.5244 3.56695C97.2816 3.58081 98.0341 3.68785 98.7651 3.88568C100.001 4.13679 101.305 4.26235 102.165 5.38271L102.232 5.431C102.277 5.46036 102.33 5.47517 102.384 5.47344C102.437 5.47172 102.489 5.45352 102.532 5.42133L102.503 5.41168ZM100.571 3.01644C100.571 2.87157 100.455 2.86191 100.339 2.83293C99.4496 2.64004 98.5448 2.52371 97.6351 2.48523C96.3892 2.40797 95.1433 2.48524 93.8974 2.42729C90.0341 2.36934 86.2481 2.5142 82.4137 2.47557C82.0274 2.47557 81.6507 2.47557 81.2644 2.47557C80.1054 2.53352 78.9561 2.75566 77.7971 2.76532C77.6909 2.76532 77.5653 2.76532 77.4784 2.90053C77.6986 2.98967 77.9384 3.01965 78.1738 2.98747C79.1975 2.87157 80.2213 2.76531 81.2547 2.71702C82.4524 2.66873 83.6596 2.64943 84.8669 2.63977C88.4984 2.63977 92.1396 2.63976 95.7711 2.81361C96.9551 2.83461 98.1363 2.93788 99.306 3.12268C99.6422 3.19517 99.9876 3.21472 100.33 3.18063C100.523 3.19995 100.639 3.15165 100.648 3.02609L100.571 3.01644ZM73.0646 2.94883C73.0646 2.89088 73.0646 2.86191 73.0066 2.86191C72.7723 2.80543 72.5328 2.77306 72.2919 2.76532C70.5254 2.55939 68.743 2.52705 66.9702 2.66874C66.5839 2.66874 66.2072 2.746 65.8209 2.78464C65.7436 2.78464 65.6374 2.78464 65.6374 2.89088C65.6374 2.99712 65.7436 2.96815 65.8112 2.96815C66.1589 2.96815 66.5163 2.96815 66.864 2.96815C67.873 2.88121 68.8876 2.88121 69.8967 2.96815C70.9763 3.06612 72.0628 3.06287 73.1418 2.95848L73.0646 2.94883Z" fill="#E3B574"/>
<path d="M106.376 6.32919L105.912 6.44509C105.825 6.08773 105.729 5.73039 105.613 5.38269C105.276 4.27921 104.579 3.32039 103.633 2.65906C102.611 1.95777 101.453 1.48052 100.233 1.25862C98.066 0.900356 95.872 0.729098 93.6753 0.746732C90.8358 0.746732 87.9963 0.74673 85.1664 0.669464C83.9094 0.621845 82.6513 0.725619 81.4191 0.978535C80.7904 1.15061 80.1385 1.22232 79.4874 1.19102C78.799 1.15249 78.109 1.15249 77.4205 1.19102H75.9332V0.62117C76.8024 0.62117 77.662 0.621169 78.5216 0.514928C79.6999 0.39903 80.8782 0.302453 82.0565 0.128605C82.5496 0.0657281 83.0473 0.0463393 83.5439 0.0706577C86.113 0.138265 88.6917 0.0127106 91.2705 0.0127106C94.1266 -0.0466274 96.9833 0.101849 99.818 0.456981C101.332 0.648539 102.778 1.2054 104.029 2.07957C105.026 2.79547 105.735 3.84336 106.028 5.03499C106.138 5.45352 106.254 5.88491 106.376 6.32919Z" fill="black"/>
<path d="M105.98 36.1056C105.874 36.5788 105.758 36.9652 105.7 37.3515C105.561 38.1092 105.228 38.8181 104.734 39.4087L104.193 40.1041C103.797 40.6338 103.242 41.023 102.609 41.2148C101.903 41.4946 101.181 41.7301 100.446 41.9199C99.422 42.0744 98.3885 42.0937 97.3744 42.2676C94.7276 42.5829 92.0599 42.6863 89.3967 42.5766C88.1798 42.5766 86.9725 42.4993 85.7555 42.4414C84.7897 42.4414 83.7466 42.4414 82.7518 42.3158C82.0564 42.2386 81.3611 42.1903 80.6657 42.1806C80.2407 42.1806 80.1634 42.084 80.1538 41.6494C80.1538 41.5818 80.1538 41.5045 80.1538 41.4466C79.9316 40.9347 80.1538 40.5774 80.5208 40.2393C80.6657 40.0848 80.8009 39.9206 80.9361 39.7468C81.0713 39.5729 81.0134 39.6405 81.1003 39.6502C81.929 39.663 82.7578 39.6275 83.5824 39.5439C84.2971 39.5439 85.0119 39.4763 85.7266 39.5439C86.4413 39.6115 87.0787 39.5439 87.7548 39.5439C88.9524 39.5439 90.1404 39.5439 91.338 39.5439C92.277 39.5022 93.2179 39.5474 94.1486 39.6791C95.1144 39.8337 96.1382 39.7564 97.1233 39.8337C98.0627 39.8819 99.004 39.8819 99.9435 39.8337C100.145 39.8292 100.343 39.7797 100.523 39.6888C101.173 39.4181 101.799 39.0951 102.397 38.723C102.72 38.5257 103.083 38.4005 103.459 38.356C103.814 38.2749 104.134 38.0859 104.377 37.8151C104.889 37.3129 105.352 36.7141 105.98 36.1056Z" fill="#865A2C"/>
<path d="M104.512 10.1539C104.512 10.4147 104.338 10.5112 104.126 10.5306C103.702 10.6174 103.291 10.7536 102.899 10.9362C102.643 11.0603 102.363 11.1262 102.078 11.1294C101.547 11.0618 101.412 11.3901 101.479 11.8248C101.552 12.3211 101.552 12.8254 101.479 13.3218C101.397 14.2084 101.397 15.1008 101.479 15.9875C101.479 16.7215 101.585 17.4458 101.556 18.1702C101.498 19.8894 101.441 21.6182 101.412 23.3374C101.412 24.6123 101.547 25.8968 101.614 27.2007C101.614 27.4904 101.614 27.7705 101.614 28.0506C101.614 29.2482 101.943 30.4169 101.933 31.6145C101.933 32.0781 101.933 32.5803 101.933 33.0149C101.93 33.137 101.896 33.2563 101.837 33.3626C101.264 34.5509 100.303 35.5083 99.1129 36.0766C98.1149 36.4397 97.0717 36.664 96.0126 36.743C94.8434 36.785 93.6728 36.7592 92.5066 36.6658C91.3863 36.6658 90.2563 36.6658 89.1359 36.6658C86.5668 36.6078 83.9881 36.5788 81.4093 36.4822C80.5884 36.4822 79.7771 36.5402 78.9561 36.5595H75.9428C75.1411 36.5595 74.3395 36.5595 73.5475 36.5595C71.6835 36.5595 69.8388 36.714 67.9844 36.7237C65.9562 36.7237 63.9279 36.7913 61.9093 36.772C60.5282 36.772 59.1567 36.5981 57.7756 36.6175C54.8781 36.6175 51.9227 36.4436 48.9963 36.6175C48.1005 36.7384 47.1914 36.7188 46.3016 36.5595C45.1813 36.2505 44.0416 36.009 42.9502 35.5937C42.3894 35.3851 41.8815 35.0553 41.4628 34.6279C41.3276 34.483 41.1248 34.3478 41.3276 34.0677C41.3952 33.9711 41.26 33.7393 41.2407 33.5751C41.1441 32.6866 41.1441 31.7883 41.0958 30.8998C41.0089 29.5766 40.9799 28.2534 40.7964 26.9302C40.6516 25.8485 40.5743 24.7571 40.4681 23.6754C40.4632 23.6337 40.4632 23.5916 40.4681 23.5499C40.5936 22.6806 40.4681 21.7921 40.5453 20.9132C40.5615 20.5595 40.529 20.2052 40.4487 19.8604C40.365 19.0142 40.3877 18.1609 40.5163 17.3203C40.5743 16.4617 40.5743 15.6002 40.5163 14.7416C40.3904 13.318 40.4391 11.8844 40.6612 10.4726C40.782 9.40001 41.1816 8.37774 41.8202 7.50753C42.2259 7.01496 42.5253 6.42581 42.9599 5.9429C43.1598 5.69815 43.4292 5.51969 43.7325 5.43101C44.3729 5.13274 45.0526 4.92782 45.7511 4.82254C46.3886 4.82254 47.026 4.75492 47.6828 4.69697C48.0578 4.65408 48.4353 4.63473 48.8128 4.63903H49.2281C49.4337 4.66775 49.6428 4.62358 49.8192 4.5142C49.9956 4.40482 50.1282 4.23713 50.1939 4.04022C50.2344 3.91335 50.3038 3.79762 50.3967 3.70218C50.7565 3.37238 50.9832 2.92236 51.0342 2.43695C51.108 2.17517 51.1951 1.91728 51.2949 1.66429C51.2949 1.57736 51.2949 1.48079 51.4591 1.49045C51.6233 1.5001 51.5943 1.60635 51.6233 1.70293C51.6523 1.79951 51.5267 2.0313 51.4495 2.17617C51.3422 2.54225 51.3626 2.93396 51.5074 3.28688C51.575 3.64423 51.7006 3.99193 51.7779 4.33962C51.8551 4.68732 52.0386 4.61005 52.2511 4.58108C52.4636 4.55211 52.338 4.47483 52.3187 4.40722C52.2575 4.17053 52.2251 3.92732 52.2221 3.68286C52.2221 3.63457 52.2221 3.57663 52.2801 3.55731C52.338 3.53799 52.3767 3.5573 52.4056 3.65388C52.5104 3.89234 52.5882 4.1418 52.6374 4.39757C52.6374 4.56176 52.7437 4.60039 52.8885 4.59073C53.0334 4.58107 52.9851 4.45552 52.9948 4.3686C53.0044 4.28167 52.9948 4.04022 53.2266 4.04987C53.4584 4.05953 53.4487 4.22372 53.4198 4.3686C53.3908 4.51347 53.5163 4.62937 53.6902 4.62937H55.9695C58.133 4.62937 60.3061 4.68732 62.4695 4.62937C64.4012 4.56177 66.3328 4.62937 68.2645 4.72595C70.7563 4.83219 73.2481 4.8322 75.7399 4.84186C78.8596 4.84186 81.9792 4.72595 85.0988 4.69697C88.4309 4.69697 91.763 4.52313 95.0951 4.56176C96.1884 4.54211 97.2819 4.5905 98.3692 4.70664C99.0716 4.78272 99.7397 5.04995 100.301 5.47929C100.629 5.74584 100.897 6.07916 101.087 6.45714C101.277 6.83512 101.384 7.24912 101.402 7.67171C101.519 8.18296 101.593 8.70309 101.624 9.22669C101.624 9.37156 101.721 9.38122 101.837 9.39088C102.39 9.43805 102.934 9.56829 103.449 9.77722C103.614 9.8738 103.807 9.77722 103.99 9.77722C104.174 9.77722 104.493 9.8738 104.512 10.1539ZM102.87 10.5016C102.967 10.4436 103.179 10.5016 103.15 10.3567C103.135 10.2768 103.097 10.203 103.04 10.1447C102.983 10.0863 102.911 10.0458 102.831 10.0283C102.742 10.0139 102.65 10.0139 102.561 10.0283L101.788 10.1346C102.01 10.743 102.03 10.7527 102.609 10.5982C102.7 10.5765 102.787 10.5441 102.87 10.5016ZM101.363 32.8894C101.426 32.0309 101.426 31.1691 101.363 30.3106C101.206 29.281 101.115 28.2421 101.093 27.2007C101.093 26.5826 101.093 25.9644 101.093 25.3559C101.112 25.0923 101.112 24.8276 101.093 24.564C100.916 22.9592 100.916 21.3397 101.093 19.7349C101.093 19.0395 101.247 18.3441 101.276 17.6487C101.285 16.6387 101.201 15.63 101.025 14.6353C100.972 14.1926 100.972 13.7452 101.025 13.3025C101.083 12.752 101.354 12.2111 101.112 11.6413C101.112 11.593 101.112 11.5254 101.112 11.4674C101.209 11.1197 101.354 10.8203 101.856 10.7913C101.45 10.5142 101.158 10.0989 101.035 9.62268C101.035 9.56473 101.035 9.49712 100.948 9.4778C100.388 9.35224 99.9821 8.88866 99.4799 8.70515C99.3362 8.65247 99.2071 8.56639 99.1032 8.45403C98.9086 8.25717 98.6535 8.13133 98.3789 8.09668C97.4188 7.96034 96.451 7.88614 95.4814 7.87454C93.4049 7.80694 91.3283 7.94214 89.2518 7.97112C86.3544 7.97112 83.3796 7.76829 80.4435 7.75864C77.6292 7.77006 74.8168 7.61204 72.0215 7.28539C70.8227 7.14212 69.6126 7.11946 68.4093 7.21778C66.023 7.47363 63.6196 7.53179 61.2236 7.39163C59.6151 7.30366 58.003 7.30366 56.3945 7.39163C54.0186 7.43992 51.6523 7.45924 49.286 7.52685C48.0305 7.52685 46.7749 7.70069 45.529 7.79728C44.4928 7.80626 43.4934 8.18273 42.7088 8.85967C42.3321 9.20737 41.9651 9.57438 41.5884 9.93174C41.532 9.98885 41.4978 10.0642 41.4918 10.1442C41.2548 11.1905 41.1285 12.2588 41.1152 13.3314C41.1861 14.9183 41.17 16.5079 41.0669 18.093C41.0055 18.881 41.051 19.6737 41.2021 20.4496C41.3487 21.2846 41.4037 22.1331 41.3663 22.98C41.3275 23.3944 41.3275 23.8115 41.3663 24.2259C41.6317 26.6831 41.7671 29.1527 41.7719 31.6242C41.7719 32.165 41.7719 32.6962 41.7719 33.2371C41.7596 33.5833 41.8591 33.9243 42.0557 34.2095C42.2522 34.4948 42.5354 34.7092 42.8633 34.821L43.2593 34.9756C44.0319 35.3136 44.8915 35.3812 45.6738 35.6903C46.6006 36.0253 47.5909 36.1474 48.5713 36.0476C49.344 36.0476 50.1263 35.98 50.9086 35.9993C52.8403 36.0476 54.8781 36.1539 56.8581 36.1249C57.8507 36.1039 58.8437 36.1361 59.8328 36.2215C61.5037 36.3663 63.1746 36.3567 64.8455 36.347C67.2021 36.347 69.5683 36.2794 71.9249 36.1345C74.098 36.009 76.2808 36.1346 78.4539 36.0766C79.0914 36.0766 79.7288 35.98 80.3856 35.9897C81.4093 35.9897 82.4331 36.0959 83.4472 36.1249C85.2436 36.1732 87.0304 36.1249 88.8269 36.2504C89.4711 36.2821 90.1167 36.266 90.7585 36.2022C91.5119 36.1442 92.2555 36.2987 92.9992 36.2022C93.5363 36.1684 94.075 36.1684 94.6121 36.2022C95.4609 36.2474 96.3121 36.2053 97.1523 36.0766C97.8622 36.0087 98.5482 35.7844 99.1612 35.4198C99.9678 34.8549 100.651 34.132 101.17 33.295C101.275 33.183 101.342 33.0413 101.363 32.8894ZM100.929 8.74378C100.821 8.31991 100.756 7.88635 100.735 7.44958C100.693 7.12389 100.571 6.8136 100.381 6.54587C100.191 6.27815 99.9377 6.06117 99.6441 5.91392C98.8874 5.49411 98.0251 5.30287 97.1619 5.3634C93.5208 5.30545 89.8893 5.3634 86.2481 5.3634C83.9398 5.3634 81.6315 5.3634 79.3231 5.44066C76.2711 5.52759 73.2192 5.50827 70.1768 5.44066C67.685 5.3634 65.1931 5.23785 62.7013 5.26682C59.0119 5.32477 55.3321 5.20887 51.6426 5.16058C51.2563 5.16058 51.266 5.16057 51.2853 4.74527C51.2983 4.2837 51.2495 3.82247 51.1404 3.3738C50.9956 3.554 50.9202 3.78018 50.9279 4.01125C50.8767 4.38142 50.6993 4.72257 50.4257 4.97707C50.2036 5.22819 49.9331 5.09297 49.682 5.09297C48.254 5.07196 46.8273 5.19165 45.4227 5.45032C44.7891 5.54741 44.1852 5.78501 43.6553 6.14571C42.9593 6.69026 42.4113 7.40098 42.0617 8.21257C41.8863 8.50903 41.7714 8.83729 41.7236 9.1784L42.0617 8.82105C42.6737 8.12344 43.4926 7.63955 44.399 7.43993C45.8058 7.15417 47.2334 6.98297 48.6679 6.92803C50.4064 6.81213 52.1545 6.8411 53.893 6.79281C55.6315 6.74452 57.6404 6.79281 59.5141 6.79281C60.0191 6.76383 60.5254 6.76383 61.0305 6.79281C62.0632 6.94388 63.1095 6.97952 64.1501 6.89905C65.1931 6.80247 66.2459 6.89906 67.2793 6.75418C69.1058 6.59795 70.9431 6.62058 72.7652 6.82178C74.0884 6.91837 75.4019 7.10188 76.7347 7.13086C79.6998 7.13086 82.6649 7.26607 85.63 7.39163C87.2333 7.45924 88.8365 7.45924 90.4591 7.39163C92.9167 7.25158 95.3804 7.25158 97.838 7.39163C98.3374 7.37964 98.83 7.5103 99.2578 7.7683C99.789 8.09668 100.446 8.30916 100.958 8.74378H100.929Z" fill="black"/>
<path d="M103.15 10.3567C103.15 10.4919 102.967 10.4436 102.87 10.5015C102.786 10.5374 102.699 10.5634 102.609 10.5788C102.03 10.7333 102.01 10.7237 101.788 10.1152L102.561 10.009C102.651 9.99453 102.742 9.99453 102.831 10.009C102.914 10.0278 102.988 10.0711 103.045 10.1332C103.102 10.1953 103.139 10.2732 103.15 10.3567Z" fill="#865A2C"/>
<path d="M102.86 11.9599C103.015 12.0662 102.86 12.2014 102.783 12.2787C102.706 12.3559 102.513 12.4428 102.677 12.636C102.841 12.8292 102.677 12.8775 102.6 12.9741C102.522 13.0706 102.377 13.2638 102.6 13.428C102.416 13.428 102.223 13.5729 102.126 13.428C102.03 13.2831 102.3 13.032 102.348 12.8002C102.088 12.7422 101.846 12.665 102.107 12.327C102.107 12.327 101.904 12.1338 102.107 12.0372C102.212 11.954 102.339 11.9025 102.472 11.8888C102.606 11.8752 102.74 11.8998 102.86 11.9599Z" fill="black"/>
<path d="M102.57 14.8575C102.689 15.5657 102.741 16.2836 102.725 17.0016C102.748 18.0216 102.693 19.0419 102.561 20.0536C102.558 20.1089 102.542 20.1629 102.516 20.2114C102.489 20.2599 102.451 20.3017 102.406 20.3337C102.278 19.9309 102.212 19.5106 102.213 19.0878C102.145 17.8032 102.02 16.5283 102.049 15.2245C102.047 15.08 102.07 14.9363 102.116 14.7995C102.165 14.6836 102.223 14.5774 102.368 14.587C102.512 14.5967 102.551 14.7126 102.57 14.8575Z" fill="black"/>
<path d="M102.609 5.19923C102.626 5.24673 102.628 5.29835 102.614 5.34686C102.6 5.39536 102.571 5.43831 102.532 5.46966C102.489 5.49832 102.439 5.51361 102.387 5.51361C102.335 5.51361 102.285 5.49832 102.242 5.46966L102.174 5.42137C101.315 4.30101 100.011 4.17545 98.7748 3.92434C98.0438 3.72652 97.2912 3.61948 96.5341 3.60563C96.4568 3.60563 96.3602 3.60562 96.3699 3.48972C96.3795 3.37382 96.4761 3.42212 96.5437 3.42212H96.8721C98.3488 3.5383 99.8108 3.79706 101.238 4.19478C101.647 4.31527 102.023 4.52657 102.339 4.81291C102.463 4.9136 102.557 5.04753 102.609 5.19923Z" fill="black"/>
<path d="M101.363 30.3106C101.446 31.1677 101.465 32.0295 101.421 32.8894C101.41 33.0216 101.363 33.1483 101.286 33.2564C100.767 34.0934 100.084 34.8163 99.2772 35.3812C98.6643 35.7458 97.9782 35.9701 97.2683 36.038C96.4281 36.1667 95.5769 36.2088 94.7282 36.1635C94.1911 36.1298 93.6524 36.1298 93.1152 36.1635C92.3716 36.2215 91.6279 36.0669 90.8745 36.1635C90.2327 36.2274 89.5871 36.2435 88.9429 36.2118C87.1464 36.0766 85.3597 36.1346 83.5632 36.0863C82.5491 36.0863 81.5253 35.9704 80.5016 35.951C79.8641 35.951 79.2267 36.0283 78.5699 36.038C76.3968 36.038 74.2141 35.9704 72.041 36.0959C69.6843 36.2408 67.3181 36.2988 64.9615 36.3084C63.2906 36.3084 61.6197 36.3084 59.9488 36.1828C58.9465 36.1025 57.9406 36.0767 56.9355 36.1056C54.9555 36.1056 52.9659 36.0283 50.986 35.98C50.2037 35.98 49.4214 35.98 48.6487 36.0283C47.6683 36.1281 46.678 36.006 45.7512 35.671C44.9689 35.3619 44.1093 35.2943 43.3367 34.9562L42.9407 34.8017C42.6128 34.6899 42.3296 34.4755 42.133 34.1902C41.9365 33.905 41.837 33.564 41.8493 33.2178C41.8493 32.6769 41.8493 32.1457 41.8493 31.6048C41.8444 29.1333 41.709 26.6638 41.4437 24.2066C41.4049 23.7922 41.4049 23.3751 41.4437 22.9607C41.4811 22.1138 41.426 21.2653 41.2795 20.4303C41.1284 19.6544 41.0829 18.8617 41.1442 18.0736C41.2473 16.4886 41.2635 14.899 41.1925 13.3121C41.2059 12.2394 41.3322 11.1712 41.5692 10.1249C41.5752 10.0449 41.6094 9.96955 41.6658 9.91244C42.0425 9.55508 42.4095 9.18807 42.7862 8.84037C43.5707 8.16343 44.5701 7.78694 45.6064 7.77796C46.8523 7.68138 48.1078 7.53651 49.3634 7.50753C51.7297 7.43992 54.096 7.42061 56.4719 7.37232C58.0804 7.28435 59.6925 7.28435 61.301 7.37232C63.6969 7.51247 66.1004 7.45433 68.4867 7.19848C69.69 7.10016 70.9001 7.1228 72.0989 7.26608C74.8942 7.59272 77.7066 7.75076 80.5209 7.73933C83.4184 7.73933 86.3931 7.97113 89.3292 7.95182C91.4057 7.95182 93.4823 7.78762 95.5588 7.85523C96.5284 7.86683 97.4962 7.94102 98.4563 8.07736C98.7309 8.11202 98.986 8.23787 99.1806 8.43473C99.2845 8.54709 99.4136 8.63316 99.5573 8.68584C100.088 8.86934 100.465 9.33294 101.025 9.4585C101.093 9.4585 101.093 9.54542 101.112 9.60337C101.235 10.0796 101.527 10.4949 101.933 10.772C101.431 10.772 101.286 11.1004 101.19 11.4481C101.19 11.506 101.141 11.5736 101.19 11.6219C101.431 12.1918 101.19 12.7326 101.103 13.2832C101.049 13.7258 101.049 14.1733 101.103 14.616C101.278 15.6107 101.362 16.6193 101.354 17.6294C101.354 18.3248 101.209 19.0202 101.17 19.7155C100.993 21.3204 100.993 22.9398 101.17 24.5447C101.19 24.8083 101.19 25.073 101.17 25.3366C101.17 25.9451 101.17 26.5632 101.17 27.1814C101.166 28.2275 101.231 29.2729 101.363 30.3106ZM98.3307 28.5625C98.4523 28.2663 98.5018 27.9454 98.4749 27.6263C98.448 27.3072 98.3456 26.9991 98.1762 26.7274C97.9337 26.3764 97.7112 26.0121 97.5097 25.6361C97.3434 25.2885 97.0948 24.9868 96.7854 24.7571C96.3157 24.4228 95.7836 24.1863 95.2207 24.0618C93.6107 23.7323 91.964 23.6186 90.324 23.7237C89.2713 23.7237 88.2185 23.7913 87.1658 23.8106C83.6308 23.8783 80.0959 23.7623 76.5417 23.9265C73.5283 24.0618 70.5053 23.9748 67.4919 24.197C66.6613 24.2549 65.8307 24.197 65.0001 24.197C63.8604 24.197 62.7111 24.197 61.5714 24.197C59.9618 24.0976 58.3467 24.1299 56.7423 24.2936H56.5781C56.5105 24.2936 56.4526 24.2936 56.4139 24.2936C56.1568 23.9466 55.8692 23.6233 55.5543 23.3277C54.9152 22.6043 54.1614 21.9909 53.3233 21.512C52.8998 21.322 52.4602 21.1701 52.0098 21.058C51.3559 20.763 50.6394 20.6336 49.9236 20.6814C49.3434 20.6581 48.7632 20.7265 48.2044 20.8842C47.2115 21.0587 46.2821 21.4917 45.5098 22.1398C44.6323 22.8542 43.9482 23.7774 43.5202 24.8248C43.1028 25.7617 42.9172 26.7854 42.9793 27.8092C43.0686 28.7849 43.2267 29.7532 43.4526 30.7066C43.5901 31.5231 44.0107 32.265 44.6405 32.8025C45.2298 33.2341 45.9051 33.5339 46.6205 33.6814C47.6486 33.9048 48.691 34.0565 49.7401 34.1353C52.116 34.2609 54.2312 33.72 55.7765 31.7594C55.8085 31.7133 55.8501 31.6748 55.8984 31.6464C55.9468 31.6181 56.0008 31.6006 56.0566 31.5952C56.5588 31.5952 57.0224 31.5179 57.5729 31.5372C58.6854 31.5742 59.7991 31.529 60.905 31.402C61.8225 31.2958 62.7497 31.402 63.6673 31.3248C64.8308 31.2427 65.9979 31.2233 67.1635 31.2668C68.2356 31.3248 69.298 31.4213 70.3797 31.4117C72.3693 31.4117 74.3686 31.4117 76.3582 31.5565C78.5023 31.6724 80.6465 31.7497 82.8002 31.7014C83.8916 31.7014 84.983 31.7014 86.084 31.7014H88.5662C89.3389 31.7014 90.1115 31.7014 90.8745 31.5855C91.8201 31.4599 92.7781 31.4599 93.7237 31.5855C94.4951 31.7083 95.2832 31.6755 96.0417 31.4889C96.2617 31.4516 96.4712 31.3677 96.6561 31.2428C96.841 31.1178 96.9971 30.9548 97.1138 30.7646C97.5818 30.0718 97.9797 29.3341 98.3017 28.5625H98.3307Z" fill="#F9E7B1"/>
<path d="M100.765 7.44955C100.786 7.88632 100.85 8.31988 100.958 8.74375C100.446 8.30913 99.7891 8.13528 99.2579 7.77793C98.8301 7.51992 98.3376 7.38926 97.8381 7.40125C95.3805 7.2612 92.9169 7.2612 90.4592 7.40125C88.8656 7.44955 87.2624 7.44955 85.6301 7.40125C82.665 7.2757 79.7 7.17911 76.7349 7.14048C75.402 7.14048 74.0885 6.928 72.7653 6.83142C70.9433 6.63022 69.1059 6.60757 67.2795 6.76381C66.246 6.88936 65.1933 6.81211 64.1502 6.90869C63.1096 6.98915 62.0633 6.95352 61.0306 6.80245C60.5256 6.77346 60.0193 6.77346 59.5142 6.80245C57.6405 6.80245 55.7668 6.80245 53.8931 6.80245C52.0194 6.80245 50.4065 6.80245 48.668 6.93766C47.2336 6.9926 45.8059 7.16379 44.3991 7.44955C43.4928 7.64918 42.6739 8.13306 42.0618 8.83067L41.7238 9.18804C41.7715 8.84693 41.8864 8.51867 42.0618 8.22221C42.4114 7.41061 42.9594 6.69989 43.6554 6.15535C44.1853 5.79464 44.7892 5.55704 45.4229 5.45995C46.8274 5.20128 48.2541 5.08158 49.6822 5.10259C49.9333 5.10259 50.2037 5.23781 50.4258 4.98669C50.6995 4.73219 50.8769 4.39104 50.9281 4.02087C50.9203 3.78981 50.9957 3.56362 51.1405 3.38342C51.2497 3.83209 51.2984 4.29332 51.2854 4.75489C51.2854 5.14122 51.2854 5.16054 51.6428 5.1702C55.3322 5.21849 59.012 5.33439 62.7015 5.27644C65.1933 5.27644 67.6851 5.37302 70.1769 5.45029C73.2193 5.54687 76.2713 5.56618 79.3233 5.45029C81.6316 5.37302 83.9399 5.36336 86.2482 5.37302C89.8894 5.37302 93.5209 5.37302 97.1621 5.37302C98.0253 5.31249 98.8875 5.50374 99.6442 5.92354C99.942 6.06624 100.2 6.28013 100.395 6.5463C100.591 6.81247 100.718 7.1227 100.765 7.44955Z" fill="#865A2C"/>
<path d="M100.397 2.84258C100.513 2.84258 100.639 2.84259 100.629 3.02609C100.62 3.2096 100.504 3.19994 100.388 3.2096C100.046 3.2437 99.7002 3.22415 99.364 3.15166C98.1943 2.96686 97.0131 2.86358 95.8291 2.84258C92.1976 2.68805 88.5564 2.65908 84.9249 2.66874C83.7176 2.66874 82.5104 2.66874 81.3128 2.74601C80.2793 2.74601 79.2555 2.90054 78.2318 3.01644C77.9964 3.04863 77.7566 3.01865 77.5364 2.9295C77.6233 2.77497 77.7489 2.79429 77.8551 2.79429C79.0141 2.79429 80.1634 2.5625 81.3224 2.50455C81.7087 2.50455 82.0854 2.50455 82.4717 2.50455C86.335 2.50455 90.1307 2.39831 93.9554 2.45626C95.2013 2.45626 96.4472 2.45626 97.6931 2.51421C98.6023 2.54633 99.507 2.65618 100.397 2.84258Z" fill="black"/>
<path d="M98.1468 26.7274C98.3162 26.9991 98.4186 27.3072 98.4455 27.6263C98.4724 27.9454 98.423 28.2663 98.3013 28.5625C97.9818 29.3304 97.5871 30.0648 97.123 30.7549C97.0063 30.9451 96.8503 31.1082 96.6654 31.2331C96.4804 31.358 96.271 31.442 96.0509 31.4793C95.2925 31.6658 94.5043 31.6987 93.733 31.5759C92.7874 31.4502 91.8293 31.4502 90.8838 31.5759C90.1208 31.6531 89.3481 31.6821 88.5755 31.6917V31.1799C89.4061 31.1799 90.2367 31.1123 91.0673 31.035C91.8728 30.9433 92.686 30.9433 93.4915 31.035C94.2826 31.1751 95.0938 31.1554 95.8771 30.977C96.0031 30.9629 96.1252 30.924 96.2362 30.8627C96.3472 30.8014 96.4451 30.7188 96.5242 30.6197C96.9797 29.9855 97.3743 29.3096 97.7025 28.6011C97.8029 28.3589 97.8455 28.0967 97.8271 27.8352C97.8086 27.5738 97.7296 27.3201 97.5963 27.0944C97.4224 26.7661 97.2003 26.4763 97.0457 26.1286C96.9294 25.8863 96.7662 25.6693 96.5656 25.4903C96.3651 25.3113 96.1311 25.1737 95.8771 25.0855C95.5967 24.9497 95.3019 24.846 94.9982 24.7765C93.6706 24.4797 92.3111 24.35 90.9514 24.3901C89.3674 24.3901 87.7738 24.5253 86.1802 24.535C84.2486 24.535 82.3749 24.6509 80.4722 24.6219C78.5695 24.5929 76.5606 24.8151 75.4789 24.7571C72.8325 24.6606 71.0651 24.6412 69.2976 24.7571C66.9217 24.8827 64.5554 24.873 62.1795 24.8248C60.441 24.8248 58.7025 24.7475 56.964 24.8248H56.8288L56.7612 24.3611C58.3656 24.1975 59.9807 24.1652 61.5904 24.2646C62.73 24.2646 63.8793 24.2646 65.019 24.2646C65.8496 24.2646 66.6802 24.2646 67.5108 24.2646C70.5242 24.0424 73.5473 24.1294 76.5606 23.9941C80.0955 23.83 83.6305 23.9941 87.1847 23.8782C88.2374 23.8782 89.2902 23.8106 90.3429 23.7913C91.9829 23.6862 93.6296 23.7999 95.2397 24.1294C95.8026 24.2539 96.3347 24.4904 96.8043 24.8248C97.1137 25.0544 97.3624 25.3561 97.5287 25.7036C97.7166 26.0555 97.9229 26.3973 98.1468 26.7274Z" fill="black"/>
<path d="M97.5869 27.0461C97.7202 27.2718 97.7992 27.5255 97.8176 27.787C97.8361 28.0484 97.7934 28.3106 97.6931 28.5528C97.3649 29.2613 96.9703 29.9372 96.5148 30.5714C96.4357 30.6705 96.3378 30.7531 96.2268 30.8144C96.1158 30.8758 95.9937 30.9146 95.8677 30.9288C95.0843 31.1071 94.2732 31.1268 93.4821 30.9867C92.6766 30.895 91.8634 30.895 91.0579 30.9867C90.2273 31.064 89.3967 31.1219 88.5661 31.1316H87.6002C86.1032 31.1316 84.6062 31.1316 83.1092 31.1316C80.6463 31.1316 78.1931 30.977 75.7303 30.9288C74.127 30.9288 72.5141 30.7935 70.9012 30.8708C69.8291 30.9191 68.757 30.8708 67.685 30.7742C66.1363 30.7147 64.5856 30.7372 63.0393 30.8418C62.5178 30.8418 61.9866 30.8418 61.465 30.8418L59.4658 30.9867C58.5 31.0447 57.4665 30.8901 56.4621 30.9288C56.2979 30.9288 56.2882 30.8515 56.3462 30.7356C56.7785 29.7048 56.9573 28.5853 56.8677 27.4711C56.8776 27.2181 56.9067 26.9663 56.9547 26.7178C57.076 26.1301 57.0119 25.5193 56.7711 24.9696C56.7132 24.8441 56.7711 24.7958 56.7711 24.7765H56.9353C58.6738 24.7185 60.4123 24.7765 62.1508 24.7765C64.5267 24.7765 66.893 24.8344 69.2689 24.7088C71.0364 24.6123 72.8038 24.6316 75.4502 24.7088C76.5319 24.7668 78.4829 24.5447 80.4435 24.5736C82.4041 24.6026 84.2488 24.4964 86.1515 24.4867C87.7451 24.4867 89.3387 24.3515 90.9227 24.3418C92.2824 24.3017 93.6419 24.4315 94.9695 24.7282C95.2732 24.7977 95.568 24.9014 95.8484 25.0372C96.1023 25.1254 96.3364 25.263 96.5369 25.442C96.7375 25.621 96.9007 25.838 97.017 26.0803C97.1909 26.4473 97.413 26.7178 97.5869 27.0461Z" fill="#B27928"/>
<path d="M88.5662 31.1509V31.6628H86.084C84.983 31.6628 83.8916 31.6628 82.8002 31.6628C80.6464 31.711 78.5023 31.6628 76.3582 31.5179C74.3686 31.4213 72.3693 31.3537 70.3797 31.373C69.298 31.373 68.2356 31.2861 67.1635 31.2281C65.9979 31.1847 64.8308 31.204 63.6672 31.2861C62.7497 31.3344 61.8225 31.2861 60.905 31.3633C59.7991 31.4903 58.6854 31.5355 57.5729 31.4986C57.061 31.4986 56.6071 31.5469 56.0565 31.5565C56.0007 31.5619 55.9468 31.5794 55.8984 31.6078C55.85 31.6361 55.8084 31.6747 55.7765 31.7207C54.2311 33.6524 52.116 34.2222 49.7401 34.0966C48.6909 34.0178 47.6485 33.8661 46.6205 33.6427C45.9051 33.4952 45.2298 33.1954 44.6405 32.7638C44.0107 32.2264 43.5901 31.4844 43.4525 30.668C43.2267 29.7145 43.0686 28.7463 42.9793 27.7705C42.9172 26.7467 43.1027 25.723 43.5202 24.7861C43.9482 23.7387 44.6323 22.8155 45.5097 22.1011C46.282 21.4531 47.2115 21.02 48.2044 20.8455C48.7632 20.6878 49.3434 20.6194 49.9236 20.6427C50.6393 20.595 51.3559 20.7243 52.0097 21.0194C52.4602 21.1314 52.8998 21.2833 53.3233 21.4733C54.1614 21.9522 54.9152 22.5656 55.5543 23.2891C55.8691 23.5847 56.1568 23.9079 56.4139 24.2549C56.4139 24.3128 56.5105 24.2549 56.5781 24.2549H56.7423L56.8099 24.7185C56.7519 24.7185 56.7326 24.7861 56.8099 24.9117C57.0506 25.4613 57.1147 26.0721 56.9934 26.6598C56.9454 26.9083 56.9163 27.1602 56.9065 27.4131C56.996 28.5273 56.8172 29.6468 56.3849 30.6776C56.327 30.7935 56.3849 30.8804 56.5008 30.8708C57.4667 30.8708 58.5001 30.9867 59.5045 30.9287L61.5038 30.7839C62.0253 30.7839 62.5565 30.7839 63.0781 30.7839C64.6243 30.6793 66.1751 30.6567 67.7237 30.7162C68.7958 30.7742 69.8678 30.8611 70.9399 30.8128C72.5528 30.7356 74.1657 30.8128 75.769 30.8708C78.2319 30.9191 80.6851 31.0929 83.1479 31.0736C84.6449 31.0736 86.142 31.0736 87.639 31.0736L88.5662 31.1509ZM56.1242 25.7229C56.1296 25.5587 56.093 25.3958 56.0179 25.2497C55.7705 24.7055 55.4003 24.2261 54.9362 23.8492C54.2931 23.1117 53.5089 22.5105 52.6297 22.0809C51.7506 21.6512 50.7943 21.402 49.8173 21.3478C49.46 21.3478 49.1509 21.3478 48.8515 21.3961C47.6083 21.4969 46.4523 22.0749 45.6256 23.009C44.9811 23.6829 44.4873 24.4862 44.1769 25.3656C43.788 26.2071 43.6376 27.1392 43.7423 28.0602C43.8775 28.8426 44.0127 29.6152 44.2155 30.3782C44.3187 30.9127 44.5602 31.4108 44.9162 31.8226C45.2721 32.2345 45.7299 32.5457 46.2438 32.7252C46.8909 32.9473 47.5669 33.0246 48.2237 33.1888C49.7138 33.6099 51.2965 33.5695 52.7631 33.0729C53.4759 32.8236 54.1162 32.4023 54.6271 31.8463C55.3339 31.0265 55.7899 30.0206 55.9406 28.9488C56.0855 27.8671 55.9696 26.7853 56.1242 25.7229Z" fill="black"/>
<path d="M80.1151 39.2735C80.202 39.3314 80.1827 39.3797 80.1151 39.428C79.8406 39.6667 79.6228 39.9637 79.4776 40.2972C79.3714 40.5001 79.2748 40.4711 79.1686 40.2972C79.041 40.145 78.9248 39.9836 78.8209 39.8143C78.6646 39.4795 78.4838 39.1567 78.28 38.8485H79.3135C79.6227 38.8905 79.9068 39.0411 80.1151 39.2735Z" fill="#865A2C"/>
<path d="M78.1158 40.2683C78.1332 40.2946 78.1451 40.3243 78.1506 40.3554C78.1562 40.3865 78.1553 40.4184 78.1481 40.4492C78.1408 40.4799 78.1274 40.5088 78.1085 40.5342C78.0897 40.5596 78.0659 40.5808 78.0386 40.5967C77.576 40.9198 77.2358 41.3893 77.0727 41.9295C77.0661 41.9804 77.044 42.0281 77.0095 42.0661C76.975 42.1041 76.9296 42.1306 76.8796 42.142C76.4546 42.1999 76.0683 42.509 75.595 42.3641C75.2773 42.2907 74.947 42.2907 74.6292 42.3641C73.8989 42.4028 73.1671 42.4028 72.4368 42.3641C69.5393 42.3641 66.7094 42.2965 63.8409 42.3641C61.7258 42.4124 59.6106 42.3641 57.4955 42.3641C55.6218 42.3641 53.7481 42.48 51.884 42.5669C50.783 42.5669 49.6916 42.5669 48.6002 42.5669C47.5088 42.5669 46.3692 42.5669 45.2585 42.5669C44.7369 42.5669 44.2057 42.5669 43.6842 42.5187C42.781 42.5153 41.8782 42.5604 40.9799 42.6539C38.8551 42.7311 36.7303 42.5669 34.6054 42.4993C32.849 42.3432 31.0851 42.2884 29.3224 42.3351C28.5502 42.4283 27.7722 42.4638 26.9947 42.4414C26.1738 42.3738 25.3528 42.3834 24.5415 42.3641C23.5739 42.3515 22.6063 42.3966 21.6441 42.4993C21.3253 42.4993 21.0259 42.4993 20.6782 42.5573C19.8286 42.5695 18.984 42.4255 18.1864 42.1323C17.577 41.914 16.9075 41.9347 16.3127 42.1903C16.0042 42.3047 15.6754 42.354 15.3469 42.3351C13.9754 42.2579 12.6136 42.1613 11.2518 42.1227C10.0928 42.1227 8.93383 42.0261 7.7845 42.0647C6.2885 42.1994 4.79473 41.7839 3.58316 40.8961C2.708 40.1814 2.00767 39.2763 1.53561 38.2497L1.0527 37.2839C0.805771 36.7365 0.712296 36.1322 0.782272 35.5358C0.782272 35.2943 0.782272 35.0625 0.782272 34.8307H1.01407C1.03163 35.2904 1.11289 35.7455 1.25552 36.1829C1.28566 36.3164 1.35072 36.4395 1.44406 36.5396C1.53739 36.6397 1.65565 36.7133 1.78673 36.7527C1.94343 36.7996 2.0954 36.861 2.24067 36.9362C2.36046 36.9804 2.46643 37.0555 2.54785 37.1539C2.62926 37.2523 2.68322 37.3704 2.70426 37.4964C2.71004 37.5825 2.74313 37.6645 2.79871 37.7305C2.85429 37.7965 2.92947 37.843 3.01332 37.8634C3.53457 38.0234 4.00873 38.3086 4.39445 38.694C4.95726 39.1679 5.659 39.4459 6.39371 39.486C7.46422 39.6115 8.54385 39.6406 9.61957 39.5729H10.0832C11.278 39.4168 12.487 39.4006 13.6857 39.5246C14.6498 39.5962 15.617 39.6156 16.5832 39.5826C17.9546 39.5826 19.3164 39.6695 20.6782 39.6888C22.0401 39.7081 23.4791 39.5922 24.8699 39.5632C25.8937 39.5632 26.9175 39.5632 27.9412 39.5632C30.153 39.5632 32.3744 39.5053 34.5958 39.5632C36.3343 39.5632 38.0727 39.6791 39.8112 39.7564C41.5497 39.8337 43.2013 39.7564 44.8915 39.8143C47.0452 39.8916 49.2087 39.8143 51.3625 39.8143C53.5163 39.8143 55.8149 39.8143 58.046 39.8143C59.1277 39.8143 60.2094 39.9302 61.2911 39.9979C62.3729 40.0655 63.5126 40.1041 64.6233 40.1717C65.99 40.2635 67.3613 40.2635 68.728 40.1717C69.2555 40.1651 69.7825 40.2071 70.3023 40.2973C71.2681 40.4325 72.2339 40.4421 73.1998 40.4808C73.4855 40.4594 73.7712 40.5233 74.0207 40.6643C74.0787 40.7126 74.1656 40.7415 74.2139 40.6643C74.4264 40.4518 74.6002 40.6643 74.7741 40.7222C74.8589 40.767 74.9534 40.7905 75.0493 40.7905C75.1453 40.7905 75.2398 40.767 75.3246 40.7222L76.2035 40.3262C76.2416 40.3096 76.2754 40.2844 76.3022 40.2526C76.329 40.2207 76.3481 40.1831 76.358 40.1427C76.5584 39.6586 76.8285 39.2063 77.1597 38.8002C77.2466 38.6554 77.3432 38.6554 77.4108 38.8002C77.7488 39.3701 77.9226 39.824 78.1158 40.2683Z" fill="#865A2C"/>
<path d="M76.7445 38.4042C76.9956 38.5491 77.0149 38.6457 76.8507 38.8678C76.5883 39.197 76.3857 39.5697 76.2519 39.9689C76.2036 40.1427 76.0684 40.1427 75.9332 40.133C75.6942 40.1213 75.4552 40.1541 75.2282 40.2296C74.9071 40.3091 74.5692 40.2854 74.2623 40.162C73.444 39.8933 72.5815 39.7851 71.7222 39.8433C71.25 39.8869 70.7747 39.8869 70.3025 39.8433C69.4543 39.766 68.6008 39.766 67.7527 39.8433C66.5567 39.8609 65.3607 39.8158 64.1695 39.7081C62.9139 39.6501 61.6583 39.5922 60.4124 39.4956C58.4808 39.3507 56.5008 39.4956 54.5402 39.4376C51.9132 39.4376 49.2765 39.5729 46.6494 39.4859C43.8099 39.3894 40.9704 39.4376 38.1405 39.2831C35.9674 39.1672 33.7943 39.1382 31.6212 39.0803V38.7133C31.7492 38.704 31.874 38.6694 31.9884 38.6113C32.1029 38.5533 32.2046 38.473 32.2876 38.3753C32.3939 38.2594 32.4325 38.3076 32.5291 38.3753C32.6325 38.4618 32.7575 38.5186 32.8908 38.5396C33.024 38.5606 33.1604 38.5449 33.2854 38.4943C33.4104 38.4437 33.5194 38.3601 33.6005 38.2523C33.6816 38.1446 33.7319 38.0168 33.746 37.8827C33.7668 37.8065 33.783 37.7291 33.7943 37.6509C33.7943 37.5253 33.8426 37.4867 33.9875 37.4867C34.1337 37.5011 34.2812 37.4799 34.4174 37.4247C34.5536 37.3696 34.6743 37.2822 34.7693 37.1702C34.8643 37.0581 34.9306 36.9246 34.9627 36.7812C34.9947 36.6379 34.9915 36.4889 34.9533 36.347C34.9533 36.2504 34.876 36.1828 34.9533 36.1056C35.59 35.6353 36.1282 35.0447 36.5373 34.3671C36.8471 33.9267 37.0519 33.4212 37.1361 32.8894C37.2762 32.1413 37.3345 31.3803 37.3099 30.6197C37.252 28.321 37.3968 26.0224 37.3872 23.7237C37.3872 23.5016 37.3872 23.2794 37.3872 23.0573C37.532 21.6568 37.5514 20.2467 37.59 18.8463C37.59 17.8805 37.59 16.9146 37.7349 15.9488C37.8524 14.9649 37.9072 13.9746 37.8991 12.9837C37.8042 11.8434 37.7817 10.6982 37.8315 9.55505C37.9072 8.53048 37.7211 7.50347 37.2906 6.57066C37.0141 5.83058 36.4596 5.22762 35.7453 4.89012C35.2429 4.66928 34.7004 4.55422 34.1517 4.55209C32.0751 4.55209 29.9986 4.55209 27.9221 4.47482C26.174 4.47482 24.4162 4.63901 22.668 4.47482C21.963 4.41687 21.2483 4.42653 20.5432 4.40721C20.4273 4.40721 20.3211 4.40721 20.2728 4.24302C20.2508 4.04489 20.1531 3.86292 20.0001 3.73513C19.8472 3.60734 19.6507 3.54362 19.4518 3.55729C19.3166 3.55729 19.2587 3.5573 19.2104 3.39311C19.1463 3.22627 19.027 3.08641 18.8724 2.99679C18.7177 2.90717 18.5371 2.87319 18.3604 2.90053C18.1769 2.90053 18.1673 2.90053 18.1286 2.73634C18.0601 2.47065 17.9457 2.21898 17.7906 1.99265C17.7345 1.90049 17.6568 1.82333 17.5643 1.76782C17.4718 1.7123 17.3671 1.68009 17.2594 1.67394V1.00752H21.0068H24.8701C26.7438 1.00752 28.6175 1.17171 30.4912 1.19103C33.4949 1.19103 36.5083 1.08478 39.512 1.09444C41.2022 1.09444 42.8924 1.17171 44.5826 1.09444C46.8619 1.02683 49.1412 0.997863 51.4206 0.978546V1.47111C51.295 1.47111 51.2854 1.55804 51.2564 1.64497C51.1565 1.89796 51.0695 2.15583 50.9956 2.41761C50.9447 2.90303 50.718 3.35305 50.3582 3.68284C50.2653 3.77829 50.1959 3.89402 50.1554 4.02089C50.0897 4.2178 49.9571 4.38549 49.7807 4.49487C49.6043 4.60425 49.3951 4.64841 49.1895 4.61969H48.7742C48.3967 4.61539 48.0193 4.63476 47.6442 4.67765C47.0068 4.7356 46.3693 4.79354 45.7126 4.8032C45.0141 4.90849 44.3343 5.1134 43.694 5.41167C43.3907 5.50035 43.1213 5.67881 42.9214 5.92356C42.4867 6.40647 42.1873 6.99562 41.7817 7.48819C41.1431 8.35841 40.7435 9.38068 40.6227 10.4533C40.4006 11.865 40.3519 13.2987 40.4778 14.7222C40.5358 15.5808 40.5358 16.4424 40.4778 17.301C40.3492 18.1415 40.3265 18.9949 40.4102 19.8411C40.4905 20.1859 40.523 20.5401 40.5068 20.8938C40.4392 21.7727 40.5068 22.6613 40.4295 23.5305C40.4247 23.5722 40.4247 23.6144 40.4295 23.6561C40.5358 24.7378 40.613 25.8292 40.7579 26.9109C40.9414 28.2341 40.9704 29.5573 41.0573 30.8804C41.1056 31.769 41.1056 32.6672 41.2022 33.5558C41.2022 33.72 41.3567 33.9518 41.2891 34.0484C41.0863 34.3284 41.2891 34.4637 41.4243 34.6085C41.843 35.036 42.3509 35.3658 42.9117 35.5744C44.0031 35.98 45.1427 36.2215 46.2631 36.5402C47.1528 36.6995 48.062 36.719 48.9578 36.5981C51.8552 36.4436 54.8106 36.6464 57.7371 36.5981C59.1182 36.5981 60.4897 36.743 61.8708 36.7527C63.8894 36.7527 65.9176 36.7527 67.9458 36.7044C69.8002 36.7044 71.645 36.5209 73.509 36.5402C74.301 36.5402 75.1026 36.5402 75.9042 36.5402V37.0714C75.8729 37.0611 75.839 37.0611 75.8077 37.0714C75.6628 37.1583 75.74 37.3128 75.8077 37.4287C75.9809 37.8635 76.3171 38.2135 76.7445 38.4042ZM35.3589 3.03574C35.4266 3.03438 35.4932 3.01911 35.5547 2.99087C35.6162 2.96262 35.6712 2.922 35.7163 2.87155C34.8664 2.87155 34.0068 2.87155 33.1569 2.87155C32.0075 2.9295 30.8679 3.09369 29.7089 3.08404H25.6717C25.5751 3.08404 25.4399 3.08404 25.4206 3.18062C25.4013 3.27721 25.5365 3.31584 25.6428 3.31584C27.2287 3.40271 28.8183 3.40271 30.4043 3.31584C32.0558 3.26755 33.7557 3.07437 35.3589 3.03574ZM26.512 2.52386C26.512 2.42727 26.454 2.37898 26.3671 2.35967L26.0291 2.30172C25.3547 2.23414 24.6752 2.23414 24.0009 2.30172C23.3538 2.30172 22.7163 2.38864 22.0692 2.44659C21.9726 2.44659 21.7698 2.4466 21.7795 2.59147C21.7891 2.73634 21.9726 2.66873 22.0692 2.67839C22.5231 2.67839 22.9771 2.67839 23.431 2.67839C24.3968 2.67839 25.3627 2.67839 26.3285 2.62044C26.3864 2.60113 26.4927 2.63975 26.512 2.52386Z" fill="#E3B574"/>
<path d="M75.9428 0.582576V1.15241C73.8952 1.15241 71.8477 1.0848 69.8002 1.07514C66.8061 1.07514 63.8024 1.07514 60.8083 1.07514C58.5483 1.07514 56.2883 1.02685 54.0476 1.07514H51.5268C49.2474 1.07514 46.9681 1.07515 44.6887 1.19105C42.9986 1.19105 41.3084 1.19105 39.6182 1.19105C36.6145 1.19105 33.6011 1.32626 30.5974 1.28762C28.7237 1.28762 26.85 1.10411 24.9763 1.10411H21.113V0.746764C21.7601 0.746764 22.4168 0.698472 23.0446 0.640523C23.9643 0.577751 24.8872 0.577751 25.8069 0.640523C27.8544 0.737105 29.902 0.640523 31.9495 0.640523C34.7021 0.640523 37.4547 0.476329 40.2073 0.485987C41.6657 0.485987 43.1048 0.563264 44.5825 0.572923C45.1415 0.57311 45.6998 0.534374 46.2534 0.457014C47.016 0.361992 47.7835 0.310395 48.552 0.302478C50.7734 0.234871 52.9852 0.302478 55.2066 0.302478C58.5 0.254187 61.7935 0.447365 65.0773 0.466681C66.3715 0.466681 67.6753 0.466669 68.9406 0.40872C70.2058 0.35077 71.3455 0.524626 72.5528 0.582576C73.76 0.640525 74.8031 0.582576 75.9428 0.582576Z" fill="black"/>
<path d="M73.084 2.87157C73.084 2.87157 73.084 2.87156 73.1419 2.95849C72.0881 3.0549 71.0278 3.0549 69.974 2.95849C68.965 2.87155 67.9503 2.87155 66.9413 2.95849C66.5936 2.95849 66.2363 2.95849 65.8886 2.95849C65.821 2.95849 65.7147 2.9585 65.7147 2.88124C65.7147 2.80397 65.821 2.78465 65.8982 2.77499C66.2846 2.77499 66.6612 2.68806 67.0476 2.65909C68.8204 2.51739 70.6028 2.54975 72.3692 2.75567C72.6108 2.76974 72.8503 2.80857 73.084 2.87157Z" fill="black"/>
<path d="M56.0176 25.2497C56.0927 25.3958 56.1293 25.5587 56.1238 25.7229C55.9693 26.7853 56.1238 27.8671 55.921 28.9295C55.7703 30.0013 55.3143 31.0072 54.6075 31.8269C54.0966 32.383 53.4563 32.8043 52.7435 33.0535C51.2768 33.5501 49.6941 33.5905 48.2041 33.1694C47.5473 33.0052 46.8712 32.928 46.2241 32.7058C45.7102 32.5263 45.2525 32.2151 44.8965 31.8033C44.5406 31.3914 44.299 30.8934 44.1959 30.3589C43.9931 29.5959 43.8579 28.8232 43.7227 28.0409C43.618 27.1198 43.7684 26.1877 44.1573 25.3463C44.4677 24.4669 44.9615 23.6636 45.606 22.9896C46.4326 22.0556 47.5886 21.4776 48.8319 21.3767C49.1506 21.3767 49.4596 21.3091 49.7977 21.3284C50.7747 21.3826 51.7309 21.6319 52.6101 22.0615C53.4892 22.4911 54.2735 23.0924 54.9166 23.8299C55.39 24.2101 55.7673 24.6965 56.0176 25.2497Z" fill="#FBD600"/>
<path d="M37.9182 12.9837C37.9264 13.9746 37.8716 14.9649 37.754 15.9488C37.6575 16.9146 37.6285 17.8805 37.6092 18.8463C37.6092 20.2467 37.5512 21.6568 37.4063 23.0573C37.4063 23.2794 37.4063 23.5016 37.4063 23.7237C37.4063 26.0224 37.2711 28.321 37.3291 30.6197C37.3536 31.3803 37.2954 32.1413 37.1552 32.8894C37.0711 33.4212 36.8663 33.9267 36.5564 34.3671C36.1473 35.0447 35.6092 35.6353 34.9725 36.1056C34.8662 36.1828 34.9145 36.2504 34.9725 36.347C35.0107 36.4889 35.0139 36.6379 34.9819 36.7812C34.9498 36.9246 34.8834 37.0581 34.7885 37.1702C34.6935 37.2822 34.5727 37.3696 34.4365 37.4247C34.3004 37.4799 34.1528 37.5011 34.0066 37.4867C33.8618 37.4867 33.8231 37.4867 33.8135 37.6509C33.8021 37.7291 33.786 37.8065 33.7652 37.8827C33.7511 38.0168 33.7008 38.1446 33.6197 38.2523C33.5385 38.3601 33.4296 38.4437 33.3046 38.4943C33.1796 38.5449 33.0431 38.5606 32.9099 38.5396C32.7767 38.5186 32.6517 38.4618 32.5483 38.3753C32.4517 38.3173 32.413 38.269 32.3068 38.3753C32.2237 38.473 32.122 38.5533 32.0076 38.6113C31.8932 38.6694 31.7683 38.704 31.6404 38.7133C31.4723 38.7034 31.3112 38.6428 31.1783 38.5393C31.0455 38.4358 30.9473 38.2944 30.8967 38.1338L30.8194 37.9793L30.6263 38.1145C30.5155 38.1998 30.383 38.2522 30.2439 38.2657C30.1048 38.2791 29.9647 38.2531 29.8397 38.1906C29.7146 38.1281 29.6098 38.0316 29.5371 37.9123C29.4644 37.7929 29.4268 37.6554 29.4286 37.5157C29.4552 37.246 29.429 36.9737 29.3514 36.714C29.2645 36.5498 29.1872 36.4919 29.0133 36.5016C28.0475 36.5981 27.1686 36.5015 26.2511 36.5595C24.9853 36.5483 23.7212 36.4645 22.465 36.3084C21.8714 36.2408 21.2719 36.2408 20.6783 36.3084C19.7125 36.405 18.7466 36.3084 17.8484 36.3084C16.9502 36.3084 15.6656 36.376 14.5646 36.3084C13.4636 36.2408 12.4108 36.1635 11.3194 36.1539C10.6723 36.1539 10.0252 36.1539 9.38779 36.2118C8.82012 36.2627 8.24878 36.1697 7.72658 35.9414C7.52249 35.8327 7.30489 35.7515 7.07947 35.6999C6.70031 35.5998 6.35306 35.4044 6.07074 35.1322C5.78842 34.8601 5.58043 34.5202 5.46655 34.1449C5.09865 33.3557 4.8668 32.51 4.78081 31.6435C4.66492 30.0402 4.65525 28.4466 4.62628 26.8143C4.62628 26.6019 4.62628 26.4666 4.37517 26.3797C4.25846 26.3297 4.15934 26.246 4.09051 26.1393C4.02168 26.0327 3.98628 25.9078 3.98884 25.7809C3.96964 25.6302 3.96964 25.4777 3.98884 25.327C4.01629 25.2109 4.01386 25.0898 3.98177 24.9749C3.94967 24.8601 3.88897 24.7552 3.80533 24.6702C3.73954 24.5843 3.70389 24.479 3.70389 24.3708C3.70389 24.2626 3.73954 24.1573 3.80533 24.0714C3.90001 23.8969 3.97454 23.7122 4.02747 23.5209C3.90523 23.574 3.76807 23.5817 3.64061 23.5428C3.51316 23.5038 3.40377 23.4207 3.33208 23.3084C3.25639 23.1813 3.21643 23.0362 3.21643 22.8883C3.21643 22.7404 3.25639 22.5952 3.33208 22.4681C3.498 22.1752 3.55286 21.8324 3.48661 21.5023C3.47287 21.4017 3.42838 21.3078 3.35922 21.2335C3.29007 21.1591 3.19963 21.108 3.10028 21.087C2.69464 20.9808 2.49182 20.7393 2.52079 20.4399C2.54804 20.2846 2.60723 20.1366 2.69463 20.0053C2.87058 19.7439 3.06082 19.4924 3.26447 19.2519C3.45095 19.0303 3.57226 18.7613 3.61489 18.4748C3.65753 18.1883 3.6198 17.8956 3.50593 17.6293C3.35377 17.2464 3.35985 16.8187 3.52284 16.4402C3.68582 16.0617 3.99238 15.7634 4.37517 15.6108C4.48141 15.5625 4.49106 15.5045 4.49106 15.3983C4.49106 13.7371 4.55867 12.0759 4.67457 10.4243C4.70356 9.01074 5.09248 7.62791 5.80459 6.40647C5.96411 6.15709 6.16308 5.93529 6.39374 5.74972C6.83802 5.40202 7.29196 5.08008 7.75555 4.7839C7.94355 4.64148 8.17715 4.57276 8.41231 4.59072C9.05771 4.59262 9.70267 4.55715 10.344 4.48448C10.9884 4.44008 11.6358 4.46274 12.2756 4.55209C12.8225 4.58106 13.3706 4.58106 13.9175 4.55209C13.8823 4.17002 13.9751 3.78708 14.1815 3.46359C14.3878 3.14011 14.6959 2.89444 15.0572 2.76531C15.3856 2.6977 15.627 2.90053 15.8492 3.1613C15.9168 2.99711 15.9844 2.85224 16.052 2.69771C16.1322 2.50639 16.2494 2.33282 16.3969 2.18696C16.5445 2.0411 16.7193 1.92583 16.9116 1.84778C17.0122 1.80418 17.1206 1.7812 17.2303 1.78018C17.338 1.78633 17.4426 1.81854 17.5352 1.87406C17.6277 1.92958 17.7054 2.00673 17.7615 2.09889C17.9166 2.32522 18.031 2.5769 18.0995 2.84258C18.0995 2.96814 18.0995 3.0454 18.3313 3.00677C18.5079 2.97944 18.6886 3.0134 18.8432 3.10302C18.9979 3.19263 19.1172 3.33251 19.1813 3.49935C19.2295 3.6249 19.2875 3.65388 19.4227 3.66354C19.6216 3.64986 19.818 3.71358 19.971 3.84137C20.124 3.96916 20.2217 4.15113 20.2437 4.34926C20.2437 4.52311 20.3982 4.51345 20.5141 4.51345C21.2191 4.51345 21.9338 4.51346 22.6389 4.58107C24.387 4.71628 26.1448 4.52312 27.893 4.58107C29.9695 4.58107 32.046 4.58107 34.1225 4.65833C34.6713 4.66046 35.2138 4.77552 35.7162 4.99636C36.4305 5.33387 36.9849 5.93682 37.2615 6.6769C37.692 7.60972 37.8781 8.63672 37.8023 9.66129C37.773 10.7701 37.8117 11.8797 37.9182 12.9837ZM37.078 15.9971C37.0007 15.0313 37.2035 14.0654 37.1456 13.0996C37.049 11.7764 36.8945 10.4533 36.8945 9.1301C36.8945 8.93694 36.7689 8.88863 36.6433 8.83069C35.3905 8.23897 34.0297 7.91027 32.6448 7.86486C30.887 7.86486 29.1389 7.5558 27.3811 7.54614C26.2704 7.54614 25.1694 7.43025 24.0683 7.36264C21.5668 7.20811 19.046 7.4882 16.5349 7.19846C15.4349 7.13086 14.3318 7.13086 13.2318 7.19846H12.8937C11.6039 7.1523 10.3125 7.20395 9.03044 7.35298C8.21608 7.50758 7.44499 7.83711 6.77041 8.3188C6.06146 8.93302 5.58427 9.77152 5.41826 10.6947C5.27448 11.3285 5.2032 11.9765 5.20578 12.6264C5.12368 14.1416 5.12368 15.6602 5.20578 17.1754C5.20578 18.1412 5.09953 19.1071 5.14782 20.0729C5.25407 22.0818 5.34099 24.0811 5.37963 26.09C5.33768 28.1465 5.41184 30.2037 5.60176 32.2519C5.75629 33.4302 6.16195 34.6182 7.59137 34.9562L7.79419 35.0335C8.6112 35.4001 9.51545 35.5274 10.4019 35.4005C11.1203 35.3715 11.8399 35.3909 12.5557 35.4585C13.5891 35.555 14.6129 35.5744 15.6463 35.584C16.6798 35.5937 17.6939 35.4198 18.708 35.4971C19.4245 35.5598 20.1452 35.5598 20.8618 35.4971C21.2474 35.4633 21.6352 35.4633 22.0208 35.4971C23.6687 35.6837 25.3269 35.7644 26.9851 35.7385C27.101 35.7385 27.2169 35.7385 27.3231 35.7385C28.231 35.8062 29.1485 35.7965 30.0564 35.7965C31.283 35.7965 32.5 35.642 33.7266 35.7289C34.0591 35.7697 34.3963 35.7095 34.6943 35.5562C34.9922 35.4029 35.2372 35.1636 35.3974 34.8693C35.6389 34.483 35.9093 34.116 36.1894 33.7489C36.3464 33.577 36.4474 33.3615 36.4792 33.1308C36.5371 32.3002 36.682 31.4793 36.7303 30.6583C36.8462 28.4949 36.8945 26.3218 36.8751 24.1583C36.8751 23.0863 37.0103 22.0142 37.0393 20.9421C37.1381 19.2956 37.151 17.645 37.078 15.9971ZM36.8075 8.02905C36.6916 7.60409 36.5854 7.22743 36.4888 6.85076C36.4888 6.75418 36.4405 6.63826 36.3536 6.58031C35.9682 6.2403 35.5084 5.99551 35.0111 5.86561C34.4988 5.79976 33.9819 5.77714 33.4658 5.798C32.442 5.798 31.4279 5.67244 30.4041 5.61449C29.757 5.61449 29.1099 5.61449 28.4725 5.55654C27.5839 5.47928 26.6954 5.4503 25.8068 5.39235C25.2215 5.43098 24.6343 5.43098 24.049 5.39235C22.7741 5.16056 21.4799 5.39235 20.1857 5.20885C19.6448 5.1509 19.0943 5.33441 18.5535 5.27646C18.1296 5.233 17.7024 5.233 17.2786 5.27646C16.7581 5.35921 16.2312 5.39477 15.7043 5.3827C14.8688 5.31026 14.0286 5.31026 13.1931 5.3827C12.5047 5.42133 11.8147 5.42133 11.1263 5.3827C10.4079 5.34892 9.68801 5.36829 8.97249 5.44065C8.34619 5.50915 7.75112 5.74985 7.25332 6.13604C6.87044 6.44854 6.5438 6.82417 6.2875 7.24673C6.00659 7.71481 5.8196 8.23314 5.73698 8.77274C5.98316 8.45174 6.26871 8.16295 6.58691 7.91316C7.68859 7.10346 9.01551 6.65779 10.3826 6.63828C11.5319 6.63828 12.6716 6.75417 13.8113 6.7252C15.3759 6.7252 16.9309 6.7252 18.4859 6.7252C20.5624 6.6769 22.6389 6.58998 24.7154 6.7252C26.7919 6.86041 28.7815 6.86042 30.8194 6.98597C32.4158 7.07002 34.004 7.27015 35.5713 7.58478C35.9918 7.70835 36.4046 7.8567 36.8075 8.02905ZM34.4896 36.6174C34.5475 36.5015 34.6248 36.3567 34.5475 36.2408C34.4702 36.1249 34.3447 36.2408 34.2384 36.2408C34.1322 36.2408 33.8231 36.2408 33.6107 36.2408C33.3995 36.2072 33.1844 36.2072 32.9732 36.2408C32.3556 36.3339 31.7333 36.3919 31.1092 36.4146C30.8133 36.3944 30.5165 36.3944 30.2206 36.4146C29.4866 36.4919 29.4769 36.5015 29.6894 37.2356C29.9019 37.9696 30.182 37.9986 30.6552 37.4963C30.8355 37.3418 30.9804 37.3708 31.0899 37.5833C31.0899 37.6509 31.1478 37.7378 31.1864 37.8054C31.2251 37.873 31.3603 38.1821 31.5921 38.2207C31.8239 38.2593 31.9494 38.0758 32.075 37.9116C32.2005 37.7475 32.3454 37.6219 32.5386 37.9116C32.7318 38.2014 32.9442 38.2207 33.1567 37.9116C33.3082 37.6855 33.392 37.4208 33.3982 37.1487C33.3982 36.9458 33.5044 36.8686 33.6976 36.9265C34.1902 37.0714 34.2964 36.9941 34.4896 36.6174ZM19.8573 4.37824C19.8573 4.29131 19.8573 4.22371 19.7801 4.17542C19.6908 4.07939 19.5774 4.00905 19.4517 3.97168C19.326 3.93431 19.1926 3.93129 19.0653 3.96294C18.8722 3.96294 18.7563 3.96294 18.8142 3.81807C18.8401 3.77175 18.8559 3.72047 18.8606 3.66762C18.8653 3.61477 18.8587 3.56152 18.8414 3.51137C18.8241 3.46122 18.7964 3.41529 18.7601 3.3766C18.7238 3.33791 18.6797 3.30734 18.6307 3.28686C18.5854 3.25765 18.5338 3.23939 18.4802 3.23353C18.4266 3.22767 18.3723 3.23438 18.3217 3.25312C18.2711 3.27186 18.2255 3.30211 18.1887 3.3415C18.1518 3.38088 18.1246 3.42831 18.1092 3.48003C18.096 3.5049 18.078 3.52689 18.0563 3.54475C18.0345 3.56261 18.0094 3.57599 17.9825 3.58407C17.9555 3.59216 17.9272 3.59481 17.8992 3.59187C17.8713 3.58893 17.8441 3.58046 17.8194 3.56695C17.778 3.54437 17.7468 3.50668 17.7324 3.46171C17.718 3.41674 17.7215 3.36795 17.7422 3.32549C17.787 3.11932 17.7832 2.90556 17.7313 2.70107C17.6793 2.49659 17.5805 2.30697 17.4428 2.14718C17.4151 2.09677 17.3721 2.05649 17.32 2.03218C17.2679 2.00786 17.2094 2.00078 17.153 2.01197C16.8654 2.10235 16.6089 2.27151 16.4126 2.50026C16.2163 2.72902 16.088 3.00821 16.0423 3.30617C16.0423 3.43173 16.1292 3.65387 15.9747 3.68284C15.8202 3.68284 15.8588 3.47037 15.8105 3.34481C15.6367 2.8619 15.289 2.746 14.8447 3.05506C14.5195 3.28476 14.2948 3.63045 14.2169 4.02089C14.1686 4.30097 14.2169 4.3879 14.5163 4.3879H19.6448C19.7318 4.40722 19.809 4.4555 19.8573 4.37824ZM4.56833 17.8998C4.65909 17.2591 4.65909 16.6088 4.56833 15.9681C4.29892 16.1273 4.08268 16.3626 3.94689 16.6445C3.8111 16.9264 3.76184 17.2422 3.80533 17.5521C3.90562 17.879 3.9255 18.2254 3.86328 18.5617C3.80107 18.898 3.6586 19.2143 3.44798 19.4837C3.24715 19.7116 3.07223 19.961 2.92643 20.2274C2.76224 20.5655 2.8395 20.7393 3.17754 20.8455C3.25905 20.8562 3.33762 20.883 3.40865 20.9244C3.47968 20.9657 3.54175 21.0209 3.59121 21.0865C3.64068 21.1522 3.67656 21.227 3.69674 21.3067C3.71692 21.3864 3.721 21.4693 3.70875 21.5506C3.70875 21.9562 3.70875 22.3715 3.63148 22.7772C3.55422 23.1828 3.6991 23.2021 3.96953 23.2408C4.23996 23.2794 4.39448 23.3953 4.2979 23.7334C4.27049 23.8509 4.2283 23.9645 4.17235 24.0714C4.09508 24.2452 4.01781 24.3998 4.24961 24.5253C4.29431 24.5549 4.3255 24.6009 4.33636 24.6534C4.34722 24.7059 4.33687 24.7606 4.30756 24.8054C4.14337 25.0372 4.21098 25.2883 4.20132 25.5394C4.19564 25.6484 4.22427 25.7564 4.28318 25.8482C4.34209 25.94 4.4283 26.0111 4.5297 26.0513C4.5297 25.0082 4.5297 23.9652 4.5297 22.9317C4.4081 21.2496 4.42102 19.5605 4.56833 17.8805V17.8998Z" fill="black"/>
<path d="M37.1457 13.119C37.2037 14.0848 37.0009 15.0506 37.0781 16.0164C37.1651 17.6733 37.1651 19.3336 37.0781 20.9904C37.0781 22.0625 36.9139 23.1345 36.9139 24.2066C36.9139 26.3701 36.9139 28.5432 36.769 30.7066C36.769 31.5276 36.5759 32.3485 36.5179 33.1791C36.4862 33.4098 36.3851 33.6253 36.2282 33.7972C35.9481 34.1643 35.6777 34.5313 35.4362 34.9176C35.276 35.2119 35.031 35.4512 34.7331 35.6045C34.4351 35.7578 34.0979 35.818 33.7653 35.7772C32.5387 35.6903 31.3218 35.8351 30.0952 35.8448C29.1873 35.8448 28.2698 35.8448 27.3619 35.7868C27.2557 35.7868 27.1398 35.7868 27.0239 35.7868C25.3656 35.8127 23.7075 35.732 22.0596 35.5454C21.674 35.5116 21.2862 35.5116 20.9006 35.5454C20.184 35.6081 19.4633 35.6081 18.7468 35.5454C17.781 35.4681 16.7089 35.6323 15.6851 35.6323C14.6613 35.6323 13.6279 35.6323 12.5945 35.5068C11.8787 35.4392 11.1591 35.4198 10.4407 35.4488C9.55423 35.5757 8.64998 35.4484 7.83297 35.0818L7.63014 35.0045C6.20072 34.6665 5.79508 33.4785 5.64055 32.3002C5.45063 30.252 5.37647 28.1948 5.41841 26.1383C5.41841 24.1293 5.29285 22.1301 5.18661 20.1212C5.13832 19.1554 5.28319 18.1895 5.24456 17.2237C5.16247 15.7085 5.16247 14.1899 5.24456 12.6747C5.24198 12.0248 5.31326 11.3768 5.45704 10.743C5.62304 9.81983 6.10024 8.98132 6.80919 8.3671C7.48377 7.88541 8.25487 7.55588 9.06922 7.40128C10.3512 7.25225 11.6427 7.20059 12.9325 7.24674H13.2706C14.3706 7.17915 15.4737 7.17915 16.5737 7.24674C19.0848 7.53649 21.6056 7.24674 24.1071 7.41093C25.2081 7.47854 26.3092 7.58478 27.4199 7.59444C29.1777 7.59444 30.9258 7.89385 32.6836 7.91316C34.0684 7.95857 35.4293 8.28727 36.6821 8.87899C36.8077 8.93694 36.9332 8.98522 36.9332 9.17839C36.8946 10.4726 37.0491 11.7958 37.1457 13.119Z" fill="#A7ADED"/>
<path d="M36.489 6.8508C36.5856 7.22747 36.6918 7.60413 36.8077 8.02909C36.4027 7.83998 35.9866 7.6755 35.5618 7.53653C33.9944 7.2219 32.4063 7.02177 30.8099 6.93772C28.772 6.81216 26.7341 6.8025 24.7059 6.67694C22.6777 6.55139 20.5529 6.62865 18.4764 6.67694C16.9214 6.67694 15.3664 6.67694 13.8018 6.67694C12.6621 6.67694 11.5224 6.60934 10.3731 6.59002C9.006 6.60954 7.67909 7.05521 6.5774 7.8649C6.25921 8.1147 5.97366 8.40349 5.72748 8.72448C5.8101 8.18488 5.99709 7.66657 6.278 7.1985C6.5343 6.77593 6.86094 6.40028 7.24382 6.08779C7.74162 5.7016 8.33669 5.46089 8.96299 5.39239C9.67851 5.32004 10.3984 5.30067 11.1168 5.33445C11.8052 5.37307 12.4952 5.37307 13.1836 5.33445C14.0191 5.26201 14.8593 5.26201 15.6948 5.33445C16.2217 5.34652 16.7486 5.31096 17.2691 5.22821C17.6929 5.18474 18.1201 5.18474 18.544 5.22821C19.0848 5.28616 19.6353 5.10266 20.1762 5.16061C21.4511 5.30548 22.7453 5.16059 24.0395 5.3441C24.6248 5.38272 25.212 5.38272 25.7973 5.3441C26.6859 5.40205 27.5744 5.43104 28.463 5.5083C29.1101 5.5083 29.7572 5.5083 30.3946 5.56625C31.4184 5.6242 32.4325 5.78839 33.4563 5.74976C33.9724 5.7289 34.4893 5.7515 35.0016 5.81736C35.4989 5.94726 35.9587 6.19206 36.3441 6.53207C36.4407 6.63832 36.46 6.75422 36.489 6.8508Z" fill="#865A2C"/>
<path d="M35.6873 2.87158C35.6422 2.92203 35.5872 2.96265 35.5257 2.9909C35.4642 3.01915 35.3976 3.03442 35.3299 3.03577C33.6784 3.03577 32.0268 3.30621 30.3752 3.37382C28.7893 3.46069 27.1997 3.46069 25.6137 3.37382C25.5075 3.37382 25.3819 3.37382 25.3916 3.2386C25.4012 3.10339 25.5461 3.14201 25.6427 3.14201H29.6798C30.8388 3.14201 31.9785 2.98748 33.1278 2.92953C34.0067 2.83295 34.8663 2.87158 35.6873 2.87158Z" fill="black"/>
<path d="M34.5476 36.2408C34.6248 36.3566 34.5476 36.5015 34.4896 36.6174C34.2965 36.9941 34.1902 37.0424 33.7749 36.9072C33.5818 36.8492 33.4852 36.9072 33.4755 37.1293C33.4693 37.4014 33.3856 37.6662 33.2341 37.8923C33.0216 38.1724 32.7994 38.1531 32.6159 37.8923C32.4324 37.6315 32.3552 37.5833 32.1523 37.8923C31.9495 38.2014 31.9012 38.2303 31.6694 38.2014C31.4376 38.1724 31.3507 37.9696 31.2638 37.7861C31.1768 37.6026 31.2058 37.6315 31.1672 37.5639C31.0642 37.3514 30.9193 37.3225 30.7326 37.477C30.2207 37.9792 29.9309 37.9116 29.7667 37.2162C29.6026 36.5208 29.5639 36.4726 30.2979 36.3953C30.5938 36.375 30.8907 36.375 31.1865 36.3953C31.8106 36.3726 32.433 36.3145 33.0506 36.2214C33.2617 36.1878 33.4768 36.1878 33.688 36.2214C33.9005 36.2214 34.1033 36.2214 34.3158 36.2214C34.5283 36.2214 34.4896 36.1055 34.5476 36.2408Z" fill="#C7DC3E"/>
<path d="M31.6114 38.6746V39.003H31.4182C30.1723 39.003 28.9264 39.003 27.6805 39.003C27.2169 39.003 26.7147 39.003 26.28 39.003C24.8796 39.003 23.4695 39.0706 22.0594 39.1286C20.968 39.1769 19.8766 39.1286 18.7852 39.1286C17.6939 39.1286 16.3127 39.1286 15.0765 39.1286C13.7898 39.0546 12.4999 39.0546 11.2132 39.1286C10.711 39.1769 10.2474 39.2734 9.68719 39.3121C9.43305 39.3264 9.17831 39.3264 8.92418 39.3121C7.55152 39.3139 6.19449 39.0207 4.94499 38.4525C4.75271 38.3414 4.57159 38.212 4.40413 38.0662C4.27548 37.9548 4.14 37.8516 3.99848 37.7571C3.65079 37.5639 3.30308 37.4287 3.14855 36.9844C2.99402 36.5402 2.58838 36.5208 2.24068 36.376C2.18287 36.3526 2.13062 36.3172 2.08736 36.2723C2.04409 36.2274 2.01077 36.1738 1.98957 36.1152C1.5251 34.7394 1.39272 33.2733 1.60324 31.8366C1.67577 30.6 1.6467 29.3596 1.51632 28.1278C1.47454 27.4846 1.47454 26.8394 1.51632 26.1962C1.51632 25.5104 1.60323 24.8247 1.59358 24.139C1.54397 23.1716 1.58276 22.2018 1.70948 21.2415C1.74798 20.9922 1.76735 20.7404 1.76742 20.4882H2.48214C2.48214 20.7876 2.65599 21.029 3.06163 21.1353C3.16098 21.1562 3.25142 21.2074 3.32057 21.2817C3.38973 21.3561 3.43422 21.45 3.44796 21.5506C3.51421 21.8806 3.45934 22.2235 3.29343 22.5164C3.21774 22.6435 3.17778 22.7886 3.17778 22.9365C3.17778 23.0844 3.21774 23.2296 3.29343 23.3567C3.36512 23.469 3.47451 23.5521 3.60197 23.5911C3.72942 23.63 3.86658 23.6222 3.98882 23.5691C3.93589 23.7605 3.86136 23.9452 3.76668 24.1197C3.70089 24.2056 3.66524 24.3108 3.66524 24.4191C3.66524 24.5273 3.70089 24.6325 3.76668 24.7185C3.85032 24.8035 3.91102 24.9083 3.94311 25.0232C3.97521 25.138 3.97764 25.2592 3.95019 25.3752C3.93099 25.5259 3.93099 25.6785 3.95019 25.8292C3.94763 25.9561 3.98303 26.0809 4.05186 26.1876C4.12069 26.2943 4.21981 26.378 4.33652 26.428C4.57798 26.5149 4.58764 26.6501 4.58764 26.8626C4.58764 28.4659 4.58763 30.0595 4.74216 31.6917C4.82815 32.5582 5.06 33.404 5.4279 34.1932C5.54178 34.5685 5.74977 34.9083 6.03209 35.1805C6.31441 35.4527 6.66166 35.6481 7.04082 35.7482C7.26624 35.7997 7.48384 35.8809 7.68793 35.9896C8.21013 36.218 8.78148 36.311 9.34915 36.2601C9.99625 36.2601 10.6434 36.1925 11.2808 36.2021C12.3722 36.2021 13.4442 36.3277 14.526 36.3566C15.6077 36.3856 16.7184 36.3566 17.8098 36.3566C18.9011 36.3566 19.7414 36.4822 20.6396 36.3566C21.2333 36.2891 21.8327 36.2891 22.4264 36.3566C23.6826 36.5127 24.9467 36.5966 26.2124 36.6078C27.1783 36.6078 28.0475 36.6078 28.9747 36.5498C29.1485 36.5498 29.2258 36.5498 29.3127 36.7623C29.3903 37.0219 29.4165 37.2942 29.39 37.5639C29.3881 37.7037 29.4257 37.8411 29.4984 37.9605C29.5711 38.0799 29.676 38.1764 29.801 38.2389C29.926 38.3014 30.0661 38.3274 30.2053 38.3139C30.3444 38.3005 30.4769 38.2481 30.5876 38.1627L30.7808 38.0275L30.858 38.182C30.923 38.3279 31.0286 38.4519 31.1622 38.5392C31.2958 38.6266 31.4518 38.6736 31.6114 38.6746Z" fill="#E3B574"/>
<path d="M26.3671 2.35966C26.4541 2.35966 26.5313 2.42727 26.512 2.52385C26.4927 2.62043 26.3864 2.60112 26.3188 2.5818C25.353 2.63009 24.3872 2.58181 23.4214 2.63976C22.9674 2.63976 22.5135 2.63976 22.0596 2.63976C21.963 2.63976 21.7795 2.63975 21.7698 2.55283C21.7601 2.4659 21.963 2.41762 22.0596 2.40796C22.7067 2.35001 23.3441 2.30172 23.9912 2.26309C24.6656 2.19551 25.345 2.19551 26.0194 2.26309L26.3671 2.35966Z" fill="black"/>
<path d="M21.0357 0.698452V1.05582H17.3366C15.2215 1.05582 13.1063 0.910944 10.9912 0.814361C8.81414 0.755356 6.66371 1.30383 4.7809 2.39831C3.7722 2.929 2.9424 3.74536 2.39532 4.74526C2.30187 4.91135 2.23353 5.09036 2.19249 5.27646C1.92448 6.29649 1.83302 7.35486 1.92206 8.40574C2.00416 9.7502 2.00416 11.0984 1.92206 12.4429C1.92206 13.0031 1.98967 13.5632 1.92206 14.1137C1.80616 15.5915 1.71924 17.0595 1.69992 18.5469C1.69992 19.1747 1.77719 19.8025 1.76753 20.4785C1.76745 20.7308 1.74808 20.9826 1.70958 21.2319C1.58287 22.1922 1.54407 23.162 1.59368 24.1294C1.59368 24.8151 1.59369 25.5008 1.51642 26.1866C1.47465 26.8298 1.47465 27.475 1.51642 28.1182C1.64681 29.35 1.67588 30.5904 1.60334 31.827C1.39282 33.2637 1.52521 34.7298 1.98967 36.1056C2.01088 36.1642 2.04419 36.2178 2.08746 36.2627C2.13073 36.3076 2.18297 36.3429 2.24079 36.3663C2.58848 36.5112 3.01344 36.6175 3.14866 36.9748C3.28387 37.3322 3.65089 37.5543 3.99859 37.7475C4.14011 37.8419 4.27558 37.9452 4.40423 38.0565C4.57169 38.2024 4.75281 38.3318 4.94509 38.4429C6.1946 39.0111 7.55163 39.3043 8.92429 39.3024C9.17842 39.3168 9.43316 39.3168 9.68729 39.3024V39.6308C8.61157 39.6985 7.53194 39.6694 6.46143 39.5439C5.72673 39.5039 5.02499 39.2259 4.46218 38.7519C4.07646 38.3665 3.60229 38.0814 3.08105 37.9213C2.9972 37.901 2.92202 37.8544 2.86644 37.7884C2.81086 37.7224 2.77777 37.6404 2.77199 37.5543C2.75094 37.4284 2.69699 37.3102 2.61557 37.2118C2.53416 37.1135 2.42819 37.0383 2.30839 36.9941C2.16312 36.919 2.01115 36.8575 1.85446 36.8106C1.72337 36.7712 1.60512 36.6977 1.51178 36.5975C1.41845 36.4974 1.35338 36.3743 1.32325 36.2408C1.18062 35.8034 1.09936 35.3484 1.08179 34.8886C1.08179 34.8403 1.08179 34.7824 1.08179 34.7341C1.08179 34.3961 1.08179 34.0484 1.08179 33.7007C1.03819 33.0363 1.06734 32.3691 1.16872 31.7111C1.25567 31.23 1.27517 30.7391 1.22667 30.2527C1.16872 29.2869 1.13975 28.2148 1.06248 27.2007C1.00453 26.4377 1.13009 25.6843 1.13009 24.9213C1.09439 23.9553 1.1105 22.9881 1.17837 22.0239C1.2557 21.3087 1.27508 20.5884 1.23633 19.8701C1.23633 18.9042 1.23633 17.9384 1.23633 16.9726C1.36511 15.7179 1.38772 14.4547 1.30394 13.1962C1.29428 13.0934 1.29428 12.99 1.30394 12.8872C1.41502 11.1505 1.41502 9.40841 1.30394 7.6717C1.05606 8.90073 0.90429 10.1472 0.849998 11.3998C0.695466 14.2973 0.695469 17.1464 0.656836 20.0246C0.656836 22.642 0.656836 25.2497 0.656836 27.8671C0.656836 29.7987 0.801707 31.7304 0.782391 33.6041C0.767833 33.826 0.767833 34.0486 0.782391 34.2705C0.801584 34.5084 0.801584 34.7474 0.782391 34.9852C0.782391 35.217 0.782391 35.4488 0.782391 35.6903C0.712415 36.2867 0.80589 36.891 1.05282 37.4384L1.53573 38.4042C2.00778 39.4308 2.70812 40.3359 3.58328 41.0506C4.79485 41.9384 6.28862 42.3539 7.78462 42.2192C8.93395 42.2192 10.0929 42.2192 11.2519 42.2772C12.6137 42.2772 13.9755 42.4124 15.347 42.4897C15.6755 42.5085 16.0043 42.4592 16.3128 42.3448C16.9076 42.0892 17.5771 42.0685 18.1865 42.2868C18.9841 42.58 19.8287 42.724 20.6784 42.7118V42.8663C20.0699 42.8663 19.4518 42.8663 18.8433 42.818C18.4724 42.7752 18.1106 42.6741 17.7712 42.5186C17.5658 42.4416 17.347 42.4071 17.1279 42.417C16.9087 42.427 16.6939 42.4813 16.4963 42.5766C15.8325 42.8933 15.092 43.014 14.3619 42.9243C12.5558 42.7698 10.74 42.7987 8.93395 42.7601C7.74821 42.766 6.56459 42.6593 5.39903 42.4414C4.56431 42.2619 3.77753 41.9062 3.0913 41.3982C2.40507 40.8902 1.83521 40.2416 1.41983 39.4956C0.679655 38.1631 0.290781 36.6641 0.289818 35.1397C0.0966536 31.1605 -0.00958383 27.1814 0.0290491 23.2022V22.0142C0.106315 19.6286 0.193235 17.243 0.251185 14.8478C0.251185 13.1383 0.251189 11.4288 0.376746 9.71925C0.410184 8.58409 0.555763 7.45504 0.811364 6.34853C1.06264 5.17021 1.63412 4.08405 2.46292 3.2096C3.62438 2.11521 5.01746 1.29653 6.5387 0.814361C7.36171 0.505886 8.21713 0.292027 9.08848 0.176914C9.52245 0.143259 9.95837 0.143259 10.3923 0.176914C11.8024 0.176914 13.2125 0.176907 14.613 0.350755C16.5446 0.54392 18.5729 0.60188 20.5528 0.679146L21.0357 0.698452Z" fill="black"/>
<path d="M19.7801 4.17541C19.7801 4.2237 19.9056 4.2913 19.8573 4.37823C19.809 4.46515 19.7318 4.37823 19.6352 4.37823H15.9361V3.63455C16.0906 3.63455 15.994 3.38344 16.0037 3.25788C16.0494 2.95992 16.1777 2.68073 16.374 2.45197C16.5703 2.22322 16.8268 2.05405 17.1144 1.96367C17.1708 1.95248 17.2293 1.95956 17.2814 1.98387C17.3335 2.00819 17.3765 2.04847 17.4041 2.09888C17.5419 2.25867 17.6407 2.44828 17.6926 2.65277C17.7446 2.85725 17.7483 3.07101 17.7035 3.27719C17.6829 3.31965 17.6794 3.36843 17.6938 3.41341C17.7082 3.45838 17.7393 3.49607 17.7808 3.51864C17.8055 3.53215 17.8326 3.54063 17.8606 3.54356C17.8886 3.5465 17.9169 3.54386 17.9439 3.53577C17.9708 3.52768 17.9959 3.51432 18.0177 3.49646C18.0394 3.4786 18.0574 3.45659 18.0706 3.43172C18.086 3.38001 18.1132 3.33258 18.15 3.29319C18.1869 3.25381 18.2325 3.22355 18.2831 3.20481C18.3337 3.18607 18.3879 3.17937 18.4416 3.18523C18.4952 3.19108 18.5468 3.20934 18.5921 3.23856C18.6411 3.25903 18.6851 3.28962 18.7214 3.32831C18.7577 3.367 18.7855 3.41292 18.8028 3.46307C18.8201 3.51322 18.8267 3.56648 18.822 3.61933C18.8173 3.67218 18.8015 3.72345 18.7756 3.76977C18.7177 3.89532 18.8336 3.94361 19.0267 3.91464C19.1641 3.88091 19.3082 3.88758 19.4419 3.93384C19.5755 3.9801 19.693 4.06399 19.7801 4.17541Z" fill="#C7DC3E"/>
<path d="M17.3365 1.03652V1.70294C17.2268 1.70395 17.1185 1.72693 17.0178 1.77054C16.8256 1.84858 16.6507 1.96386 16.5032 2.10972C16.3557 2.25558 16.2384 2.42915 16.1582 2.62047C16.0906 2.775 16.023 2.91987 15.9554 3.08406C15.7333 2.82329 15.4918 2.62046 15.1634 2.68807C14.8021 2.8172 14.494 3.06286 14.2877 3.38635C14.0814 3.70984 13.9885 4.09278 14.0237 4.47485C13.4768 4.50382 12.9288 4.50382 12.3819 4.47485C11.742 4.3855 11.0947 4.36283 10.4502 4.40723C9.80891 4.4799 9.16395 4.51537 8.51856 4.51347C8.28339 4.49551 8.04979 4.56423 7.86179 4.70665C7.3982 5.03503 6.94426 5.35697 6.49998 5.67247C6.26932 5.85804 6.07035 6.07985 5.91083 6.32923C5.19872 7.55066 4.8098 8.9335 4.78081 10.3471C4.66491 11.9986 4.55867 13.6598 4.5973 15.321C4.5973 15.4273 4.59731 15.4852 4.48141 15.5335C4.09862 15.6861 3.79206 15.9845 3.62908 16.3629C3.46609 16.7414 3.46001 17.1691 3.61217 17.5521C3.72604 17.8184 3.76377 18.1111 3.72114 18.3976C3.6785 18.6841 3.55719 18.9531 3.37071 19.1747C3.16706 19.4151 2.97682 19.6666 2.80087 19.928C2.71347 20.0593 2.65428 20.2073 2.62702 20.3626H1.91231C1.91231 19.7349 1.83505 19.1071 1.84471 18.431C1.84471 16.9436 1.95095 15.4756 2.06685 13.9979C2.06685 13.4474 2.06685 12.8872 2.06685 12.327C2.14895 10.9825 2.14895 9.63431 2.06685 8.28985C1.9778 7.23897 2.06927 6.18061 2.33728 5.16059C2.37831 4.97449 2.44666 4.79548 2.5401 4.62938C3.06575 3.69236 3.84153 2.91992 4.78081 2.39833C6.65041 1.30404 8.78662 0.749095 10.9524 0.79506C13.0676 0.891642 15.1827 0.997883 17.3365 1.03652Z" fill="#E3B574"/>
<path d="M15.9362 3.68286V4.42655H14.5068C14.2267 4.42655 14.1591 4.33963 14.2074 4.05954C14.2853 3.66911 14.51 3.32342 14.8352 3.09372C15.2505 2.78466 15.5982 2.90054 15.801 3.38346C15.8203 3.47038 15.7817 3.68286 15.9362 3.68286Z" fill="#C7DC3E"/>
<path d="M4.54926 15.9392C4.64002 16.5799 4.64002 17.2301 4.54926 17.8708C4.3996 19.5247 4.38022 21.1879 4.49131 22.8448C4.49131 23.8783 4.49131 24.9213 4.49131 25.9644C4.38991 25.9242 4.3037 25.8531 4.24479 25.7613C4.18588 25.6695 4.15725 25.5615 4.16293 25.4526C4.16293 25.2014 4.10498 24.9503 4.26917 24.7185C4.29848 24.6737 4.30883 24.619 4.29797 24.5665C4.28711 24.514 4.25593 24.468 4.21123 24.4384C3.97943 24.3129 4.05669 24.1583 4.13396 23.9845C4.18991 23.8776 4.2321 23.764 4.25951 23.6465C4.3561 23.3084 4.25952 23.1925 3.93114 23.1539C3.60276 23.1153 3.57378 22.98 3.59309 22.6903C3.61241 22.4005 3.67036 21.8693 3.67036 21.4637C3.68261 21.3824 3.67853 21.2995 3.65835 21.2198C3.63817 21.1401 3.6023 21.0653 3.55283 20.9996C3.50337 20.934 3.4413 20.8788 3.37027 20.8375C3.29924 20.7961 3.22067 20.7693 3.13916 20.7586C2.80112 20.6524 2.72386 20.4786 2.88805 20.1405C3.03385 19.8741 3.20877 19.6247 3.40959 19.3968C3.62021 19.1274 3.76268 18.8111 3.8249 18.4748C3.88711 18.1385 3.86723 17.7921 3.76694 17.4652C3.7371 17.1626 3.79501 16.8578 3.93373 16.5872C4.07246 16.3166 4.28614 16.0916 4.54926 15.9392Z" fill="#C7DC3E"/>
<path d="M1.36189 7.5365C1.47297 9.27321 1.47297 11.0152 1.36189 12.752C1.35223 12.8548 1.35223 12.9582 1.36189 13.061C1.44567 14.3195 1.42306 15.5827 1.29428 16.8374C1.29428 17.8032 1.23633 18.769 1.29428 19.7349C1.33303 20.4532 1.31365 21.1734 1.23633 21.8886C1.16846 22.8529 1.15234 23.8201 1.18804 24.7861C1.18804 25.5491 1.06248 26.3025 1.12043 27.0655C1.1977 28.0796 1.22667 29.1034 1.28462 30.1175C1.33312 30.6039 1.31362 31.0948 1.22667 31.5759C1.12529 32.2339 1.09615 32.9011 1.13975 33.5655C1.13975 33.9131 1.1977 34.2609 1.13975 34.5989C1.13975 34.6472 1.13975 34.7051 1.13975 34.7534H0.917608C0.936801 34.5156 0.936801 34.2766 0.917608 34.0387C0.90305 33.8168 0.90305 33.5942 0.917608 33.3723C0.917608 31.4406 0.81137 29.509 0.792053 27.6353C0.792053 25.0179 0.792053 22.4102 0.792053 19.7928C0.792053 16.8953 0.79205 13.9979 0.985215 11.168C1.01894 9.94972 1.14486 8.73576 1.36189 7.5365Z" fill="#865A2C"/>
</svg>