<svg width="38" height="38" viewBox="0 0 38 38" fill="none" xmlns="http://www.w3.org/2000/svg">
<path d="M36.8986 27.9312C38.2829 30.9516 31.9906 32.5876 25.6982 32.5876C19.5317 32.5876 14.6237 31.5808 15.6305 28.4346C16.6373 25.2885 22.4262 23.6525 22.4262 23.6525C22.4262 23.6525 16.889 21.0097 16.889 16.1016C16.889 11.1936 20.161 7.1665 26.2016 7.1665C32.2423 7.1665 34.3817 11.697 34.6334 13.2071C34.8851 14.5915 35.0109 15.2207 35.0109 15.7241C35.0109 16.3533 34.8851 21.6389 30.2287 23.9042C30.2287 23.9042 35.5143 24.9109 36.8986 27.9312Z" fill="black"/>
<path d="M34.8851 15.0949C35.1368 17.9893 34.0042 22.0165 30.1029 23.9042C30.1029 23.9042 35.3885 25.0368 36.8986 28.0571C38.2829 31.0775 31.9906 32.7135 25.6982 32.7135C19.5317 32.7135 14.6237 31.7066 15.6305 28.5605C16.6373 25.4143 22.4262 23.7783 22.4262 23.7783C22.4262 23.7783 16.889 21.1355 16.889 16.2275C16.889 11.3194 20.161 7.29236 26.2016 7.29236C32.2423 7.29236 34.3817 11.8228 34.6334 13.333" stroke="black" stroke-width="1.3351" stroke-miterlimit="10" stroke-linecap="round" stroke-linejoin="round"/>
<path d="M29.5995 30.6999C31.4872 34.727 22.9296 36.8664 14.6237 36.9922C6.3178 37.1181 -0.100395 35.7338 1.15808 31.455C2.41655 27.1762 10.2191 25.0368 10.2191 25.0368C10.2191 25.0368 2.79407 21.5131 2.79407 14.8432C2.79407 8.17329 7.19873 2.88771 15.2529 2.88771C23.3072 2.88771 26.0758 8.92836 26.4533 10.9419C26.8309 12.8296 26.9567 13.5847 26.9567 14.3398C26.9567 15.0948 26.8309 22.1423 20.5385 25.1627C20.5385 25.1627 27.7118 26.5469 29.5995 30.6999Z" fill="black"/>
<path d="M26.9567 14.3398C26.9567 15.0948 26.8309 22.1423 20.5385 25.1627C20.5385 25.1627 27.5859 26.5469 29.5995 30.6999C31.4872 34.727 22.9296 36.8664 14.6237 36.9922C6.3178 37.1181 -0.100395 35.7338 1.15808 31.455C2.41655 27.1762 10.2191 25.0368 10.2191 25.0368C10.2191 25.0368 2.79407 21.5131 2.79407 14.8432C2.79407 8.17329 7.19873 2.88771 15.2529 2.88771C23.3072 2.88771 26.0758 8.92836 26.4533 10.9419" stroke="black" stroke-width="1.3351" stroke-miterlimit="10" stroke-linecap="round" stroke-linejoin="round"/>
<path d="M12.2326 17.8635C12.2326 17.8635 13.1135 19.8771 15.2529 19.8771C17.3923 19.8771 18.1474 18.1152 18.3991 17.3601" stroke="black" stroke-width="1.3351" stroke-miterlimit="10" stroke-linecap="round" stroke-linejoin="round"/>
<path d="M36.8986 26.1694C38.2829 29.1897 31.9906 30.8258 25.6982 30.8258C19.4059 30.8258 14.6237 29.8189 15.6305 26.6728C16.6373 23.5266 22.4262 21.8906 22.4262 21.8906C22.4262 21.8906 16.8889 19.2478 16.8889 14.2139C16.8889 9.30591 20.161 5.27879 26.2016 5.27879C32.2423 5.27879 34.3817 9.80927 34.6334 11.3194C34.8851 12.7038 35.0109 13.333 35.0109 13.8364C35.0109 14.4656 34.8851 19.7512 30.2287 22.0165C30.2287 22.1423 35.5143 23.1491 36.8986 26.1694Z" fill="#DFB049"/>
<path d="M34.8851 13.333C35.1368 16.2275 34.0042 20.2546 30.1029 22.1423C30.1029 22.1423 35.3885 23.1491 36.8986 26.2952C38.2829 29.3156 31.9906 30.9516 25.6982 30.9516C19.4059 30.9516 14.6237 29.9448 15.6305 26.7987C16.6373 23.6525 22.4262 22.0165 22.4262 22.0165C22.4262 22.0165 16.8889 19.3736 16.8889 14.3398C16.8889 9.43172 20.161 5.40465 26.2016 5.40465C32.2423 5.40465 34.3817 9.93513 34.6334 11.4453" stroke="black" stroke-width="1.3351" stroke-miterlimit="10" stroke-linecap="round" stroke-linejoin="round"/>
<path d="M29.5995 28.9381C31.4872 32.9652 22.9296 35.1046 14.6237 35.2304C6.3178 35.2304 -0.100395 33.9719 1.15808 29.6931C2.41655 25.4143 10.2191 23.2749 10.2191 23.2749C10.2191 23.2749 2.79407 19.6253 2.79407 13.0813C2.79407 6.53724 7.19873 1.12582 15.2529 1.12582C23.3072 1.12582 26.0758 7.16651 26.4533 9.18006C26.8309 11.0678 26.9567 11.8228 26.9567 12.5779C26.9567 13.333 26.8309 20.3804 20.5385 23.4008C20.5385 23.4008 27.7118 24.7851 29.5995 28.9381Z" fill="#FFE448"/>
<path d="M26.9567 12.4521C26.9567 13.2071 26.8309 20.2546 20.5385 23.2749C20.5385 23.2749 27.5859 24.6592 29.5995 28.8122C31.4872 32.8393 22.9296 34.9787 14.6237 35.1045C6.3178 35.1045 -0.100395 33.8461 1.15808 29.5673C2.41655 25.2885 10.2191 23.1491 10.2191 23.1491C10.2191 23.1491 2.79407 19.4995 2.79407 12.9555C2.79407 6.41142 7.19873 1 15.2529 1C23.3072 1 26.0758 7.04065 26.4533 9.05421" stroke="black" stroke-width="1.3351" stroke-miterlimit="10" stroke-linecap="round" stroke-linejoin="round"/>
<path d="M12.2326 16.1016C12.2326 16.1016 13.1135 18.1152 15.2529 18.1152C17.3923 18.1152 18.1474 16.3533 18.3991 15.5982" stroke="black" stroke-width="1.3351" stroke-miterlimit="10" stroke-linecap="round" stroke-linejoin="round"/>
</svg>
