<svg width="40" height="35" viewBox="0 0 40 35" fill="none" xmlns="http://www.w3.org/2000/svg">
<path d="M4.86374 34.0461C4.61217 34.0461 4.44445 34.0461 4.19288 34.0461C4.02517 34.0461 3.77359 34.0461 3.60588 34.0461C2.85116 34.0461 2.43187 33.6268 2.43187 32.8721C2.43187 32.5367 2.43187 32.1174 2.43187 31.7819C2.43187 31.5304 2.43187 31.3627 2.43187 31.1111C2.43187 30.2725 3.01888 29.7694 3.43816 29.434C4.44445 28.5954 5.45074 27.8406 6.54089 27.0021L7.12789 26.9182H6.54089C6.54089 22.8931 6.54089 18.8679 6.54089 14.9266V13.4172C5.95389 13.7526 5.28303 13.9203 4.52831 13.9203C4.02517 13.9203 3.43816 13.8365 2.85116 13.6688C1.84487 13.3333 1.17401 12.6625 0.838583 11.5723C0.670869 10.8176 0.670868 10.0629 0.670868 9.39203V9.14044C0.670868 8.80501 0.838582 8.55345 1.0063 8.38573L1.09016 8.30187L3.10273 5.03143C2.34802 4.19286 2.43187 3.10272 2.43187 2.26415C2.43187 2.09643 2.43187 1.92871 2.43187 1.761C2.43187 1.34171 2.7673 0.838562 3.43816 0.838562C7.12789 0.754705 11.0692 0.7547 16.1006 0.7547C18.7002 0.7547 21.2159 0.7547 23.8155 0.7547C26.3312 0.7547 28.9308 0.7547 31.4465 0.7547H34.13C34.8847 0.7547 35.6394 0.7547 36.3941 0.7547C37.3166 0.7547 37.652 1.17399 37.7359 2.09642C37.7359 2.26414 37.7359 2.348 37.7359 2.51571C37.7359 2.68343 37.7359 2.85115 37.7359 3.01886C37.8197 3.85743 37.5681 4.52829 37.065 5.03143L37.4843 5.61845C38.0713 6.54088 38.5744 7.37944 39.1614 8.30187C39.413 8.72116 39.4969 9.14045 39.4969 9.64359C39.4969 10.3983 39.4969 11.153 39.2453 11.9078C38.9099 12.914 38.239 13.5849 37.2327 13.8365C36.7296 14.0042 36.2264 14.0881 35.8071 14.0881C35.304 14.0881 34.8008 14.0042 34.2977 13.8365C34.0461 13.7526 33.8784 13.6688 33.7107 13.5849V16.8553C33.7107 20.2096 33.7107 23.6478 33.7107 27.0021C33.7107 27.1698 33.7107 27.2537 33.8784 27.3375C34.5493 27.8407 35.2201 28.3438 35.8071 28.8469C36.2264 29.1824 36.5618 29.434 36.9811 29.7694C37.4843 30.1887 37.7359 30.6079 37.7359 31.1949C37.7359 31.8658 37.7359 32.4528 37.7359 33.0398C37.7359 33.7107 37.2327 34.1299 36.5618 34.1299C36.3103 34.1299 36.0587 34.1299 35.8071 34.1299C35.304 34.1299 34.8847 34.1299 34.3816 34.1299H29.1824C21.0482 34.0461 12.9141 34.0461 4.86374 34.0461Z" fill="#FDFDFE"/>
<path d="M16.1006 1.174C21.2159 1.174 26.3312 1.174 31.5304 1.174C32.2851 1.174 33.0398 1.174 33.7107 1.174C33.8784 1.174 34.0461 1.174 34.2138 1.174C34.9686 1.174 35.6394 1.174 36.3941 1.174C36.9811 1.174 37.1488 1.34173 37.1488 1.92874C37.1488 2.26417 37.1488 2.59958 37.1488 2.85115C37.2327 3.60586 36.9811 4.27673 36.3103 4.69602C37.065 5.95388 37.8197 7.12788 38.6583 8.38574C38.826 8.72117 38.9099 9.05661 38.9099 9.39204C38.9099 10.0629 38.9098 10.8176 38.6583 11.4885C38.4067 12.3271 37.8197 12.8302 37.065 13.0818C36.6457 13.2495 36.2264 13.2495 35.8071 13.2495C35.304 13.2495 34.8847 13.1656 34.3815 13.0818C33.7945 12.9141 33.3753 12.5786 33.0398 12.1593C33.0398 12.4948 33.0398 12.7463 33.0398 13.0818C33.0398 17.6101 33.0398 22.2222 33.0398 26.7505C33.0398 27.0859 33.1237 27.3375 33.4591 27.5891C34.5493 28.3438 35.5556 29.1824 36.6457 30.021C36.9811 30.2725 37.1488 30.608 37.2327 31.0273C37.2327 31.6143 37.2327 32.2012 37.2327 32.8721C37.2327 33.2075 36.9811 33.3753 36.6457 33.4591C35.891 33.4591 35.2201 33.543 34.4654 33.543C32.7044 33.543 31.0273 33.543 29.2662 33.543C21.1321 33.543 13.0818 33.543 4.94759 33.543C4.5283 33.543 4.10901 33.4591 3.68973 33.4591C3.27044 33.4591 3.10272 33.2075 3.10272 32.8721C3.10272 32.2851 3.10272 31.6981 3.10272 31.195C3.10272 30.6079 3.52201 30.2725 3.85744 29.9371C4.86373 29.0985 5.87002 28.3438 6.87631 27.5053C7.04402 27.3375 7.12788 27.1698 7.12788 26.9182C7.12788 22.0545 7.12788 17.1069 7.12788 12.2432C6.37317 12.9979 5.53459 13.3333 4.61216 13.3333C4.10901 13.3333 3.60587 13.2495 3.10272 13.0818C2.26415 12.8302 1.76101 12.2432 1.50943 11.3208C1.34172 10.566 1.34172 9.81134 1.34172 9.05662C1.34172 8.80505 1.50943 8.63732 1.59329 8.46961C2.34801 7.21174 3.10273 6.03775 3.85744 4.77988C2.7673 3.94131 3.01887 2.76729 3.10272 1.59329C3.10272 1.34171 3.27044 1.25786 3.60587 1.174C7.71488 1.174 11.9078 1.174 16.1006 1.174ZM20.9644 29.7694C21.0482 29.7694 21.2159 29.6855 21.2998 29.6017C21.2159 29.6855 21.0482 29.6856 20.9644 29.7694ZM16.1006 0C11.153 0 7.12788 5.117e-06 3.43816 0.0838626C2.34801 0.0838626 1.84486 0.838569 1.84486 1.59329C1.84486 1.761 1.84486 1.92872 1.84486 2.09644C1.76101 2.85115 1.67715 3.94129 2.34801 4.94758L2.18029 5.19917L0.503145 7.96646L0.419287 8.05032C0.251572 8.21803 0 8.63731 0 9.14046V9.39204C0 10.1468 -9.62171e-07 10.9015 0.167714 11.74C0.503144 12.9979 1.34172 13.9203 2.59958 14.2558C3.27044 14.4235 3.85744 14.5074 4.44444 14.5074C4.94759 14.5074 5.36688 14.4235 5.87002 14.3396V14.6751C5.87002 18.7002 5.87002 22.8092 5.87002 26.8344C5.03145 27.5053 4.02516 28.2599 3.01887 29.0985C2.59958 29.4339 1.76101 30.1048 1.76101 31.195C1.76101 31.4465 1.76101 31.6143 1.76101 31.8659C1.76101 32.2013 1.76101 32.6206 1.76101 32.956C1.76101 33.9623 2.51572 34.6331 3.52201 34.6331C3.77358 34.6331 3.9413 34.6331 4.10901 34.6331C4.36059 34.6331 4.5283 34.6331 4.77987 34.6331C12.914 34.6331 20.9644 34.6331 29.0985 34.6331H34.2977C34.8008 34.6331 35.2201 34.6331 35.7233 34.6331C35.9748 34.6331 36.2264 34.6331 36.478 34.6331C37.4843 34.6331 38.1551 33.9623 38.1551 32.956C38.1551 32.369 38.1551 31.6981 38.1551 31.0273C38.1551 30.5241 37.9036 29.7694 37.1488 29.1824C36.7296 28.847 36.3941 28.5954 35.9748 28.2599C35.3878 27.7568 34.717 27.2537 34.0461 26.7505C34.0461 23.3962 34.0461 19.9581 34.0461 16.6038V14.2558C34.5493 14.4235 35.1363 14.5074 35.6394 14.5074C36.2264 14.5074 36.7296 14.4235 37.2327 14.2558C38.4067 13.9203 39.2453 13.0818 39.6646 11.9078C39.9161 11.0692 40 10.2306 40 9.47591C40 8.8889 39.8323 8.30188 39.5807 7.88259C38.9937 6.96016 38.4906 6.1216 37.9036 5.19917L37.7358 4.94758C38.1551 4.36058 38.3228 3.60589 38.239 2.76731C38.239 2.68345 38.239 2.51574 38.239 2.34802C38.239 2.18031 38.239 2.09645 38.239 1.92874C38.239 0.670875 37.5681 0.0838626 36.3941 0.0838626C35.6394 0.0838626 34.9686 0.0838626 34.2138 0.0838626H33.7107C32.956 0.0838626 32.2013 0.0838626 31.5304 0.0838626C28.9308 0.0838626 26.4151 0.0838626 23.8155 0.0838626C21.2159 5.117e-06 18.7002 0 16.1006 0Z" fill="black"/>
<path d="M33.0398 12.3271C33.0398 12.6625 33.0398 12.9141 33.0398 13.2495C33.0398 17.7778 33.0398 22.39 33.0398 26.9183C33.0398 27.2537 33.1237 27.5053 33.4591 27.7568C34.5493 28.5115 35.5556 29.3501 36.6457 30.1887C36.9811 30.4403 37.1488 30.7757 37.2327 31.195C37.2327 31.782 37.2327 32.369 37.2327 33.0398C37.2327 33.3753 36.9811 33.543 36.6457 33.6268C35.891 33.6268 35.2201 33.7107 34.4654 33.7107C24.6541 33.7107 14.7589 33.7107 4.94759 33.7107C4.5283 33.7107 4.10901 33.6268 3.68972 33.6268C3.27044 33.6268 3.10272 33.3753 3.10272 33.0398C3.10272 32.4528 3.10272 31.8658 3.10272 31.3627C3.10272 30.7757 3.52201 30.4403 3.85744 30.1048C4.86373 29.2663 5.87002 28.5116 6.87631 27.673C7.04402 27.5053 7.12788 27.3375 7.12788 27.086C7.12788 22.2222 7.12788 17.2747 7.12788 12.4109C7.21174 12.3271 7.29559 12.1593 7.37945 12.0755C7.46331 11.9916 7.46331 11.8239 7.63103 11.8239C7.79874 11.8239 7.79874 11.9916 7.8826 12.0755C8.30188 12.9141 8.97274 13.3333 9.97903 13.5011C11.2369 13.6688 12.4109 13.5011 13.4172 12.5786C13.6688 12.3271 13.5849 11.9078 14.0042 11.7401C14.5073 12.4109 14.8428 13.0818 15.7652 13.2495C16.4361 13.4172 17.1069 13.5011 17.7778 13.4172C18.4486 13.3333 19.2034 13.2495 19.7065 12.6625C19.8742 12.4948 19.8742 12.1593 20.1258 12.0755C20.5451 11.9078 20.4612 12.4109 20.6289 12.5786C21.4675 13.4172 22.4738 13.6688 23.6478 13.5849C24.6541 13.5011 25.6604 13.2495 26.2474 12.2432C26.4151 11.9078 26.5828 11.9916 26.8344 12.2432C27.2537 12.7463 27.673 13.2495 28.3438 13.4172C29.1824 13.5849 30.021 13.5849 30.7757 13.4172C31.5304 13.2495 32.1174 12.8302 32.4528 12.1593C32.5367 12.0755 32.5367 11.8239 32.6205 11.8239C32.7883 11.8239 32.8721 11.9916 32.956 12.0755C32.956 12.0755 32.956 12.2432 33.0398 12.3271Z" fill="#CE9559"/>
<path d="M19.9581 12.0754C21.9707 12.0754 23.9832 12.0754 25.912 12.0754C27.5891 12.0754 28.1761 12.6625 28.1761 14.2557C28.1761 17.8616 28.0922 21.4675 28.1761 25.0733C28.1761 26.3312 27.5052 26.8344 26.4151 26.8344C22.2222 26.9182 18.0294 26.9182 13.9203 26.8344C12.1593 26.8344 11.6562 26.0796 11.6562 24.4025C11.6562 20.9643 11.6562 17.5262 11.6562 14.088C11.6562 12.6625 12.327 12.0755 13.8365 11.9916C15.9329 12.0755 17.9455 12.0754 19.9581 12.0754Z" fill="#FDF7C6" stroke="black" stroke-width="0.838574" stroke-miterlimit="10"/>
<path opacity="0.6" d="M6.45703 14.675C6.45703 14.675 7.46332 14.5073 7.63104 14.088C7.63104 14.088 10.2306 17.0231 13.7526 14.088C13.7526 14.088 16.5199 17.3585 20.1258 14.088C20.1258 14.088 22.8092 16.8553 26.4151 14.088C26.4151 14.088 28.4277 16.6038 32.6206 14.088L33.3753 14.8428L34.0461 11.9916L6.54089 11.6562L6.45703 14.675Z" fill="#875A00"/>
<path d="M32.956 12.327C32.8721 12.2432 32.8721 12.0755 32.7883 11.9916C32.7044 11.9078 32.956 11.74 32.7883 11.8239C32.6205 11.8239 32.6205 12.0755 32.6205 12.1593C32.2851 12.914 31.3627 13.2495 30.608 13.4172C29.7694 13.5849 28.9308 13.5849 28.1761 13.4172C27.5052 13.2495 27.0021 12.7463 26.6667 12.2432C26.4151 11.9078 26.2474 11.9078 26.0797 12.2432C25.4927 13.3333 24.4864 13.5011 23.4801 13.6688C22.3899 13.8365 21.2998 13.501 20.4612 12.6625C20.2935 12.4948 20.2935 11.9916 19.9581 12.1593C19.7065 12.2432 19.7065 12.5786 19.5388 12.7463C19.0356 13.4172 18.2809 13.4172 17.6101 13.5849C16.9392 13.6688 16.2683 13.5849 15.5975 13.4172C14.7589 13.2495 14.3396 12.4948 13.8365 11.8239C13.501 11.9916 13.5011 12.4109 13.2495 12.6625C12.2432 13.5849 11.0692 13.7526 9.81132 13.5849C8.88889 13.501 8.13417 12.9979 7.71489 12.1593C7.63103 12.0755 7.63103 11.9078 7.46331 11.9078C7.2956 11.9078 7.2956 12.0755 7.21174 12.1593C7.12789 12.2432 7.04403 12.4109 6.96017 12.4947C5.78617 13.7526 4.36059 13.8365 2.85116 13.3333C2.01258 13.0817 1.50944 12.4109 1.25786 11.5723C1.09015 10.8176 1.09015 9.97903 1.09015 9.22431C1.09015 8.97274 1.25786 8.80504 1.34172 8.63732C2.09644 7.37946 2.85116 6.1216 3.60587 4.77988C3.77359 4.77988 3.9413 4.77988 4.19287 4.77988C9.97904 4.77988 15.7652 4.77988 21.6352 4.77988C26.499 4.77988 31.3627 4.77988 36.1426 4.77988C36.8973 6.03774 37.652 7.37946 38.4906 8.63732C38.6583 8.97275 38.7421 9.30817 38.7421 9.6436C38.7421 10.3983 38.7421 11.0692 38.4906 11.8239C38.239 12.6625 37.652 13.2495 36.8973 13.4172C35.9748 13.6688 35.1363 13.6688 34.2138 13.4172C33.7107 13.1656 33.3753 12.8302 32.956 12.327Z" fill="#FF886C"/>
<path d="M36.3103 4.7799C31.4465 4.7799 26.5828 4.7799 21.8029 4.7799C16.0168 4.7799 10.2306 4.7799 4.36058 4.7799C4.19286 4.7799 4.02515 4.7799 3.77357 4.7799C2.68343 3.94132 2.935 2.76731 3.01886 1.5933C3.01886 1.34173 3.18657 1.25787 3.522 1.17401C13.5849 0.922442 23.6478 1.09018 33.7107 1.09018C34.6331 1.09018 35.4717 1.09018 36.3941 1.09018C36.9811 1.09018 37.1488 1.25789 37.1488 1.84489C37.1488 2.18032 37.1488 2.51575 37.1488 2.76733C37.2327 3.68976 36.9811 4.36061 36.3103 4.7799Z" fill="#FFDE8D" stroke="black" stroke-width="0.628931" stroke-linecap="round" stroke-linejoin="round"/>
<path opacity="0.6" d="M37.3165 3.35431H2.935V4.86376H37.3165V3.35431Z" fill="#E5AC57"/>
<path opacity="0.6" d="M2.43185 31.0273H37.5681V33.6268H2.59957L2.43185 31.0273Z" fill="#875A00"/>
<path d="M8.88889 4.52829L7.29559 11.9916C7.29559 11.9916 8.13417 13.8365 10.7337 13.7526C13.3333 13.6688 13.8365 11.9916 13.8365 11.9916L14.4235 4.52829H8.88889Z" fill="#FAFFFF"/>
<path d="M19.8742 4.52829V11.9916C19.8742 11.9916 20.7128 13.8365 23.3124 13.7526C25.9119 13.6688 26.4151 11.9916 26.4151 11.9916L25.6604 4.52829H19.8742Z" fill="#FAFFFF"/>
<path d="M30.608 4.61215L32.6206 11.9916C32.6206 11.9916 33.4591 13.7526 36.0587 13.7526C38.9099 13.7526 39.413 9.6436 39.413 9.6436L36.3103 4.61215H30.608Z" fill="#FAFFFF"/>
<path opacity="0.3" d="M0.670868 9.30817C0.670868 9.30817 0.670868 16.5199 7.46332 12.327C7.46332 12.327 9.97904 15.7652 13.8365 12.4109C13.8365 12.4109 16.4361 15.262 20.1258 12.6625C20.1258 12.6625 22.4738 15.1782 26.2474 12.5786C26.2474 12.5786 29.2663 15.2621 32.6206 12.4109C32.6206 12.4109 33.8784 14.8428 37.7359 13.5849C37.7359 13.5849 39.9161 12.5786 39.2453 9.14044L0.670868 9.30817Z" fill="#A472D3"/>
<path opacity="0.6" d="M11.9916 26.499H6.62473V13.9203L7.37944 12.6625L11.9916 13.9203V26.499Z" fill="#875A00"/>
<path opacity="0.6" d="M27.9245 26.499H33.3753V13.9203L32.6205 12.6625L27.9245 13.9203V26.499Z" fill="#875A00"/>
<path opacity="0.6" d="M28.0922 13.8365L12.7463 26.6667C12.7463 26.6667 11.5723 26.4151 11.9916 23.0608L24.0671 13.5849L26.4151 12.6625L28.0922 13.8365Z" fill="#FAE08B"/>
<path d="M36.3103 5.19917C37.065 6.37317 37.8197 7.54716 38.6583 8.72117C38.826 9.0566 38.9098 9.30817 38.9098 9.6436C38.9098 10.3145 38.9098 10.9853 38.6583 11.6562C38.4067 12.4109 37.8197 12.9141 37.065 13.1656C36.6457 13.2495 36.2264 13.3333 35.8071 13.3333C35.304 13.3333 34.8847 13.2495 34.3815 13.1656C33.7945 12.9979 33.3753 12.6625 33.0398 12.2432C32.956 12.1593 32.956 12.0755 32.8721 11.9078C32.7882 11.8239 32.7883 11.6562 32.6205 11.6562C32.6205 11.6562 32.6205 11.6562 32.5367 11.6562C32.369 11.6562 32.369 11.8239 32.369 11.9916C32.0335 12.6625 31.4465 13.0818 30.6918 13.2495C30.2725 13.3333 29.8532 13.4172 29.434 13.4172C29.0147 13.4172 28.5954 13.3333 28.26 13.2495C27.5891 13.0818 27.0859 12.6625 26.7505 12.1593C26.6667 11.9916 26.4989 11.9078 26.4151 11.9078C26.3312 11.9078 26.2474 11.9916 26.1635 12.1593C25.5765 13.1656 24.5702 13.3333 23.5639 13.4172C23.3962 13.4172 23.2285 13.4172 23.0608 13.4172C22.1384 13.4172 21.2998 13.1656 20.5451 12.4948C20.3773 12.327 20.3773 11.9916 20.1258 11.9916C20.1258 11.9916 20.0419 11.9916 19.9581 11.9916C19.7065 12.0755 19.7065 12.4109 19.5388 12.5786C19.0356 13.1656 18.2809 13.2495 17.6101 13.3333C17.4423 13.3333 17.2746 13.3333 17.1069 13.3333C16.6038 13.3333 16.1006 13.2495 15.5975 13.1656C14.7589 12.9979 14.0042 11.9078 13.9203 11.9078C13.8365 11.9078 13.5849 12.2432 13.3333 12.4948C12.5786 13.1656 11.74 13.4172 10.7337 13.4172C10.4822 13.4172 10.1467 13.4172 9.89517 13.3333C8.97274 13.2495 8.21802 12.8302 7.79874 11.9916C7.71488 11.9078 7.71488 11.74 7.54716 11.74C7.37945 11.74 7.37945 11.9078 7.29559 11.9916C7.21173 12.0755 7.12788 12.1593 7.04402 12.3271C6.2893 13.0818 5.45073 13.3333 4.5283 13.3333C4.02515 13.3333 3.52201 13.2495 3.01886 13.0818C2.18029 12.8302 1.67714 12.2432 1.42557 11.4046C1.25785 10.6499 1.25786 9.97903 1.25786 9.22432C1.25786 8.97274 1.42557 8.80505 1.50943 8.63733C2.26414 7.46333 3.01886 6.28931 3.77358 5.11531C3.94129 5.11531 4.10901 5.11531 4.36058 5.11531C10.1467 5.11531 15.9329 5.11531 21.8029 5.11531C26.5828 5.19916 31.4465 5.19917 36.3103 5.19917ZM3.35429 4.3606L3.10272 4.77988L2.51572 5.78616L0.838568 8.38574L0.75471 8.4696C0.586996 8.63732 0.419281 8.97275 0.419281 9.39204V9.6436C0.419281 10.3145 0.41928 11.0692 0.586995 11.8239C0.922425 12.914 1.67714 13.7526 2.76729 14.0881C3.35429 14.2558 3.94129 14.3396 4.5283 14.3396C5.7023 14.3396 6.70859 13.9203 7.54716 13.2495C8.05031 13.8365 8.80502 14.2558 9.81131 14.3396C10.1467 14.4235 10.4822 14.4235 10.8176 14.4235C12.0755 14.4235 13.0818 14.088 13.9203 13.3333C14.3396 13.7526 14.8428 14.1719 15.4298 14.2558C15.9329 14.3396 16.5199 14.4235 17.1069 14.4235C17.2746 14.4235 17.5262 14.4235 17.6939 14.4235H17.8616C18.5325 14.3396 19.4549 14.2558 20.1258 13.5011C20.9644 14.1719 21.8868 14.5074 22.9769 14.5074C23.1446 14.5074 23.3962 14.5074 23.5639 14.5074C24.3187 14.4235 25.4927 14.2558 26.3312 13.4172C26.8344 13.9203 27.3375 14.1719 27.9245 14.3396C28.3438 14.4235 28.847 14.5074 29.3501 14.5074C29.8532 14.5074 30.2725 14.4235 30.7757 14.3396C31.5304 14.1719 32.1174 13.8365 32.6205 13.3333C32.956 13.6688 33.4591 14.088 34.13 14.2558C34.6331 14.4235 35.2201 14.5074 35.7233 14.5074C36.2264 14.5074 36.7296 14.4235 37.2327 14.2558C38.3228 13.9203 39.0776 13.2495 39.413 12.2432C39.6646 11.4885 39.6646 10.7337 39.6646 9.97903C39.6646 9.47588 39.4968 8.97275 39.2453 8.55347C38.6583 7.71489 38.0713 6.87631 37.5681 5.95388L36.8973 5.03144L36.6457 4.61216H36.2264H31.8658H21.7191H13.0818H4.36058C4.27672 4.61216 4.10901 4.61216 4.02515 4.61216H3.85744L3.35429 4.3606Z" fill="black"/>
</svg>
