<svg width="81" height="44" viewBox="0 0 81 44" fill="none" xmlns="http://www.w3.org/2000/svg">
<path d="M17.0497 10.398C17.799 9.7892 18.7307 9.44915 19.696 9.43216C20.2732 9.39071 20.8453 9.29696 21.4055 9.15206C21.7629 9.0748 21.6277 8.7561 21.6277 8.54362C21.6009 8.18549 21.6658 7.82645 21.8162 7.50033C21.9666 7.17422 22.1975 6.89174 22.4872 6.67955C22.5853 6.58033 22.7055 6.50589 22.838 6.46233C22.9705 6.41877 23.1115 6.40734 23.2493 6.42905C23.3871 6.45076 23.5177 6.50497 23.6304 6.58715C23.7431 6.66934 23.8346 6.77715 23.8974 6.9017C23.8974 6.95965 23.965 7.12386 24.0615 7.06591C24.6604 6.69889 25.3751 7.4136 25.9932 6.85343C26.0511 7.40394 26.1381 7.96412 26.7948 8.08968C27.0838 8.15545 27.387 8.108 27.6421 7.9571C27.8972 7.80621 28.0848 7.56333 28.1663 7.27839C28.2408 7.1408 28.3248 7.00849 28.4174 6.8824C28.4416 6.8246 28.478 6.77269 28.5242 6.73028C28.5703 6.68787 28.6251 6.65596 28.6847 6.6367C28.7443 6.61743 28.8074 6.61129 28.8697 6.61869C28.9319 6.62609 28.9918 6.64684 29.0452 6.67955C29.5149 6.88774 30.0332 6.96131 30.5422 6.89204C31.3825 6.89204 31.6916 6.6506 31.7688 5.81999C31.8171 5.28878 32.1745 5.23083 32.5511 5.21151C32.796 5.23849 33.0345 5.30707 33.2562 5.41433C33.3583 5.47168 33.4718 5.50596 33.5886 5.51475C33.7054 5.52353 33.8227 5.50663 33.9323 5.4652C34.0418 5.42377 34.141 5.35882 34.2227 5.27494C34.3045 5.19107 34.3669 5.09031 34.4055 4.97972C34.4518 4.87042 34.4752 4.75278 34.4743 4.63408C34.4734 4.51537 34.4482 4.39811 34.4003 4.28952C34.3523 4.18093 34.2826 4.08329 34.1955 4.00267C34.1083 3.92205 34.0056 3.86013 33.8936 3.82072C33.3883 3.62842 32.8377 3.58814 32.3097 3.70483C32.0682 3.70483 31.8751 3.79175 31.7592 3.52132L32.2228 3.0191C32.8892 3.29919 33.2562 2.7197 33.7005 2.44927C34.6157 1.81301 35.7054 1.47563 36.8201 1.48345C37.7086 1.55105 38.6165 1.72488 39.5244 1.85043C39.9584 1.90602 40.3741 2.05916 40.7404 2.29836C41.1067 2.53756 41.4141 2.85662 41.6396 3.23159C41.7391 3.35234 41.8042 3.49773 41.828 3.65242C41.8518 3.80712 41.8334 3.96539 41.7748 4.11049C41.6106 4.48716 41.3498 4.20705 41.147 4.23602C40.9881 4.24266 40.8351 4.29818 40.7089 4.39498C40.5827 4.49178 40.4895 4.62513 40.4419 4.77688C40.3622 4.98926 40.3501 5.22109 40.4071 5.44065C40.4642 5.6602 40.5876 5.85678 40.7607 6.0035C40.8594 6.1129 40.9917 6.18646 41.1367 6.21268C41.2818 6.23889 41.4314 6.21627 41.5623 6.14836C41.9679 5.94554 41.9679 5.424 42.2191 5.18254C42.4702 4.94108 43.0593 5.18253 43.3201 4.77688C43.5809 4.37123 43.6968 4.41955 43.9286 4.7093C44.0637 4.8611 44.2335 4.97808 44.4235 5.05038C44.6134 5.12267 44.818 5.14813 45.0199 5.12459C45.7636 5.05698 46.1017 5.6268 46.517 6.01313C46.9323 6.39946 47.4828 6.5057 47.8401 6.01313C47.9657 5.82963 48.014 5.58818 48.3037 5.59784C48.6707 5.77168 49.0957 5.87794 49.1343 6.39949C48.4545 6.45575 47.7952 6.66013 47.2027 6.99829C47.0095 7.15282 46.7294 7.26871 46.8453 7.55846C46.9612 7.84821 47.251 7.68402 47.4828 7.68402C48.6514 7.68402 49.8973 7.18179 50.8921 8.22488C50.9791 8.3118 51.1722 8.40838 51.2592 8.36975C51.7614 8.13795 52.3216 8.59191 52.8141 8.24421C52.8673 8.205 52.9316 8.18382 52.9976 8.18382C53.0637 8.18382 53.128 8.205 53.1811 8.24421C53.5472 8.49313 53.8527 8.82109 54.0751 9.20391C54.2974 9.58673 54.4309 10.0146 54.4657 10.4559C54.4961 10.8999 54.6537 11.3257 54.9196 11.6825C55.7309 12.6484 55.7309 12.9864 54.9196 13.9715C54.7896 14.1082 54.6959 14.2753 54.6471 14.4576C54.5982 14.6398 54.5958 14.8313 54.64 15.0147C54.6842 15.1981 54.7735 15.3676 54.9 15.5076C55.0264 15.6476 55.1859 15.7537 55.3639 15.8163C55.6725 15.8626 55.9877 15.8016 56.2567 15.6434C56.5257 15.4851 56.7322 15.2393 56.8416 14.947C56.9382 14.4641 57.2086 14.0585 57.3149 13.6238C57.4791 12.9671 58.0296 13.0927 58.4062 12.9285C58.7829 12.7643 58.667 13.2761 58.8409 13.4403C59.0147 13.6045 59.2658 13.8267 59.4783 13.7494C60.0965 13.5273 60.5021 13.9716 61.0816 14.1454C60.7571 14.3338 60.4665 14.5754 60.222 14.8601C60.0122 15.0746 59.8861 15.3571 59.8666 15.6565C59.8471 15.9559 59.9355 16.2525 60.1158 16.4924C60.5118 16.898 61.0236 16.8304 61.5838 16.3089C61.7383 16.164 61.8639 16.0191 62.0185 15.8839C62.5033 15.4118 63.1481 15.1394 63.8245 15.1208C64.095 15.1208 64.2881 15.1209 64.3847 15.4589C64.4187 15.58 64.4781 15.6924 64.5588 15.7889C64.6396 15.8853 64.7399 15.9635 64.8531 16.0182C64.9663 16.073 65.0898 16.1031 65.2155 16.1066C65.3412 16.1101 65.4663 16.0868 65.5823 16.0384C66.3357 15.8163 66.7317 16.3088 67.0117 16.7628C67.0565 16.897 67.1302 17.0197 67.2277 17.1223C67.3252 17.2249 67.444 17.3048 67.5757 17.3564C67.7075 17.408 67.849 17.43 67.9902 17.4209C68.1314 17.4118 68.2688 17.3717 68.3929 17.3036C68.673 17.1974 68.8758 17.207 69.0013 17.4775C69.1269 17.7479 69.3877 17.7866 69.6678 17.8155C70.3728 17.9025 71.1455 17.8155 71.5125 18.7041C71.5993 18.8758 71.7431 19.0121 71.9192 19.0896C72.0954 19.1671 72.293 19.1811 72.4783 19.129C72.9226 19.129 73.3282 19.1291 73.3862 19.8148C73.4441 20.5005 74.352 20.8772 74.1782 21.6788C73.8112 21.7754 74.0236 22.3259 73.6566 22.3742C72.7584 22.5094 72.3527 23.0986 72.1982 24.0741C71.4062 22.8668 70.2666 22.8861 69.1945 22.9441C68.8912 22.9349 68.5913 23.0105 68.3286 23.1623C68.0658 23.3142 67.8506 23.5363 67.7071 23.8037C67.5641 24.0724 67.5195 24.3827 67.5813 24.6808C67.643 24.9789 67.8071 25.246 68.0452 25.4358C68.2383 25.6097 68.1707 25.7353 68.0452 25.8898C67.2532 25.3876 66.8669 25.4938 66.5675 26.2954C66.1425 26.5369 66.1715 26.9232 66.2198 27.3289C66.2375 27.7734 66.116 28.2124 65.8721 28.5844C65.6789 28.9128 65.3409 28.5844 65.0704 28.5844C64.6801 28.5098 64.276 28.5819 63.9356 28.7869C63.5952 28.9918 63.3424 29.3153 63.2257 29.6952C63.1388 29.9656 63.1098 30.265 63.0326 30.5451C62.9553 30.8252 62.936 30.8348 62.6655 30.6899C61.9219 30.2939 61.4776 29.2605 60.3862 29.5793C60.3862 29.5793 60.28 29.502 60.222 29.4634C59.9247 29.2378 59.5618 29.1156 59.1886 29.1156C58.8154 29.1156 58.4524 29.2378 58.1552 29.4634C57.8158 29.6907 57.5733 30.0363 57.4751 30.4327C57.3768 30.8292 57.4299 31.248 57.6239 31.6075C57.875 32.1387 57.5563 32.4671 56.9479 32.4091C56.3394 32.3512 55.7889 32.4768 55.615 32.979C55.3832 33.684 54.852 33.7033 54.3305 33.9448C53.8089 34.1863 53.7896 34.0317 53.5771 33.6743C53.2294 33.0949 52.4182 32.8727 52.0898 33.3267C51.5103 34.1283 50.6024 34.7367 50.5348 35.8957C50.5348 36.3497 50.4092 37.0934 49.7525 37.103C48.4583 37.103 47.4828 37.499 47.1544 38.7932C46.3431 38.1847 45.7829 37.3831 45.0296 36.8036C44.0638 36.0503 43.407 36.1179 42.7406 36.8809C42.0645 36.7746 41.5333 36.8809 41.3884 37.6825C41.2171 38.0622 40.9551 38.3938 40.6254 38.6484C40.5669 38.713 40.4921 38.7605 40.4088 38.786C40.3255 38.8115 40.2368 38.814 40.1522 38.7932C39.1187 38.6387 38.8483 38.7932 38.3558 39.759C38.2882 39.8942 38.2978 40.126 38.066 40.0488C37.8342 39.9715 37.8922 39.759 37.9598 39.5949C38.0723 39.3738 38.1399 39.1327 38.1585 38.8853C38.1772 38.638 38.1465 38.3895 38.0684 38.1541C37.9902 37.9187 37.866 37.7011 37.7032 37.5141C37.5403 37.327 37.3419 37.1742 37.1195 37.0644C36.9482 36.9336 36.8094 36.765 36.7138 36.5718C36.5869 36.396 36.4046 36.268 36.1961 36.2085C35.9876 36.1489 35.7651 36.1612 35.5645 36.2434C35.3298 36.314 35.0852 36.3467 34.8401 36.34C34.6953 36.34 34.5697 36.34 34.618 36.1082C34.7822 35.5287 34.4152 35.0748 34.251 34.5822C34.2003 34.4281 34.1177 34.2864 34.0088 34.1662C33.8998 34.046 33.7668 33.9501 33.6185 33.8846C33.4701 33.819 33.3096 33.7853 33.1473 33.7857C32.9851 33.7861 32.8248 33.8205 32.6767 33.8868C32.0393 34.1089 31.8847 34.6692 31.624 35.2486C31.4561 35.0238 31.2413 34.8382 30.9944 34.7047C30.7476 34.5713 30.4746 34.4932 30.1945 34.476C29.8165 34.481 29.4483 34.3562 29.1512 34.1224C28.8541 33.8886 28.6463 33.56 28.5623 33.1914C28.4326 32.6546 28.1235 32.1782 27.6862 31.841C27.2489 31.5038 26.7095 31.326 26.1574 31.3371C25.3664 31.3848 24.6175 31.7097 24.0422 32.2546C24.0422 31.8683 23.8008 31.5979 23.936 31.2888C24.0117 31.1179 24.0221 30.9251 23.9651 30.7471C23.9082 30.5691 23.7878 30.4181 23.6269 30.323C23.4575 30.2124 23.2594 30.1535 23.0571 30.1535C22.8547 30.1535 22.6567 30.2124 22.4872 30.323C22.352 30.4002 22.2651 30.603 22.0913 30.5354C21.9908 30.4849 21.8807 30.4561 21.7684 30.4508C21.656 30.4456 21.5438 30.4641 21.439 30.5051C21.3343 30.5461 21.2393 30.6086 21.1603 30.6887C21.0813 30.7689 21.0201 30.8647 20.9806 30.9701C20.9476 31.0135 20.9053 31.049 20.8569 31.0741C20.8084 31.0992 20.755 31.1131 20.7005 31.1149C20.4875 31.1051 20.2772 31.1662 20.1025 31.2885C19.9277 31.4108 19.7984 31.5875 19.7347 31.791C19.7124 31.8552 19.6751 31.9132 19.6258 31.96C19.5765 32.0068 19.5167 32.0411 19.4514 32.06C19.3861 32.0789 19.3173 32.0819 19.2506 32.0687C19.1839 32.0555 19.1214 32.0265 19.0683 31.9842C18.7639 31.8407 18.5234 31.5895 18.3932 31.2792C18.263 30.9689 18.2523 30.6214 18.3632 30.3036C18.4173 30.1322 18.4624 29.9581 18.4984 29.782C18.5517 29.5623 18.5379 29.3317 18.4587 29.1199C18.3795 28.9081 18.2385 28.7249 18.0541 28.5941C17.8947 28.4683 17.6998 28.3959 17.4969 28.3872C17.2941 28.3786 17.0936 28.4341 16.9241 28.5458C16.5571 28.768 16.4702 28.6617 16.2867 28.3333C15.9197 27.6959 15.3208 27.6283 14.7027 28.0629C14.2584 28.0629 14.1522 27.7732 14.2681 27.3579C14.3131 27.1628 14.2964 26.9586 14.2202 26.7735C14.1441 26.5883 14.0123 26.4314 13.8431 26.3244C13.6854 26.2206 13.5007 26.1652 13.3119 26.1652C13.1231 26.1652 12.9384 26.2206 12.7807 26.3244C12.3751 26.5273 12.0371 26.7011 12.095 27.2323C12.1022 27.2886 12.0969 27.3458 12.0795 27.3998C12.062 27.4538 12.0329 27.5034 11.9942 27.5449C11.9555 27.5864 11.9081 27.6188 11.8554 27.6399C11.8027 27.661 11.746 27.6702 11.6893 27.667C11.1775 27.7635 10.9457 27.4738 10.8298 27.0295C11.2934 26.9812 11.5831 26.7687 11.5155 26.2568C11.5158 26.1842 11.4998 26.1124 11.4685 26.0468C11.4373 25.9813 11.3916 25.9236 11.335 25.8781C11.2784 25.8327 11.2123 25.8005 11.1415 25.7842C11.0707 25.7678 10.9972 25.7676 10.9263 25.7836C10.3951 25.7836 10.2889 26.1602 10.3082 26.6045C10.313 26.6495 10.313 26.6948 10.3082 26.7397H9.57419C9.35205 26.7397 9.16855 26.6625 9.12991 26.421C8.9947 25.5518 8.45385 25.2813 7.6329 25.3876C7.4011 25.3876 7.19826 25.3876 7.0727 25.0882C6.81193 24.3831 6.30006 24.2576 5.63364 24.6246C5.21528 24.906 4.82691 25.2297 4.47464 25.5904C4.64848 25.0495 4.80302 24.4314 4.27182 24.1417C3.51848 23.7264 3.81787 23.3304 4.10762 22.8668C4.18488 22.7299 4.25267 22.5879 4.31046 22.4418C4.59055 21.6692 4.02071 20.6357 3.34464 20.7033C3.09352 20.7033 2.83273 20.7033 2.62991 20.7033C2.06007 20.8579 1.36469 20.5971 0.92041 21.1959C1.04292 20.3003 1.41435 19.457 1.99246 18.762C2.34016 19.0904 2.61059 19.583 3.19974 19.4381C3.51846 19.3608 3.60539 19.4381 3.71163 19.7569C3.99172 20.5295 4.47465 20.7226 5.21834 20.3267C5.70125 20.0755 6.38697 20.0369 6.58979 20.3267C6.96646 20.9448 7.55562 20.9834 8.0675 21.1959C8.17245 21.2503 8.28759 21.2822 8.40555 21.2895C8.52351 21.2969 8.6417 21.2796 8.75258 21.2387C8.86347 21.1978 8.96461 21.1342 9.04954 21.052C9.13447 20.9698 9.2013 20.8708 9.24581 20.7613C9.32041 20.662 9.37336 20.548 9.40123 20.427C9.4291 20.3059 9.43126 20.1804 9.40759 20.0584C9.38393 19.9365 9.33497 19.8208 9.26385 19.7189C9.19273 19.6171 9.10103 19.5313 8.99469 19.4671C8.89505 19.4211 8.80946 19.3495 8.74666 19.2596C8.68386 19.1696 8.64611 19.0646 8.63733 18.9552C8.63733 18.2019 8.19307 17.9894 7.53631 18.1535C7.70047 17.5956 8.03892 17.1048 8.50213 16.7531C8.6953 16.5696 8.92708 16.3958 8.82084 16.0771C8.78476 15.9452 8.70247 15.8307 8.589 15.7544C8.47552 15.6782 8.33845 15.6453 8.20273 15.6617C8.05786 15.6617 7.94196 15.6038 7.9323 15.4396C9.01415 15.0259 10.1641 14.8195 11.3223 14.8311C11.387 14.8407 11.4531 14.8333 11.5141 14.8096C11.5751 14.7859 11.6288 14.7467 11.67 14.6959C12.4524 13.7301 12.5006 13.7301 13.6017 14.2034C13.2443 14.8698 13.8045 15.7969 12.9256 16.3378C12.7901 16.4538 12.6941 16.6092 12.6508 16.7822C12.6075 16.9553 12.6192 17.1375 12.6841 17.3036C12.7517 17.603 12.9642 17.8638 12.9353 18.1922C12.9063 18.5205 13.1477 18.6751 13.4085 18.7427C13.4804 18.7611 13.5553 18.7642 13.6285 18.7519C13.7016 18.7395 13.7714 18.712 13.8333 18.6711C13.8952 18.6301 13.9478 18.5767 13.9877 18.5141C14.0277 18.4516 14.0541 18.3815 14.0653 18.3081C14.1425 17.7383 14.4902 17.1491 14.0653 16.531C14.5385 16.531 15.0311 16.5309 14.9828 15.9032C14.9828 15.7003 15.1953 15.7197 15.3498 15.7004C16.2287 15.6038 16.5571 15.2658 16.5668 14.3869C16.5668 12.6194 17.6388 11.4894 18.962 10.6201C19.0779 10.5332 19.2807 10.5525 19.2421 10.3207C19.2035 10.0889 19.0296 10.06 18.8364 10.0503C18.3683 10.086 17.9166 10.2387 17.5229 10.4946C17.3491 10.5815 17.1752 10.8326 16.9434 10.5815L17.0497 10.398ZM27.4709 11.6053C28.1373 11.6053 28.5816 11.2286 28.8134 10.4463C28.9776 9.90543 28.9679 9.48046 28.2436 9.41285C28.176 9.41285 28.118 9.23901 28.0697 9.14242C27.985 8.9832 27.8447 8.86071 27.6754 8.79837C27.5062 8.73602 27.32 8.73816 27.1522 8.80438C26.8154 8.93541 26.5347 9.17968 26.3585 9.49518C26.1822 9.81067 26.1214 10.1777 26.1864 10.5332C26.2333 10.8376 26.3896 11.1145 26.6261 11.3119C26.8626 11.5092 27.163 11.6136 27.4709 11.6053ZM48.9702 10.9388C49.6849 10.9388 50.0326 10.6201 50.0326 9.97302C50.0417 9.80622 50.0171 9.63931 49.9604 9.48218C49.9037 9.32505 49.816 9.1809 49.7025 9.05836C49.5889 8.93582 49.4519 8.83738 49.2996 8.76886C49.1472 8.70034 48.9826 8.66315 48.8156 8.65951C48.1009 8.65951 47.7532 8.97823 47.7436 9.62534C47.7331 9.79325 47.7569 9.96155 47.8137 10.1199C47.8705 10.2783 47.959 10.4234 48.0738 10.5464C48.1887 10.6693 48.3274 10.7676 48.4815 10.8351C48.6356 10.9025 48.8019 10.9379 48.9702 10.9388ZM18.962 29.2895C18.962 29.4285 18.9986 29.5651 19.0681 29.6854C19.1376 29.8058 19.2376 29.9057 19.358 29.9752C19.4934 30.0798 19.6542 30.1466 19.8239 30.1687C19.9936 30.1908 20.1661 30.1673 20.3238 30.1008C20.5942 29.9366 20.8067 29.7434 21.1448 30.0235C21.4828 30.3036 21.5601 29.9559 21.676 29.7628C21.7919 29.5696 21.9657 29.3764 21.7822 29.1543C21.7494 29.1075 21.7068 29.0684 21.6574 29.0396C21.6081 29.0108 21.553 28.993 21.4961 28.9875C21.4392 28.982 21.3818 28.9889 21.3278 29.0077C21.2738 29.0265 21.2246 29.0567 21.1834 29.0964C20.7488 29.4344 20.6522 28.9708 20.5749 28.7873C20.4107 28.3816 20.2079 28.1112 19.7347 28.2078C19.2614 28.3044 19.0489 28.652 18.962 29.2509V29.2895ZM62.1343 28.6038C62.6076 28.6038 62.8201 28.2947 62.8008 27.8504C62.7814 27.4061 62.2502 27.184 61.8349 27.1357C61.4196 27.0874 61.2458 27.5896 61.2554 27.9277C61.2651 28.2657 61.6031 28.5748 62.1343 28.5652V28.6038ZM46.1789 36.398C45.8892 36.398 45.7153 36.5525 45.7443 36.8519C45.748 36.9187 45.7649 36.9842 45.7943 37.0444C45.8236 37.1046 45.8647 37.1584 45.9151 37.2025C45.9655 37.2466 46.0242 37.2801 46.0877 37.3012C46.1513 37.3223 46.2184 37.3304 46.2852 37.3252C46.6039 37.3252 46.6811 37.0837 46.6715 36.8133C46.6618 36.5428 46.4687 36.3594 46.1789 36.3594V36.398Z" fill="#DDB757"/>
<path d="M10.849 26.9812C10.9649 27.4255 11.1967 27.7152 11.7086 27.6186C11.5885 27.7484 11.5179 27.9163 11.509 28.0928C11.5002 28.2694 11.5537 28.4434 11.6603 28.5845C11.9983 29.0191 12.4426 28.8163 12.8772 28.5845C12.8457 28.8443 12.9068 29.1069 13.0499 29.326C13.1931 29.5451 13.409 29.7066 13.6596 29.7821C13.8319 29.8363 14.0167 29.8367 14.1892 29.7832C14.3618 29.7297 14.5139 29.6248 14.6254 29.4827C14.7848 29.279 14.88 29.0325 14.8989 28.7745C14.9179 28.5165 14.8596 28.2587 14.7316 28.0339C15.3787 27.5993 15.9486 27.6669 16.3156 28.3044C16.4991 28.6328 16.586 28.739 16.953 28.5168C17.1226 28.4051 17.323 28.3497 17.5258 28.3583C17.7287 28.367 17.9237 28.4394 18.083 28.5652C18.2674 28.696 18.4084 28.8792 18.4876 29.0909C18.5668 29.3027 18.5806 29.5334 18.5273 29.7531C18.4913 29.9292 18.4462 30.1033 18.3921 30.2746C18.2812 30.5924 18.2919 30.9399 18.4221 31.2503C18.5523 31.5606 18.7928 31.8117 19.0972 31.9552C19.1503 31.9975 19.2128 32.0266 19.2795 32.0398C19.3462 32.053 19.415 32.05 19.4803 32.031C19.5456 32.0121 19.6054 31.9778 19.6547 31.931C19.704 31.8842 19.7413 31.8263 19.7636 31.7621C19.8273 31.5585 19.9567 31.3818 20.1314 31.2595C20.3061 31.1372 20.5164 31.0762 20.7294 31.086C20.7839 31.0842 20.8373 31.0702 20.8858 31.0451C20.9342 31.0201 20.9765 30.9845 21.0095 30.9411C21.049 30.8357 21.1102 30.7399 21.1892 30.6598C21.2682 30.5797 21.3632 30.5171 21.4679 30.4761C21.5727 30.4351 21.6849 30.4167 21.7973 30.4219C21.9096 30.4271 22.0197 30.4559 22.1202 30.5064C22.294 30.574 22.3809 30.3713 22.5162 30.294C22.6856 30.1834 22.8837 30.1246 23.086 30.1246C23.2884 30.1246 23.4864 30.1834 23.6558 30.294C23.8167 30.3892 23.9371 30.5401 23.994 30.7181C24.051 30.8962 24.0406 31.0889 23.9649 31.2598C23.8297 31.5882 24.0711 31.8586 24.0711 32.2256C24.6464 31.6807 25.3953 31.3558 26.1863 31.3081C26.7384 31.297 27.2778 31.4748 27.7151 31.812C28.1524 32.1493 28.4615 32.6257 28.5912 33.1625C28.6752 33.531 28.883 33.8597 29.1801 34.0934C29.4772 34.3272 29.8454 34.452 30.2234 34.447C30.5035 34.4642 30.7765 34.5423 31.0234 34.6757C31.2702 34.8092 31.485 34.9948 31.6529 35.2197C31.9136 34.6402 32.0682 34.08 32.7056 33.8579C32.8537 33.7916 33.014 33.7572 33.1762 33.7568C33.3385 33.7564 33.499 33.79 33.6474 33.8556C33.7958 33.9211 33.9287 34.0171 34.0377 34.1373C34.1467 34.2575 34.2292 34.3992 34.2799 34.5532C34.4441 35.0458 34.8111 35.5191 34.6469 36.0793C34.5986 36.2724 34.7242 36.3014 34.8691 36.3111C35.1141 36.3177 35.3587 36.2851 35.5934 36.2145C35.7935 36.1424 36.0117 36.1384 36.2142 36.203C36.4168 36.2676 36.5924 36.3973 36.7138 36.5718C36.8141 36.7203 36.942 36.8482 37.0905 36.9485C37.3129 37.0583 37.5112 37.2111 37.6741 37.3982C37.837 37.5852 37.9612 37.8028 38.0393 38.0382C38.1175 38.2736 38.1481 38.5221 38.1295 38.7695C38.1108 39.0168 38.0433 39.258 37.9307 39.479C37.8631 39.6432 37.8052 39.8556 38.037 39.9329C38.2688 40.0102 38.2591 39.7784 38.3267 39.6432C38.8193 38.6773 39.0897 38.5325 40.1231 38.6773C40.2078 38.6981 40.2964 38.6956 40.3797 38.6701C40.4631 38.6446 40.5379 38.5971 40.5964 38.5325C40.9261 38.278 41.1881 37.9463 41.3594 37.5667C41.3431 37.7569 41.4015 37.946 41.5223 38.0939C41.6431 38.2417 41.8168 38.3367 42.0065 38.3586C42.1812 38.388 42.3608 38.3607 42.5189 38.2808C42.677 38.2008 42.8055 38.0725 42.8854 37.9144C42.9851 37.7299 43.0221 37.5179 42.9907 37.3106C42.9594 37.1032 42.8614 36.9117 42.7115 36.765C43.378 36.002 44.0347 35.9344 45.0005 36.6877C45.7539 37.2672 46.3141 38.0689 47.1254 38.6773C47.4537 37.3831 48.4292 37.0065 49.7234 36.9871C50.3802 36.9871 50.4864 36.2338 50.5057 35.7799C50.5734 34.6209 51.4716 34.0124 52.0607 33.2108C52.3891 32.7569 53.2004 32.979 53.5481 33.5585C53.7606 33.9158 53.8958 33.9931 54.3014 33.8289C54.7071 33.6647 55.3542 33.6067 55.586 32.863C55.7598 32.3608 56.3683 32.2256 56.9188 32.2932C57.4694 32.3609 57.8846 32.0228 57.5949 31.4916C57.4009 31.1322 57.3478 30.7133 57.446 30.3169C57.5442 29.9204 57.7867 29.5748 58.1261 29.3475C58.4234 29.1219 58.7863 28.9998 59.1595 28.9998C59.5327 28.9998 59.8957 29.1219 60.193 29.3475C60.2509 29.3475 60.3185 29.473 60.3572 29.4634C61.4485 29.1447 61.8928 30.1781 62.6365 30.5741C62.9069 30.7189 62.9552 30.5741 63.0035 30.4292C63.0518 30.2843 63.1098 29.8497 63.1967 29.5793C63.3134 29.1994 63.5661 28.876 63.9066 28.671C64.247 28.466 64.6511 28.3939 65.0414 28.4686C65.3118 28.4686 65.6499 28.8066 65.843 28.4686C66.087 28.0965 66.2085 27.6575 66.1907 27.213C66.1424 26.8074 66.1135 26.421 66.5384 26.1796C66.5384 26.7301 66.5964 27.2517 67.2531 27.3482C67.4647 27.3724 67.678 27.3205 67.8549 27.202C68.0318 27.0835 68.1608 26.906 68.219 26.7011C68.3735 26.3438 68.1707 26.0637 68.0065 25.7353C68.0934 25.5808 68.161 25.4552 68.0065 25.2814C67.7684 25.0916 67.6043 24.8245 67.5426 24.5263C67.4808 24.2282 67.5253 23.9178 67.6684 23.6491C67.8119 23.3817 68.0272 23.1596 68.2899 23.0078C68.5526 22.856 68.8525 22.7804 69.1558 22.7895C70.2568 22.7316 71.3676 22.7123 72.1595 23.9196C72.3141 22.9537 72.7197 22.3549 73.6179 22.2197C73.9849 22.2197 73.7724 21.6209 74.1395 21.5243C75.2019 21.9686 75.2405 21.9686 75.9359 21.051C76.0518 20.9062 76.187 20.8289 76.3222 20.9642C76.396 21.0714 76.4956 21.1582 76.6119 21.2166C76.7282 21.2751 76.8574 21.3032 76.9874 21.2984C77.1175 21.2936 77.2442 21.256 77.3559 21.1891C77.4675 21.1222 77.5604 21.0282 77.6261 20.9158C77.6261 20.9158 77.7903 20.9158 77.8869 20.9158C77.9834 20.9158 78.2635 20.8289 78.2442 20.6164C78.2249 20.4039 78.0317 20.2011 77.8193 20.317C77.3943 20.5198 77.2011 20.1529 76.9403 19.9983C76.6796 19.8438 76.8245 19.7375 77.0466 19.7182C77.2687 19.6989 77.2784 19.8921 77.3363 19.8631C78.3987 19.3512 78.7561 20.346 79.3646 20.8289C79.5191 20.9352 79.4998 21.109 79.4805 21.2636C79.4695 21.4969 79.5106 21.7297 79.6008 21.9452C79.691 22.1607 79.8281 22.3535 80.002 22.5094C80.2929 22.8483 80.4471 23.2833 80.4346 23.7298C80.4221 24.1762 80.2438 24.6019 79.9344 24.924C79.4984 25.3525 78.9428 25.6387 78.3408 25.7449C78.0952 25.7594 77.858 25.8397 77.6541 25.9773C77.4502 26.115 77.2871 26.3049 77.1818 26.5272C76.869 27.0859 76.4197 27.5562 75.8758 27.894C75.332 28.2318 74.7113 28.4262 74.0718 28.4589C73.547 28.5742 72.9999 28.5339 72.4976 28.343C72.3842 28.3116 72.2655 28.3049 72.1493 28.3234C72.0332 28.3418 71.9224 28.3851 71.8244 28.4501C71.7264 28.5151 71.6435 28.6005 71.5814 28.7003C71.5192 28.8001 71.4792 28.9121 71.4641 29.0288C71.4561 29.434 71.3444 29.8305 71.1399 30.1804C70.9353 30.5303 70.6446 30.8221 70.2955 31.028C70.1892 31.1053 70.0057 31.1342 69.9575 31.2308C69.2717 32.5057 67.9196 32.3898 66.8089 32.7182C65.9348 32.9922 64.9927 32.9547 64.1432 32.612C64.0657 32.5714 63.9796 32.5501 63.8921 32.5501C63.8046 32.5501 63.7184 32.5714 63.641 32.612C63.5444 32.6603 63.4188 32.7472 63.3319 32.7375C62.2309 32.5347 61.8638 33.2977 61.4002 34.0703C61.1834 34.4898 60.8774 34.8569 60.5037 35.1455C60.1299 35.4342 59.6975 35.6375 59.2368 35.7412C58.3289 35.9248 58.3579 35.9537 57.7687 36.7071C57.4268 37.2778 56.9312 37.7408 56.3386 38.0432C55.7459 38.3455 55.0801 38.4748 54.4173 38.4165C54.0696 38.4165 53.8958 38.7449 53.635 38.7256C53.2479 38.7119 52.8651 38.8103 52.5327 39.0091C52.2003 39.2079 51.9324 39.4985 51.7613 39.846C51.666 39.9885 51.526 40.0952 51.3634 40.1494C51.2008 40.2036 51.0248 40.2022 50.8631 40.1454C50.6742 40.0754 50.4671 40.0717 50.2758 40.1349C50.0846 40.1981 49.9204 40.3244 49.8104 40.4931H49.7621C49.3951 41.0146 48.7962 40.6379 48.4196 40.7732C48.0429 40.9084 47.7532 41.6424 47.2799 41.3816C47.0034 41.2524 46.704 41.179 46.399 41.1658C46.0941 41.1525 45.7895 41.1996 45.5028 41.3044C44.9463 41.3242 44.4056 41.4944 43.9382 41.7969C43.8899 41.7969 43.8126 41.8935 43.7643 41.8839C42.8757 41.6617 42.2576 42.4441 41.4463 42.5117C41.1866 42.5768 40.9432 42.6952 40.7316 42.8594C40.475 43.0451 40.1711 43.1546 39.8549 43.1751C39.5388 43.1956 39.2233 43.1263 38.9448 42.9753C38.8689 42.9289 38.7842 42.899 38.696 42.8873C38.6079 42.8757 38.5183 42.8826 38.4329 42.9076C38.2796 42.945 38.1203 42.9514 37.9644 42.9266C37.8085 42.9017 37.6592 42.846 37.5251 42.7627C36.8536 42.2902 36.1271 41.901 35.3616 41.6038C35.2756 41.578 35.1963 41.5333 35.1295 41.4732C35.0627 41.4131 35.01 41.339 34.9753 41.2561C34.6952 40.2033 33.5652 39.7397 33.3334 38.7449C31.4017 39.6432 29.557 40.4834 27.5385 39.2279C27.4973 39.2168 27.454 39.2168 27.4129 39.2279C26.0511 39.2279 25.5295 38.1654 24.9694 37.2093C24.575 36.587 24.0936 36.0244 23.5399 35.5384C23.3233 35.3628 23.1472 35.1424 23.0239 34.8923C22.9005 34.6422 22.8327 34.3684 22.8252 34.0897C22.8252 33.6744 22.6804 33.6164 22.3133 33.6358C21.3018 33.7764 20.2825 33.8539 19.2613 33.8675C17.774 33.7613 17.1172 33.3557 16.6729 31.9359C16.5957 31.6944 16.5281 31.6365 16.2576 31.7041C15.6069 31.8637 14.9205 31.7812 14.326 31.4723C13.2169 30.8515 12.0607 30.3187 10.8683 29.8787C10.4337 29.7628 10.2888 29.2702 9.9025 29.0577C9.82523 28.8742 9.67071 28.7583 9.82524 28.4782C10.0957 27.9663 9.82525 27.5897 9.19746 27.5704C9.03138 27.553 8.8638 27.5838 8.71479 27.6592C8.56577 27.7346 8.44164 27.8513 8.3572 27.9953C8.07711 28.4299 8.35717 28.739 8.56965 29.0674C8.35767 29.041 8.15858 28.9513 7.99835 28.81C7.83811 28.6687 7.72418 28.4824 7.67144 28.2754C7.4195 27.8889 7.03753 27.6054 6.59465 27.476C6.15177 27.3467 5.67723 27.3801 5.25688 27.5704C4.48423 28.1016 4.18483 27.976 3.51841 27.271C2.85199 26.5659 2.16624 26.0637 1.50948 25.4263C0.176646 24.1224 -0.00684565 23.4946 0.649915 21.7368C0.727181 21.534 0.814114 21.3311 0.901038 21.1187C1.34532 20.5198 2.0407 20.7806 2.61054 20.6261C2.81336 20.6261 3.07412 20.6261 3.32524 20.6261C4.01097 20.5585 4.58081 21.5919 4.29106 22.3645C4.23327 22.5107 4.16551 22.6527 4.08825 22.7895C3.7985 23.2531 3.49911 23.6491 4.25245 24.0644C4.78365 24.3542 4.62911 24.9723 4.45526 25.5131C4.80753 25.1524 5.19588 24.8288 5.61423 24.5473C6.28065 24.1803 6.79256 24.3059 7.05333 25.011C7.17889 25.3393 7.3817 25.3393 7.6135 25.3104C8.43445 25.2041 8.97533 25.4745 9.11054 26.3437C9.11054 26.5852 9.33267 26.6625 9.55481 26.6625H10.2888C10.3523 26.7542 10.4356 26.8305 10.5326 26.8857C10.6296 26.9408 10.7377 26.9735 10.849 26.9812ZM30.2717 36.4656C30.2717 35.7992 29.8081 35.3935 29.2479 35.664C28.9866 35.8312 28.7694 36.059 28.6148 36.328C28.4601 36.597 28.3725 36.8993 28.3594 37.2093C28.3633 37.366 28.4142 37.5179 28.5055 37.6454C28.5967 37.7728 28.7242 37.8699 28.8713 37.924C29.0063 37.9823 29.1563 37.9968 29.3 37.9656C29.4437 37.9345 29.5741 37.8591 29.6729 37.7501C29.856 37.5889 30.0037 37.3916 30.1067 37.1705C30.2098 36.9495 30.2659 36.7095 30.2717 36.4656ZM44.4404 38.7739C44.453 38.674 44.4438 38.5724 44.4133 38.4763C44.3829 38.3802 44.3319 38.2919 44.2639 38.2175C44.1959 38.1431 44.1126 38.0843 44.0196 38.0453C43.9267 38.0063 43.8264 37.988 43.7257 37.9916C43.6306 37.9815 43.5344 37.9924 43.444 38.0234C43.3535 38.0544 43.2709 38.1047 43.2019 38.171C43.1329 38.2372 43.0792 38.3177 43.0445 38.4068C43.0099 38.4959 42.9952 38.5916 43.0013 38.687C42.9869 38.7873 42.9949 38.8895 43.0247 38.9863C43.0545 39.0832 43.1054 39.1722 43.1738 39.247C43.2421 39.3218 43.3262 39.3806 43.42 39.419C43.5137 39.4575 43.6148 39.4746 43.716 39.4693C43.8108 39.4777 43.9062 39.4657 43.9959 39.4341C44.0857 39.4025 44.1676 39.3521 44.2362 39.2862C44.3049 39.2203 44.3586 39.1406 44.3938 39.0522C44.429 38.9638 44.4449 38.869 44.4404 38.7739Z" fill="#A57B13"/>
<path d="M77.0562 19.8244C76.834 19.8244 76.7471 19.9983 76.9499 20.1045C77.1528 20.2108 77.4039 20.6261 77.8288 20.4233C78.0413 20.3074 78.2248 20.5102 78.2538 20.7227C78.2828 20.9352 78.0993 21.0124 77.8964 21.0221C77.6936 21.0317 77.6743 21.0221 77.6357 21.0221C77.5756 21.1416 77.4857 21.2434 77.3745 21.3177C77.2634 21.3919 77.1348 21.4361 77.0015 21.4458C76.8681 21.4556 76.7346 21.4305 76.6138 21.3732C76.493 21.3158 76.3892 21.2281 76.3125 21.1186C76.1773 20.9834 76.0421 21.0607 75.9262 21.2056C75.2308 22.1231 75.1921 22.1231 74.1297 21.6788C74.2746 20.8772 73.4054 20.4909 73.3378 19.8148C73.2702 19.1387 72.8742 19.0808 72.4299 19.1291C72.2446 19.1811 72.047 19.1671 71.8708 19.0896C71.6946 19.0121 71.5509 18.8758 71.4641 18.7041C71.097 17.8445 70.3244 17.9025 69.6193 17.8155C69.3392 17.8155 69.0978 17.8155 68.9529 17.4775C68.808 17.1394 68.6245 17.1974 68.3444 17.3036C68.2204 17.3717 68.0829 17.4118 67.9417 17.4209C67.8005 17.4301 67.6591 17.408 67.5273 17.3565C67.3956 17.3049 67.2767 17.2249 67.1793 17.1223C67.0818 17.0197 67.0081 16.897 66.9633 16.7628C66.6832 16.3088 66.2872 15.7969 65.5339 16.0384C65.4178 16.0868 65.2928 16.1101 65.1671 16.1066C65.0414 16.1031 64.9178 16.073 64.8046 16.0182C64.6914 15.9635 64.5911 15.8853 64.5104 15.7889C64.4297 15.6925 64.3703 15.58 64.3363 15.4589C64.2397 15.1499 64.0465 15.1209 63.7761 15.1209C63.0996 15.1394 62.4549 15.4118 61.97 15.8839C61.8155 16.0191 61.6899 16.164 61.5354 16.3089C60.9752 16.8304 60.4633 16.898 60.0673 16.4924C59.8871 16.2525 59.7987 15.956 59.8182 15.6565C59.8377 15.3571 59.9637 15.0746 60.1736 14.8601C60.4181 14.5754 60.7086 14.3339 61.0331 14.1454C60.4536 13.9716 60.0673 13.5273 59.4299 13.7494C59.2174 13.8267 58.9856 13.6142 58.7924 13.4403C58.5993 13.2665 58.7924 12.745 58.3578 12.9285C57.9232 13.112 57.392 12.9285 57.2664 13.6238C57.1602 14.0585 56.8898 14.4641 56.7932 14.947C56.6838 15.2393 56.4773 15.4852 56.2083 15.6434C55.9393 15.8016 55.6241 15.8627 55.3155 15.8163C55.1375 15.7537 54.978 15.6476 54.8515 15.5076C54.7251 15.3676 54.6357 15.1982 54.5915 15.0148C54.5473 14.8313 54.5498 14.6398 54.5987 14.4576C54.6475 14.2753 54.7412 14.1082 54.8712 13.9715C55.7018 13.0057 55.7018 12.6484 54.8712 11.6826C54.6053 11.3257 54.4477 10.8999 54.4172 10.4559C54.3824 10.0146 54.249 9.58674 54.0266 9.20392C53.8043 8.8211 53.4988 8.49314 53.1327 8.24423C53.0796 8.20501 53.0152 8.18383 52.9492 8.18383C52.8831 8.18383 52.8188 8.20501 52.7657 8.24423C52.2731 8.59192 51.713 8.13796 51.2107 8.36976C51.1238 8.36976 50.9306 8.31182 50.8437 8.22489C49.8779 7.1818 48.603 7.67438 47.4343 7.68403C47.2026 7.68403 46.9225 7.87719 46.7969 7.55847C46.6713 7.23975 46.9611 7.15284 47.1543 6.99831C47.7467 6.66015 48.406 6.45577 49.0859 6.3995C51.3569 6.52037 53.5616 7.20764 55.499 8.39873C56.2526 8.88969 56.8361 9.60144 57.1698 10.4366C57.2954 10.7167 57.3823 10.9582 57.73 10.6781C57.7806 10.6335 57.8461 10.6093 57.9135 10.6105C58.493 10.6105 58.7055 11.4218 59.4782 11.161C60.2508 10.9002 60.444 11.5667 60.6661 12.1268C60.6906 12.1897 60.7311 12.2451 60.7836 12.2875C60.8362 12.3298 60.8989 12.3577 60.9655 12.3683C61.6803 12.5697 62.3405 12.9296 62.8972 13.4211C62.9413 13.453 62.9915 13.4754 63.0447 13.487C63.0978 13.4987 63.1528 13.4992 63.2062 13.4886C64.4908 13.1313 65.5725 13.9232 66.7701 14.0874C67.1758 14.155 67.4752 14.551 67.7843 14.8311C68.1427 15.2291 68.6091 15.5144 69.1268 15.6521C69.4358 15.7197 69.8704 15.8452 69.9574 16.1543C70.1505 16.8304 70.6238 16.6952 71.1067 16.7145C71.5169 16.6829 71.9273 16.7745 72.2852 16.9775C72.6431 17.1806 72.9322 17.4858 73.1156 17.8542C73.2025 18.028 73.3474 18.0377 73.5019 18.0667C74.1772 18.1496 74.7919 18.4969 75.2114 19.0325C75.2399 19.0902 75.2798 19.1414 75.3288 19.1832C75.3778 19.2249 75.4347 19.2562 75.4962 19.2752C75.5577 19.2942 75.6223 19.3004 75.6863 19.2936C75.7503 19.2867 75.8122 19.2669 75.8682 19.2353C75.9845 19.1902 76.109 19.1698 76.2336 19.1754C76.3582 19.1811 76.4803 19.2126 76.592 19.2681C76.7038 19.3235 76.8028 19.4016 76.8827 19.4974C76.9626 19.5932 77.0217 19.7045 77.0562 19.8244Z" fill="#F7E098"/>
<path d="M48.3036 5.55923C48.0139 5.55923 47.9656 5.79102 47.84 5.97453C47.4827 6.50573 46.9708 6.42847 46.5168 5.97453C46.0629 5.52059 45.7635 5.00869 45.0198 5.08596C44.8179 5.10949 44.6133 5.08403 44.4233 5.01174C44.2334 4.93945 44.0636 4.82246 43.9284 4.67066C43.6966 4.38091 43.5131 4.41955 43.32 4.73827C43.1268 5.057 42.4797 4.93142 42.2189 5.1439C41.9582 5.35639 41.9678 5.86827 41.5622 6.10973C41.4313 6.17763 41.2817 6.20026 41.1366 6.17404C40.9916 6.14783 40.8593 6.07426 40.7605 5.96486C40.5875 5.81814 40.464 5.62157 40.407 5.40201C40.3499 5.18246 40.3621 4.95066 40.4418 4.73827C40.4894 4.58652 40.5826 4.45314 40.7088 4.35634C40.835 4.25954 40.988 4.20405 41.1469 4.19742C41.3497 4.19742 41.6104 4.44852 41.7746 4.07185C41.8333 3.92675 41.8517 3.76848 41.8279 3.61379C41.8041 3.45909 41.739 3.3137 41.6394 3.19295C41.414 2.81799 41.1066 2.49892 40.7403 2.25973C40.374 2.02053 39.9582 1.86741 39.5243 1.81183C38.6164 1.68627 37.7085 1.51242 36.82 1.44481C35.7053 1.437 34.6156 1.77438 33.7004 2.41064C33.2561 2.68107 32.8891 3.26056 32.2227 2.98047C32.3482 2.35268 32.976 2.25609 33.3816 1.94703C33.7873 1.63797 34.2509 1.50275 34.6662 1.25163C35.9701 0.498292 37.4767 0.633507 38.8772 0.28581C39.6886 0.134404 40.5237 0.167418 41.3207 0.382399C41.8523 0.524519 42.331 0.818573 42.6981 1.22856C43.0652 1.63854 43.3048 2.14667 43.3876 2.69073C43.4648 3.00945 43.5421 3.14465 43.9381 3.09636C44.542 3.04116 45.1492 3.15679 45.6905 3.43001C46.2319 3.70324 46.6855 4.12309 46.9998 4.64169C46.9998 4.70929 47.0867 4.81554 47.1833 4.79622C47.7145 4.76725 47.9463 5.22119 48.3036 5.55923Z" fill="#F7E098"/>
<path d="M7.93215 15.4203C7.93215 15.5845 8.05771 15.6424 8.20258 15.6424C8.3383 15.626 8.47537 15.6589 8.58885 15.7351C8.70232 15.8114 8.78461 15.9259 8.82069 16.0577C8.92693 16.3765 8.69515 16.5503 8.50198 16.7338C8.03877 17.0855 7.70032 17.5763 7.53616 18.1342C8.19292 18.0183 8.62753 18.1825 8.63718 18.9359C8.64596 19.0452 8.6837 19.1503 8.74651 19.2402C8.80931 19.3302 8.8949 19.4019 8.99453 19.4478C9.10087 19.512 9.19257 19.5978 9.2637 19.6997C9.33482 19.8015 9.38378 19.9172 9.40744 20.0391C9.43111 20.1611 9.42895 20.2867 9.40108 20.4077C9.37321 20.5288 9.32026 20.6426 9.24566 20.742C9.20115 20.8515 9.13431 20.9504 9.04939 21.0326C8.96446 21.1148 8.86332 21.1784 8.75243 21.2193C8.64154 21.2602 8.52335 21.2776 8.4054 21.2702C8.28744 21.2628 8.17229 21.231 8.06735 21.1766C7.51683 20.9641 6.96631 20.9255 6.58964 20.3073C6.38682 19.9983 5.7011 20.0369 5.21819 20.3073C4.4745 20.6937 3.99156 20.5102 3.71148 19.7375C3.60523 19.4671 3.51831 19.3415 3.19959 19.4188C2.61044 19.5637 2.34001 19.0711 1.99231 18.7427C2.13856 18.1696 2.50367 17.6766 3.00927 17.3697C3.51487 17.0627 4.12067 16.9662 4.69663 17.1008C5.33408 17.1781 5.72041 16.7241 6.14537 16.4054C6.67476 15.9691 7.28065 15.6351 7.93215 15.4203Z" fill="#F7E098"/>
<path d="M31.7108 3.52133C31.8267 3.79177 32.0199 3.74348 32.2613 3.70484C32.7893 3.58816 33.3399 3.62844 33.8453 3.82074C33.9572 3.86014 34.06 3.92206 34.1471 4.00268C34.2342 4.08331 34.3039 4.18094 34.3519 4.28953C34.3999 4.39812 34.4251 4.51538 34.426 4.63409C34.4269 4.7528 34.4034 4.87043 34.3571 4.97974C34.3185 5.09032 34.2561 5.19108 34.1744 5.27496C34.0926 5.35883 33.9935 5.42378 33.8839 5.46521C33.7743 5.50665 33.657 5.52355 33.5402 5.51476C33.4234 5.50597 33.3099 5.4717 33.2078 5.41434C32.9861 5.30709 32.7476 5.2385 32.5028 5.21153C32.1261 5.21153 31.7687 5.2888 31.7204 5.82C31.6432 6.65061 31.3341 6.88239 30.4938 6.89205C29.9848 6.96132 29.4665 6.88776 28.9968 6.67957C28.9434 6.64685 28.8835 6.6261 28.8213 6.6187C28.759 6.6113 28.6959 6.61745 28.6363 6.63671C28.5767 6.65598 28.5219 6.68789 28.4758 6.73029C28.4296 6.7727 28.3932 6.82461 28.369 6.88241C28.2764 7.00851 28.1925 7.14082 28.1179 7.2784C28.0364 7.56335 27.8488 7.80622 27.5937 7.95712C27.3386 8.10801 27.0354 8.15546 26.7464 8.08969C26.0897 7.96414 26.0028 7.40396 25.9448 6.85344C26.1086 6.40939 26.3737 6.00966 26.7191 5.68607C27.0645 5.36247 27.4806 5.12391 27.9344 4.98938C29.2249 4.58586 30.4866 4.09539 31.7108 3.52133Z" fill="#F7E098"/>
<path d="M16.8951 10.4946C17.1269 10.7457 17.3007 10.4946 17.4745 10.4077C17.8682 10.1518 18.3199 9.99905 18.7881 9.96339C18.9812 9.96339 19.1454 10.0213 19.1937 10.2338C19.242 10.4463 19.0295 10.4463 18.9136 10.5332C17.5905 11.4508 16.5184 12.5325 16.5184 14.2999C16.5184 15.1788 16.1803 15.5169 15.3014 15.6134C15.1469 15.6134 14.9344 15.6135 14.9344 15.8163C14.9344 16.4634 14.4902 16.4151 14.0169 16.444C14.4612 17.0622 14.1135 17.6513 14.0169 18.2212C14.0057 18.2945 13.9793 18.3647 13.9394 18.4272C13.8994 18.4897 13.8468 18.5432 13.7849 18.5841C13.723 18.6251 13.6533 18.6526 13.5801 18.6649C13.507 18.6773 13.432 18.6742 13.3601 18.6558C13.0994 18.5882 12.8482 18.453 12.8869 18.1053C12.9255 17.7576 12.7034 17.5161 12.6358 17.2167C12.5708 17.0506 12.5592 16.8683 12.6024 16.6953C12.6457 16.5222 12.7417 16.367 12.8772 16.2509C13.7561 15.7101 13.1959 14.7828 13.5533 14.1164C13.8228 14.0627 14.0738 13.9402 14.2819 13.7608C14.4901 13.5814 14.6483 13.3512 14.7413 13.0927C15.1994 12.0406 15.9462 11.1398 16.8951 10.4946Z" fill="#F7E098"/>
<path d="M8.58883 29.106C8.36669 28.7776 8.09626 28.4685 8.37635 28.0339C8.46079 27.8899 8.58495 27.7732 8.73396 27.6978C8.88298 27.6225 9.05053 27.5916 9.21661 27.6089C9.80576 27.6089 10.1148 28.0049 9.84439 28.5168C9.68986 28.7969 9.84441 28.9128 9.92167 29.0964C9.47739 28.9225 9.03311 29.3765 8.58883 29.106Z" fill="#F7E098"/>
<path d="M14.722 28.0533C14.85 28.278 14.9082 28.5358 14.8893 28.7938C14.8704 29.0518 14.7752 29.2983 14.6158 29.502C14.5043 29.6442 14.3522 29.749 14.1796 29.8025C14.007 29.856 13.8223 29.8556 13.6499 29.8014C13.3993 29.7259 13.1834 29.5644 13.0403 29.3453C12.8972 29.1262 12.836 28.8636 12.8676 28.6038C12.433 28.7873 11.9887 28.9901 11.6507 28.6038C11.5441 28.4627 11.4906 28.2887 11.4994 28.1121C11.5082 27.9355 11.5789 27.7677 11.699 27.638C11.7556 27.6413 11.8123 27.632 11.865 27.6109C11.9177 27.5898 11.9651 27.5574 12.0038 27.5159C12.0426 27.4744 12.0717 27.4249 12.0891 27.3709C12.1065 27.3168 12.1118 27.2596 12.1046 27.2033C12.0467 26.6721 12.3847 26.4983 12.7904 26.2955C12.9481 26.1916 13.1327 26.1363 13.3216 26.1363C13.5104 26.1363 13.6951 26.1916 13.8528 26.2955C14.022 26.4024 14.1538 26.5593 14.2299 26.7445C14.306 26.9296 14.3227 27.1338 14.2777 27.3289C14.1715 27.7635 14.2777 28.005 14.722 28.0533Z" fill="#F7E098"/>
<path d="M27.4707 11.6053C27.1678 11.6065 26.8744 11.499 26.644 11.3023C26.4136 11.1056 26.2614 10.8327 26.2152 10.5332C26.1502 10.1777 26.211 9.8107 26.3873 9.4952C26.5635 9.1797 26.8442 8.93544 27.181 8.8044C27.3488 8.73819 27.535 8.73604 27.7042 8.79839C27.8735 8.86074 28.0138 8.98322 28.0985 9.14245C28.1468 9.23903 28.2048 9.40322 28.2724 9.41288C28.9968 9.47083 29.0064 9.90545 28.8422 10.4463C28.5814 11.2286 28.1372 11.6149 27.4707 11.6053Z" fill="#A57B13"/>
<path d="M48.9701 10.9389C48.8027 10.9378 48.6373 10.9028 48.4838 10.8359C48.3304 10.769 48.1921 10.6716 48.0774 10.5497C47.9627 10.4278 47.874 10.2839 47.8166 10.1266C47.7592 9.96939 47.7343 9.80212 47.7435 9.63499C47.7435 8.95891 48.1008 8.66916 48.8155 8.66916C48.9826 8.6728 49.1471 8.70999 49.2995 8.77851C49.4518 8.84704 49.5888 8.9455 49.7024 9.06804C49.8159 9.19059 49.9036 9.3347 49.9603 9.49183C50.017 9.64896 50.0416 9.8159 50.0325 9.9827C50.0325 10.6201 49.6848 10.9389 48.9701 10.9389Z" fill="#F7E098"/>
<path d="M18.9619 29.2509C19.0488 28.6521 19.271 28.285 19.7732 28.1691C20.2754 28.0532 20.4493 28.343 20.6135 28.7487C20.6907 28.9322 20.7873 29.3957 21.2219 29.0577C21.2631 29.018 21.3124 28.9878 21.3664 28.969C21.4204 28.9502 21.4778 28.9434 21.5347 28.9489C21.5916 28.9544 21.6466 28.9721 21.696 29.0009C21.7454 29.0297 21.7879 29.0689 21.8207 29.1157C22.0043 29.3378 21.8208 29.5406 21.7145 29.7241C21.6083 29.9076 21.3958 30.1587 21.1833 29.9849C20.9708 29.811 20.6328 29.898 20.3624 30.0622C20.2047 30.1287 20.0322 30.1521 19.8625 30.13C19.6927 30.108 19.532 30.0412 19.3965 29.9366C19.269 29.8722 19.1612 29.7744 19.0847 29.6537C19.0082 29.5329 18.9657 29.3937 18.9619 29.2509Z" fill="#F7E098"/>
<path d="M68.0548 25.8705C68.219 26.1602 68.4218 26.4403 68.2673 26.8363C68.2091 27.0412 68.08 27.2187 67.9031 27.3372C67.7262 27.4557 67.513 27.5076 67.3014 27.4835C66.6447 27.3869 66.5674 26.8653 66.5867 26.3148C66.8765 25.4745 67.2628 25.3683 68.0548 25.8705Z" fill="#F7E098"/>
<path d="M42.7502 36.7843C42.9001 36.931 42.998 37.1225 43.0294 37.3299C43.0608 37.5372 43.0238 37.7491 42.9241 37.9336C42.8441 38.0917 42.7157 38.2201 42.5576 38.3001C42.3995 38.38 42.2199 38.4073 42.0452 38.3779C41.8555 38.356 41.6818 38.261 41.561 38.1132C41.4402 37.9653 41.3817 37.7762 41.3981 37.5859C41.543 36.8133 42.0742 36.678 42.7502 36.7843Z" fill="#F7E098"/>
<path d="M62.1343 28.5652C61.6031 28.5652 61.2457 28.3527 61.2457 27.8891C61.2457 27.4255 61.2457 27.0392 61.8252 27.0971C62.4047 27.1551 62.7911 27.2226 62.7911 27.8118C62.7911 28.401 62.6076 28.5941 62.1343 28.5652Z" fill="#F7E098"/>
<path d="M10.8491 26.9812C10.7452 26.9728 10.6442 26.9427 10.5527 26.8928C10.4612 26.8429 10.3812 26.7743 10.3179 26.6915C10.3227 26.6465 10.3227 26.6012 10.3179 26.5562C10.3179 26.112 10.4048 25.7643 10.936 25.7353C11.0068 25.7193 11.0804 25.7195 11.1511 25.7359C11.2219 25.7523 11.288 25.7844 11.3446 25.8299C11.4013 25.8753 11.4469 25.933 11.4782 25.9986C11.5094 26.0641 11.5255 26.1359 11.5252 26.2086C11.6024 26.7204 11.3127 26.9136 10.8491 26.9812Z" fill="#F7E098"/>
<path d="M46.1886 36.3594C46.4686 36.3594 46.6521 36.4656 46.6715 36.7747C46.6908 37.0837 46.6039 37.2769 46.2851 37.2865C46.2184 37.2918 46.1513 37.2836 46.0877 37.2625C46.0241 37.2415 45.9654 37.2079 45.915 37.1638C45.8646 37.1197 45.8236 37.066 45.7942 37.0058C45.7649 36.9456 45.7479 36.8802 45.7443 36.8133C45.7153 36.5139 45.8891 36.369 46.1886 36.3594Z" fill="#F7E098"/>
<path d="M30.2717 36.4656C30.2659 36.7094 30.2097 36.9494 30.1067 37.1705C30.0036 37.3916 29.8559 37.5889 29.6729 37.7501C29.5741 37.8591 29.4437 37.9344 29.3 37.9656C29.1562 37.9968 29.0063 37.9822 28.8713 37.924C28.7242 37.8698 28.5967 37.7728 28.5054 37.6453C28.4141 37.5179 28.3633 37.3659 28.3594 37.2092C28.3725 36.8992 28.4601 36.597 28.6147 36.328C28.7694 36.059 28.9866 35.8312 29.2479 35.6639C29.8081 35.3935 30.291 35.7992 30.2717 36.4656Z" fill="#F7E098"/>
<path d="M44.4404 38.774C44.4449 38.869 44.429 38.9638 44.3938 39.0522C44.3586 39.1406 44.3048 39.2204 44.2362 39.2862C44.1676 39.3521 44.0856 39.4026 43.9959 39.4341C43.9062 39.4657 43.8108 39.4777 43.716 39.4693C43.6148 39.4746 43.5137 39.4575 43.42 39.4191C43.3262 39.3806 43.2421 39.3218 43.1738 39.247C43.1054 39.1722 43.0545 39.0832 43.0247 38.9864C42.9949 38.8895 42.9869 38.7873 43.0013 38.687C42.9951 38.5916 43.0099 38.496 43.0445 38.4068C43.0792 38.3177 43.1329 38.2372 43.2019 38.171C43.2709 38.1048 43.3535 38.0544 43.4439 38.0234C43.5344 37.9925 43.6306 37.9816 43.7257 37.9916C43.8264 37.988 43.9267 38.0063 44.0196 38.0454C44.1125 38.0844 44.1959 38.1431 44.2639 38.2175C44.3319 38.292 44.3829 38.3803 44.4133 38.4763C44.4438 38.5724 44.453 38.674 44.4404 38.774Z" fill="#F7E098"/>
<path d="M12.346 14.4931C12.522 14.5778 12.6901 14.678 12.8482 14.7925C12.8991 14.8281 12.9422 14.8734 12.9752 14.926C13.0082 14.9785 13.0303 15.0372 13.0402 15.0984C13.0501 15.1596 13.0476 15.2223 13.0329 15.2826C13.0182 15.3428 12.9915 15.3995 12.9545 15.4493C12.9235 15.4972 12.883 15.5382 12.8354 15.5698C12.7879 15.6014 12.7344 15.6228 12.6782 15.6328C12.622 15.6427 12.5643 15.6411 12.5089 15.6278C12.4534 15.6145 12.4012 15.5898 12.3556 15.5555C11.9599 15.3387 11.522 15.2101 11.0719 15.1784C10.6218 15.1467 10.1701 15.2128 9.74791 15.372C8.35593 15.6165 7.06263 16.2531 6.01984 17.2071C5.97999 17.2611 5.92737 17.3043 5.86669 17.333C5.80601 17.3616 5.73914 17.3748 5.67213 17.3712C4.59301 17.3195 3.53557 17.6864 2.72039 18.3954C1.90522 19.1044 1.39528 20.1007 1.29695 21.1766C1.06787 21.99 0.963678 22.8334 0.987906 23.6781C1.08099 24.325 1.3749 24.9264 1.82817 25.3972C3.03545 26.5562 4.34896 27.4834 6.13574 27.3289C6.67442 27.2655 7.22041 27.3149 7.73901 27.4738C7.88181 27.5042 8.0123 27.5765 8.11381 27.6814C8.21531 27.7864 8.28322 27.9192 8.30884 28.0629C8.33006 28.1399 8.33145 28.221 8.31288 28.2987C8.2943 28.3764 8.25637 28.4482 8.20261 28.5072C8.01911 28.6811 7.94183 28.5072 7.82593 28.3913C7.2959 28.1487 6.71863 28.0266 6.13574 28.0339C4.90881 27.9323 3.71567 27.5807 2.62979 27.0005C1.70818 26.5889 0.964129 25.8613 0.531963 24.9492C0.0997972 24.037 0.00799422 23.0004 0.273176 22.0265C0.398733 21.3504 0.524305 20.6744 0.620888 19.979C0.804394 18.5399 1.96338 17.9121 3.06442 17.2457C3.14169 17.2457 3.23828 17.1781 3.31555 17.1395C4.04957 16.7048 5.04434 17.1394 5.67213 16.502C6.3117 15.9768 7.02839 15.5533 7.79695 15.2464C8.95396 14.5859 10.2845 14.2928 11.612 14.4062C11.9404 14.4062 12.0756 14.2999 12.2301 14.0585C12.2833 13.9458 12.3623 13.8473 12.4608 13.771C12.5592 13.6946 12.6743 13.6426 12.7966 13.6191C12.9189 13.5955 13.0451 13.6012 13.1648 13.6356C13.2845 13.67 13.3945 13.7322 13.4857 13.817C14.0941 14.2227 14.4515 14.0585 14.7316 13.3534C15.1498 12.1751 15.8953 11.1405 16.8806 10.3707C17.8659 9.60094 19.0502 9.12795 20.2947 9.00721C20.3588 8.99809 20.4238 8.99809 20.4879 9.00721C20.8453 9.06516 21.4537 8.89131 21.4537 9.37422C21.4537 9.85714 20.9128 9.57704 20.6134 9.57704C19.3816 9.6388 18.1995 10.0819 17.2305 10.8449C16.2615 11.608 15.5537 12.6534 15.2048 13.8364C15.1994 13.9124 15.1705 13.9848 15.122 14.0437C15.0736 14.1025 15.008 14.1448 14.9344 14.1647C13.8044 14.5027 13.8817 14.5607 14.0845 15.7487C14.0845 16.0674 14.0845 16.2219 13.7754 16.2412C13.4663 16.2606 13.1669 16.4537 13.2442 16.8401C13.2442 17.0429 13.3118 17.2167 13.0703 17.236C12.8289 17.2553 12.7033 17.0719 12.6744 16.8594C12.6363 16.7051 12.6508 16.5424 12.7155 16.3972C12.7802 16.252 12.8915 16.1326 13.0317 16.0577C13.505 15.8549 13.4857 15.5169 13.4567 15.0919C13.4567 15.0243 13.4567 14.947 13.4567 14.8987C13.3022 14.6573 13.9106 14.4931 13.5243 14.2613C13.138 14.0295 12.7806 14.1261 12.346 14.4931Z" fill="black"/>
<path d="M33.4588 38.5808C33.5554 39.0637 33.2173 39.2955 32.9179 39.5466C32.0863 40.2063 31.0624 40.5772 30.0012 40.6033C28.9401 40.6294 27.8992 40.3094 27.0361 39.6914C26.5132 39.4117 26.0526 39.0286 25.6824 38.5654C25.3121 38.1022 25.0399 37.5685 24.8823 36.9968C24.805 36.5139 24.3897 36.4559 24.042 36.3304C23.5517 36.1453 23.1526 35.7768 22.9291 35.3027C22.7056 34.8287 22.6752 34.2863 22.8444 33.7903C22.9024 33.6067 23.0086 33.5295 23.1728 33.5488C23.337 33.5681 23.3659 33.6937 23.3659 33.8482C23.3467 34.0699 23.3467 34.2929 23.3659 34.5146C23.4528 35.1038 23.5687 35.635 24.3317 35.7605C24.5447 35.8046 24.7409 35.9077 24.898 36.058C25.0552 36.2083 25.1668 36.3997 25.2203 36.6104C25.7225 38.2813 27.152 38.9767 28.5524 39.5079C29.254 39.7509 30.0026 39.8268 30.7387 39.7295C31.4747 39.6323 32.178 39.3646 32.7924 38.9478C33.0242 38.8029 33.1884 38.6001 33.4588 38.5808Z" fill="black"/>
<path d="M49.1921 6.27394C49.1149 6.22565 49.0376 6.13872 48.97 6.14838C48.4484 6.24496 48.0911 6.14838 47.9462 5.54957C47.8786 5.29846 47.5212 5.50127 47.3571 5.32742C47.7048 4.90246 48.0621 4.85417 48.3229 5.32742C48.4967 5.59785 48.6609 5.77171 48.999 5.73308C49.0762 5.73308 49.2211 5.73307 49.2404 5.81033C49.6944 6.84377 50.7278 6.5154 51.4522 6.61198C52.6209 6.78868 53.7399 7.2072 54.7377 7.84081C55.7355 8.47442 56.5902 9.30918 57.2471 10.2918C57.3132 10.4092 57.4164 10.5013 57.5405 10.5537C57.6646 10.6062 57.8026 10.6159 57.9328 10.5815C58.1761 10.5156 58.4355 10.5474 58.6556 10.6701C58.8758 10.7928 59.0393 10.9967 59.1111 11.2383C59.2077 11.4797 59.2946 11.5763 59.5264 11.4025C59.5822 11.3609 59.6441 11.3283 59.71 11.3059C59.9514 11.19 60.2798 11.3059 60.2895 11.4604C60.3474 12.1365 61.4581 12.0979 61.2553 12.9091C61.2349 13.0114 61.1792 13.1031 61.098 13.1685C61.0168 13.2338 60.9152 13.2685 60.811 13.2665C60.5502 13.2665 60.6951 12.9768 60.6661 12.9671C60.2605 12.6967 59.8162 12.4745 59.8548 11.8854C59.768 11.8901 59.6809 11.8901 59.5941 11.8854C59.1498 11.8854 58.7345 11.8854 58.522 11.3252C58.4061 11.0354 58.0584 10.6588 57.6817 11.219C57.4886 11.4894 57.3147 11.2962 57.1795 11.0741C56.8132 10.4862 56.3893 9.93623 55.9143 9.43217C54.4445 7.90593 52.4481 6.99752 50.3318 6.89205C49.5978 6.83395 48.8597 6.85337 48.1297 6.95C47.9655 6.95 47.7724 6.99832 47.7337 6.82447C47.6951 6.65062 47.9366 6.66993 48.0428 6.61198C48.4388 6.42848 48.8638 6.54437 49.1921 6.27394Z" fill="black"/>
<path d="M19.5994 34.4373C18.9699 34.3316 18.3709 34.0902 17.844 33.73C17.317 33.3698 16.8746 32.8993 16.5474 32.3512C16.4508 32.0421 16.306 32.0325 16.0742 32.0518C14.8211 32.2016 13.5592 31.8549 12.5586 31.086C12.1037 30.7548 11.5718 30.5454 11.0133 30.4775C10.8135 30.468 10.6195 30.407 10.4503 30.3004C10.281 30.1938 10.1422 30.0452 10.0475 29.869C10.0146 29.8099 9.99423 29.7447 9.98768 29.6774C9.98112 29.6101 9.98847 29.5422 10.0093 29.4778C10.0301 29.4135 10.064 29.3541 10.1088 29.3035C10.1536 29.2528 10.2083 29.2119 10.2696 29.1833C10.54 29.0287 10.5593 29.2702 10.6559 29.4634C10.8491 29.8207 11.274 29.8787 11.6217 29.9946C12.1773 30.1588 12.6979 30.424 13.1574 30.7769C14.0959 31.4425 15.254 31.7225 16.3929 31.5592C16.615 31.5592 16.702 31.4144 16.8275 31.2888C16.8891 31.2074 16.9797 31.1529 17.0805 31.1367C17.1813 31.1205 17.2844 31.1439 17.3684 31.2019C17.5905 31.366 17.3684 31.4723 17.2911 31.6268C17.2117 31.823 17.1989 32.0399 17.2548 32.244C17.3106 32.4482 17.432 32.6284 17.6002 32.7568C18.0408 33.1569 18.5773 33.4365 19.1577 33.5684C19.738 33.7004 20.3426 33.6804 20.913 33.5102C21.3379 33.4329 22.0333 33.2398 22.1106 33.6261C22.1878 34.0124 21.4828 33.9448 21.1448 34.1283C20.6516 34.3206 20.1286 34.4252 19.5994 34.4373Z" fill="black"/>
<path d="M43.1944 3.53099C43.0962 3.0223 42.8877 2.54132 42.5835 2.12193C42.2793 1.70253 41.8869 1.35489 41.4339 1.10352C40.9809 0.85215 40.4783 0.703152 39.9615 0.667001C39.4446 0.63085 38.9262 0.708425 38.4426 0.89428C37.8759 1.00804 37.301 1.07586 36.7234 1.09709C35.2287 1.36693 33.8342 2.03415 32.6862 3.02874C32.4531 3.26857 32.24 3.52699 32.0488 3.80142C31.9812 3.898 32.0005 4.11046 31.7977 4.02354C31.5949 3.93662 31.6818 3.74347 31.7494 3.61791C31.9608 3.22283 32.2499 2.87459 32.5993 2.59414C34.1791 1.26061 36.1552 0.486456 38.2204 0.392062C38.6068 0.392062 38.9931 0.169922 39.3794 0.150606C40.2638 0.0965171 41.1441 0.308683 41.9068 0.759728C42.6694 1.21077 43.2794 1.87999 43.658 2.68106C43.7836 2.95149 43.8415 3.12535 44.2279 3.0191C44.5449 2.93244 44.8824 2.96164 45.1798 3.10149C45.4772 3.24134 45.715 3.48265 45.8504 3.78208C45.9953 4.04286 46.1015 4.16842 46.4492 4.12013C46.5434 4.09751 46.6416 4.09806 46.7356 4.12175C46.8295 4.14543 46.9162 4.19155 46.9884 4.25612C47.0606 4.3207 47.116 4.40181 47.1499 4.49251C47.1839 4.58321 47.1953 4.68079 47.1833 4.77688C47.1833 4.93141 47.1833 5.1922 46.9515 5.21151C46.7197 5.23083 46.7004 5.0087 46.71 4.82519C46.71 4.48715 46.4879 4.41955 46.2078 4.43887C46.058 4.4741 45.9005 4.44936 45.7687 4.36996C45.637 4.29055 45.5415 4.16276 45.5027 4.0139C45.4371 3.86465 45.3411 3.73067 45.2209 3.62042C45.1008 3.51017 44.9591 3.42604 44.8048 3.37339C44.6504 3.32074 44.4869 3.3007 44.3244 3.31453C44.1619 3.32835 44.004 3.37573 43.8608 3.45371C43.754 3.50578 43.6368 3.53285 43.518 3.53285C43.3992 3.53285 43.2819 3.50578 43.1751 3.45371L43.1944 3.53099Z" fill="black"/>
<path d="M39.0801 43.5258C38.1096 43.4978 37.1634 43.2155 36.3362 42.707C35.5091 42.1985 34.83 41.4817 34.3669 40.6283C34.2812 40.5008 34.216 40.3607 34.1737 40.213C34.1737 40.0585 34.0095 39.8267 34.2413 39.7397C34.4731 39.6528 34.4635 39.9232 34.5214 40.0295C35.9509 42.5696 39.9687 43.7769 42.4798 41.5458C42.6826 41.3623 42.9241 41.1595 43.1752 41.4589C43.4263 41.7583 43.1752 41.9321 42.9627 42.1156C42.4422 42.5976 41.8306 42.9706 41.1638 43.2128C40.497 43.455 39.7886 43.5614 39.0801 43.5258Z" fill="black"/>
<path d="M67.7553 33.1432C67.3014 32.8438 66.944 33.1432 66.5384 33.3364C66.2391 33.4674 65.9047 33.4948 65.588 33.4144C65.2714 33.3339 64.9907 33.1501 64.7902 32.8921C64.713 32.7665 64.6647 32.6409 64.7902 32.525C64.9158 32.4091 64.9834 32.525 65.08 32.5733C65.3655 32.7319 65.6946 32.7941 66.0182 32.7506C66.3419 32.7071 66.6429 32.5602 66.8764 32.3319C66.9923 32.2256 67.1469 32.1387 67.3014 32.2739C67.7553 32.6313 68.132 32.3899 68.5183 32.1291C68.6794 32.0083 68.8507 31.9016 69.0302 31.8103C69.5488 31.6004 70.0069 31.2643 70.3627 30.8326C70.7186 30.4008 70.9611 29.887 71.0681 29.3378C71.1454 28.9901 71.0681 28.2464 71.7055 28.4686C72.343 28.6907 71.7055 29.1446 71.5993 29.4344C71.365 30.208 70.9594 30.9188 70.4126 31.5141C69.8658 32.1093 69.192 32.5737 68.4411 32.8727C68.2178 32.9758 67.9888 33.0661 67.7553 33.1432Z" fill="black"/>
<path d="M60.9366 35.0265C60.9849 34.5147 61.3036 34.2925 61.4871 34.0028C61.7365 33.6591 61.8778 33.2488 61.8928 32.8244C61.8928 31.8586 61.574 31.5882 60.6468 31.6558H60.3281C60.8014 30.9217 60.3281 30.4871 59.8935 30.0429C59.739 29.898 59.4589 29.7724 59.6617 29.5117C59.8645 29.2509 60.1156 29.4537 60.2412 29.5889C60.8121 30.3529 61.4848 31.0353 62.2405 31.6172C62.3467 31.6848 62.3853 31.8876 62.4433 32.0325C62.7041 32.6409 62.9455 32.7278 63.4864 32.3898C63.6602 32.2739 63.8244 32.0808 64.0079 32.2932C64.1914 32.5057 64.0079 32.6699 63.921 32.8438C63.8446 32.9951 63.7246 33.12 63.5766 33.2027C63.4286 33.2853 63.2593 33.3217 63.0904 33.3073C62.6751 33.2397 62.5109 33.3846 62.3467 33.742C62.0597 34.3359 61.5546 34.7961 60.9366 35.0265Z" fill="black"/>
<path d="M69.9381 17.0332C70.7494 16.2026 72.8356 16.8304 73.1543 17.7093C73.1865 17.8462 73.2716 17.9648 73.3911 18.0391C73.5107 18.1133 73.6547 18.1371 73.7918 18.1053C74.1251 18.0865 74.4564 18.1686 74.7424 18.3409C75.0283 18.5132 75.2558 18.7677 75.395 19.0711C75.5206 19.3512 75.5592 19.4864 75.9455 19.3126C76.3319 19.1387 77.0273 19.0035 77.2204 19.7761C77.2784 19.979 77.4522 19.9693 77.5874 20.0176C77.7364 20.0698 77.8669 20.1643 77.963 20.2895C78.0591 20.4148 78.1165 20.5653 78.1283 20.7227C78.1427 20.7844 78.1431 20.8485 78.1296 20.9103C78.116 20.9722 78.0888 21.0302 78.0499 21.0802C78.0111 21.1302 77.9615 21.1709 77.9049 21.1992C77.8482 21.2276 77.786 21.243 77.7226 21.2442C77.3653 21.2442 77.5295 20.9931 77.5488 20.8096C77.5488 20.4619 77.4426 20.317 77.0756 20.404C76.8824 20.404 76.6216 20.5102 76.7762 20.1238C76.8341 19.9693 76.9114 19.7375 76.6989 19.6602C76.5838 19.6047 76.4528 19.5917 76.329 19.6235C76.2053 19.6553 76.0968 19.7299 76.0228 19.8341C75.7814 20.2204 75.6268 20.1335 75.4337 19.8341C75.3101 19.6484 75.1746 19.471 75.028 19.3029C74.7479 18.9069 74.3133 18.395 73.9366 18.5303C73.0384 18.8393 73.0771 18.086 72.7294 17.7383C72.4555 17.474 72.126 17.2745 71.7651 17.1541C71.4041 17.0338 71.0208 16.9958 70.6432 17.0429C70.4133 17.1163 70.1658 17.1129 69.9381 17.0332Z" fill="black"/>
<path d="M58.9277 34.2925C58.9277 34.4953 58.9277 34.6885 58.9277 34.8913C58.9277 35.0941 58.6187 35.4418 58.9857 35.5867C59.1614 35.6592 59.3539 35.6814 59.5416 35.6507C59.7292 35.62 59.9046 35.5376 60.0481 35.4128C60.2413 35.2486 60.3765 34.9493 60.6179 35.2487C60.6634 35.3078 60.6935 35.3772 60.7057 35.4508C60.7179 35.5244 60.7119 35.5998 60.688 35.6704C60.6641 35.7411 60.6232 35.8048 60.5689 35.8559C60.5145 35.907 60.4485 35.9439 60.3765 35.9634C59.8742 36.1565 59.4686 36.9292 58.7829 36.2918C58.5897 36.1179 58.5511 36.4076 58.4835 36.5139C58.155 37.0467 57.7211 37.5068 57.2086 37.8661C57.054 37.982 56.8802 38.0399 56.7353 37.8661C56.5904 37.6922 56.7353 37.5666 56.8512 37.4604C57.1542 37.1976 57.4412 36.917 57.7108 36.6201C58.0258 36.2715 58.2434 35.846 58.3417 35.3865C58.4401 34.9271 58.4157 34.4498 58.271 34.0028C58.1937 33.7903 58.0585 33.5971 58.271 33.3846C58.3212 33.3239 58.3902 33.2815 58.467 33.2641C58.5439 33.2466 58.6244 33.255 58.6959 33.288C58.9857 33.3942 58.9953 33.6454 59.005 33.8965V34.3022L58.9277 34.2925Z" fill="black"/>
<path d="M56.6001 38.0399C56.2617 38.4102 55.8477 38.7035 55.3862 38.9002C54.9246 39.0968 54.4263 39.1921 53.9248 39.1796C53.8835 39.1891 53.8405 39.1891 53.7992 39.1796C53.5159 39.0934 53.2104 39.1171 52.9438 39.2459C52.6771 39.3748 52.4687 39.5994 52.3602 39.8749C52.2327 40.1289 52.0229 40.3322 51.765 40.4515C51.5072 40.5708 51.2164 40.599 50.9404 40.5317C50.6989 40.4834 50.4864 40.3868 50.5251 40.1164C50.5637 39.846 50.7762 39.9426 50.9597 39.9716C51.6841 40.0778 52.0801 39.6142 52.3795 39.0637C52.563 38.7256 52.7754 38.4456 53.1521 38.4069C54.3014 38.3007 55.4508 38.2524 56.6001 38.0399Z" fill="black"/>
<path d="M30.3392 38.0206C30.571 37.7501 30.6869 37.3348 31.1312 37.528C31.3076 37.6334 31.4458 37.7923 31.5257 37.9816C31.6056 38.1709 31.623 38.3809 31.5755 38.5808C31.5755 39.0347 31.1505 38.9961 30.8704 38.8029C30.6703 38.6341 30.4315 38.5175 30.1753 38.4635C29.9191 38.4096 29.6535 38.42 29.4024 38.4938C29.268 38.5189 29.1292 38.505 29.0026 38.4536C28.8759 38.4023 28.7666 38.3157 28.6877 38.2041C28.5016 37.9271 28.4023 37.6009 28.4023 37.2672C28.4023 36.9335 28.5016 36.6074 28.6877 36.3304C28.8615 36.1469 29.0643 36.06 29.2768 36.2242C29.4893 36.3883 29.2768 36.5428 29.1706 36.6781C29.0643 36.8133 29.016 37.2189 28.9967 37.5087C28.9847 37.5975 29.0017 37.6878 29.0452 37.7661C29.0887 37.8445 29.1564 37.9066 29.2382 37.9433C29.2805 37.9597 29.3259 37.9669 29.3712 37.9643C29.4165 37.9618 29.4608 37.9496 29.501 37.9286C29.5412 37.9076 29.5765 37.8782 29.6045 37.8424C29.6325 37.8067 29.6525 37.7653 29.6631 37.7212C29.7404 37.5377 29.8563 37.4024 30.0591 37.4507C30.2619 37.499 30.1847 37.7984 30.3392 38.0206Z" fill="black"/>
<path d="M79.9345 21.3987C79.5771 21.8527 79.9345 22.1617 80.2242 22.5577C80.5132 23.1385 80.5681 23.8081 80.3776 24.4282C80.187 25.0483 79.7657 25.5715 79.2004 25.8898C79.0362 25.9671 78.8914 25.9961 78.7755 25.8898C78.6596 25.7836 78.7755 25.5518 78.901 25.4455C79.2638 25.1829 79.5749 24.8555 79.8186 24.4797C79.9422 24.3143 80.0311 24.1257 80.0802 23.9251C80.1292 23.7245 80.1373 23.5162 80.1039 23.3124C80.0706 23.1086 79.9964 22.9136 79.886 22.7392C79.7756 22.5647 79.6311 22.4143 79.4612 22.2969C79.1908 22.0844 79.2198 22.0941 79.355 21.7561C79.4129 21.6112 79.355 21.2732 79.2874 21.2732C78.8044 21.2732 78.959 20.6261 78.505 20.6067C78.3408 20.6067 78.3988 20.346 78.5823 20.2784C78.7658 20.2108 79.9441 21.0027 79.9345 21.3987Z" fill="black"/>
<path d="M62.6171 14.0102C63.1584 13.7442 63.7475 13.5892 64.3496 13.5543C64.9517 13.5195 65.5547 13.6055 66.1231 13.8074C66.9891 14.0395 67.7555 14.5482 68.3058 15.2561C68.6342 15.6811 69.2716 15.6618 69.7256 15.8936C70.025 16.0481 70.1602 16.1833 70.0636 16.4924C70.0636 16.6179 69.8608 16.7435 69.7545 16.6372C69.5818 16.3879 69.3429 16.1917 69.0649 16.0706C68.7868 15.9495 68.4805 15.9083 68.1803 15.9515C68.132 15.9515 68.0354 15.8453 68.0064 15.768C67.5911 14.4448 66.3742 14.3482 65.3118 14.0295C64.4227 13.8541 63.5086 13.8476 62.6171 14.0102Z" fill="black"/>
<path d="M21.6373 8.39873C21.6373 7.10452 22.3037 6.31256 23.3081 6.33188H23.3757C23.9293 6.65609 24.5596 6.82618 25.2011 6.82446C25.4716 6.82446 25.4812 7.37495 25.7227 7.61641C25.7903 7.67436 25.7227 7.77095 25.6068 7.79992C25.5331 7.83433 25.4498 7.84255 25.3708 7.82323C25.2918 7.80392 25.2217 7.75823 25.1722 7.69369C24.7955 6.98864 24.4092 7.28805 24.0132 7.69369C23.9263 7.78062 23.82 7.86754 23.7234 7.78061C23.6268 7.69369 23.6558 7.58745 23.6558 7.48121C23.6558 7.18181 23.7717 6.79546 23.3468 6.70853C23.1485 6.67324 22.9441 6.70085 22.7623 6.78744C22.5804 6.87403 22.4302 7.01527 22.3326 7.19145C22.1037 7.60005 21.9996 8.06681 22.0332 8.53396C22.0332 8.74644 22.2071 9.14243 21.8884 9.14243C21.5696 9.14243 21.6566 8.73678 21.6373 8.47601V8.39873Z" fill="black"/>
<path d="M28.5719 4.81554C28.8906 4.97007 29.0162 4.68999 29.1707 4.5258C29.4262 4.28642 29.7332 4.10881 30.068 4.00667C30.4029 3.90453 30.7568 3.88057 31.1024 3.93664C31.2762 3.93664 31.4404 4.01391 31.45 4.18776C31.4597 4.36161 31.2472 4.40023 31.112 4.44852C31.003 4.4629 30.8926 4.4629 30.7836 4.44852C30.6486 4.45819 30.513 4.45819 30.378 4.44852C29.5957 4.33262 29.2963 5.34676 28.823 5.31779C28.5082 5.28615 28.1905 5.33514 27.8999 5.46018C27.6093 5.58522 27.3553 5.78217 27.1618 6.03249C26.961 6.21629 26.8255 6.46034 26.7755 6.72788C26.7755 6.96934 26.6403 7.05624 26.4278 6.97898C26.2153 6.90171 26.2153 6.70855 26.2636 6.53471C26.4652 6.07189 26.7843 5.66979 27.1892 5.36825C27.5941 5.0667 28.0707 4.87617 28.5719 4.81554Z" fill="black"/>
<path d="M27.8087 9.12309C27.4648 9.46858 27.2413 9.9156 27.1713 10.398C27.1442 10.4736 27.1408 10.5557 27.1615 10.6334C27.1822 10.711 27.226 10.7805 27.2871 10.8326C27.4513 10.9582 27.6059 10.8326 27.7121 10.7747C27.9981 10.622 28.2495 10.4119 28.4505 10.1577C28.6516 9.90342 28.7981 9.6104 28.8808 9.29696C28.8808 9.14243 28.8808 9.0072 29.0836 9.01686C29.2864 9.02652 29.412 9.01685 29.4313 9.24865C29.4754 9.41969 29.4754 9.59916 29.4313 9.7702C29.2867 10.147 29.0613 10.4876 28.771 10.7679C28.4806 11.0482 28.1324 11.2615 27.7508 11.3928C27.1423 11.5859 26.7849 11.2865 26.7849 10.6394C26.7494 10.3066 26.8327 9.97182 27.02 9.69437C27.2073 9.41691 27.4867 9.21457 27.8087 9.12309Z" fill="black"/>
<path d="M73.7629 28.8452H73.4924C73.2606 28.8452 72.913 28.9032 72.913 28.5748C72.913 28.2464 73.251 28.3044 73.4538 28.3333C74.4776 28.5072 75.3178 27.8601 76.274 27.6959C76.9308 27.58 77.1433 26.8074 77.3171 26.1796C77.3171 26.0057 77.1819 25.7256 77.5199 25.7449C77.583 25.7457 77.6449 25.7627 77.6995 25.7944C77.7541 25.826 77.7996 25.8712 77.8316 25.9256C77.8637 25.98 77.8812 26.0417 77.8824 26.1048C77.8836 26.1679 77.8685 26.2302 77.8386 26.2858C77.5682 26.9908 77.3074 27.8312 76.5155 28.0243C75.78 28.3548 75.0131 28.6104 74.2265 28.7873C74.071 28.7986 73.9163 28.8179 73.7629 28.8452Z" fill="black"/>
<path d="M49.8973 38.996C49.8828 38.9779 49.8644 38.9633 49.8435 38.9532C49.8226 38.9432 49.7997 38.938 49.7765 38.938C49.7533 38.938 49.7305 38.9432 49.7096 38.9532C49.6887 38.9633 49.6703 38.9779 49.6558 38.996C49.395 39.3824 49.424 39.9619 48.7866 40.0874C48.7093 40.0874 48.7866 40.2999 48.9025 40.3482C49.0184 40.3964 49.2019 40.6089 49.0763 40.8311C49.024 40.9048 48.9544 40.9645 48.8735 41.005C48.7927 41.0454 48.7031 41.0653 48.6127 41.0629C48.5006 41.0727 48.3883 41.0472 48.2913 40.9901C48.1944 40.9329 48.1177 40.847 48.0719 40.7442C47.9982 40.5652 47.98 40.3682 48.0196 40.1788C48.0592 39.9894 48.1548 39.8162 48.294 39.6817C48.7962 39.1795 48.9025 38.1944 49.8876 38.2813C49.9567 38.2822 50.0247 38.2976 50.0875 38.3265C50.1502 38.3554 50.2061 38.3971 50.2517 38.449C50.2972 38.501 50.3313 38.5618 50.3518 38.6278C50.3723 38.6937 50.3787 38.7633 50.3705 38.8319C50.3319 39.083 50.1098 39.1023 49.8973 38.996Z" fill="black"/>
<path d="M15.2241 30.2843C15.1468 29.84 14.973 29.5213 14.5094 29.502C14.0458 29.4827 14.1037 29.2509 14.2776 29.0191C14.6349 28.5458 14.8861 28.1885 13.9782 28.1305C13.6305 28.1305 13.5339 27.8311 13.8623 27.5897C14.1907 27.3482 14.21 27.3289 14.1134 27.0488C14.1134 26.9426 13.8526 26.7784 14.1134 26.6818C14.1515 26.6716 14.1912 26.669 14.2302 26.6741C14.2693 26.6793 14.3069 26.6921 14.341 26.7119C14.3751 26.7316 14.405 26.7578 14.4289 26.7891C14.4528 26.8204 14.4703 26.8562 14.4804 26.8942C14.5639 27.3145 14.7848 27.695 15.1082 27.976C15.117 27.9957 15.1215 28.0171 15.1215 28.0387C15.1215 28.0604 15.117 28.0818 15.1082 28.1015C15.0074 28.3734 14.9857 28.6683 15.0455 28.952C15.1053 29.2358 15.2443 29.4968 15.4462 29.7048C15.6974 29.9173 15.4656 30.1104 15.2241 30.2843Z" fill="black"/>
<path d="M74.999 25.3876C75.5978 25.291 75.9648 25.0785 75.8876 24.4217C75.8876 24.1803 75.9552 24.0934 76.2546 24.1417C76.3905 24.1713 76.5316 24.1675 76.6657 24.1306C76.7998 24.0937 76.923 24.0248 77.0246 23.9298C77.1263 23.8348 77.2033 23.7166 77.2492 23.5853C77.2951 23.454 77.3084 23.3135 77.288 23.1758C77.288 22.9537 77.288 22.8281 77.4908 22.7798C77.6937 22.7315 77.8385 22.8958 77.8965 23.1179C77.9576 23.4424 77.8913 23.778 77.7114 24.055C77.5316 24.332 77.252 24.529 76.9307 24.6052C76.8203 24.6334 76.7192 24.6902 76.6378 24.7699C76.5564 24.8497 76.4975 24.9494 76.4671 25.0592C76.4213 25.2046 76.3382 25.3353 76.2259 25.4384C76.1137 25.5414 75.9764 25.6132 75.8277 25.6465C75.679 25.6797 75.5242 25.6733 75.3787 25.6279C75.2333 25.5825 75.1023 25.4996 74.999 25.3876Z" fill="black"/>
<path d="M67.8134 26.0927C68.4702 25.9478 68.7793 26.2182 68.7793 26.8267C68.757 27.1529 68.6103 27.4581 68.3694 27.6792C68.1285 27.9003 67.8119 28.0204 67.485 28.0147C67.3423 27.9881 67.2063 27.9334 67.085 27.8536C66.9636 27.7739 66.8595 27.6707 66.7785 27.5501C66.6976 27.4296 66.6415 27.2942 66.6135 27.1517C66.5856 27.0092 66.5864 26.8626 66.6158 26.7204C66.6641 26.4886 66.7607 26.2375 67.0311 26.2955C67.3015 26.3534 67.0311 26.5852 67.0311 26.7204C66.9965 26.8624 67.0158 27.0122 67.0854 27.1407C67.155 27.2692 67.2699 27.3673 67.4078 27.4159C67.4583 27.4398 67.5132 27.4533 67.5691 27.4556C67.625 27.4578 67.6808 27.4488 67.7331 27.4289C67.7855 27.4091 67.8332 27.3789 67.8736 27.3401C67.9139 27.3013 67.946 27.2548 67.9679 27.2033C68.1321 26.9522 68.3446 26.6818 68.0935 26.3534C67.9873 26.2568 67.7748 26.2955 67.8134 26.0927Z" fill="black"/>
<path d="M46.372 40.9663C46.372 40.7345 45.976 40.7635 46.1112 40.551C46.2465 40.3385 46.4976 40.3675 46.71 40.4641C46.9225 40.5607 47.135 40.7635 47.0481 41.0436C46.985 41.2487 46.867 41.4326 46.707 41.5756C46.547 41.7186 46.3511 41.8151 46.1402 41.8548C45.9365 41.9245 45.7177 41.938 45.5069 41.8938C45.2961 41.8496 45.1012 41.7494 44.9426 41.6038C44.868 41.5335 44.8182 41.4408 44.8008 41.3398C44.7834 41.2388 44.7993 41.1348 44.846 41.0436C44.9716 40.8118 45.1744 40.8794 45.3675 40.9856C45.5243 41.0631 45.6973 41.1018 45.8721 41.0984C46.0469 41.095 46.2184 41.0497 46.372 40.9663Z" fill="black"/>
<path d="M9.67071 28.4686C9.32301 28.0822 9.01395 28.6038 8.70488 28.3333C8.73569 28.2265 8.79201 28.1287 8.86903 28.0485C8.94604 27.9682 9.04143 27.9079 9.14694 27.8728C9.25245 27.8376 9.36494 27.8286 9.4747 27.8466C9.58446 27.8646 9.68817 27.909 9.77693 27.976C10.2309 28.2271 10.0957 28.6424 9.85421 29.0191C9.40994 29.7048 8.75318 29.84 8.34753 29.3185C8.23163 29.164 8.0964 28.9901 8.27025 28.7776C8.4441 28.5652 8.57931 28.5458 8.78213 28.71C9.2071 29.0481 9.36164 28.6134 9.67071 28.4686Z" fill="black"/>
<path d="M4.68688 24.8178C4.56328 24.8715 4.4298 24.8986 4.29504 24.8976C4.16029 24.8967 4.02725 24.8675 3.90445 24.812C3.78164 24.7565 3.67179 24.676 3.58199 24.5755C3.49219 24.475 3.42441 24.3568 3.38301 24.2286C3.23801 23.9389 3.17405 23.6155 3.19785 23.2925C3.22165 22.9694 3.33235 22.6588 3.51824 22.3935C3.54028 22.3547 3.56981 22.3206 3.6051 22.2933C3.6404 22.2659 3.68075 22.2458 3.72386 22.2341C3.76696 22.2224 3.81195 22.2194 3.85623 22.2252C3.9005 22.2311 3.94319 22.2456 3.98182 22.268C4.17498 22.3646 4.07843 22.5287 4.03979 22.6833C3.97524 22.9403 3.93002 23.2018 3.90456 23.4656C3.86986 23.7454 3.9275 24.0289 4.06871 24.273C4.20992 24.5171 4.42698 24.7084 4.68688 24.8178Z" fill="black"/>
<path d="M49.9649 10.369C50.0048 10.4543 50.0249 10.5475 50.0239 10.6417C50.0228 10.7358 50.0006 10.8285 49.9589 10.9129C49.9171 10.9973 49.8569 11.0713 49.7828 11.1293C49.7086 11.1872 49.6223 11.2278 49.5303 11.2479C49.3081 11.354 49.0578 11.3859 48.8161 11.3389C48.5744 11.292 48.3542 11.1687 48.1878 10.9872C48.0093 10.7729 47.8925 10.514 47.8499 10.2384C47.8074 9.9627 47.8407 9.68066 47.9464 9.42252C47.957 9.37217 47.9797 9.32514 48.0125 9.28547C48.0454 9.2458 48.0873 9.21465 48.1347 9.19471C48.1822 9.17478 48.2338 9.16664 48.2851 9.17099C48.3364 9.17533 48.3859 9.19204 48.4293 9.21968C48.6707 9.33558 48.4293 9.47081 48.4293 9.59636C48.3436 9.77903 48.3257 9.98621 48.3788 10.1808C48.4319 10.3755 48.5525 10.5449 48.719 10.6588C48.8184 10.7265 48.9307 10.7728 49.0488 10.795C49.167 10.8171 49.2885 10.8144 49.4055 10.7872C49.5226 10.7599 49.6328 10.7087 49.7291 10.6368C49.8254 10.5648 49.9057 10.4736 49.9649 10.369Z" fill="black"/>
<path d="M55.953 12.9091C56.1269 13.2375 56.349 13.4403 56.1848 13.7301C56.145 13.7985 56.0835 13.8518 56.0101 13.8816C55.9366 13.9113 55.8554 13.9158 55.7791 13.8943C55.6738 13.8797 55.5749 13.8349 55.4944 13.7654C55.4139 13.6958 55.3553 13.6044 55.3257 13.5023C55.2961 13.4001 55.2967 13.2915 55.3274 13.1897C55.3582 13.0878 55.4178 12.9971 55.4991 12.9285C55.6495 12.8014 55.7706 12.6431 55.854 12.4647C55.9373 12.2863 55.981 12.092 55.982 11.895C55.9957 11.772 56.0424 11.6549 56.1172 11.5563C56.192 11.4577 56.2922 11.3812 56.407 11.3348C56.5518 11.2672 56.7353 11.2286 56.8416 11.3348C56.9478 11.4411 56.8416 11.6053 56.6967 11.6825C56.5518 11.7598 56.4456 12.1268 56.5229 12.32C56.7353 12.9285 56.6001 13.1216 55.953 12.9091Z" fill="black"/>
<path d="M43.1751 3.51167C43.1075 3.65654 43.291 3.96563 42.9047 3.89802C42.7914 3.88905 42.6781 3.91472 42.5798 3.97165C42.4815 4.02857 42.4028 4.11404 42.3542 4.21673C42.0837 4.69964 41.9099 5.2888 41.1372 5.06666C41.031 5.06666 40.8571 5.19221 40.8668 5.39504C40.8764 5.59786 40.8668 5.69443 40.6543 5.62682C40.4418 5.55922 40.3356 5.44333 40.4225 5.2212C40.4593 5.0663 40.5431 4.92657 40.6624 4.82111C40.7817 4.71565 40.9307 4.6496 41.0889 4.63203C41.4753 4.63203 41.6008 4.40024 41.7843 4.12981C41.9079 3.87693 42.1185 3.67712 42.3776 3.56711C42.6366 3.4571 42.9267 3.44429 43.1944 3.531L43.1751 3.51167Z" fill="black"/>
<path d="M54.369 36.5718C54.383 36.9091 54.3028 37.2435 54.1372 37.5377C54.0503 37.6729 53.9344 37.8081 53.7509 37.7308C53.6754 37.7065 53.6126 37.6531 53.5763 37.5825C53.5401 37.5118 53.5334 37.4297 53.5577 37.3541C53.6655 37.1078 53.7 36.8356 53.6572 36.5701C53.6143 36.3047 53.496 36.0571 53.3163 35.8571C53.2294 35.7702 53.3163 35.635 53.3935 35.577C53.4756 35.5151 53.5757 35.4817 53.6785 35.4817C53.7813 35.4817 53.8813 35.5151 53.9634 35.577C54.1157 35.6897 54.2341 35.8421 54.3056 36.0176C54.3772 36.193 54.3991 36.3848 54.369 36.5718Z" fill="black"/>
<path d="M41.9872 38.3006C42.2769 38.3586 42.3059 37.8177 42.6149 38.0978C42.6702 38.1368 42.7101 38.1938 42.7277 38.2591C42.7454 38.3243 42.7396 38.3937 42.7115 38.4552C42.6053 38.716 42.4701 38.9381 42.1514 38.9381C41.6008 38.9381 41.4077 38.629 41.4077 38.1268C41.4077 37.6245 41.7361 37.0161 42.161 37.0547C42.2297 37.0523 42.2974 37.0715 42.3546 37.1097C42.4117 37.1478 42.4555 37.2029 42.4797 37.2672C42.4797 37.4121 42.3638 37.4024 42.2576 37.4411C41.7554 37.6149 41.9968 37.9916 41.9872 38.3006Z" fill="black"/>
<path d="M13.534 26.3051C13.534 26.479 13.4278 26.5273 13.3409 26.5176C12.5103 26.4114 12.6744 26.9909 12.6744 27.4835C12.6744 27.4835 12.6744 27.4835 12.6744 27.5414C12.4716 27.9374 11.8632 28.1112 12.037 28.7197C11.95 28.7403 11.8585 28.7293 11.7789 28.6886C11.6992 28.6479 11.6367 28.5802 11.6024 28.4976C11.5385 28.378 11.5171 28.2403 11.5416 28.1069C11.5662 27.9736 11.6353 27.8525 11.7376 27.7635C12.0919 27.47 12.3201 27.0517 12.375 26.5949C12.5103 26.1216 12.8869 26.0926 13.2926 26.1699C13.4085 26.1699 13.534 26.2762 13.534 26.3051Z" fill="black"/>
<path d="M38.2204 38.9284C38.0662 39.0281 37.9334 39.1574 37.8298 39.309C37.7262 39.4606 37.6538 39.6313 37.6169 39.8111C37.5801 39.991 37.5794 40.1764 37.6151 40.3565C37.6507 40.5366 37.7218 40.7078 37.8244 40.8601C37.6756 40.8378 37.5336 40.7826 37.4087 40.6986C37.2839 40.6145 37.1793 40.5038 37.1025 40.3743C37.0258 40.2449 36.9788 40.1 36.965 39.9501C36.9512 39.8003 36.971 39.6492 37.0228 39.5079C37.187 38.9188 37.5057 38.7256 38.2204 38.9284Z" fill="black"/>
<path d="M42.8854 39.4693C42.8854 39.1023 43.0013 38.8899 43.2717 38.8222C43.5421 38.7546 43.7353 38.8223 43.716 39.1313C43.716 39.1893 43.716 39.2665 43.7932 39.2762C43.8705 39.2858 44.2665 39.0347 44.2086 39.4114C44.1848 39.5699 44.1078 39.7155 43.9901 39.8244C43.8725 39.9332 43.7213 39.9988 43.5614 40.0102C43.4288 40.0353 43.2917 40.0134 43.1735 39.9481C43.0554 39.8829 42.9637 39.7784 42.9143 39.6528C42.8956 39.5934 42.8859 39.5316 42.8854 39.4693Z" fill="black"/>
<path d="M20.1596 30.1781C20.0437 30.5837 19.7636 30.4872 19.5318 30.3616C19.2816 30.1381 19.1045 29.8444 19.0236 29.5189C18.9426 29.1933 18.9615 28.8509 19.0779 28.5362C19.1455 28.4203 19.2131 28.2851 19.3773 28.3237C19.5415 28.3624 19.4739 28.5458 19.4835 28.6617C19.4375 29.0423 19.4907 29.4282 19.6381 29.7821C19.7636 30.0042 19.8795 30.2264 20.1789 30.207L20.1596 30.1781Z" fill="black"/>
<path d="M5.962 24.9143C5.73412 24.9334 5.50624 24.8777 5.31282 24.7557C5.1194 24.6337 4.97094 24.4521 4.88992 24.2383C4.83937 24.1026 4.83369 23.9544 4.87368 23.8154C4.91366 23.6763 4.99722 23.5537 5.11207 23.4656C5.17456 23.3864 5.26218 23.3307 5.36048 23.3079C5.45879 23.2851 5.56192 23.2964 5.65293 23.34C5.85575 23.4559 5.74951 23.6491 5.65293 23.8037C5.40181 24.2093 5.71088 24.499 5.962 24.9143Z" fill="black"/>
<path d="M11.4864 26.9812C11.3467 27.0847 11.1774 27.1406 11.0035 27.1406C10.8296 27.1406 10.6603 27.0847 10.5206 26.9812C10.4035 26.9122 10.312 26.8072 10.2598 26.6818C10.2075 26.5564 10.1974 26.4174 10.2308 26.2858C10.2888 26.0347 10.4143 25.8222 10.7137 25.8125C10.8463 25.7964 10.9808 25.8199 11.1001 25.8801C11.2256 26.0057 11.0518 26.0926 10.9841 26.1989C10.6364 26.8267 11.2932 26.7011 11.4864 26.9812Z" fill="black"/>
<path d="M73.0481 25.5518C73.0837 25.3768 73.1355 25.2054 73.2026 25.0399C73.2992 24.8371 73.4731 24.6246 73.7048 24.7115C73.9366 24.7984 73.8111 25.0302 73.7821 25.2234C73.7581 25.4869 73.7581 25.752 73.7821 26.0154C73.7821 26.141 74.0139 26.2955 73.7821 26.3921C73.5503 26.4887 73.4924 26.392 73.3861 26.2278C73.2252 26.03 73.1098 25.7992 73.0481 25.5518Z" fill="black"/>
<path d="M62.0762 12.5325C62.2312 12.5161 62.3876 12.5437 62.5276 12.612C62.6677 12.6803 62.7857 12.7866 62.8682 12.9188C62.9435 13.0022 62.9852 13.1106 62.9852 13.223C62.9852 13.3355 62.9435 13.4439 62.8682 13.5273C62.646 13.7398 62.5205 13.5273 62.4046 13.3824C62.2887 13.2375 62.1438 13.2279 62.0086 13.1699C61.8734 13.112 61.4774 13.2279 61.5354 12.8705C61.5933 12.5132 61.8251 12.5421 62.0762 12.5325Z" fill="black"/>
<path d="M38.5779 40.4351C38.5616 40.2922 38.595 40.148 38.6723 40.0267C38.7497 39.9054 38.8664 39.8143 39.0028 39.7687C39.1863 39.7011 39.3795 39.7687 39.3602 39.9426C39.2876 40.3027 39.2876 40.6738 39.3602 41.0339C39.3602 41.2368 39.1477 41.1499 39.0028 41.1112C38.6455 41.0243 38.5682 40.7635 38.5779 40.4351Z" fill="black"/>
<path d="M20.1788 30.207C20.0339 29.84 19.8601 29.4731 20.1788 29.106C20.2325 29.0354 20.3095 28.986 20.3961 28.9666C20.4826 28.9471 20.5733 28.9589 20.652 28.9998C20.8355 29.077 20.8162 29.2509 20.739 29.3958C20.6617 29.5407 20.8645 30.3616 20.1305 30.1781L20.1788 30.207Z" fill="black"/>
<path d="M72.8452 26.9619C72.8452 27.0971 72.7776 27.1937 72.6327 27.155C72.5135 27.1415 72.3991 27.1005 72.2985 27.0351C72.198 26.9698 72.114 26.8818 72.0532 26.7783C71.9868 26.6764 71.9514 26.5573 71.9514 26.4355C71.9514 26.3137 71.9868 26.1946 72.0532 26.0927C72.0903 26.0238 72.1465 25.967 72.215 25.9293C72.2836 25.8916 72.3615 25.8745 72.4396 25.8801C72.6617 25.8801 72.6134 26.1023 72.6134 26.2472C72.6134 26.392 72.6038 26.7783 72.8452 26.9619Z" fill="black"/>
<path d="M56.2523 36.2918C56.2497 36.4053 56.2028 36.5134 56.1216 36.5928C56.0404 36.6722 55.9313 36.7168 55.8176 36.7167C55.4023 36.7167 55.5858 36.311 55.5472 36.0793C55.5086 35.8475 55.4699 35.577 55.808 35.577C56.146 35.577 56.2426 35.8475 56.2523 36.2918Z" fill="black"/>
<path d="M46.8067 36.7553C46.9778 36.7601 47.1407 36.8295 47.2625 36.9496C47.3844 37.0697 47.4562 37.2315 47.4635 37.4024C47.4635 37.528 47.4635 37.7501 47.28 37.6536C46.9721 37.4947 46.7171 37.2497 46.546 36.9485C46.4783 36.794 46.6908 36.7747 46.8067 36.7553Z" fill="black"/>
<path d="M61.8251 28.5362C61.4677 28.5941 61.1587 28.6038 61.1007 28.1691C61.1007 27.918 61.1007 27.6379 61.4098 27.6089C61.7188 27.58 61.6319 27.8408 61.5933 28.0243C61.5547 28.2078 61.8251 28.2947 61.8251 28.5362Z" fill="black"/>
<path d="M75.1824 21.7657C75.1051 21.5243 75.2693 21.3987 75.308 21.2345C75.3466 21.0704 75.3949 20.7903 75.675 20.7613C75.7619 20.7613 75.9068 20.8289 75.8295 20.8869C75.5977 21.08 76.0806 21.5533 75.5398 21.6016C75.4142 21.6112 75.3466 21.814 75.1824 21.7657Z" fill="black"/>
<path d="M27.326 36.3014C27.326 36.369 27.5868 36.6298 27.1908 36.6298C26.7948 36.6298 26.7562 36.4849 26.7852 36.2242C26.7863 36.1683 26.7989 36.1132 26.8222 36.0625C26.8455 36.0117 26.8791 35.9663 26.9208 35.9291C26.9626 35.892 27.0115 35.8638 27.0646 35.8464C27.1177 35.8291 27.1738 35.8228 27.2294 35.8282C27.5289 35.8571 27.3936 36.0696 27.326 36.3014Z" fill="black"/>
<path d="M64.7227 31.1922C64.2398 31.1343 63.95 31.0666 63.8727 30.69C63.8727 30.5741 63.9403 30.4389 64.0466 30.4582C64.3556 30.5161 64.4039 30.8542 64.7227 31.1922Z" fill="black"/>
</svg>
