<svg
    width="51"
    height="27"
    viewBox="0 0 51 27"
    fill="none"
    xmlns="http://www.w3.org/2000/svg"
>
    <path
        d="M12.8214 5.45091C12.758 4.95743 12.7806 4.23758 13.1292 3.34116C13.9622 1.2269 15.0986 0.955246 15.3521 1.34914C15.6781 1.85167 15.497 5.24718 15.497 5.24718C15.497 5.24718 17.5117 3.6626 18.2451 3.88898C18.5711 3.98857 17.3125 7.70552 17.3125 7.70552C17.3125 7.70552 18.7477 7.30711 19.051 8.21258C19.3136 9.00035 17.0771 10.2771 16.4794 10.603C16.3844 10.6528 16.2802 10.68 16.1671 10.68H10.7116C10.4762 10.68 10.2498 10.5578 10.123 10.3586C9.69293 9.68851 8.66525 8.18089 7.90918 7.88661C7.90918 7.88661 8.70145 7.63309 9.616 7.72363C9.616 7.72363 8.34381 3.6626 9.07269 2.70734C9.8016 1.74754 12.8214 5.45091 12.8214 5.45091Z"
        fill="#89B25D"
    />
    <path
        d="M9.61586 7.7236C9.61586 7.7236 8.34367 3.66257 9.07256 2.7073C9.80147 1.74751 12.8212 5.45088 12.8212 5.45088"
        stroke="black"
        stroke-width="0.544823"
        stroke-miterlimit="10"
        stroke-linecap="round"
        stroke-linejoin="round"
    />
    <path
        d="M10.123 10.3586C9.69293 9.68852 8.66525 8.1809 7.90918 7.88662C7.90918 7.88662 8.70145 7.6331 9.616 7.72364C10.1909 7.78249 10.8203 7.97718 11.3273 8.46613"
        stroke="black"
        stroke-width="0.544823"
        stroke-miterlimit="10"
        stroke-linecap="round"
        stroke-linejoin="round"
    />
    <path
        d="M13.0386 6.22508C13.0386 6.22508 12.8846 5.95344 12.8213 5.45091C12.7579 4.95743 12.7805 4.23758 13.1291 3.34116C13.9622 1.2269 15.0985 0.955246 15.3521 1.34914C15.678 1.85167 15.4969 5.24718 15.4969 5.24718C15.4969 5.24718 17.5116 3.6626 18.245 3.88898C18.571 3.98857 17.3124 7.70552 17.3124 7.70552C17.3124 7.70552 18.7476 7.30711 19.0509 8.21258C19.3135 9.00035 17.077 10.2771 16.4793 10.603"
        stroke="black"
        stroke-width="0.544823"
        stroke-miterlimit="10"
        stroke-linecap="round"
        stroke-linejoin="round"
    />
    <path
        d="M13.198 9.06821C13.198 9.06821 13.6004 6.98899 15.0405 5.95708C15.114 5.90439 15.2239 5.96269 15.254 6.04802C15.3498 6.31999 15.4791 7.00664 15.1842 8.44779C15.1842 8.44779 15.873 7.94267 16.5592 7.86392C16.6916 7.84874 16.7825 7.99652 16.7122 8.10968C16.4114 8.5936 15.7883 9.64983 15.8138 10.0575"
        stroke="black"
        stroke-width="0.544823"
        stroke-miterlimit="10"
        stroke-linecap="round"
        stroke-linejoin="round"
    />
    <path
        d="M48.768 22.0199C48.1168 22.26 47.2762 21.8374 47.2762 21.8374C47.2762 21.8374 50.8914 18.7331 50.2177 17.7165C49.4436 16.548 46.4798 19.1915 46.4798 19.1915C47.154 17.2368 46.3432 15.5604 45.8891 15.5315C45.1737 15.486 44.1246 18.4225 44.1246 18.4225C44.1246 18.4225 42.4676 15.9728 41.9155 16.7382C41.1469 17.8034 42.5172 20.9392 42.5172 20.9392L41.7124 20.9226"
        fill="#89B25D"
    />
    <path
        d="M48.768 22.0199C48.1168 22.26 47.2762 21.8374 47.2762 21.8374C47.2762 21.8374 50.8914 18.7331 50.2177 17.7165C49.4436 16.548 46.4798 19.1915 46.4798 19.1915C47.154 17.2368 46.3432 15.5604 45.8891 15.5315C45.1737 15.486 44.1246 18.4225 44.1246 18.4225C44.1246 18.4225 42.4676 15.9728 41.9155 16.7382C41.1469 17.8034 42.5172 20.9392 42.5172 20.9392L41.7124 20.9226"
        stroke="black"
        stroke-width="0.593635"
        stroke-miterlimit="10"
        stroke-linecap="round"
        stroke-linejoin="round"
    />
    <path
        d="M1.04297 20.7857C1.40768 21.3762 2.33005 21.075 2.33005 21.075C2.33005 21.075 1.397 16.4022 2.55414 16.0169C3.88394 15.5741 5.12735 21.1648 5.12735 21.1648L5.54276 20.7162L6.31375 21.4914"
        fill="#89B25D"
    />
    <path
        d="M1.04297 20.7857C1.40768 21.3762 2.33005 21.075 2.33005 21.075C2.33005 21.075 1.397 16.4022 2.55414 16.0169C3.88394 15.5741 5.12735 21.1648 5.12735 21.1648L5.54276 20.7162L6.31375 21.4914"
        stroke="black"
        stroke-width="0.593635"
        stroke-miterlimit="10"
        stroke-linecap="round"
        stroke-linejoin="round"
    />
    <path
        d="M28.1602 14.5787C28.0733 14.1991 27.9733 13.8238 27.7882 13.4774C27.5549 13.3563 27.3185 13.2403 27.1284 13.0523C26.4541 12.5167 25.6723 12.1652 24.9205 11.7624C24.78 11.6871 24.6287 11.6393 24.4713 11.6414C24.2892 11.6439 24.1258 11.7056 24.0701 11.9038C24.0376 12.0189 23.9582 12.0422 23.8736 12.0056C23.2348 11.7293 22.7435 12.0795 22.2506 12.3922C22.1232 12.473 21.9645 12.5281 21.8845 12.6758C21.7599 12.913 21.5273 12.9847 21.2951 13.0456C21.2019 13.0701 21.0963 13.081 21.047 13.1604C20.9592 13.3018 20.8335 13.2978 20.6991 13.2915C20.5269 13.428 20.3287 13.5501 20.457 13.8265C20.4794 13.8747 20.4504 13.9089 20.3855 13.9427C20.2305 14.0233 20.0929 14.1367 20.0395 14.3188C19.8523 14.8948 19.5571 15.4243 19.3258 15.9812C19.3085 16.0229 19.2662 16.0263 19.2267 16.0326C18.9928 16.0697 18.914 16.2487 18.8577 16.4438C18.7574 16.7913 18.8261 17.1482 18.8041 17.5001C18.7957 17.6359 18.8417 17.7472 18.982 17.7598C19.109 17.7713 19.201 17.6913 19.24 17.5616C19.3053 17.3443 19.3829 17.1302 19.4366 16.9102C19.4736 16.7586 19.545 16.6432 19.6561 16.5344C19.9704 16.2269 20.2926 15.9186 20.4975 15.5259C20.6086 15.313 20.7173 15.1754 20.9758 15.229C21.091 15.253 21.1658 15.1741 21.2381 15.099C21.2653 15.0708 21.2999 15.0383 21.3372 15.0702C21.3555 15.0858 21.3653 15.1326 21.3559 15.1562C21.2708 15.3709 21.4026 15.5349 21.483 15.7092C21.5531 15.8612 21.6942 15.9296 21.8465 15.9287C22.01 15.9278 22.1761 15.8514 22.2162 15.6845C22.2807 15.4159 22.3946 15.5142 22.5499 15.5917C23.4095 16.0201 24.2158 16.5403 25.0452 17.0207C25.1925 17.106 25.3612 17.1685 25.5023 17.0284C25.6153 16.9163 25.6952 16.8512 25.8549 16.9621C25.9414 17.0221 26.0647 16.9723 26.1665 16.913C26.4672 16.7375 26.7818 16.652 27.127 16.783C27.3911 16.8832 27.7771 16.8128 27.84 16.6016C27.9214 16.3282 28.1071 16.2992 28.322 16.2681C28.5739 16.0719 28.6281 15.9286 28.5404 15.6914C28.5267 15.6625 28.513 15.6335 28.4992 15.6045L28.5017 15.6083C28.3026 15.3243 28.1765 15.0147 28.1691 14.6633C28.1673 14.6446 28.1656 14.626 28.1639 14.6074L28.1458 14.5943L28.1602 14.5787Z"
        fill="#D9D0B8"
    />
    <path
        d="M28.322 16.2681C28.1072 16.2993 27.9215 16.3282 27.8401 16.6016C27.7771 16.8128 27.3912 16.8832 27.1271 16.783C26.7819 16.652 26.4673 16.7375 26.1665 16.913C26.0648 16.9723 25.9414 17.0221 25.855 16.9621C25.6952 16.8512 25.6154 16.9163 25.5024 17.0284C25.3612 17.1685 25.1925 17.106 25.0453 17.0207C24.2159 16.5403 23.4095 16.0201 22.55 15.5917C22.3946 15.5143 22.2807 15.4159 22.2162 15.6846C22.1762 15.8514 22.01 15.9278 21.8466 15.9287C21.6943 15.9296 21.5531 15.8612 21.483 15.7092C21.4027 15.5349 21.2709 15.3709 21.356 15.1562C21.3653 15.1326 21.3555 15.0858 21.3372 15.0702C21.3 15.0383 21.2653 15.0708 21.2381 15.099C21.1659 15.1741 21.091 15.253 20.9758 15.229C20.7174 15.1754 20.6087 15.313 20.4975 15.5259C20.2926 15.9186 19.9704 16.2269 19.6562 16.5344C19.5451 16.6432 19.4737 16.7586 19.4367 16.9102C19.3829 17.1302 19.3053 17.3443 19.2401 17.5616C19.2011 17.6913 19.1091 17.7713 18.982 17.7598C18.8418 17.7472 18.7957 17.6359 18.8042 17.5001C18.8261 17.1482 18.7574 16.7913 18.8578 16.4438C18.9141 16.2487 18.9929 16.0697 19.2268 16.0326C19.2662 16.0264 19.3085 16.0229 19.3258 15.9812C19.5571 15.4243 19.8523 14.8948 20.0396 14.3188C20.0098 14.3429 19.9712 14.3614 19.9515 14.3921C19.6174 14.9129 19.2773 15.4302 18.9559 15.9589C18.6896 16.397 18.5966 16.8741 18.7241 17.3804C18.7387 17.4384 18.7235 17.4683 18.6809 17.4976C18.5188 17.609 18.4947 17.7634 18.561 17.9333C18.6295 18.1088 18.7647 18.1854 18.9544 18.1577C19.1045 17.9756 19.2965 17.9962 19.4285 18.1358C19.6871 18.4092 19.9105 18.716 20.1478 19.0096C20.1571 19.0212 20.1617 19.0382 20.1643 19.0534C20.1772 19.1283 20.2276 19.169 20.2834 19.2174C20.5546 19.4533 20.6313 19.7701 20.6327 20.1139C21.1455 20.2845 21.6585 20.4543 22.1709 20.6262C22.2962 20.6682 22.423 20.6915 22.5241 20.5887C22.6264 20.4846 22.548 20.3912 22.4861 20.2962C22.4273 20.2057 22.5 20.1888 22.5676 20.1879C22.6854 20.1862 22.8033 20.1931 22.9211 20.1931C23.0187 20.193 23.1178 20.179 23.1522 20.0709C23.1855 19.966 23.1652 19.8587 23.0666 19.799C22.9246 19.7129 22.9378 19.6272 23.0184 19.5017C23.076 19.4118 23.0987 19.2983 23.1303 19.1934C23.1598 19.0957 23.1722 18.9929 23.2997 18.9656C23.4412 18.9354 23.459 19.0667 23.5286 19.1303C23.8672 19.1862 24.1856 19.4705 24.2081 19.8417C24.2267 20.1471 24.2819 20.2809 24.613 20.1942C24.7209 20.1659 24.8074 20.1563 24.8351 20.0351C24.8755 19.8583 24.9925 19.7389 25.1211 19.617C25.4871 19.2701 25.9251 18.9704 25.9855 18.4029C25.99 18.3606 26.0278 18.32 26.0554 18.2824C26.3753 17.845 26.8463 17.6565 27.34 17.5069C27.4574 17.4713 27.5201 17.5168 27.5166 17.643C27.6776 17.5608 27.8087 17.4418 27.9284 17.3087C27.8962 17.0036 27.9929 16.7455 28.1975 16.5177C28.2574 16.451 28.2815 16.3522 28.322 16.2681Z"
        fill="#A4949A"
    />
    <path
        d="M28.3296 17.309C28.4738 17.3156 28.5441 17.2682 28.5511 17.1101C28.5617 16.8672 28.7155 16.7136 28.9407 16.6702C29.2455 16.6116 29.5081 16.4505 29.7262 16.2698C30.156 15.9139 30.6761 15.9051 31.169 15.8039C31.6857 15.6979 32.1821 15.9806 32.7044 15.9527C32.8427 15.9452 32.9728 16.0359 33.0382 16.1795C33.1561 16.6306 32.9612 17.0464 32.8747 17.4695C32.7468 18.0949 32.7052 18.726 32.6606 19.3587C32.6457 19.5697 32.6387 19.7828 32.6025 19.9905C32.5663 20.1976 32.4246 20.3123 32.251 20.4484C31.8594 20.7555 31.4495 20.899 30.9588 20.9241C30.7672 20.9339 30.585 21.1089 30.3967 21.2051C30.2421 21.2842 30.0781 21.3426 29.9078 21.3734C29.6498 21.42 29.4178 21.5047 29.2053 21.6719C28.9946 21.8378 28.7216 21.8515 28.463 21.8425C28.2197 21.834 28.0423 21.5464 28.0796 21.2586C28.0876 21.1967 28.1018 21.1348 28.12 21.075C28.1707 20.908 28.1971 20.7576 27.9623 20.7104C27.9241 20.7027 27.8857 20.6518 27.8645 20.6118C27.6581 20.2228 27.3467 19.8488 27.2824 19.4366C27.2191 19.0308 26.9558 18.6701 27.0274 18.2434C27.2095 18.0587 27.4528 17.924 27.5167 17.643C27.6777 17.5608 27.8088 17.4418 27.9285 17.3087C28.0623 17.3083 28.1962 17.3028 28.3296 17.309ZM28.8706 17.7417C28.8834 17.6836 28.8603 17.6208 28.7958 17.6175C28.7308 17.6142 28.7398 17.6809 28.7412 17.7248C28.7473 17.919 28.6864 18.0883 28.5853 18.2544C28.5123 18.3743 28.516 18.507 28.6719 18.6135C28.741 18.3126 28.808 18.0276 28.8706 17.7417Z"
        fill="#D9D0B8"
    />
    <path
        d="M33.038 16.1796C33.1559 16.6306 32.961 17.0465 32.8745 17.4696C32.7466 18.095 32.705 18.726 32.6604 19.3587C32.6455 19.5698 32.6385 19.7829 32.6023 19.9906C32.5661 20.1977 32.4244 20.3124 32.2508 20.4485C31.8592 20.7555 31.4493 20.899 30.9586 20.9241C30.767 20.9339 30.5848 21.109 30.3965 21.2052C30.2419 21.2843 30.0779 21.3427 29.9076 21.3734C29.6496 21.4201 29.4176 21.5047 29.2051 21.672C28.9944 21.8378 28.7214 21.8515 28.4628 21.8425C28.2195 21.834 28.0421 21.5465 28.0794 21.2587C28.0874 21.1967 28.1016 21.1349 28.1198 21.0751C28.1705 20.9081 28.1969 20.7577 27.9621 20.7104C27.9239 20.7027 27.8855 20.6518 27.8643 20.6118C27.6579 20.2228 27.3465 19.8488 27.2822 19.4367C27.2188 19.0308 26.9556 18.6702 27.0272 18.2434C26.8332 18.3785 26.5871 18.4833 26.553 18.746C26.5216 18.9876 26.4844 19.2239 26.4029 19.4529C26.3822 19.511 26.3407 19.5712 26.3904 19.629C26.5746 19.8431 26.5077 20.0822 26.4654 20.3196C26.5335 20.4205 26.6328 20.3877 26.7148 20.361C26.8636 20.3124 26.9693 20.3476 27.0453 20.4817C27.1268 20.3848 27.2233 20.3234 27.3521 20.3801C27.5204 20.4541 27.5788 20.6129 27.5627 20.7694C27.5426 20.9628 27.5154 21.1455 27.5966 21.3331C27.6309 21.4124 27.5679 21.4814 27.5011 21.5312C27.5841 21.7038 27.7691 21.7746 27.9071 21.8679C28.1672 22.0437 28.406 22.251 28.7048 22.3881C28.9163 22.4851 29.1237 22.5976 29.3499 22.6689C29.4438 22.6985 29.5472 22.7249 29.621 22.6601C29.7701 22.5291 29.9512 22.5416 30.1244 22.5006C30.3444 22.4485 30.5283 22.4391 30.7106 22.6058C30.8129 22.6993 30.9435 22.6371 31.0211 22.5368C31.172 22.3418 31.3325 22.315 31.5735 22.3897C31.8497 22.4751 32.1301 22.52 32.3823 22.2228C32.4896 22.0964 32.6891 21.9666 32.921 21.9144C33.1689 21.8586 33.3931 21.6582 33.6293 21.5269C33.7769 21.4447 33.722 21.14 33.7439 20.9328C33.7533 20.8449 33.6407 20.7097 33.8069 20.6829C33.9555 20.659 33.9524 20.8103 33.9899 20.9055C34.2305 20.7151 34.3307 21.0005 34.502 21.0778C34.5214 20.8535 34.5373 20.6508 34.5567 20.4484C34.5898 20.1044 34.64 19.7634 34.768 19.4395C34.8265 19.2917 34.9065 19.184 35.0789 19.3157C35.0565 18.981 35.063 18.6343 34.6869 18.4592C34.6487 18.4414 34.616 18.3947 34.5976 18.3538C34.3707 17.8495 33.9912 17.4616 33.6185 17.0693C33.4714 16.9146 33.4176 16.7183 33.3518 16.5265C33.2963 16.3647 33.2226 16.223 33.038 16.1796Z"
        fill="#A4949A"
    />
    <path
        d="M26.4654 20.3196C26.5077 20.0822 26.5747 19.8431 26.3905 19.6289C26.3408 19.5712 26.3823 19.511 26.4029 19.4529C26.4844 19.2239 26.5217 18.9876 26.5531 18.746C26.5872 18.4833 26.8333 18.3785 27.0272 18.2434C27.2093 18.0588 27.4527 17.9241 27.5166 17.6431C27.52 17.5168 27.4574 17.4714 27.34 17.507C26.8462 17.6565 26.3752 17.845 26.0553 18.2824C26.0278 18.3201 25.9899 18.3607 25.9854 18.403C25.925 18.9704 25.4871 19.2702 25.1211 19.6171C24.9925 19.739 24.8755 19.8583 24.835 20.0351C24.8073 20.1564 24.7209 20.1659 24.6129 20.1942C24.2819 20.281 24.2267 20.1472 24.2081 19.8417C24.1855 19.4705 23.8672 19.1863 23.5286 19.1303C23.341 19.2967 23.4477 19.5106 23.4456 19.7025C23.4438 19.8733 23.5019 20.0445 23.5015 20.2155C23.5007 20.4994 23.7428 20.6574 23.9053 20.6406C24.1473 20.6156 24.3988 20.704 24.5977 20.6465C24.9572 20.5424 25.2373 20.5995 25.5319 20.7903C25.7098 20.9055 25.9781 20.845 26.0671 20.6556C26.1543 20.4702 26.3027 20.3954 26.4654 20.3196Z"
        fill="#80767A"
    />
    <path
        d="M38.6657 22.5535C38.6131 22.5829 38.583 22.6365 38.5798 22.6877C38.5487 23.1881 38.2918 23.623 38.1782 24.0982C38.1373 24.2691 38.0222 24.4475 38.1431 24.6336C38.4277 24.3243 38.718 24.0194 38.9545 23.6701C39.0061 23.5939 39.0369 23.519 39.1512 23.5808C39.246 23.6321 39.3045 23.6902 39.2624 23.8037C39.2515 23.833 39.2348 23.8602 39.2233 23.8894C39.1257 24.1368 39.1866 24.2719 39.4356 24.3618C39.8158 24.4991 40.4041 24.2733 40.7186 23.9337C40.9514 23.6823 41.0495 23.4377 40.9186 23.1164C40.8635 22.8623 40.6406 22.7325 40.4955 22.5452C40.459 22.5484 40.4288 22.538 40.4094 22.5045L40.4133 22.5071C40.0402 22.2812 39.61 22.3444 39.2068 22.2723C39.1003 22.2532 39.0001 22.3094 38.941 22.3962C38.8715 22.4985 38.7729 22.5286 38.6657 22.5535Z"
        fill="#CEBDC1"
    />
    <path
        d="M40.9186 23.1163C41.0495 23.4376 40.9513 23.6822 40.7186 23.9336C40.4041 24.2732 39.8157 24.499 39.4355 24.3617C39.1865 24.2718 39.1256 24.1367 39.2232 23.8893C39.2347 23.8601 39.2514 23.8329 39.2623 23.8036C39.3044 23.6901 39.2459 23.632 39.1511 23.5807C39.0368 23.5189 39.006 23.5938 38.9544 23.67C38.7179 24.0193 38.4276 24.3241 38.1431 24.6335C38.1911 25.0601 38.5253 25.3457 38.9569 25.3289C38.9648 25.2195 38.9687 25.1095 38.9819 25.0007C38.9919 24.9179 39.0313 24.8503 39.1225 24.8325C39.2182 24.8139 39.3131 24.8444 39.342 24.9304C39.4121 25.1389 39.5208 25.3484 39.4176 25.579C39.8904 25.743 39.9807 25.7197 40.2361 25.3566C40.272 25.3055 40.3202 25.2934 40.3726 25.2763C40.4542 25.2496 40.5574 25.238 40.6092 25.1813C40.7701 25.0055 40.9319 24.92 41.1859 24.9863C41.3091 25.0184 41.4048 24.8817 41.4044 24.7359C41.4036 24.4538 41.4268 24.1672 41.385 23.8908C41.3381 23.5808 41.153 23.3273 40.9186 23.1163Z"
        fill="#A4949A"
    />
    <path
        d="M2.40743 21.4912C2.39779 21.4882 2.38805 21.488 2.37829 21.4905C2.36141 21.5068 2.34456 21.523 2.32772 21.5393L2.33098 21.5361C2.31408 21.5529 2.29717 21.5697 2.28026 21.5866L2.28383 21.5832C2.21032 21.6796 2.14516 21.78 2.21325 21.9051C2.27709 22.0225 2.39174 22.0226 2.50316 22.0123C2.86742 21.9786 3.21077 22.1241 3.57378 22.1318C3.77086 22.136 3.96566 22.0965 4.17385 22.1398C4.51812 22.2115 4.87392 22.1315 5.14617 21.8949C5.27538 21.7826 5.37413 21.681 5.55883 21.6742C5.74282 21.6675 5.83947 21.517 5.85351 21.356C5.86809 21.1888 5.7568 21.0918 5.58306 21.0584C5.45119 21.0331 5.3214 21.0087 5.18728 21.0158C4.86861 21.0326 4.57213 20.9388 4.27749 20.8353C4.12032 20.7532 3.99154 20.6118 3.80388 20.5938C3.44561 20.5595 3.26708 20.6703 3.08376 21.0304C3.07409 21.1665 2.90224 21.1594 2.8695 21.2597C2.79054 21.5013 2.6076 21.5069 2.40743 21.4912Z"
        fill="#CEBDC1"
    />
    <path
        d="M4.27751 20.8353C4.57216 20.9388 4.86864 21.0326 5.1873 21.0158C5.32143 21.0087 5.45122 21.0331 5.58309 21.0584C5.75682 21.0918 5.86812 21.1888 5.85353 21.356C5.83949 21.517 5.74285 21.6675 5.55885 21.6742C5.37416 21.681 5.27541 21.7826 5.1462 21.8949C4.87395 22.1315 4.51814 22.2115 4.17388 22.1398C3.96568 22.0965 3.77089 22.136 3.57381 22.1318C3.2108 22.1241 2.86745 21.9786 2.50319 22.0123C2.39177 22.0226 2.27712 22.0225 2.21327 21.9051C2.14519 21.78 2.21034 21.6796 2.28386 21.5831C2.11098 21.6062 1.86128 21.8469 1.81584 22.0437C1.7748 22.2214 1.88155 22.3195 1.9988 22.4411C2.18343 22.6325 2.39632 22.6716 2.63683 22.6706C3.18715 22.6682 3.72191 22.8239 4.27452 22.8223C4.58656 22.8214 4.89485 22.7356 5.20955 22.7965C5.32292 22.8185 5.41255 22.7235 5.44881 22.6347C5.51903 22.4629 5.64256 22.4283 5.80226 22.4395C5.93837 22.2957 5.92299 22.117 5.92421 21.9389C5.92568 21.7242 5.96828 21.703 6.17751 21.7938C6.19136 21.3331 5.95552 21.0708 5.52593 20.9643C5.11186 20.8617 4.69347 20.877 4.27751 20.8353Z"
        fill="#A4949A"
    />
    <path
        d="M35.7294 20.3814C35.7077 20.3733 35.6849 20.356 35.6645 20.3584C35.4785 20.3805 35.3323 20.3356 35.2714 20.1372C35.2342 20.2778 35.2709 20.4157 35.2822 20.5554C35.32 21.0208 35.3787 21.4978 34.8235 21.7338C34.8801 21.7666 34.8751 21.8239 34.8844 21.8777C34.91 22.0272 34.9998 22.1194 35.1517 22.1274C35.3364 22.1372 35.4953 22.2357 35.6718 22.2645C35.7861 22.2831 35.7693 22.3689 35.7944 22.4361C35.8571 22.6044 36.0193 22.6773 36.1258 22.5726C36.3641 22.3382 36.6239 22.5112 36.8673 22.4876C37.0353 22.4712 37.176 22.4491 37.2792 22.3219C37.3936 22.1809 37.4048 22.0166 37.3057 21.8623C37.2465 21.7701 37.2352 21.6772 37.2338 21.5732C37.2303 21.3136 37.1366 21.0874 36.9603 20.8961C36.9958 21.1524 36.8926 21.3449 36.6736 21.4679C36.4734 21.5803 36.3367 21.4154 36.1845 21.3304C36.048 21.2541 35.9211 21.1552 35.7589 21.1385C35.5971 21.1217 35.4966 21.0213 35.4554 20.8811C35.4126 20.7352 35.4703 20.6017 35.5899 20.5027C35.6374 20.4633 35.7048 20.4471 35.7294 20.3814Z"
        fill="#A4949A"
    />
    <path
        d="M7.40526 11.346C7.16108 11.3348 6.98008 11.425 6.88521 11.662C6.82884 11.8028 6.70216 11.89 6.60258 11.994C6.44716 12.1565 6.4297 12.3667 6.63035 12.4744C6.89802 12.6179 7.15223 12.8411 7.49849 12.7527C7.48787 12.6893 7.52339 12.647 7.5688 12.6142C7.99598 12.3051 8.47117 12.3457 8.95158 12.4267C9.0937 12.4393 9.20173 12.3546 9.31621 12.2936C9.40687 12.2453 9.46071 12.1462 9.42579 12.0586C9.34816 11.8637 9.28834 11.643 9.04316 11.5768C8.69587 11.5286 8.34953 11.4707 8.00084 11.4361C7.79994 11.4161 7.59926 11.4069 7.40526 11.346Z"
        fill="#CEBDC1"
    />
    <path
        d="M10.0029 13.9883C10.0529 13.966 10.1028 13.9437 10.1526 13.9216C10.2296 13.5828 10.5612 13.3139 10.944 13.2799L10.9407 13.2822C10.9533 13.2573 10.9677 13.2501 10.9855 13.2777C11.0617 13.2406 11.1364 13.2001 11.2141 13.1669C11.5186 13.0366 11.6084 12.8146 11.3993 12.5624C11.188 12.3074 10.9199 12.0977 10.5516 12.1052C10.4672 12.1797 10.3567 12.2357 10.3686 12.3769C10.3718 12.4156 10.3488 12.4768 10.314 12.4602C10.1428 12.3783 10.0129 12.5513 9.85398 12.5237C9.64253 12.6553 9.64311 12.8924 9.57047 13.093C9.5716 13.2361 9.51695 13.3676 9.48722 13.5044C9.43244 13.7563 9.50434 13.9206 9.68198 14.0003C9.79529 14.0512 9.89533 13.9628 10.0029 13.9883Z"
        fill="#CEBDC1"
    />
    <path
        d="M34.8236 21.7337C35.3787 21.4977 35.3201 21.0207 35.2823 20.5553C35.271 20.4156 35.2343 20.2777 35.2715 20.1371C35.2673 20.108 35.2632 20.0789 35.259 20.0498C35.201 20.0061 35.2131 19.9519 35.2358 19.8961C35.1981 19.6987 35.1701 19.4987 35.0792 19.3156C34.9067 19.1839 34.8267 19.2917 34.7683 19.4395C34.6402 19.7634 34.59 20.1043 34.557 20.4484C34.5375 20.6507 34.5216 20.8534 34.5022 21.0777C34.3309 21.0004 34.2307 20.715 33.9901 20.9054C33.8887 21.2263 34.0548 21.481 34.203 21.7366C34.2504 21.8185 34.3441 21.8269 34.4344 21.8096C34.5642 21.7847 34.6938 21.759 34.8236 21.7337Z"
        fill="#80767A"
    />
    <path
        d="M20.6327 20.1139C20.6313 19.7701 20.5546 19.4533 20.2834 19.2174C20.2276 19.1689 20.1772 19.1283 20.1643 19.0534C20.1617 19.0382 20.1571 19.0212 20.1478 19.0096C19.9105 18.716 19.6871 18.4092 19.4285 18.1357C19.2965 17.9962 19.1045 17.9756 18.9543 18.1577C19.0124 18.4286 19.2189 18.5862 19.4251 18.7265C19.6139 18.8549 19.7096 18.9849 19.596 19.2068C19.5399 19.3163 19.5724 19.4182 19.6279 19.517C19.8816 19.5514 19.9861 19.7498 20.0957 19.9425C20.143 19.9556 20.1722 19.9855 20.1984 20.0284C20.3424 20.2638 20.4126 20.2764 20.6327 20.1139Z"
        fill="#80767A"
    />
    <path
        d="M35.7295 20.3814C35.7048 20.4471 35.6375 20.4633 35.5899 20.5026C35.4704 20.6017 35.4127 20.7352 35.4555 20.8811C35.4967 21.0213 35.5972 21.1217 35.759 21.1384C35.9212 21.1552 36.0481 21.254 36.1846 21.3303C36.3368 21.4154 36.4734 21.5803 36.6736 21.4679C36.8926 21.3449 36.9959 21.1524 36.9603 20.896C36.9675 20.7269 36.8368 20.656 36.7278 20.5695C36.4919 20.5353 36.3232 20.3148 36.0688 20.3319C35.9557 20.3484 35.8426 20.3649 35.7295 20.3814Z"
        fill="#CEBDC1"
    />
    <path
        d="M7.96228 14.2175C8.06528 14.216 8.38962 13.971 8.44354 13.85C8.5188 13.6813 8.4397 13.5429 8.32947 13.4537C8.16717 13.3223 7.98843 13.1475 7.7493 13.3299C7.65649 13.4008 7.53912 13.375 7.43597 13.4133C7.3093 13.4605 7.24786 13.5492 7.21469 13.6657C7.18079 13.7848 7.27377 13.8299 7.35406 13.8804C7.4736 13.9555 7.51721 14.1168 7.66116 14.1609C7.74969 14.1881 7.84408 14.1961 7.96228 14.2175Z"
        fill="#CEBDC1"
    />
    <path
        d="M27.5011 21.5312C27.5679 21.4814 27.6309 21.4124 27.5966 21.3331C27.5155 21.1455 27.5427 20.9628 27.5627 20.7694C27.5789 20.6129 27.5204 20.4541 27.3522 20.3801C27.2233 20.3234 27.1268 20.3848 27.0453 20.4817C26.9892 20.6324 26.9533 20.8063 27.0324 20.9359C27.1629 21.15 27.3423 21.3343 27.5011 21.5312Z"
        fill="#80767A"
    />
    <path
        d="M6.17749 21.7938C5.96826 21.703 5.92566 21.7242 5.92419 21.9389C5.92297 22.117 5.93835 22.2957 5.80225 22.4395C5.82288 22.6235 5.92484 22.7382 6.11035 22.7168C6.31619 22.6931 6.36044 22.5277 6.35217 22.3494C6.34296 22.1499 6.24384 21.9765 6.17749 21.7938Z"
        fill="#80767A"
    />
    <path
        d="M39.4178 25.579C39.521 25.3484 39.4123 25.1389 39.3422 24.9304C39.3133 24.8444 39.2183 24.8139 39.1227 24.8325C39.0315 24.8503 38.992 24.9179 38.982 25.0007C38.9688 25.1095 38.9649 25.2195 38.957 25.3289C39.0196 25.5799 39.2303 25.5581 39.4178 25.579Z"
        fill="#80767A"
    />
    <path
        d="M8.95157 12.4267C8.47116 12.3457 7.99597 12.305 7.56879 12.6142C7.52338 12.647 7.48785 12.6893 7.49847 12.7527C8.00674 12.7504 8.48355 12.6081 8.95157 12.4267Z"
        fill="#A4949A"
    />
    <path
        d="M10.003 13.9883C9.89539 13.9628 9.79535 14.0511 9.68204 14.0003C9.5044 13.9206 9.4325 13.7563 9.48728 13.5044C9.517 13.3676 9.57166 13.236 9.57053 13.093C9.43982 13.1753 9.35315 13.2947 9.288 13.4314C9.14109 13.7395 9.30674 14.1093 9.63843 14.1964C9.81846 14.2437 9.94187 14.1635 10.003 13.9883Z"
        fill="#A4949A"
    />
    <path
        d="M38.6655 22.5534C38.7728 22.5285 38.8713 22.4984 38.9409 22.3962C38.9999 22.3094 39.1001 22.2531 39.2066 22.2722C39.6099 22.3443 40.04 22.2811 40.4131 22.5071C40.3822 22.368 40.2839 22.2857 40.1552 22.2692C39.797 22.2231 39.4384 22.1365 39.0757 22.189C38.8736 22.2182 38.7137 22.3324 38.6655 22.5534Z"
        fill="#A4949A"
    />
    <path
        d="M7.40527 11.346C7.59927 11.4069 7.79996 11.4161 8.00085 11.4361C8.34955 11.4707 8.69589 11.5287 9.04318 11.5768C8.82962 11.4372 8.62894 11.2579 8.34012 11.3602C8.11197 11.441 7.89331 11.3308 7.66943 11.3214C7.57877 11.3175 7.48676 11.2619 7.40527 11.346Z"
        fill="#A4949A"
    />
    <path
        d="M20.6992 13.2915C20.8336 13.2977 20.9593 13.3018 21.0471 13.1604C21.0964 13.081 21.202 13.0701 21.2952 13.0456C21.5274 12.9847 21.76 12.9129 21.8846 12.6758C21.5408 12.826 21.1966 12.9755 20.8532 13.127C20.78 13.1593 20.7148 13.2032 20.6992 13.2915Z"
        fill="#A4949A"
    />
    <path
        d="M9.854 12.5237C10.0129 12.5513 10.1428 12.3783 10.314 12.4601C10.3488 12.4768 10.3719 12.4156 10.3686 12.3769C10.3567 12.2357 10.4672 12.1797 10.5516 12.1051C10.4176 12.0188 10.3387 12.1402 10.2434 12.19C10.0889 12.2709 9.93842 12.3596 9.854 12.5237Z"
        fill="#A4949A"
    />
    <path
        d="M10.944 13.2799C10.5612 13.3139 10.2296 13.5828 10.1526 13.9215C10.3571 13.7266 10.5843 13.5621 10.8234 13.4129C10.8744 13.3811 10.9384 13.3553 10.944 13.2799Z"
        fill="#A4949A"
    />
    <path
        d="M20.0956 19.9427C19.986 19.7499 19.8814 19.5515 19.6278 19.5171C19.6085 19.8629 19.7059 19.9515 20.0956 19.9427Z"
        fill="#A4949A"
    />
    <path
        d="M27.1284 13.0524C27.3185 13.2404 27.555 13.3564 27.7882 13.4775C27.7296 13.1747 27.5678 13.0704 27.1284 13.0524Z"
        fill="#A4949A"
    />
    <path
        d="M2.40747 21.4911C2.60764 21.5068 2.79059 21.5012 2.86954 21.2595C2.90228 21.1593 3.07413 21.1664 3.0838 21.0303C2.8049 21.1055 2.58792 21.2715 2.40747 21.4911Z"
        fill="#A4949A"
    />
    <path
        d="M28.1692 14.6633C28.1766 15.0147 28.3027 15.3244 28.5018 15.6084C28.445 15.2743 28.3639 14.9489 28.1692 14.6633Z"
        fill="#A4949A"
    />
    <path
        d="M36.0686 20.3318C36.323 20.3147 36.4917 20.5352 36.7276 20.5695C36.5603 20.2858 36.3067 20.1944 36.0686 20.3318Z"
        fill="#A4949A"
    />
    <path
        d="M35.2356 19.8961C35.2129 19.952 35.2008 20.0062 35.2588 20.0498C35.3265 19.9872 35.3033 19.9383 35.2356 19.8961Z"
        fill="#A4949A"
    />
    <path
        d="M28.4993 15.6046C28.513 15.6336 28.5268 15.6626 28.5405 15.6915C28.5414 15.6555 28.5359 15.6227 28.4993 15.6046Z"
        fill="#A4949A"
    />
    <path
        d="M40.4094 22.5044C40.4287 22.5379 40.459 22.5483 40.4955 22.5451C40.4667 22.5315 40.4381 22.5179 40.4094 22.5044Z"
        fill="#A4949A"
    />
    <path
        d="M10.9855 13.2777C10.9677 13.2501 10.9533 13.2573 10.9407 13.2822C10.9558 13.2826 10.9707 13.2811 10.9855 13.2777Z"
        fill="#A4949A"
    />
    <path
        d="M28.1602 14.5787L28.1458 14.5943L28.1639 14.6074C28.1629 14.5977 28.1617 14.5882 28.1602 14.5787Z"
        fill="#A4949A"
    />
    <path
        d="M28.6718 18.6136C28.7409 18.3126 28.8079 18.0277 28.8706 17.7418C28.8833 17.6837 28.8603 17.6208 28.7957 17.6176C28.7307 17.6142 28.7397 17.681 28.7411 17.7248C28.7472 17.919 28.6863 18.0884 28.5853 18.2545C28.5123 18.3744 28.516 18.507 28.6718 18.6136Z"
        fill="#A4949A"
    />
    <path
        d="M22.3981 20.1885C22.346 20.0033 22.4512 19.879 22.6432 19.888C22.7244 19.8919 22.7944 19.9289 22.8684 19.9544C23.0093 20.003 23.0284 19.9937 22.9939 19.8555C22.9536 19.6939 22.9541 19.528 22.9194 19.3665C22.8801 19.1841 22.9092 19.0036 22.9614 18.8302C23.0311 18.5983 23.2199 18.5591 23.3921 18.7334C23.488 18.8305 23.5424 18.9512 23.5846 19.0806C23.6765 19.3628 23.6763 19.6534 23.6744 19.9445C23.6733 20.0995 23.6375 20.2717 23.878 20.2838C23.9026 20.285 23.9249 20.3227 23.949 20.3425C24.0599 20.4335 24.0975 20.4208 24.1289 20.284C24.3054 19.5168 24.5674 18.7749 24.8046 18.0258C24.8859 17.769 25.03 17.5413 25.2022 17.3329C25.2272 17.3027 25.2449 17.2621 25.2931 17.2938C25.3233 17.3135 25.3239 17.3474 25.3212 17.379C25.3155 17.4442 25.2785 17.4969 25.2455 17.55C25.1452 17.7115 25.0632 17.8828 25.01 18.0638C24.8129 18.7353 24.6226 19.4087 24.4028 20.0734C24.3856 20.1252 24.3814 20.1812 24.3688 20.2347C24.336 20.3744 24.4492 20.4382 24.529 20.4992C24.6165 20.5661 24.6347 20.4421 24.6767 20.4006C24.7586 20.3195 24.87 20.2711 24.9542 20.3228C25.1294 20.4303 25.3211 20.382 25.4988 20.4274C25.6083 20.4554 25.6733 20.4448 25.7343 20.3461C25.8107 20.2226 25.9226 20.1814 26.0572 20.2602C26.1159 20.2946 26.1606 20.2785 26.205 20.2374C26.2578 20.1885 26.3179 20.1477 26.3879 20.1334C26.4887 20.1128 26.4893 20.0585 26.4604 19.9779C26.3756 19.7415 26.2977 19.5026 26.2106 19.267C26.1857 19.1997 26.139 19.1304 26.1737 19.065C26.354 18.7253 26.5236 18.3793 26.7436 18.0621C26.752 18.05 26.768 18.0423 26.7816 18.0346C27.1197 17.8449 27.3711 17.5399 27.7039 17.3425C27.7774 17.299 27.8509 17.2446 27.9031 17.1784C27.9984 17.0578 28.1188 17.0309 28.2595 17.0424C28.3301 17.0481 28.401 17.0529 28.4718 17.0543C28.5191 17.0553 28.562 17.0538 28.5753 16.9873C28.6312 16.7084 28.8533 16.5501 29.0646 16.4215C29.4872 16.1643 29.936 15.9517 30.4006 15.7741C30.6862 15.6649 30.9667 15.5892 31.2723 15.6822C31.369 15.7117 31.4744 15.7323 31.5744 15.7275C32.0124 15.706 32.4296 15.8175 32.8543 15.8946C33.1348 15.9455 33.3089 16.0875 33.4221 16.3313C33.5353 16.5751 33.6772 16.8006 33.8421 17.0128C33.9901 17.2033 34.1451 17.3974 34.2702 17.5943C34.4428 17.866 34.6637 18.0582 34.9109 18.237C35.0466 18.3351 35.1316 18.4553 35.1611 18.6198C35.2457 19.0911 35.3199 19.564 35.3449 20.0426C35.3582 20.2972 35.3546 20.303 35.5591 20.1735C35.8652 19.9797 36.1957 19.9983 36.5312 20.0456C36.5797 20.0524 36.6144 20.0899 36.6436 20.1273C36.7982 20.3261 36.9528 20.5249 37.1042 20.726C37.1264 20.7555 37.1444 20.7986 37.1423 20.8342C37.1315 21.0171 37.2233 21.1659 37.292 21.3235C37.3554 21.4688 37.3782 21.648 37.6043 21.6336C37.6469 21.6309 37.6961 21.6691 37.6892 21.7277C37.6839 21.7732 37.6454 21.7896 37.6031 21.7915C37.4549 21.7979 37.4288 21.9061 37.4174 22.0203C37.4112 22.0821 37.4209 22.1454 37.4222 22.208C37.4244 22.3156 37.3862 22.3662 37.265 22.3469C36.9844 22.3024 36.9822 22.306 36.8608 22.5825C36.8401 22.6295 36.8219 22.674 36.766 22.6671C36.7218 22.6616 36.7166 22.6158 36.703 22.5779C36.6369 22.3932 36.5186 22.3434 36.3453 22.4322C36.2833 22.4639 36.2343 22.5199 36.1749 22.5577C36.091 22.6112 36.0153 22.5701 36.0182 22.4729C36.0193 22.4351 36.0335 22.3955 36.0501 22.3607C36.1305 22.1924 36.3317 22.088 36.5069 22.1778C36.6751 22.264 36.802 22.2629 36.9507 22.1619C36.9906 22.1348 37.0577 22.1461 37.1126 22.143C37.1652 22.1401 37.2131 22.1216 37.2125 22.0659C37.211 21.9217 37.2989 21.774 37.1918 21.6327C37.1216 21.5402 37.1314 21.3644 37.0276 21.3382C36.909 21.3083 36.8595 21.4792 36.768 21.5487C36.6937 21.6051 36.6133 21.6526 36.6228 21.7709C36.6309 21.8704 36.6263 22.0222 36.5179 22.0181C36.4298 22.0147 36.4551 21.8507 36.4727 21.7708C36.5266 21.525 36.3912 21.415 36.2038 21.3159C35.9612 21.1877 35.6873 21.1228 35.4688 20.9451C35.3978 20.8874 35.3573 20.9426 35.3316 21.0097C35.2446 21.2367 35.1854 21.477 35.0156 21.6643C34.9781 21.7057 35.0008 21.7528 35.0084 21.799C35.0164 21.8476 35.0097 21.8949 34.96 21.921C34.9073 21.9488 34.8643 21.9223 34.8397 21.8802C34.7502 21.7268 34.6665 21.7508 34.5759 21.8788C34.5389 21.9311 34.49 21.9817 34.4185 21.9367C34.361 21.9004 34.3404 21.8383 34.3463 21.7721C34.3614 21.6006 34.5288 21.4011 34.7131 21.4638C34.8426 21.5078 34.8795 21.4493 34.9076 21.3404C34.9488 21.1806 35.0035 21.0243 35.0486 20.8654C35.0817 20.749 35.1973 20.6608 35.2146 20.5663C35.2331 20.4655 35.1465 20.3426 35.1342 20.2148C35.0844 19.6989 35.0168 19.1847 34.9575 18.6696C34.9472 18.5804 34.9282 18.4942 34.8448 18.4489C34.4177 18.2168 34.1352 17.8404 33.9293 17.4264C33.7212 17.0081 33.412 16.6569 33.2131 16.2371C33.1632 16.1318 33.0767 16.069 32.9652 16.0342C32.3846 15.8531 31.7824 15.8064 31.1825 15.7454C31.1097 15.738 31.0449 15.7587 30.9771 15.7841C30.793 15.8529 30.6086 15.9236 30.4194 15.9754C29.882 16.1225 29.3851 16.3244 28.9866 16.7459C28.8133 16.9291 28.7387 17.0987 28.7921 17.3304C28.8282 17.4868 28.8416 17.6457 28.8147 17.7996C28.6564 18.705 28.5239 19.6134 28.4425 20.5294C28.4268 20.7064 28.4124 20.9016 28.2655 21.0298C28.105 21.1699 28.1526 21.3575 28.1226 21.5275C28.1183 21.5519 28.1409 21.588 28.1612 21.6087C28.2716 21.7208 28.612 21.7742 28.7557 21.6995C29.0005 21.5724 29.247 21.4503 29.5136 21.3743C30.0582 21.219 30.5927 21.0338 31.1225 20.8346C31.1701 20.8168 31.2161 20.7661 31.292 20.8267C31.1771 20.9314 31.0406 20.9879 30.9045 21.0378C30.5505 21.1679 30.1936 21.2901 29.8377 21.415C29.5168 21.5276 29.213 21.6738 28.9326 21.8679C28.8423 21.9305 28.7921 21.9938 28.8868 22.0916C28.9085 22.1141 28.9286 22.1395 28.9183 22.1751C28.89 22.2027 28.8592 22.1869 28.8302 22.1783C28.5158 22.0855 28.2579 21.8683 27.9379 21.7815C27.7956 21.7429 27.7775 21.6335 27.8656 21.4989C27.9484 21.3723 28.0044 21.2341 28.0623 21.0969C28.1593 20.867 28.1332 20.7091 27.9389 20.5535C27.8299 20.4661 27.8608 20.3396 27.803 20.2542C27.7419 20.1639 27.6006 20.135 27.5595 20.0106C27.557 20.0032 27.5524 19.9964 27.5502 19.989C27.4872 19.7783 27.3986 19.5714 27.3672 19.3561C27.3142 18.9919 27.1108 18.7001 26.9519 18.3866C26.8817 18.2482 26.8312 18.2502 26.7653 18.3856C26.6546 18.6128 26.5313 18.8316 26.3853 19.0377C26.3208 19.1287 26.3135 19.2179 26.3622 19.3244C26.4503 19.5173 26.5279 19.7154 26.6016 19.9144C26.6705 20.1004 26.6231 20.2352 26.4499 20.3239C26.3687 20.3655 26.3103 20.4136 26.2633 20.4921C26.1751 20.6391 26.1647 20.6389 26.0563 20.5074C25.9807 20.4157 25.9103 20.3575 25.8121 20.4759C25.7447 20.5571 25.6539 20.5682 25.5558 20.5677C25.4545 20.5672 25.349 20.5506 25.2565 20.6104C25.15 20.6792 25.0564 20.6567 24.9915 20.5577C24.923 20.4534 24.8643 20.4924 24.8043 20.5553C24.7723 20.5889 24.7509 20.6326 24.7245 20.6717C24.6285 20.8141 24.6091 20.8157 24.5083 20.6892C24.3592 20.5021 24.3563 20.497 24.1501 20.613C24.0315 20.6797 23.9427 20.6743 23.8721 20.5534C23.8179 20.4605 23.7375 20.3836 23.6381 20.3678C23.4839 20.3433 23.4632 20.2602 23.4889 20.1344C23.5469 19.8501 23.4863 19.5693 23.4559 19.2889C23.4427 19.1667 23.4043 19.0423 23.3281 18.9374C23.2963 18.8936 23.2695 18.8333 23.2042 18.8454C23.1372 18.8577 23.1349 18.9288 23.1273 18.9776C23.0848 19.2543 23.0988 19.5271 23.2252 19.7826C23.2777 19.8889 23.3378 19.9907 23.3389 20.113C23.3402 20.2602 23.2938 20.3 23.1566 20.239C23.0881 20.2085 23.0348 20.2244 22.9767 20.2348C22.8937 20.2497 22.7903 20.1295 22.7433 20.2265C22.7028 20.3101 22.8215 20.3859 22.8682 20.4645C22.94 20.5853 23.0809 20.6509 23.1444 20.7834C23.227 20.9556 23.1652 21.0736 22.9764 21.1082C22.9028 21.1216 22.8643 21.1074 22.8881 21.0273C22.9175 20.9285 22.8503 20.8819 22.7892 20.8333C22.6325 20.7089 22.3794 20.7184 22.2266 20.8553C22.1681 20.9077 22.1173 20.9686 22.0603 21.0228C22.0201 21.0609 21.9749 21.0996 21.9142 21.0673C21.8457 21.0309 21.8467 20.9642 21.8592 20.9015C21.8682 20.8564 21.8884 20.8121 21.9103 20.771C22.0099 20.5844 22.0115 20.5825 21.803 20.5168C21.3375 20.3701 20.8464 20.3266 20.384 20.1672C20.3259 20.1472 20.2764 20.1752 20.2228 20.1823C20.121 20.1958 20.0593 20.1451 20.0252 20.053C19.9339 19.8066 19.9336 19.8062 19.6996 19.8868C19.6453 19.9055 19.5925 19.919 19.547 19.871C19.5083 19.8303 19.5178 19.7825 19.54 19.7393C19.5992 19.6237 19.5668 19.5165 19.537 19.398C19.5048 19.2704 19.4321 19.1574 19.4654 18.9989C19.4905 18.8798 19.3975 18.6666 19.2617 18.6622C19.0207 18.6545 19.0184 18.5149 18.9908 18.3538C18.9732 18.2515 18.913 18.1652 18.8379 18.0925C18.8045 18.0601 18.7662 18.0112 18.7186 18.0304C18.6067 18.0757 18.5063 18.035 18.3981 18.0191C18.2619 17.999 18.1295 18.0604 18.0325 18.1483C17.9558 18.2178 18.0422 18.3072 18.0703 18.386C18.1274 18.5468 18.0998 18.5995 17.912 18.6462C17.6642 18.7079 17.6558 18.7159 17.7615 18.9375C17.7649 18.9446 17.7672 18.9522 17.7696 18.9597C17.8155 19.099 17.799 19.1373 17.6596 19.1431C17.5757 19.1467 17.5114 19.1642 17.4468 19.2192C17.2948 19.3488 17.1152 19.3925 16.9174 19.3642C16.8234 19.3508 16.7297 19.3579 16.635 19.3646C16.4447 19.378 16.2905 19.4204 16.2943 19.6577C16.2951 19.708 16.262 19.7481 16.2069 19.7525C16.1537 19.7568 16.122 19.7213 16.0956 19.6794C15.9844 19.5024 16.0809 19.265 16.2962 19.1835C16.4712 19.1173 16.6536 19.1375 16.834 19.134C17.0843 19.1292 17.2888 18.9475 17.3073 18.699C17.3186 18.5465 17.3836 18.4306 17.5329 18.4076C17.6957 18.3826 17.7014 18.2909 17.7027 18.161C17.7048 17.9582 17.8236 17.8639 18.024 17.8824C18.3206 17.9099 18.4892 17.8 18.5717 17.5133C18.6063 17.393 18.6347 17.2685 18.6454 17.1442C18.7056 16.4423 18.8843 15.7847 19.3075 15.2047C19.4647 14.9892 19.5896 14.7502 19.7288 14.5216C19.8192 14.3732 19.9234 14.2351 20.0343 14.1017C20.0799 14.0469 20.1311 13.9983 20.1946 13.964C20.2238 13.9482 20.2551 13.9395 20.2818 13.9625C20.323 13.998 20.3001 14.0351 20.273 14.0645C20.1711 14.175 20.0793 14.2937 20.0043 14.423C19.728 14.8996 19.4538 15.3775 19.1832 15.8574C19.0822 16.0367 19.0248 16.2323 18.987 16.4355C18.9067 16.8661 18.9178 17.3165 18.7101 17.7202C18.6679 17.8022 18.7002 17.8411 18.7932 17.8649C18.9906 17.9154 19.1166 18.0583 19.1879 18.2414C19.2354 18.3633 19.2951 18.4464 19.4225 18.5073C19.6727 18.627 19.7759 18.8988 19.6918 19.1586C19.6716 19.2208 19.6719 19.2596 19.7188 19.3029C19.7851 19.3641 19.81 19.4495 19.8358 19.5316C19.8561 19.5968 19.8807 19.6505 19.9588 19.6512C20.1053 19.6524 20.2127 19.7266 20.3001 19.8349C20.3493 19.8959 20.4177 19.9088 20.4869 19.9246C20.8702 20.0123 21.2541 20.0972 21.6362 20.1896C21.7964 20.2284 21.9617 20.2651 22.1078 20.337C22.2253 20.395 22.3395 20.4209 22.4952 20.4269C22.4564 20.3333 22.4191 20.2632 22.3981 20.1885ZM28.2846 19.7309C28.4137 19.1249 28.4808 18.5052 28.6707 17.9131C28.7355 17.7112 28.673 17.5247 28.663 17.3314C28.6589 17.2526 28.6 17.2508 28.542 17.2696C28.4488 17.2997 28.3561 17.2931 28.262 17.2773C28.1989 17.2667 28.1348 17.2665 28.0807 17.3075C27.7673 17.5454 27.4055 17.7086 27.0973 17.9573C26.9712 18.0591 26.9676 18.1306 27.0525 18.2468C27.2157 18.4702 27.3235 18.725 27.4493 18.9694C27.4998 19.0676 27.5243 19.1741 27.5494 19.282C27.6232 19.6005 27.6719 19.9289 27.9204 20.1796C28.0102 20.2702 28.0247 20.4247 28.1647 20.4966C28.273 20.2475 28.2311 19.9816 28.2846 19.7309ZM35.6177 20.8837C35.682 20.9433 35.7632 20.9769 35.8433 21.0063C36.0797 21.0932 36.3093 21.1921 36.5085 21.3495C36.5826 21.408 36.6402 21.4143 36.7062 21.3329C36.7849 21.2358 36.876 21.1487 36.9618 21.0573C37.0552 20.9577 37.0476 20.8623 36.9491 20.7717C36.7929 20.6281 36.6517 20.4712 36.5262 20.2999C36.4897 20.2501 36.4494 20.1909 36.3729 20.2286C36.2099 20.3091 36.0354 20.2831 35.8644 20.2873C35.7518 20.2902 35.6488 20.3203 35.5534 20.3797C35.474 20.4291 35.43 20.4977 35.435 20.5934C35.4425 20.7239 35.5312 20.8036 35.6177 20.8837Z"
        fill="black"
        stroke="black"
        stroke-width="0.24925"
        stroke-miterlimit="10"
    />
    <path
        d="M20.9292 13.929C20.8651 13.8097 20.7613 13.7676 20.6701 13.7106C20.5062 13.6083 20.4842 13.3922 20.636 13.2667C20.8171 13.1169 20.9899 12.9528 21.2164 12.8679C21.7353 12.6735 22.2027 12.3809 22.6752 12.0986C23.0039 11.9023 23.3658 11.9335 23.7239 11.9357C23.9597 11.9371 24.1014 12.0631 24.2185 12.2638C24.3446 12.4798 24.5123 12.6717 24.6631 12.8732C24.6852 12.9027 24.7085 12.9474 24.7564 12.9132C24.7905 12.8888 24.807 12.847 24.7912 12.8086C24.7643 12.7436 24.7323 12.6797 24.6944 12.6204C24.5588 12.4083 24.4194 12.1986 24.2826 11.9872C24.2528 11.9412 24.2196 11.8946 24.203 11.8434C24.1673 11.7327 24.2155 11.6762 24.3336 11.6953C24.4573 11.7155 24.5784 11.7702 24.7015 11.7731C25.1159 11.7828 25.4432 12.003 25.782 12.1965C26.3011 12.4929 26.8187 12.7929 27.3643 13.0379C27.6065 13.1466 27.7453 13.3209 27.831 13.564C28.0269 14.1197 28.2278 14.6738 28.4383 15.2241C28.5853 15.6082 28.5935 15.6046 28.3777 15.9508C28.29 16.0916 28.1914 16.2236 28.0783 16.345C28.0298 16.397 27.9832 16.4516 27.9672 16.5232C27.9539 16.5825 27.9723 16.6317 28.0257 16.6652C28.0707 16.6934 28.1173 16.6921 28.1583 16.6625C28.1962 16.6351 28.2321 16.6031 28.2623 16.5675C28.4515 16.3443 28.6114 16.1022 28.7331 15.8352C28.7811 15.7299 28.7948 15.6268 28.7494 15.5164C28.4772 14.855 28.2863 14.1634 27.9993 13.507C27.8871 13.2503 27.7269 13.0493 27.471 12.9304C26.7639 12.6019 26.1045 12.1848 25.4139 11.8255C25.2799 11.7559 25.15 11.7083 24.9888 11.7206C24.7825 11.7363 24.5972 11.6176 24.3986 11.5717C24.115 11.5061 24.1127 11.4994 24.0146 11.7736C23.9787 11.8739 23.9372 11.8852 23.844 11.8388C23.4706 11.653 23.0921 11.6973 22.7421 11.8829C22.1802 12.1809 21.6503 12.5383 21.0539 12.7725C20.8313 12.8599 20.6604 13.0311 20.4731 13.1736C20.3608 13.259 20.301 13.5451 20.3534 13.6737C20.3691 13.712 20.3953 13.7483 20.4357 13.7503C20.6127 13.7592 20.756 13.8631 20.9292 13.929Z"
        fill="black"
        stroke="black"
        stroke-width="0.24925"
        stroke-miterlimit="10"
    />
    <path
        d="M2.99076 22.5247C3.08402 22.6093 3.15186 22.6198 3.22431 22.6235C3.82096 22.6542 4.41239 22.7379 5.00577 22.8018C5.15479 22.8178 5.30423 22.824 5.452 22.7895C5.54514 22.7678 5.64392 22.7498 5.73258 22.7772C5.88214 22.8234 6.00717 22.7826 6.13864 22.7191C6.24793 22.6664 6.34671 22.6175 6.38181 22.4853C6.41046 22.3774 6.46994 22.4149 6.50171 22.4838C6.54767 22.5834 6.57819 22.69 6.61853 22.7923C6.63629 22.8373 6.66611 22.879 6.72321 22.8638C6.76969 22.8514 6.77439 22.8058 6.77106 22.7667C6.76068 22.6456 6.81436 22.5682 6.92932 22.5397C7.05408 22.5088 7.13492 22.588 7.16538 22.687C7.21216 22.8391 7.38071 22.8495 7.45761 22.9699C7.48471 23.0125 7.60703 22.9537 7.64572 22.8784C7.68659 22.7988 7.67054 22.6918 7.58414 22.6841C7.41681 22.6693 7.35318 22.5509 7.26044 22.4481C7.15415 22.3301 7.00885 22.3021 6.87506 22.39C6.72803 22.4865 6.6677 22.4217 6.61628 22.293C6.59314 22.2351 6.54789 22.1826 6.53769 22.1234C6.47043 21.7331 6.25925 21.4092 6.07053 21.0736C6.02628 20.9949 5.96814 20.9636 5.88901 20.9428C5.40305 20.8152 4.91236 20.7098 4.41684 20.6274C4.23856 20.5978 4.0607 20.5751 3.90192 20.4757C3.76258 20.3884 3.61664 20.4044 3.47434 20.4762C3.26313 20.5827 3.06156 20.7052 2.86826 20.8414C2.7396 20.9321 2.62024 21.0427 2.47998 21.109C2.12342 21.2776 1.93204 21.5894 1.74018 21.9056C1.70639 21.9612 1.6724 22.021 1.702 22.0825C1.78272 22.2503 1.93189 22.3591 2.06717 22.4778C2.1673 22.5657 2.28546 22.5188 2.4028 22.5088C2.23285 22.4115 2.11707 22.2615 1.97434 22.1432C1.87348 22.0595 1.88083 21.9893 1.94739 21.8823C2.05216 21.7138 2.15378 21.5694 2.35959 21.4946C2.53235 21.4318 2.68018 21.2985 2.83618 21.1922C2.97925 21.0948 3.12912 21.0036 3.2573 20.8888C3.53159 20.6431 3.81644 20.6208 4.176 20.7038C4.694 20.8233 5.22525 20.8911 5.7461 21.0086C5.87037 21.0367 5.92051 21.0836 5.96167 21.2095C6.04187 21.4549 6.16379 21.6866 6.26825 21.9241C6.34284 22.0937 6.2674 22.3849 6.12088 22.4849C6.05332 22.531 5.98996 22.5356 5.9437 22.4519C5.92093 22.4107 5.8967 22.37 5.86966 22.3315C5.80884 22.2449 5.723 22.2149 5.62152 22.2349C5.52115 22.2546 5.47287 22.3283 5.47367 22.422C5.47504 22.5877 5.37738 22.6091 5.24335 22.6123C4.77845 22.6233 4.3169 22.5909 3.8559 22.5322C3.58301 22.4975 3.30799 22.5132 2.99076 22.5247Z"
        fill="black"
        stroke="black"
        stroke-width="0.24925"
        stroke-miterlimit="10"
    />
    <path
        d="M37.9789 24.4215C37.9732 24.269 38.0038 24.1208 38.066 23.9848C38.2516 23.5796 38.2773 23.1195 38.5314 22.7326C38.6342 22.576 38.7043 22.3839 38.7892 22.2077C38.8917 21.9951 39.0507 21.9528 39.2532 21.9859C39.4647 22.0203 39.6775 22.0214 39.8896 22.0165C40.1279 22.011 40.3519 22.0152 40.443 22.2957C40.4496 22.3159 40.475 22.3297 40.4907 22.3474C40.7674 22.6594 41.0436 22.9718 41.3211 23.2832C41.3583 23.3249 41.3883 23.3654 41.3996 23.4238C41.4666 23.7703 41.5689 24.1123 41.5419 24.4708C41.5324 24.5972 41.5666 24.6562 41.7005 24.7008C41.9378 24.7799 41.9909 25.0874 41.8119 25.2346C41.7097 25.3186 41.5926 25.3064 41.5277 25.2017C41.4823 25.1284 41.4814 25.0601 41.5842 25.0454C41.6484 25.0362 41.7196 25.0509 41.7028 24.9516C41.6894 24.8726 41.6319 24.8681 41.5615 24.8638C41.3326 24.8497 41.3229 24.8388 41.3309 24.6123C41.3421 24.2957 41.2889 23.9858 41.2422 23.675C41.2356 23.6313 41.2496 23.5729 41.1897 23.5573C41.1363 23.5435 41.1038 23.5885 41.071 23.6205C40.9301 23.7575 40.8084 23.9122 40.6591 24.0427C40.4745 24.2039 40.252 24.3212 40.0867 24.4964C39.9657 24.6248 39.8872 24.6214 39.7506 24.5475C39.606 24.4692 39.447 24.4212 39.2736 24.4529C39.0976 24.4852 39.0812 24.4678 39.114 24.2899C39.1468 24.1124 39.1842 23.9355 39.2285 23.7605C39.2453 23.6938 39.2501 23.6369 39.2038 23.5843C39.0373 23.395 38.8846 23.1955 38.7436 22.9863C38.6927 22.9107 38.652 22.9549 38.6297 23.017C38.6193 23.0461 38.6168 23.0785 38.6134 23.1097C38.5707 23.5113 38.4436 23.8932 38.3351 24.279C38.2759 24.4898 38.2332 24.5076 38.0111 24.46C38.0003 24.4472 37.9897 24.4343 37.9789 24.4215ZM38.8546 22.4651C38.8073 22.572 38.7011 22.6619 38.6825 22.7699C38.6614 22.8929 38.8195 22.9417 38.8832 23.0379C38.974 23.175 39.0791 23.306 39.1962 23.4212C39.3608 23.5832 39.4011 23.7717 39.3503 23.9832C39.2735 24.3037 39.3522 24.3279 39.6039 24.3467C39.6499 24.3501 39.6977 24.3659 39.7391 24.3868C39.8457 24.4406 39.9281 24.4057 40.0216 24.344C40.3587 24.1214 40.6591 23.8582 40.9415 23.5704C41.1901 23.317 41.1931 23.3257 40.9632 23.056C40.7947 22.8585 40.6325 22.6554 40.4741 22.4496C40.3566 22.2969 40.2229 22.2035 40.0163 22.2178C39.8044 22.2324 39.5954 22.1565 39.3585 22.1805C39.1045 22.0887 38.9586 22.2305 38.8546 22.4651Z"
        fill="black"
        stroke="black"
        stroke-width="0.24925"
        stroke-miterlimit="10"
    />
    <path
        d="M24.7846 13.2695C24.8905 13.6285 24.9802 13.994 25.0484 14.3587C25.1344 14.818 25.3394 15.2085 25.5634 15.6005C25.6266 15.7111 25.6009 15.8324 25.5868 15.9474C25.5592 16.1733 25.4983 16.3947 25.496 16.6243C25.4954 16.6815 25.4856 16.7481 25.419 16.7529C25.2287 16.7665 25.0352 16.8666 24.8474 16.7388C24.7956 16.7035 24.7337 16.6819 24.6852 16.6431C24.2146 16.2663 23.684 15.9937 23.1391 15.7448C22.9242 15.6466 22.7252 15.5195 22.5286 15.389C22.4964 15.3676 22.4537 15.3413 22.4236 15.3806C22.393 15.4205 22.4329 15.4504 22.4608 15.4767C22.5532 15.5638 22.6611 15.6296 22.771 15.6901C23.3841 16.0277 24.0047 16.353 24.5443 16.8074C24.58 16.8375 24.6267 16.8543 24.6634 16.8835C24.9015 17.0727 25.1423 17.041 25.3847 16.8946C25.4935 16.8288 25.5993 16.7473 25.7014 16.9073C25.7277 16.9484 25.7803 16.9545 25.8298 16.9502C26.3848 16.9026 26.9398 16.8551 27.4919 16.7793C27.5352 16.7733 27.6081 16.7652 27.5975 16.7102C27.5822 16.631 27.5047 16.6468 27.4419 16.6532C26.9501 16.703 26.4588 16.7602 25.9641 16.776C25.7318 16.7835 25.7162 16.7616 25.7713 16.5466C25.836 16.2939 25.8561 16.0357 25.8578 15.7753C25.8585 15.6655 25.8051 15.5852 25.745 15.4991C25.4976 15.1449 25.2501 14.7894 25.1353 14.364C25.0639 14.1 25.0587 13.8206 24.9475 13.5654C24.9041 13.4658 24.871 13.3617 24.8333 13.2596C24.8171 13.2629 24.8008 13.2662 24.7846 13.2695Z"
        fill="black"
        stroke="black"
        stroke-width="0.24925"
        stroke-miterlimit="10"
    />
    <path
        d="M10.268 12.0988C10.0276 12.1964 9.85096 12.3368 9.74436 12.5315C9.67335 12.6611 9.60972 12.7947 9.52528 12.9176C9.369 13.145 9.22685 13.3809 9.14478 13.6466C9.08561 13.8382 9.11518 13.8902 9.29643 13.9776C9.41664 14.0355 9.53727 14.0944 9.65034 14.1647C9.74299 14.2223 9.82517 14.2177 9.91493 14.1676C9.99085 14.1252 10.0651 14.0816 10.1237 14.0158C10.4561 13.6424 10.8427 13.3412 11.2789 13.0934C11.7179 12.8441 11.6865 12.8382 11.4925 12.3797C11.3651 12.0785 11.1819 11.9397 10.8652 11.9257C10.7421 11.9202 10.6187 11.878 10.4922 11.8867C10.4368 11.8904 10.3737 11.9025 10.3781 11.9767C10.3816 12.036 10.4356 12.0466 10.4841 12.0442C10.5969 12.0388 10.6994 12.0902 10.8087 12.0993C11.1261 12.1259 11.2797 12.3416 11.4072 12.5981C11.4577 12.6996 11.4356 12.7585 11.3449 12.8105C11.2152 12.8847 11.0893 12.9657 10.958 13.0369C10.685 13.185 10.4476 13.3734 10.2513 13.6161C10.1676 13.7195 10.0608 13.8039 9.97233 13.9039C9.86762 14.0221 9.76975 14.0126 9.64375 13.9301C9.35584 13.7417 9.34904 13.7456 9.46913 13.4298C9.52485 13.2834 9.5962 13.1428 9.66132 12.9999C9.69392 12.9285 9.74928 12.8605 9.75813 12.7865C9.78455 12.5663 9.92036 12.4451 10.1003 12.3473C10.1804 12.3038 10.2511 12.2407 10.268 12.0988Z"
        fill="black"
        stroke="black"
        stroke-width="0.24925"
        stroke-miterlimit="10"
    />
    <path
        d="M38.6736 25.0508C38.6051 25.0752 38.5747 25.0429 38.5645 24.9751C38.551 24.8852 38.512 24.8097 38.4242 24.7713C38.3872 24.7551 38.3456 24.7528 38.3147 24.785C38.2809 24.8203 38.2962 24.861 38.3213 24.8914C38.4104 24.9994 38.5154 25.094 38.5421 25.2447C38.5507 25.2935 38.6119 25.2879 38.6631 25.2783C38.8517 25.2428 38.8833 25.2673 38.9195 25.4584C38.9506 25.6228 38.9777 25.6462 39.1092 25.5698C39.2026 25.5155 39.2694 25.5163 39.336 25.5937C39.3984 25.6662 39.4207 25.7459 39.3504 25.8271C39.2498 25.9436 39.3282 25.9546 39.4242 25.9536C39.5315 25.9525 39.5946 25.8902 39.6413 25.7993C39.7375 25.6118 39.9699 25.5132 40.175 25.5779C40.2818 25.6116 40.3682 25.5903 40.3491 25.4749C40.3191 25.2943 40.4284 25.2727 40.5493 25.2662C40.6732 25.2596 40.7569 25.2416 40.767 25.087C40.7735 24.9871 40.8753 24.966 40.9677 24.9616C41.0249 24.9589 41.0869 24.9443 41.0911 24.8771C41.0959 24.7982 41.0272 24.7783 40.9652 24.7622C40.7696 24.7111 40.6407 24.7747 40.5465 24.967C40.5296 25.0014 40.5331 25.0682 40.4969 25.0671C40.2804 25.061 40.15 25.2685 39.9446 25.2822C39.8522 25.2884 39.766 25.3216 39.7243 25.3995C39.6565 25.5263 39.5929 25.4941 39.506 25.4257C39.431 25.3666 39.3355 25.3503 39.2431 25.3282C39.0994 25.294 39.0546 25.2278 39.0752 25.0767C39.0944 24.9349 39.0993 24.7929 39.072 24.654C39.0564 24.5747 39.0374 24.4559 38.9256 24.4736C38.7945 24.4943 38.8365 24.6178 38.839 24.707C38.8401 24.7451 38.862 24.7821 38.8689 24.8206C38.9061 25.0257 38.8849 25.0503 38.6736 25.0508Z"
        fill="black"
        stroke="black"
        stroke-width="0.24925"
        stroke-miterlimit="10"
    />
    <path
        d="M8.85674 11.3567C8.65975 11.1963 8.44805 11.1436 8.22554 11.1377C7.94222 11.1301 7.65856 11.1373 7.37505 11.1358C7.26635 11.1352 7.1791 11.1489 7.13289 11.2733C7.08477 11.403 6.9609 11.4747 6.85668 11.5573C6.67788 11.699 6.49105 11.8311 6.3167 11.978C6.17244 12.0996 6.182 12.1502 6.35119 12.2227C6.6834 12.3649 7.02407 12.488 7.34078 12.6646C7.39559 12.6951 7.44594 12.6893 7.49862 12.668C8.03243 12.4515 8.59685 12.3411 9.14992 12.1914C9.20971 12.1752 9.26742 12.1575 9.33645 12.0892C8.72619 12.1936 8.13604 12.2518 7.5775 12.4599C7.42684 12.5161 7.29357 12.5156 7.14745 12.4454C6.97075 12.3605 6.78466 12.2952 6.60259 12.2216C6.39675 12.1384 6.39614 12.126 6.55822 11.9905C6.76961 11.8139 6.98797 11.6434 7.18169 11.4488C7.29729 11.3327 7.41411 11.3069 7.56319 11.3214C7.93084 11.3571 8.30312 11.3098 8.66939 11.3823C8.72072 11.3924 8.77913 11.3986 8.85674 11.3567Z"
        fill="black"
        stroke="black"
        stroke-width="0.24925"
        stroke-miterlimit="10"
    />
    <path
        d="M33.7817 20.6856C33.8953 20.7665 33.9286 20.8927 33.9537 21.0116C34.0201 21.3252 34.0919 21.6392 34.0868 21.9632C34.0862 22.0037 34.0809 22.0492 34.133 22.0537C34.1785 22.0576 34.2025 22.0178 34.2085 21.9775C34.2389 21.7718 34.1993 21.57 34.1621 21.3698C34.1206 21.1468 34.0939 20.9181 33.9828 20.7146C33.9192 20.598 33.8497 20.4484 33.696 20.4815C33.5537 20.5121 33.5508 20.6734 33.5418 20.7968C33.5293 20.9692 33.5367 21.1414 33.5755 21.3126C33.5995 21.4185 33.5805 21.4951 33.4304 21.4584C33.2874 21.4235 33.1588 21.4648 33.1169 21.6282C33.0923 21.7241 33.0421 21.7282 32.9602 21.708C32.7959 21.6674 32.6422 21.6627 32.5856 21.8737C32.5617 21.9627 32.4754 21.9491 32.4124 21.9721C32.3551 21.9929 32.3201 22.0304 32.3133 22.0912C32.3055 22.1625 32.3418 22.212 32.3994 22.2464C32.4183 22.2577 32.4437 22.2581 32.4662 22.2635C32.5052 22.0879 32.751 22.1607 32.7916 22C32.8238 21.8726 32.9011 21.8834 32.9879 21.9102C33.0781 21.938 33.1617 21.9824 33.2367 22.0416C33.262 22.0616 33.2934 22.0764 33.3227 22.0552C33.3644 22.0249 33.3467 21.9874 33.327 21.9513C33.3045 21.91 33.283 21.8681 33.2618 21.826C33.2187 21.7402 33.2143 21.6481 33.2927 21.59C33.3774 21.5273 33.4737 21.5536 33.5529 21.6195C33.5822 21.644 33.6026 21.6792 33.6276 21.7091C33.664 21.7524 33.6732 21.8479 33.7574 21.8076C33.8248 21.7753 33.7955 21.697 33.7952 21.6359C33.7943 21.3997 33.7236 21.1698 33.7321 20.9327C33.735 20.8494 33.7036 20.7597 33.7817 20.6856Z"
        fill="black"
        stroke="black"
        stroke-width="0.24925"
        stroke-miterlimit="10"
    />
    <path
        d="M32.8555 16.7781C32.793 16.8369 32.79 16.9117 32.7813 16.9881C32.7245 17.4868 32.6598 17.9846 32.6077 18.4837C32.5685 18.8587 32.5247 19.2337 32.5412 19.6126C32.5458 19.7187 32.5809 19.8113 32.6193 19.9062C32.6663 20.0226 32.6468 20.1216 32.5327 20.1908C32.3494 20.302 32.2182 20.476 32.0426 20.5965C32.0143 20.6158 31.9911 20.6374 32.0106 20.6729C32.028 20.7044 32.0626 20.7104 32.0928 20.7011C32.1374 20.6874 32.184 20.672 32.2221 20.646C32.3843 20.5351 32.5467 20.4241 32.703 20.3051C32.7937 20.2361 32.8446 20.147 32.8242 20.0189C32.7494 19.5501 32.8023 19.0803 32.8214 18.6105C32.844 18.0532 32.9133 17.4979 32.8931 16.939C32.8913 16.8877 32.9075 16.8291 32.8555 16.7781Z"
        fill="black"
        stroke="black"
        stroke-width="0.24925"
        stroke-miterlimit="10"
    />
    <path
        d="M30.1621 22.2566C29.9847 22.2914 29.7679 22.2728 29.6228 22.456C29.5656 22.5282 29.4909 22.498 29.4265 22.4821C29.3277 22.4576 29.235 22.4022 29.1357 22.3877C28.8256 22.3426 28.5175 22.3957 28.2098 22.4293C28.182 22.4323 28.1527 22.4576 28.1316 22.4797C28.0619 22.5525 27.9594 22.6331 28.0419 22.739C28.1275 22.849 28.2126 22.7438 28.2814 22.6908C28.6462 22.4098 29.0414 22.423 29.4379 22.5888C29.5899 22.6524 29.6782 22.6307 29.8187 22.5484C30.0157 22.4329 30.2513 22.3213 30.4835 22.5077C30.5286 22.5439 30.5554 22.5172 30.5798 22.4834C30.6226 22.424 30.5948 22.3754 30.5446 22.3438C30.4349 22.2748 30.3101 22.2591 30.1621 22.2566Z"
        fill="black"
        stroke="black"
        stroke-width="0.24925"
        stroke-miterlimit="10"
    />
    <path
        d="M7.7943 13.2547C7.59762 13.2277 7.42061 13.2878 7.24889 13.3602C7.12884 13.4108 7.09893 13.5001 7.17409 13.6061C7.29204 13.7725 7.41634 13.938 7.57873 14.0643C7.72509 14.1782 7.88952 14.1537 8.04751 14.084C8.16381 14.0327 8.25909 13.9494 8.35058 13.8622C8.55025 13.6719 8.55517 13.5975 8.37728 13.3875C8.31078 13.309 8.23461 13.241 8.14352 13.1916C8.11355 13.1753 8.08102 13.1727 8.06008 13.2044C8.03942 13.2356 8.05501 13.2664 8.07918 13.2875C8.13817 13.3392 8.20324 13.3842 8.25976 13.4383C8.40859 13.5806 8.40456 13.6458 8.24294 13.7788C8.20666 13.8087 8.16595 13.8332 8.12762 13.8606C7.74383 14.1356 7.54186 13.9501 7.31982 13.5973C7.26552 13.5111 7.31615 13.465 7.3868 13.4328C7.52163 13.3712 7.65835 13.3138 7.7943 13.2547Z"
        fill="black"
        stroke="black"
        stroke-width="0.24925"
        stroke-miterlimit="10"
    />
    <path
        d="M38.011 24.46C38.0002 24.4472 37.9896 24.4344 37.9789 24.4216C37.8931 24.3843 37.8094 24.3411 37.7211 24.3112C37.5847 24.265 37.5016 24.296 37.4691 24.4323C37.4459 24.5297 37.3908 24.5752 37.3199 24.6261C37.2261 24.6935 37.1989 24.7916 37.2453 24.8967C37.3315 25.0918 37.4823 25.223 37.6781 25.3038C37.7075 25.3159 37.7404 25.323 37.7663 25.2996C37.8062 25.2635 37.7787 25.2281 37.7567 25.1971C37.7027 25.1203 37.6432 25.0472 37.5923 24.9685C37.5677 24.9303 37.5332 24.8538 37.5449 24.844C37.6411 24.7626 37.7419 24.6832 37.8528 24.6246C37.8909 24.6045 37.9586 24.7102 38.0173 24.6405C38.0638 24.5853 38.0074 24.5209 38.011 24.46Z"
        fill="black"
        stroke="black"
        stroke-width="0.24925"
        stroke-miterlimit="10"
    />
    <path
        d="M22.2165 15.2851C22.0672 15.2955 21.936 15.3389 21.842 15.448C21.7577 15.5458 21.6688 15.571 21.5518 15.5186C21.4375 15.4675 21.4926 15.3765 21.4898 15.2953C21.4795 14.9881 21.4147 14.6904 21.3179 14.3994C21.307 14.3665 21.3017 14.3106 21.2477 14.3312C21.2088 14.3461 21.1998 14.396 21.2099 14.4339C21.2446 14.5642 21.2328 14.7005 21.2601 14.8301C21.2981 15.0104 21.3001 15.187 21.2681 15.3674C21.2391 15.5309 21.2776 15.5951 21.4389 15.6487C21.5425 15.6832 21.6517 15.7007 21.7575 15.7293C21.8079 15.743 21.8648 15.7431 21.8836 15.6981C21.9545 15.529 22.1007 15.4223 22.2165 15.2851Z"
        fill="black"
        stroke="black"
        stroke-width="0.24925"
        stroke-miterlimit="10"
    />
    <path
        d="M27.0107 20.5105C27.0131 20.5998 26.9786 20.6803 26.9468 20.7603C26.9035 20.869 26.9027 20.9529 27.051 20.9461C27.1923 20.9397 27.1759 21.0558 27.2166 21.1338C27.2488 21.1954 27.228 21.3276 27.3398 21.2995C27.4486 21.2721 27.4158 21.1587 27.3964 21.0767C27.3821 21.0164 27.3586 20.9534 27.3221 20.9044C27.2324 20.7839 27.2072 20.652 27.2161 20.5062C27.2237 20.3812 27.1753 20.274 27.0807 20.1925C26.9366 20.0686 26.7164 20.1285 26.6546 20.3039C26.6401 20.3453 26.641 20.3821 26.6715 20.4125C26.7107 20.4516 26.7398 20.4242 26.7683 20.3935C26.8092 20.3495 26.8413 20.2732 26.9171 20.3086C26.9972 20.3461 27.0093 20.4291 27.0107 20.5105Z"
        fill="black"
        stroke="black"
        stroke-width="0.24925"
        stroke-miterlimit="10"
    />
    <path
        d="M3.22632 21.8737C3.94229 22.1233 4.63876 22.1747 5.25659 21.6274C4.92139 21.7025 4.63379 21.9359 4.27878 21.9477C3.927 21.9595 3.58011 21.8833 3.22632 21.8737Z"
        fill="black"
        stroke="black"
        stroke-width="0.24925"
        stroke-miterlimit="10"
    />
    <path
        d="M35.4597 22.2661C35.6267 22.137 35.6447 22.2777 35.6796 22.4034C35.6918 22.4474 35.7279 22.4912 35.7843 22.4788C35.85 22.4644 35.8721 22.4115 35.8556 22.3517C35.8222 22.2307 35.7898 22.1074 35.6982 22.0134C35.6477 21.9617 35.5865 21.907 35.5129 21.937C35.4172 21.976 35.3287 22.0045 35.2222 21.9813C35.1677 21.9695 35.1139 22.012 35.1064 22.0755C35.0979 22.1473 35.15 22.1775 35.21 22.1717C35.3074 22.1622 35.3545 22.2659 35.4597 22.2661Z"
        fill="black"
        stroke="black"
        stroke-width="0.24925"
        stroke-miterlimit="10"
    />
    <path
        d="M31.3587 22.0685C31.1863 22.067 30.9985 22.2359 30.9937 22.3695C30.9921 22.4145 31.0299 22.4364 31.0626 22.4559C31.1095 22.484 31.1814 22.5254 31.2084 22.4661C31.295 22.2764 31.45 22.3037 31.6064 22.3135C31.6589 22.3169 31.7263 22.3235 31.732 22.2452C31.7361 22.1891 31.685 22.1713 31.6412 22.1524C31.5401 22.1089 31.4346 22.0827 31.3587 22.0685Z"
        fill="black"
        stroke="black"
        stroke-width="0.24925"
        stroke-miterlimit="10"
    />
    <path
        d="M9.07868 11.459C9.09662 11.4888 9.11582 11.5327 9.14542 11.5678C9.24631 11.6874 9.3516 11.8033 9.4535 11.9221C9.48209 11.9555 9.51374 11.9714 9.55546 11.9569C9.59733 11.9423 9.61265 11.9062 9.61924 11.8659C9.64551 11.7054 9.31614 11.3603 9.15082 11.3742C9.10578 11.378 9.07703 11.3957 9.07868 11.459Z"
        fill="black"
        stroke="black"
        stroke-width="0.24925"
        stroke-miterlimit="10"
    />
</svg>