<svg width="41" height="39" viewBox="0 0 41 39" fill="none" xmlns="http://www.w3.org/2000/svg">
<path d="M7.09999 12.5181C7.09999 12.5181 5.59999 3.01814 11.9 2.51814C18.2 2.01814 20.6 12.0181 20.6 12.0181C20.6 12.0181 23.9 2.51814 28.9 2.51814C33.9 2.51814 35.3 8.21814 34.3 12.5181H37.6C39 12.5181 40 13.6181 40 14.9181V19.7181C40 21.1181 38.9 22.1182 37.6 22.1182H36.9V34.2181C36.9 36.4181 35.1 38.1181 33 38.1181H8.59999C6.39999 38.1181 4.7 36.3181 4.7 34.2181V22.2181H3.39999C1.99999 22.2181 1 21.1181 1 19.8181V14.9181C1 13.6181 2.09999 12.5181 3.39999 12.5181H7.09999Z" fill="black" stroke="black" stroke-width="1.1032" stroke-miterlimit="10" stroke-linecap="round" stroke-linejoin="round"/>
<mask id="mask0_427_5614" style="mask-type:luminance" maskUnits="userSpaceOnUse" x="1" y="2" width="39" height="37">
<path d="M7.09999 12.5181C7.09999 12.5181 5.59999 3.01814 11.9 2.51814C18.2 2.01814 20.6 12.0181 20.6 12.0181C20.6 12.0181 23.9 2.51814 28.9 2.51814C33.9 2.51814 35.3 8.21814 34.3 12.5181H37.6C39 12.5181 40 13.6181 40 14.9181V19.7181C40 21.1181 38.9 22.1182 37.6 22.1182H36.9V34.2181C36.9 36.4181 35.1 38.1181 33 38.1181H8.59999C6.39999 38.1181 4.7 36.3181 4.7 34.2181V22.2181H3.39999C1.99999 22.2181 1 21.1181 1 19.8181V14.9181C1 13.6181 2.09999 12.5181 3.39999 12.5181H7.09999Z" fill="white"/>
</mask>
<g mask="url(#mask0_427_5614)">
<path d="M5.7 45.1182C10.2287 45.1182 13.9 41.4469 13.9 36.9182C13.9 32.3894 10.2287 28.7181 5.7 28.7181C1.17126 28.7181 -2.5 32.3894 -2.5 36.9182C-2.5 41.4469 1.17126 45.1182 5.7 45.1182Z" fill="black"/>
</g>
<mask id="mask1_427_5614" style="mask-type:luminance" maskUnits="userSpaceOnUse" x="1" y="2" width="39" height="37">
<path d="M7.09999 12.5181C7.09999 12.5181 5.59999 3.01814 11.9 2.51814C18.2 2.01814 20.6 12.0181 20.6 12.0181C20.6 12.0181 23.9 2.51814 28.9 2.51814C33.9 2.51814 35.3 8.21814 34.3 12.5181H37.6C39 12.5181 40 13.6181 40 14.9181V19.7181C40 21.1181 38.9 22.1182 37.6 22.1182H36.9V34.2181C36.9 36.4181 35.1 38.1181 33 38.1181H8.59999C6.39999 38.1181 4.7 36.3181 4.7 34.2181V22.2181H3.39999C1.99999 22.2181 1 21.1181 1 19.8181V14.9181C1 13.6181 2.09999 12.5181 3.39999 12.5181H7.09999Z" fill="white"/>
</mask>
<g mask="url(#mask1_427_5614)">
<path d="M43.7 12.6182C43.7 16.5182 40.6 19.6182 36.7 19.6182C32.8 19.6182 29.7 16.5182 29.7 12.6182H43.7Z" fill="black"/>
</g>
<mask id="mask2_427_5614" style="mask-type:luminance" maskUnits="userSpaceOnUse" x="1" y="2" width="39" height="37">
<path d="M7.09999 12.5181C7.09999 12.5181 5.59999 3.01814 11.9 2.51814C18.2 2.01814 20.6 12.0181 20.6 12.0181C20.6 12.0181 23.9 2.51814 28.9 2.51814C33.9 2.51814 35.3 8.21814 34.3 12.5181H37.6C39 12.5181 40 13.6181 40 14.9181V19.7181C40 21.1181 38.9 22.1182 37.6 22.1182H36.9V34.2181C36.9 36.4181 35.1 38.1181 33 38.1181H8.59999C6.39999 38.1181 4.7 36.3181 4.7 34.2181V22.2181H3.39999C1.99999 22.2181 1 21.1181 1 19.8181V14.9181C1 13.6181 2.09999 12.5181 3.39999 12.5181H7.09999Z" fill="white"/>
</mask>
<g mask="url(#mask2_427_5614)">
<path d="M4.2 26.0181C6.79574 26.0181 8.89999 23.9139 8.89999 21.3181C8.89999 18.7224 6.79574 16.6182 4.2 16.6182C1.60426 16.6182 -0.5 18.7224 -0.5 21.3181C-0.5 23.9139 1.60426 26.0181 4.2 26.0181Z" fill="black"/>
</g>
<mask id="mask3_427_5614" style="mask-type:luminance" maskUnits="userSpaceOnUse" x="1" y="2" width="39" height="37">
<path d="M7.09999 12.5181C7.09999 12.5181 5.59999 3.01814 11.9 2.51814C18.2 2.01814 20.6 12.0181 20.6 12.0181C20.6 12.0181 23.9 2.51814 28.9 2.51814C33.9 2.51814 35.3 8.21814 34.3 12.5181H37.6C39 12.5181 40 13.6181 40 14.9181V19.7181C40 21.1181 38.9 22.1182 37.6 22.1182H36.9V34.2181C36.9 36.4181 35.1 38.1181 33 38.1181H8.59999C6.39999 38.1181 4.7 36.3181 4.7 34.2181V22.2181H3.39999C1.99999 22.2181 1 21.1181 1 19.8181V14.9181C1 13.6181 2.09999 12.5181 3.39999 12.5181H7.09999Z" fill="white"/>
</mask>
<g mask="url(#mask3_427_5614)">
<path d="M20.6 23.1182C20.6 25.7182 22.7 27.8182 25.3 27.8182C27.9 27.8182 30 25.7182 30 23.1182H20.6Z" fill="black"/>
</g>
<mask id="mask4_427_5614" style="mask-type:luminance" maskUnits="userSpaceOnUse" x="1" y="2" width="39" height="37">
<path d="M7.09999 12.5181C7.09999 12.5181 5.59999 3.01814 11.9 2.51814C18.2 2.01814 20.6 12.0181 20.6 12.0181C20.6 12.0181 23.9 2.51814 28.9 2.51814C33.9 2.51814 35.3 8.21814 34.3 12.5181H37.6C39 12.5181 40 13.6181 40 14.9181V19.7181C40 21.1181 38.9 22.1182 37.6 22.1182H36.9V34.2181C36.9 36.4181 35.1 38.1181 33 38.1181H8.59999C6.39999 38.1181 4.7 36.3181 4.7 34.2181V22.2181H3.39999C1.99999 22.2181 1 21.1181 1 19.8181V14.9181C1 13.6181 2.09999 12.5181 3.39999 12.5181H7.09999Z" fill="white"/>
</mask>
<g mask="url(#mask4_427_5614)">
<path d="M35.4 41.0181C37.9957 41.0181 40.1 38.9139 40.1 36.3182C40.1 33.7224 37.9957 31.6182 35.4 31.6182C32.8043 31.6182 30.7 33.7224 30.7 36.3182C30.7 38.9139 32.8043 41.0181 35.4 41.0181Z" fill="black"/>
</g>
<path d="M5.20001 22.7181H36.5" stroke="black" stroke-width="2.0026" stroke-miterlimit="10" stroke-linecap="round" stroke-linejoin="round"/>
<path d="M7.09999 12.5181C7.09999 12.5181 5.59999 3.01814 11.9 2.51814C18.2 2.01814 20.6 12.0181 20.6 12.0181C20.6 12.0181 23.9 2.51814 28.9 2.51814C33.9 2.51814 35.3 8.21814 34.3 12.5181H37.6C39 12.5181 40 13.6181 40 14.9181V19.7181C40 21.1181 38.9 22.1182 37.6 22.1182H36.9V34.2181C36.9 36.4181 35.1 38.1181 33 38.1181H8.59999C6.39999 38.1181 4.7 36.3181 4.7 34.2181V22.2181H3.39999C1.99999 22.2181 1 21.1181 1 19.8181V14.9181C1 13.6181 2.09999 12.5181 3.39999 12.5181H7.09999Z" stroke="black" stroke-width="1.3351" stroke-miterlimit="10" stroke-linecap="round" stroke-linejoin="round"/>
<path d="M24.2 12.7181C24.2 12.7181 24.9 7.61816 28.1 7.61816C31.3 7.61816 30.7 12.7181 30.7 12.7181H24.2Z" fill="black" stroke="black" stroke-width="1.1032" stroke-miterlimit="10" stroke-linecap="round" stroke-linejoin="round"/>
<path d="M17.2 12.7181C17.2 12.7181 16.5 7.61816 13.3 7.61816C10.1 7.61816 10.7 12.7181 10.7 12.7181H17.2Z" fill="black" stroke="black" stroke-width="1.1032" stroke-miterlimit="10" stroke-linecap="round" stroke-linejoin="round"/>
<path d="M22.8 38.4182H18.7C17.6 38.4182 16.7 37.6181 16.7 36.5181L15.6 14.2181C15.6 13.2181 16.4 12.5182 17.4 12.5182H24C25 12.5182 25.8 13.3181 25.8 14.2181L24.9 36.4182C24.8 37.6182 23.9 38.4182 22.8 38.4182Z" fill="black" stroke="black" stroke-width="1.0865" stroke-miterlimit="10" stroke-linecap="round" stroke-linejoin="round"/>
<path d="M7.09999 11.0181C7.09999 11.0181 5.59999 1.51814 11.9 1.01814C18.2 0.518144 20.6 10.5181 20.6 10.5181C20.6 10.5181 23.9 1.01814 28.9 1.01814C33.9 1.01814 35.3 6.71814 34.3 11.0181H37.6C39 11.0181 40 12.1181 40 13.4181V18.2181C40 19.6181 38.9 20.6182 37.6 20.6182H36.9V32.7181C36.9 34.9181 35.1 36.6181 33 36.6181H8.59999C6.39999 36.6181 4.7 34.8181 4.7 32.7181V20.7181H3.39999C1.99999 20.7181 1 19.6181 1 18.3181V13.4181C1 12.1181 2.09999 11.0181 3.39999 11.0181H7.09999Z" fill="#FDE958" stroke="black" stroke-width="1.1032" stroke-miterlimit="10" stroke-linecap="round" stroke-linejoin="round"/>
<mask id="mask5_427_5614" style="mask-type:luminance" maskUnits="userSpaceOnUse" x="1" y="1" width="39" height="36">
<path d="M7.09999 11.0181C7.09999 11.0181 5.59999 1.51814 11.9 1.01814C18.2 0.518144 20.6 10.5181 20.6 10.5181C20.6 10.5181 23.9 1.01814 28.9 1.01814C33.9 1.01814 35.3 6.71814 34.3 11.0181H37.6C39 11.0181 40 12.1181 40 13.4181V18.2181C40 19.6181 38.9 20.6182 37.6 20.6182H36.9V32.7181C36.9 34.9181 35.1 36.6181 33 36.6181H8.59999C6.39999 36.6181 4.7 34.8181 4.7 32.7181V20.7181H3.39999C1.99999 20.7181 1 19.6181 1 18.3181V13.4181C1 12.1181 2.09999 11.0181 3.39999 11.0181H7.09999Z" fill="white"/>
</mask>
<g mask="url(#mask5_427_5614)">
<path d="M5.7 43.6182C10.2287 43.6182 13.9 39.9469 13.9 35.4182C13.9 30.8894 10.2287 27.2181 5.7 27.2181C1.17126 27.2181 -2.5 30.8894 -2.5 35.4182C-2.5 39.9469 1.17126 43.6182 5.7 43.6182Z" fill="#FBBD1F"/>
<path d="M43.7 11.0182C43.7 14.9182 40.6 18.0182 36.7 18.0182C32.8 18.0182 29.7 14.9182 29.7 11.0182H43.7Z" fill="#FBBD1F"/>
<path d="M4.2 24.4182C6.79574 24.4182 8.89999 22.3139 8.89999 19.7181C8.89999 17.1224 6.79574 15.0182 4.2 15.0182C1.60426 15.0182 -0.5 17.1224 -0.5 19.7181C-0.5 22.3139 1.60426 24.4182 4.2 24.4182Z" fill="#FBBD1F"/>
<path d="M20.6 21.6182C20.6 24.2182 22.7 26.3182 25.3 26.3182C27.9 26.3182 30 24.2182 30 21.6182H20.6Z" fill="#FBBD1F"/>
<path d="M35.4 39.5181C37.9957 39.5181 40.1 37.4139 40.1 34.8182C40.1 32.2224 37.9957 30.1182 35.4 30.1182C32.8043 30.1182 30.7 32.2224 30.7 34.8182C30.7 37.4139 32.8043 39.5181 35.4 39.5181Z" fill="#FBBD1F"/>
</g>
<path d="M5.20001 21.2181H36.5" stroke="#CC8D00" stroke-width="2.0026" stroke-miterlimit="10" stroke-linecap="round" stroke-linejoin="round"/>
<path d="M7.09999 11.0181C7.09999 11.0181 5.59999 1.51814 11.9 1.01814C18.2 0.518144 20.6 10.5181 20.6 10.5181C20.6 10.5181 23.9 1.01814 28.9 1.01814C33.9 1.01814 35.3 6.71814 34.3 11.0181H37.6C39 11.0181 40 12.1181 40 13.4181V18.2181C40 19.6181 38.9 20.6182 37.6 20.6182H36.9V32.7181C36.9 34.9181 35.1 36.6181 33 36.6181H8.59999C6.39999 36.6181 4.7 34.8181 4.7 32.7181V20.7181H3.39999C1.99999 20.7181 1 19.6181 1 18.3181V13.4181C1 12.1181 2.09999 11.0181 3.39999 11.0181H7.09999Z" stroke="black" stroke-width="1.3351" stroke-miterlimit="10" stroke-linecap="round" stroke-linejoin="round"/>
<path d="M24.2 11.1182C24.2 11.1182 24.9 6.01816 28.1 6.01816C31.3 6.01816 30.7 11.1182 30.7 11.1182H24.2Z" fill="#A96636" stroke="black" stroke-width="1.1032" stroke-miterlimit="10" stroke-linecap="round" stroke-linejoin="round"/>
<path d="M17.2 11.1182C17.2 11.1182 16.5 6.01816 13.3 6.01816C10.1 6.01816 10.7 11.1182 10.7 11.1182H17.2Z" fill="#A96636" stroke="black" stroke-width="1.1032" stroke-miterlimit="10" stroke-linecap="round" stroke-linejoin="round"/>
<path d="M22.8 36.8182H18.7C17.6 36.8182 16.7 36.0182 16.7 34.9182L15.6 12.6182C15.6 11.6182 16.4 10.9182 17.4 10.9182H24C25 10.9182 25.8 11.7182 25.8 12.6182L24.9 34.8182C24.8 36.0182 23.9 36.8182 22.8 36.8182Z" fill="#FF886C" stroke="#E25C42" stroke-width="1.0865" stroke-miterlimit="10" stroke-linecap="round" stroke-linejoin="round"/>
</svg>
