<svg width="39" height="39" viewBox="0 0 39 39" fill="none" xmlns="http://www.w3.org/2000/svg">
<path d="M10.3595 7.25705C11.3308 4.82888 11.5736 2.52213 15.7015 3.00776C19.8294 3.6148 36.948 7.49985 37.9192 11.2635C38.7691 15.0272 34.5198 35.6666 28.4494 37.4877C22.379 39.3088 6.23166 32.0243 5.50321 28.3821C4.41054 23.2829 10.3595 7.25705 10.3595 7.25705Z" fill="black" stroke="black" stroke-width="1.49232" stroke-miterlimit="10"/>
<path d="M2.71084 14.1773C2.34661 13.9345 2.1038 13.5702 2.1038 13.206C2.2252 11.7491 2.71086 8.59251 4.28917 7.25702C7.44579 4.58604 24.443 5.55731 24.443 5.55731C24.443 5.55731 30.392 5.6787 31.606 8.83531C32.9415 12.3562 31.3632 30.3246 31.3632 30.9316C31.1204 32.9955 30.6348 36.0308 25.7784 36.1522C22.1362 36.2736 7.56718 36.395 4.65338 35.6666C1.73958 34.8167 0.88972 33.3598 1.01113 32.2671C1.13254 31.2959 1.25396 21.7046 1.25396 18.6694C1.25396 18.0624 1.49678 17.4553 1.98242 16.9697C2.83228 15.7556 4.41055 15.5128 2.71084 14.1773Z" fill="black" stroke="black" stroke-width="1.49232" stroke-miterlimit="10"/>
<path d="M9.75254 15.6342C11.0936 15.6342 12.1807 14.5471 12.1807 13.206C12.1807 11.865 11.0936 10.7779 9.75254 10.7779C8.4115 10.7779 7.32437 11.865 7.32437 13.206C7.32437 14.5471 8.4115 15.6342 9.75254 15.6342Z" fill="black"/>
<path d="M13.8804 13.9345C13.8804 13.3275 16.9156 12.4776 19.5866 12.4776C22.2576 12.4776 26.0212 13.3274 26.0212 14.1773C26.0212 15.3914 22.1362 15.1486 20.1937 15.1486C18.1297 14.9058 13.8804 15.0272 13.8804 13.9345Z" fill="black"/>
<path d="M9.63111 23.1615C10.9721 23.1615 12.0593 22.0744 12.0593 20.7334C12.0593 19.3923 10.9721 18.3052 9.63111 18.3052C8.29007 18.3052 7.20294 19.3923 7.20294 20.7334C7.20294 22.0744 8.29007 23.1615 9.63111 23.1615Z" fill="black"/>
<path d="M13.759 21.4618C13.759 20.8548 16.7942 20.0049 19.4652 20.0049C22.1362 20.0049 25.8998 20.8548 25.8998 21.7046C25.8998 22.9187 22.0148 22.6759 20.0723 22.6759C18.0083 22.4331 13.759 22.5545 13.759 21.4618Z" fill="black"/>
<path d="M9.38828 29.9604C10.7293 29.9604 11.8164 28.8732 11.8164 27.5322C11.8164 26.1912 10.7293 25.104 9.38828 25.104C8.04724 25.104 6.96011 26.1912 6.96011 27.5322C6.96011 28.8732 8.04724 29.9604 9.38828 29.9604Z" fill="black"/>
<path d="M13.3948 28.2607C13.3948 27.6537 16.43 26.8038 19.1009 26.8038C21.7719 26.8038 25.5356 27.6536 25.5356 28.5035C25.5356 29.7175 21.6505 29.4748 19.708 29.4748C17.644 29.3534 13.3948 29.4748 13.3948 28.2607Z" fill="black"/>
<path d="M10.3595 5.31451C11.3308 2.88634 11.5736 0.579586 15.7015 1.06522C19.8294 1.67226 36.948 5.55731 37.9192 9.32097C38.7691 13.0846 34.5198 33.7241 28.4494 35.5452C22.379 37.3663 6.23166 30.0818 5.50321 26.4396C4.41054 21.3404 10.3595 5.31451 10.3595 5.31451Z" fill="#875A00" stroke="black" stroke-width="1.49232" stroke-miterlimit="10"/>
<path d="M2.71084 12.2348C2.34661 11.992 2.1038 11.6277 2.1038 11.2635C2.2252 9.80659 2.71086 6.64998 4.28917 5.31448C7.44579 2.6435 24.443 3.61478 24.443 3.61478C24.443 3.61478 30.392 3.73616 31.606 6.89278C32.9415 10.4136 31.3632 28.3821 31.3632 28.9891C31.1204 31.0531 30.6348 34.0882 25.7784 34.2097C22.1362 34.3311 7.56718 34.4525 4.65338 33.7241C1.73958 32.8742 0.88972 31.4172 1.01113 30.3246C1.13254 29.3533 1.25396 19.7621 1.25396 16.7269C1.25396 16.1198 1.49678 15.5128 1.98242 15.0272C2.83228 13.9345 4.41055 13.6917 2.71084 12.2348Z" fill="#CA75F2" stroke="black" stroke-width="1.49232" stroke-miterlimit="10"/>
<path d="M9.75254 13.6917C11.0936 13.6917 12.1807 12.6045 12.1807 11.2635C12.1807 9.92246 11.0936 8.83533 9.75254 8.83533C8.4115 8.83533 7.32437 9.92246 7.32437 11.2635C7.32437 12.6045 8.4115 13.6917 9.75254 13.6917Z" fill="#FDEC4C"/>
<path d="M13.8804 11.992C13.8804 11.3849 16.9156 10.535 19.5866 10.535C22.2576 10.535 26.0212 11.3849 26.0212 12.2348C26.0212 13.4489 22.1362 13.206 20.1937 13.206C18.1297 13.0846 13.8804 13.206 13.8804 11.992Z" fill="#FDEC4C"/>
<path d="M9.63111 21.219C10.9721 21.219 12.0593 20.1319 12.0593 18.7908C12.0593 17.4498 10.9721 16.3627 9.63111 16.3627C8.29007 16.3627 7.20294 17.4498 7.20294 18.7908C7.20294 20.1319 8.29007 21.219 9.63111 21.219Z" fill="#FDEC4C"/>
<path d="M13.759 19.5193C13.759 18.9122 16.7942 18.0624 19.4652 18.0624C22.1362 18.0624 25.8998 18.9122 25.8998 19.7621C25.8998 20.9762 22.0148 20.7334 20.0723 20.7334C18.0083 20.612 13.759 20.7334 13.759 19.5193Z" fill="#FDEC4C"/>
<path d="M9.38828 28.1393C10.7293 28.1393 11.8164 27.0521 11.8164 25.7111C11.8164 24.37 10.7293 23.2829 9.38828 23.2829C8.04724 23.2829 6.96011 24.37 6.96011 25.7111C6.96011 27.0521 8.04724 28.1393 9.38828 28.1393Z" fill="#FDEC4C"/>
<path d="M13.3948 26.4396C13.3948 25.8325 16.43 24.9827 19.1009 24.9827C21.7719 24.9827 25.5356 25.8325 25.5356 26.6823C25.5356 27.8964 21.6505 27.6537 19.708 27.6537C17.644 27.5323 13.3948 27.5323 13.3948 26.4396Z" fill="#FDEC4C"/>
</svg>
