<svg width="45" height="42" viewBox="0 0 45 42" fill="none" xmlns="http://www.w3.org/2000/svg">
<g style="mix-blend-mode:multiply">
<path d="M41.3146 19.3494C41.4334 21.1965 41.5389 25.2733 40.589 27.1468C40.1932 27.9252 39.7446 28.2682 39.2696 28.3474C38.9252 28.3585 38.5827 28.2919 38.2675 28.1526C37.9523 28.0133 37.6725 27.8048 37.4489 27.5426C37.5838 28.0672 37.5341 28.6223 37.3083 29.1148C37.0825 29.6072 36.6943 30.0071 36.2087 30.2473C35.7632 30.4957 35.2534 30.6046 34.7453 30.5599C34.2372 30.5152 33.7542 30.319 33.3589 29.9966C33.3156 30.4515 33.1108 30.8758 32.7817 31.1928C32.4526 31.5099 32.0208 31.6986 31.5646 31.7249C31.0853 31.8607 30.5734 31.8226 30.1195 31.6174C29.6656 31.4122 29.2989 31.053 29.0842 30.6035C29.0842 30.6958 29.0842 32.2658 26.9337 32.411C26.3771 32.5274 25.7971 32.4308 25.3085 32.14C24.8198 31.8493 24.4581 31.3856 24.295 30.8409C24.2354 31.3588 23.9726 31.8318 23.5644 32.1559C23.1561 32.48 22.6359 32.6287 22.118 32.5693C21.6498 32.5453 21.1964 32.397 20.8045 32.1396C20.4126 31.8822 20.0963 31.525 19.8883 31.1048C19.7427 31.4994 19.4776 31.8386 19.1299 32.0751C18.7822 32.3116 18.3693 32.4337 17.9489 32.4242C17.6795 32.4479 17.4081 32.4155 17.152 32.3289C16.8958 32.2423 16.6604 32.1034 16.4607 31.9211C16.261 31.7388 16.1014 31.5169 15.9919 31.2697C15.8824 31.0224 15.8255 30.7551 15.8247 30.4847C15.6006 30.8783 15.2626 31.1948 14.8552 31.3926C14.4478 31.5904 13.9901 31.6603 13.5422 31.593C13.0341 31.5829 12.5459 31.3932 12.1643 31.0575C11.7827 30.7218 11.5324 30.2618 11.4576 29.7591C11.2104 30.0862 10.8772 30.3383 10.4952 30.4874C10.1132 30.6365 9.69736 30.6766 9.29389 30.6035C8.74313 30.4746 8.25095 30.1661 7.89499 29.7265C7.53903 29.287 7.33955 28.7414 7.32804 28.1759C6.91993 28.214 6.50916 28.214 6.10105 28.1759C5.81111 28.1741 5.5243 28.1159 5.25666 28.0043C2.84224 26.8169 2.7103 19.4153 2.7103 19.4153C2.97417 24.7719 11.5104 29.0466 21.9993 29.0466C32.4882 29.0466 41.1827 24.7455 41.3146 19.3494Z" fill="black"/>
<path d="M41.3146 19.2834V19.3494C41.1827 24.7456 32.5805 29.0994 21.9993 29.0994C11.418 29.0994 2.97415 24.8247 2.71028 19.4681C2.70371 19.3847 2.70371 19.3009 2.71028 19.2174C2.71028 13.7421 11.3389 9.32228 22.0125 9.32228C32.1451 9.32228 40.4834 13.2803 41.2618 18.3862C41.2618 18.5182 41.2882 18.8349 41.3146 19.2834ZM36.7233 21.368C37.453 20.6413 37.8818 19.666 37.9239 18.6369C37.9239 14.6789 30.7862 11.4465 21.9993 11.4465C13.2124 11.4465 6.08785 14.6657 6.08785 18.6369C6.1251 19.6644 6.54922 20.64 7.27526 21.368C9.66329 24.0067 15.3497 25.8274 21.9993 25.8274C28.6488 25.8274 34.3616 23.9144 36.7233 21.368Z" fill="black"/>
<path d="M6.91905 31.2632C6.29936 30.3782 6.00564 29.3059 6.08786 28.2287C6.49598 28.2668 6.90674 28.2668 7.31486 28.2287C7.33856 28.7868 7.54514 29.3216 7.90276 29.7507C8.26038 30.1799 8.74919 30.4795 9.29389 30.6035C9.70539 30.6872 10.1322 30.6522 10.5246 30.5027C10.917 30.3532 11.2589 30.0953 11.5104 29.7591C11.5851 30.2618 11.8355 30.7218 12.2171 31.0575C12.5987 31.3932 13.0868 31.5829 13.595 31.593C14.0428 31.6603 14.5006 31.5905 14.908 31.3926C15.3154 31.1948 15.6534 30.8783 15.8775 30.4847C15.8783 30.7552 15.9352 31.0224 16.0447 31.2697C16.1542 31.5169 16.3138 31.7388 16.5135 31.9211C16.7132 32.1034 16.9486 32.2423 17.2047 32.3289C17.4609 32.4155 17.7323 32.448 18.0016 32.4242C18.4221 32.4337 18.835 32.3117 19.1827 32.0751C19.5304 31.8386 19.7955 31.4994 19.9411 31.1048C20.1491 31.525 20.4654 31.8822 20.8573 32.1396C21.2491 32.397 21.7025 32.5453 22.1708 32.5693C22.6886 32.6287 23.2089 32.48 23.6171 32.1559C24.0254 31.8318 24.2882 31.3588 24.3477 30.841C24.5109 31.3857 24.8726 31.8493 25.3612 32.14C25.8499 32.4308 26.4299 32.5275 26.9865 32.411C29.1106 32.2659 29.137 30.6958 29.137 30.6035C29.3553 31.062 29.7316 31.4265 30.1969 31.6301C30.6622 31.8336 31.1852 31.8626 31.6702 31.7117C32.1264 31.6854 32.5581 31.4967 32.8872 31.1797C33.2164 30.8627 33.4211 30.4383 33.4645 29.9834C33.8598 30.3058 34.3427 30.5021 34.8508 30.5468C35.359 30.5914 35.8688 30.4825 36.3143 30.2341C36.7999 29.9939 37.1881 29.594 37.4139 29.1016C37.6397 28.6092 37.6893 28.0541 37.5545 27.5294C37.7781 27.7916 38.0579 28.0001 38.3731 28.1394C38.6882 28.2787 39.0308 28.3453 39.3752 28.3342C39.7842 29.5612 38.953 30.1153 38.887 31.3027C38.8942 32.0346 38.703 32.7548 38.3336 33.3867C37.9642 34.0186 37.4305 34.5386 36.7892 34.8914L36.6969 34.9573C36.4971 35.1219 36.3157 35.3077 36.156 35.5115C35.3055 37.1451 34.0232 38.5142 32.4486 39.4696C29.9814 41.0396 22.659 41.2507 17.3947 40.9209C12.1305 40.591 8.96405 35.4983 8.96405 35.4983C8.18926 35.1338 7.56325 34.5142 7.19094 33.7432C6.81864 32.9721 6.72265 32.0966 6.91905 31.2632Z" fill="black"/>
<path d="M37.9239 18.571C37.8818 19.6 37.4531 20.5753 36.7233 21.302C36.7233 21.302 32.7652 17.0537 22.0389 17.0537C11.3125 17.0537 7.27527 21.368 7.27527 21.368C6.54923 20.6399 6.12511 19.6644 6.08786 18.6369C6.08786 14.6788 13.2124 11.4464 21.9993 11.4464C30.7862 11.4464 37.9239 14.5997 37.9239 18.571Z" fill="black"/>
<path d="M22.0389 17.0537C32.7388 17.0537 36.7233 21.302 36.7233 21.302C34.3484 23.9407 28.6488 25.7614 21.9993 25.7614C15.3497 25.7614 9.66332 23.9144 7.27528 21.302C7.27528 21.368 11.3653 17.0537 22.0389 17.0537Z" fill="black"/>
<path d="M6.05532 26.9501C6.13911 26.8049 6.03821 26.5898 5.82997 26.4696C5.62173 26.3493 5.38499 26.3696 5.3012 26.5147C5.2174 26.6598 5.31827 26.8749 5.52652 26.9952C5.73476 27.1154 5.97152 27.0952 6.05532 26.9501Z" fill="black"/>
<path d="M9.7807 29.3403C9.84293 29.1308 9.67256 28.8953 9.40014 28.8144C9.12772 28.7335 8.85642 28.8378 8.79418 29.0473C8.73195 29.2569 8.90236 29.4924 9.17478 29.5733C9.4472 29.6542 9.71847 29.5499 9.7807 29.3403Z" fill="black"/>
<path d="M14.0968 30.2791C14.1481 30.0442 13.9473 29.8008 13.6483 29.7355C13.3494 29.6702 13.0654 29.8077 13.0141 30.0427C12.9628 30.2776 13.1636 30.521 13.4625 30.5863C13.7615 30.6516 14.0455 30.5141 14.0968 30.2791Z" fill="black"/>
<path d="M18.4042 31.1586C18.4278 30.9193 18.2001 30.701 17.8955 30.671C17.5909 30.641 17.3249 30.8106 17.3013 31.0499C17.2777 31.2892 17.5055 31.5075 17.8101 31.5376C18.1146 31.5676 18.3806 31.3979 18.4042 31.1586Z" fill="black"/>
<path d="M22.1972 31.6589C22.5032 31.6589 22.7513 31.4817 22.7513 31.2631C22.7513 31.0445 22.5032 30.8673 22.1972 30.8673C21.8911 30.8673 21.6431 31.0445 21.6431 31.2631C21.6431 31.4817 21.8911 31.6589 22.1972 31.6589Z" fill="black"/>
<path d="M26.8149 31.5138C27.121 31.5138 27.3691 31.3366 27.3691 31.118C27.3691 30.8994 27.121 30.7222 26.8149 30.7222C26.5089 30.7222 26.2608 30.8994 26.2608 31.118C26.2608 31.3366 26.5089 31.5138 26.8149 31.5138Z" fill="black"/>
<path d="M31.5468 30.7962C31.8398 30.7378 32.0484 30.5457 32.0128 30.367C31.9772 30.1884 31.7108 30.0909 31.4179 30.1493C31.1249 30.2076 30.9162 30.3998 30.9518 30.5785C30.9874 30.7571 31.2538 30.8546 31.5468 30.7962Z" fill="black"/>
<path d="M35.6585 29.3554C35.9197 29.2634 36.0863 29.0608 36.0307 28.9027C35.9751 28.7446 35.7182 28.691 35.4571 28.7829C35.1959 28.8748 35.0292 29.0775 35.0849 29.2356C35.1405 29.3937 35.3974 29.4473 35.6585 29.3554Z" fill="black"/>
<path d="M39.3675 27.127C39.5314 27.0476 39.6154 26.8822 39.5551 26.7576C39.4948 26.633 39.3129 26.5964 39.149 26.6758C38.985 26.7552 38.901 26.9206 38.9614 27.0452C39.0217 27.1698 39.2035 27.2064 39.3675 27.127Z" fill="black"/>
<path d="M6.78714 31.1181C7.17227 31.6977 7.72337 32.1476 8.36837 32.4089C9.01337 32.6702 9.7222 32.7307 10.4022 32.5825" stroke="black" stroke-width="0.94" stroke-linecap="round" stroke-linejoin="round"/>
<path d="M33.7547 36.1975C34.7801 35.9668 35.7548 35.551 36.6309 34.9705L36.7233 34.9046" stroke="black" stroke-width="0.94" stroke-linecap="round" stroke-linejoin="round"/>
<path d="M38.887 30.6035C38.887 30.6035 38.1482 32.6617 34.929 33.0311" stroke="black" stroke-width="0.94" stroke-linecap="round" stroke-linejoin="round"/>
<path d="M8.92445 35.4719C9.37152 35.8842 9.9076 36.188 10.4911 36.3596C11.0745 36.5312 11.6897 36.566 12.2888 36.4614" stroke="black" stroke-width="0.94" stroke-linecap="round" stroke-linejoin="round"/>
<path d="M15.0727 36.6857C15.7802 37.1085 16.5802 37.3524 17.4033 37.3961C18.2263 37.4398 19.0477 37.282 19.796 36.9364" stroke="black" stroke-width="0.94" stroke-linecap="round" stroke-linejoin="round"/>
<path d="M24.2158 37.2003C24.973 37.5671 25.811 37.7354 26.6511 37.6893C27.4912 37.6431 28.3058 37.384 29.0182 36.9364" stroke="black" stroke-width="0.94" stroke-linecap="round" stroke-linejoin="round"/>
<path d="M24.8227 34.5615C25.9119 34.8994 27.0858 34.8386 28.1343 34.39" stroke="black" stroke-width="0.94" stroke-linecap="round" stroke-linejoin="round"/>
<path d="M15.7587 33.8359C16.8101 34.2769 17.9844 34.3284 19.0703 33.981" stroke="black" stroke-width="0.94" stroke-linecap="round" stroke-linejoin="round"/>
<path d="M2.6971 19.4681C2.69053 19.3847 2.69053 19.3009 2.6971 19.2174C2.6971 13.7421 11.3257 9.32228 21.9993 9.32228C32.1319 9.32228 40.4702 13.2803 41.2487 18.3862" stroke="black" stroke-width="0.94" stroke-linecap="round" stroke-linejoin="round"/>
<path d="M41.2487 18.4258C41.2972 18.6868 41.3193 18.952 41.3147 19.2174V19.2834" stroke="black" stroke-width="0.94" stroke-linecap="round" stroke-linejoin="round"/>
<path d="M7.27527 21.368C6.54923 20.6399 6.12511 19.6644 6.08786 18.6369C6.08786 14.6788 13.2124 11.4464 21.9993 11.4464C30.7862 11.4464 37.9239 14.6656 37.9239 18.6369C37.8818 19.666 37.4531 20.6413 36.7233 21.368C34.3484 24.0067 28.6488 25.8274 21.9993 25.8274C15.3497 25.8274 9.66331 23.9143 7.27527 21.368Z" stroke="black" stroke-width="0.94" stroke-linecap="round" stroke-linejoin="round"/>
<path d="M2.69711 19.4681C2.69711 19.4681 2.82904 26.8697 5.24346 28.0571C5.51109 28.1687 5.79793 28.2269 6.08787 28.2287C6.49598 28.2668 6.90674 28.2668 7.31486 28.2287C7.33856 28.7868 7.54514 29.3216 7.90276 29.7507C8.26039 30.1799 8.74919 30.4795 9.29389 30.6035C9.70539 30.6871 10.1322 30.6522 10.5246 30.5027C10.917 30.3532 11.2589 30.0953 11.5104 29.7591C11.5851 30.2618 11.8355 30.7218 12.2171 31.0575C12.5987 31.3932 13.0868 31.5829 13.595 31.593C14.0428 31.6603 14.5006 31.5905 14.908 31.3926C15.3154 31.1948 15.6534 30.8783 15.8775 30.4847C15.8783 30.7551 15.9352 31.0224 16.0447 31.2697C16.1542 31.5169 16.3138 31.7388 16.5135 31.9211C16.7132 32.1034 16.9486 32.2423 17.2047 32.3289C17.4609 32.4155 17.7323 32.4479 18.0016 32.4242C18.4221 32.4337 18.835 32.3116 19.1827 32.0751C19.5304 31.8386 19.7955 31.4994 19.9411 31.1048C20.1491 31.525 20.4654 31.8822 20.8573 32.1396C21.2491 32.397 21.7025 32.5453 22.1708 32.5693C22.6886 32.6287 23.2089 32.48 23.6171 32.1559C24.0254 31.8318 24.2882 31.3588 24.3477 30.8409C24.5109 31.3857 24.8726 31.8493 25.3612 32.14C25.8499 32.4308 26.4299 32.5275 26.9864 32.411C29.1106 32.2659 29.137 30.6958 29.137 30.6035C29.3553 31.062 29.7316 31.4265 30.1969 31.6301C30.6622 31.8336 31.1852 31.8626 31.6702 31.7117C32.1264 31.6854 32.5581 31.4967 32.8872 31.1797C33.2164 30.8627 33.4211 30.4383 33.4645 29.9834C33.8598 30.3058 34.3427 30.502 34.8508 30.5467C35.359 30.5914 35.8688 30.4825 36.3143 30.2341C36.7999 29.9939 37.1881 29.594 37.4139 29.1016C37.6397 28.6092 37.6893 28.0541 37.5545 27.5294C37.7781 27.7916 38.0579 28.0001 38.3731 28.1394C38.6882 28.2787 39.0308 28.3453 39.3752 28.3342C39.8106 28.255 40.2592 27.912 40.6945 27.1336C41.6445 25.2601 41.5389 21.1833 41.4202 19.3362V19.2702" stroke="black" stroke-width="0.94" stroke-linecap="round" stroke-linejoin="round"/>
<path d="M36.7233 34.9046C37.3645 34.5518 37.8983 34.0318 38.2676 33.3999C38.637 32.768 38.8283 32.0478 38.8211 31.3159C38.887 30.1285 39.7182 29.5744 39.3092 28.3474" stroke="black" stroke-width="0.94" stroke-linecap="round" stroke-linejoin="round"/>
<path d="M6.08786 28.2287C6.00564 29.3058 6.29936 30.3782 6.91905 31.2632C6.72418 32.0851 6.81379 32.9488 7.17325 33.7133C7.5327 34.4777 8.14075 35.0977 8.89808 35.4719C8.89808 35.4719 12.0645 40.5646 17.3288 40.8944C22.593 41.2243 29.9154 41.0132 32.3826 39.4432C33.9572 38.4878 35.2395 37.1188 36.09 35.4851C36.2497 35.2814 36.4311 35.0955 36.6309 34.931" stroke="black" stroke-width="0.94" stroke-linecap="round" stroke-linejoin="round"/>
<path d="M7.27528 21.368C7.27528 21.368 11.3653 17.1197 22.0389 17.1197C32.7125 17.1197 36.7233 21.368 36.7233 21.368" stroke="black" stroke-width="0.94" stroke-linecap="round" stroke-linejoin="round"/>
<path d="M7.97454 20.0487C8.55083 19.8738 9.05229 19.5117 9.39944 19.0196C9.87441 18.2543 8.81892 18.1356 8.81892 18.1356C9.48162 17.0596 9.70373 15.7694 9.43902 14.5338C8.91128 12.7262 7.4204 14.2831 7.4336 13.8741C7.37299 13.3036 7.26712 12.7389 7.11697 12.1853C6.07467 9.34869 4.3595 11.3673 4.3595 11.3673C4.04285 10.6681 1.82635 9.61254 1.11389 11.0506C0.401442 12.4887 3.26443 13.188 3.26443 13.188C3.26443 13.188 2.52559 12.5679 2.74988 14.5073C2.97417 16.4468 6.25937 15.8267 6.25937 15.8267C6.25937 15.8267 6.08787 15.2726 5.46777 16.4732C4.84767 17.6738 7.45999 18.4654 7.45999 18.4654C7.45999 18.4654 6.48367 17.3968 6.39132 19.0328C6.29896 20.6688 7.97454 20.0354 7.97454 20.0354C8.18778 20.3957 8.32684 20.7949 8.38353 21.2097" fill="black"/>
<path d="M7.97454 20.0487C8.55083 19.8738 9.05229 19.5117 9.39944 19.0196C9.87441 18.2543 8.81892 18.1356 8.81892 18.1356C9.48161 17.0596 9.70373 15.7694 9.43902 14.5338C8.91128 12.7262 7.4204 14.2831 7.4336 13.8741C7.37299 13.3036 7.26712 12.7389 7.11697 12.1853C6.07467 9.34869 4.3595 11.3673 4.3595 11.3673C4.04285 10.6681 1.82635 9.61254 1.11389 11.0506C0.401442 12.4887 3.26443 13.188 3.26443 13.188C3.26443 13.188 2.52559 12.5679 2.74988 14.5073C2.97417 16.4468 6.25937 15.8267 6.25937 15.8267C6.25937 15.8267 6.08787 15.2726 5.46777 16.4732C4.84767 17.6738 7.45999 18.4654 7.45999 18.4654C7.45999 18.4654 6.48367 17.3968 6.39132 19.0328C6.29896 20.6688 7.97454 20.0354 7.97454 20.0354C8.18778 20.3957 8.32684 20.7949 8.38354 21.2097" stroke="black" stroke-width="0.61" stroke-linecap="round" stroke-linejoin="round"/>
<path d="M7.8294 17.8453C7.34124 14.5337 3.51511 12.1193 3.51511 12.1193" stroke="black" stroke-width="0.45" stroke-linecap="round" stroke-linejoin="round"/>
<path d="M5.75803 14.0192L5.40179 12.0797" stroke="black" stroke-width="0.45" stroke-linecap="round" stroke-linejoin="round"/>
<path d="M6.57602 14.9955L4.5574 14.5205" stroke="black" stroke-width="0.45" stroke-linecap="round" stroke-linejoin="round"/>
<path d="M8.13284 15.1538L7.6315 16.9746" stroke="black" stroke-width="0.45" stroke-linecap="round" stroke-linejoin="round"/>
<path d="M41.9479 15.3122C41.9479 15.3122 43.3465 12.6075 41.0244 12.3568C38.7023 12.1061 38.7551 14.2831 38.6627 13.7949C38.5571 13.5651 38.3993 13.3632 38.2019 13.2053C38.0044 13.0473 37.7727 12.9377 37.5254 12.8851C37.278 12.8326 37.0218 12.8385 36.7772 12.9026C36.5325 12.9666 36.3063 13.087 36.1164 13.254C35.0741 14.3095 36.6705 15.8927 36.6705 15.8927C36.6705 15.8927 35.0213 16.4996 35.272 17.9641C35.5227 19.4286 38.0163 18.8876 38.0163 18.8876C38.0163 18.8876 37.9107 20.207 39.8238 20.5368C41.7368 20.8666 41.2751 18.6765 41.2751 18.6765L43.0826 18.3994C44.8901 18.1224 43.7686 15.1934 41.9479 15.3649V15.3122Z" fill="black" stroke="black" stroke-width="0.61" stroke-linecap="round" stroke-linejoin="round"/>
<path d="M39.1377 15.4573C38.3329 15.8135 38.6363 16.4864 39.0453 16.9086C39.181 17.0316 39.3481 17.1145 39.5281 17.1482C39.708 17.1819 39.8938 17.165 40.0648 17.0993C40.2357 17.0337 40.3851 16.9219 40.4963 16.7764C40.6074 16.6309 40.6761 16.4575 40.6945 16.2753C40.7737 15.299 40.0349 15.0615 39.1377 15.4573Z" fill="black" stroke="black" stroke-width="0.41" stroke-linecap="round" stroke-linejoin="round"/>
<path d="M9.84802 15.8135C9.15507 15.7563 8.49859 15.4789 7.97454 15.0219C7.22251 14.2962 8.38354 13.874 8.38354 13.874C7.33956 12.8197 6.74791 11.3997 6.73434 9.91598C6.83989 7.71266 8.95086 9.08479 8.83211 8.59663C8.74425 7.93643 8.71336 7.26988 8.73977 6.60439C9.14877 3.1081 11.6423 4.94199 11.6423 4.94199C11.8007 4.07121 14.0304 2.30329 15.2178 3.715C16.4052 5.12671 13.3575 6.72312 13.3575 6.72312C13.3575 6.72312 14.0304 5.82596 14.2811 8.04248C14.5317 10.259 10.6792 10.4965 10.6792 10.4965C10.6792 10.4965 10.6792 9.82361 11.7479 11.011C12.8166 12.1984 10.0327 13.8081 10.0327 13.8081C10.0327 13.8081 10.8375 12.3304 11.3521 14.1511C11.8666 15.9718 9.82163 15.7079 9.82163 15.7079C9.68264 16.1738 9.63339 16.6618 9.6765 17.146" fill="black"/>
<path d="M9.84802 15.8135C9.15507 15.7563 8.49859 15.4789 7.97454 15.0219C7.22251 14.2962 8.38354 13.874 8.38354 13.874C7.33956 12.8197 6.74791 11.3997 6.73434 9.91598C6.83989 7.71266 8.95086 9.08479 8.83211 8.59663C8.74425 7.93643 8.71336 7.26988 8.73977 6.60439C9.14877 3.1081 11.6423 4.94199 11.6423 4.94199C11.8007 4.07121 14.0304 2.30329 15.2178 3.715C16.4052 5.12671 13.3575 6.72312 13.3575 6.72312C13.3575 6.72312 14.0304 5.82596 14.2811 8.04248C14.5317 10.259 10.6792 10.4965 10.6792 10.4965C10.6792 10.4965 10.6792 9.82361 11.7479 11.011C12.8166 12.1984 10.0327 13.8081 10.0327 13.8081C10.0327 13.8081 10.8375 12.3304 11.3521 14.1511C11.8666 15.9718 9.82163 15.7079 9.82163 15.7079C9.68264 16.1738 9.63339 16.6618 9.6765 17.146" stroke="black" stroke-width="0.62" stroke-linecap="round" stroke-linejoin="round"/>
<path d="M9.38626 13.3727C9.05642 9.49378 12.7506 5.74681 12.7506 5.74681" stroke="black" stroke-width="0.52" stroke-linecap="round" stroke-linejoin="round"/>
<path d="M10.7188 8.49107L10.6132 6.1954" stroke="black" stroke-width="0.52" stroke-linecap="round" stroke-linejoin="round"/>
<path d="M10.0591 9.82364L12.2097 8.74176" stroke="black" stroke-width="0.52" stroke-linecap="round" stroke-linejoin="round"/>
<path d="M8.34395 10.4041L9.38625 12.3436" stroke="black" stroke-width="0.52" stroke-linecap="round" stroke-linejoin="round"/>
<mask id="mask0_427_5811" style="mask-type:luminance" maskUnits="userSpaceOnUse" x="6" y="1" width="34" height="25">
<path d="M35.0873 22.6873C35.0873 22.6873 18.1336 30.2077 7.57872 21.6319C7.57872 21.6319 3.11929 18.1487 9.26749 7.91054C14.7032 -1.15343 38.9266 -0.309013 39.4148 11.4069C39.9029 23.1227 35.0873 22.6873 35.0873 22.6873Z" fill="white"/>
</mask>
<g mask="url(#mask0_427_5811)">
<path d="M28.8599 20.4048C28.5894 20.1778 28.3028 19.9705 28.0023 19.7847C28.2697 20.0159 28.5567 20.2233 28.8599 20.4048ZM10.389 20.7347C7.75025 20.2993 7.28847 16.9217 8.34395 14.9295C10.2174 11.3936 15.7719 12.8845 15.7719 12.8845C15.7719 12.8845 11.893 8.34593 16.0622 5.31141C19.5849 2.73867 22.2632 5.89196 22.2236 9.01883C22.1693 9.32387 22.1384 9.6326 22.1312 9.94236C22.1945 9.63863 22.2255 9.32908 22.2236 9.01883C22.3896 7.98728 22.8522 7.02632 23.5551 6.25321C24.2579 5.4801 25.1705 4.92823 26.1816 4.66494C30.3112 3.45113 33.1347 5.86557 31.8549 8.84731C31.182 10.4173 30.4695 10.734 28.8204 11.486C30.3904 10.8923 36.3011 8.97925 37.726 14.1247C39.2433 19.6001 33.1346 22.8984 28.9655 20.4972C30.4432 21.7242 32.9235 24.574 30.1265 28.2418C29.6364 28.9748 28.9825 29.5838 28.2165 30.0206C27.4506 30.4574 26.5935 30.7101 25.7131 30.7588C24.8327 30.8074 23.953 30.6506 23.1436 30.3008C22.3342 29.951 21.6172 29.4177 21.0494 28.7432C20.4132 27.6564 20.0013 26.4532 19.8381 25.2046C19.675 23.9559 19.7638 22.6872 20.0994 21.4735C19.9543 21.9749 17.4607 30.2472 13.2651 30.0493C9.06959 29.8514 7.98772 25.8406 8.89808 23.0435C9.15488 22.1558 9.65266 21.3566 10.3362 20.7347H10.389ZM17.751 16.5919C18.2391 21.368 26.8149 20.3389 26.1553 15.576C25.4956 10.8131 17.0253 11.829 17.6982 16.5919H17.751Z" fill="black"/>
<path d="M26.1025 15.576C26.7622 20.3389 18.1863 21.368 17.6982 16.5919C17.21 11.8159 25.6011 10.8131 26.1025 15.576Z" fill="black"/>
<path d="M22.0784 9.96876C22.1418 9.66503 22.1727 9.35548 22.1708 9.04523C22.1708 5.91836 19.5321 2.7651 16.0094 5.33785C11.8402 8.37236 15.7191 12.9109 15.7191 12.9109C15.7191 12.9109 10.1647 11.4201 8.29118 14.956C7.2357 16.9482 7.68426 20.3257 10.3362 20.7611" stroke="black" stroke-width="0.94" stroke-linecap="round" stroke-linejoin="round"/>
<path d="M28.3454 11.6311L28.6356 11.4992C28.6356 11.4992 28.6356 11.4992 28.728 11.4992C30.3772 10.7736 31.0896 10.4569 31.7625 8.86049C33.0819 5.87875 30.2189 3.46435 26.0893 4.67815C25.0782 4.94145 24.1655 5.49332 23.4627 6.26643C22.7599 7.03954 22.2972 8.00046 22.1312 9.03201C22.0769 9.33705 22.046 9.64582 22.0389 9.95558" stroke="black" stroke-width="0.94" stroke-linecap="round" stroke-linejoin="round"/>
<path d="M28.8731 20.4181C33.0423 22.8193 39.1509 19.5209 37.6336 14.0456C36.2087 8.95288 30.298 10.8659 28.728 11.4069" stroke="black" stroke-width="0.94" stroke-linecap="round" stroke-linejoin="round"/>
<path d="M27.9628 19.7584C28.2302 19.9895 28.5171 20.197 28.8204 20.3785" stroke="black" stroke-width="0.94" stroke-linecap="round" stroke-linejoin="round"/>
<path d="M28.8599 20.4049C28.5894 20.1778 28.3027 19.9705 28.0023 19.7848" stroke="black" stroke-width="0.94" stroke-linecap="round" stroke-linejoin="round"/>
<path d="M28.8599 20.4048L28.8709 20.4159" stroke="black" stroke-width="0.94" stroke-linecap="round" stroke-linejoin="round"/>
<path d="M20.0203 21.368C19.6847 22.5817 19.5958 23.8504 19.759 25.099C19.9222 26.3477 20.334 27.5509 20.9702 28.6377C21.5381 29.3122 22.255 29.8454 23.0644 30.1953C23.8739 30.5451 24.7535 30.7019 25.6339 30.6533C26.5144 30.6046 27.3714 30.3519 28.1374 29.9151C28.9033 29.4782 29.5572 28.8693 30.0473 28.1363C32.884 24.4685 30.364 21.6187 28.8863 20.3917" stroke="black" stroke-width="0.94" stroke-linecap="round" stroke-linejoin="round"/>
<path d="M16.3261 18.4654C14.1319 18.5308 12.0229 19.3298 10.3362 20.7347C9.6309 21.3232 9.10139 22.0947 8.80573 22.9644C7.90857 25.7614 9.12237 29.7591 13.1728 29.9702C17.2232 30.1813 19.8619 21.8957 20.007 21.3944" stroke="black" stroke-width="0.94" stroke-linecap="round" stroke-linejoin="round"/>
<path d="M26.1025 15.576C26.7622 20.3389 18.1863 21.368 17.6982 16.5919C17.21 11.8159 25.6011 10.8131 26.1025 15.576Z" stroke="black" stroke-width="0.94" stroke-linecap="round" stroke-linejoin="round"/>
</g>
<path d="M37.9239 18.571C37.8818 19.6 37.4531 20.5753 36.7233 21.302C34.3484 23.9408 28.6488 25.7614 21.9993 25.7614C15.3497 25.7614 9.66331 23.9144 7.27527 21.302C6.54923 20.574 6.12511 19.5985 6.08786 18.571" stroke="black" stroke-width="0.94" stroke-linecap="round" stroke-linejoin="round"/>
<path d="M39.0189 17.7134C39.0189 17.7134 40.3383 16.4996 41.064 17.9377C41.7896 19.3758 40.0744 19.8771 40.0744 19.8771C40.2791 19.7861 40.5116 19.7802 40.7207 19.8606C40.9297 19.941 41.0983 20.1012 41.1893 20.3059C41.2803 20.5106 41.2862 20.7431 41.2058 20.9522C41.1254 21.1612 40.9652 21.3298 40.7605 21.4208C39.771 22.1332 38.6231 20.959 38.6231 20.959C38.6231 20.959 38.8606 22.2784 37.1982 22.4367C35.5358 22.595 36.3538 20.6555 36.1296 20.6555C35.9053 20.6555 34.5859 19.9827 34.9553 18.8876C35.3247 17.7925 36.7101 18.096 36.7101 18.096C36.7101 18.096 35.9053 16.4204 37.1982 15.774C38.4912 15.1275 39.0189 17.7002 39.0189 17.7002V17.7134Z" fill="black" stroke="black" stroke-width="0.61" stroke-linecap="round" stroke-linejoin="round"/>
<path d="M38.3197 19.8639C38.8606 19.7847 38.7815 18.5446 38.3197 18.6897C37.2378 18.914 37.726 19.9431 38.3197 19.8639Z" fill="black" stroke="black" stroke-width="0.52" stroke-linecap="round" stroke-linejoin="round"/>
<path d="M11.4181 17.5682C10.6396 16.1433 8.8849 17.8453 8.8849 17.8453C9.03003 17.1328 8.97725 15.8531 7.56554 16.2225C6.15383 16.5919 6.89266 18.5973 6.89266 18.5973C6.80347 18.3787 6.64268 18.1968 6.43661 18.0815C6.23055 17.9662 5.99144 17.9242 5.75843 17.9625C5.52542 18.0009 5.31233 18.1172 5.15406 18.2924C4.99579 18.4677 4.90171 18.6915 4.88725 18.9272C4.7949 20.2465 6.37811 20.3917 6.37811 20.3917C6.37811 20.3917 4.09562 21.8561 6.37811 22.6741C8.66059 23.4921 8.21201 19.9695 8.50227 20.8534C8.79253 21.7374 10.9959 23.0436 11.4576 21.368C11.9194 19.6924 9.7161 19.4681 9.7161 19.4681C9.7161 19.4681 12.1965 18.9931 11.4181 17.5682Z" fill="black" stroke="black" stroke-width="0.61" stroke-linecap="round" stroke-linejoin="round"/>
<path d="M7.53914 19.6264C7.60381 19.7206 7.69276 19.7956 7.79655 19.8433C7.90034 19.8911 8.0151 19.9099 8.1287 19.8977C8.2423 19.8855 8.35047 19.8429 8.44179 19.7742C8.53311 19.7055 8.60415 19.6134 8.6474 19.5077C8.68437 19.4125 8.69727 19.3096 8.68492 19.2083C8.67257 19.1069 8.63538 19.0101 8.57663 18.9265C8.51789 18.843 8.43941 18.7752 8.34818 18.7293C8.25695 18.6834 8.15579 18.6607 8.05369 18.6633C7.94657 18.6746 7.84384 18.712 7.75449 18.7722C7.66514 18.8323 7.5919 18.9135 7.54114 19.0085C7.49038 19.1035 7.46365 19.2095 7.46331 19.3172C7.46296 19.4249 7.489 19.5311 7.53914 19.6264Z" fill="black" stroke="black" stroke-width="0.42" stroke-linecap="round" stroke-linejoin="round"/>
</g>
<path d="M41.3146 17.5814C41.4334 19.4417 41.5389 23.5185 40.589 25.392C40.4784 25.6814 40.3014 25.9408 40.0722 26.1494C39.8431 26.3579 39.5682 26.5097 39.2696 26.5926C38.9252 26.6037 38.5827 26.5371 38.2675 26.3978C37.9523 26.2585 37.6725 26.05 37.4489 25.7878C37.5697 26.303 37.513 26.844 37.2879 27.3229C37.0628 27.8019 36.6825 28.1907 36.2087 28.4265C35.764 28.675 35.2552 28.7852 34.7476 28.7429C34.2399 28.7006 33.7564 28.5077 33.3589 28.189C33.3156 28.6439 33.1108 29.0683 32.7817 29.3853C32.4525 29.7023 32.0208 29.8911 31.5646 29.9174C31.0797 30.0683 30.5566 30.0393 30.0913 29.8357C29.626 29.6321 29.2497 29.2677 29.0314 28.8091C29.0314 28.9015 29.0314 30.4583 26.8809 30.6166C26.3243 30.7331 25.7443 30.6364 25.2557 30.3456C24.767 30.0549 24.4053 29.5913 24.2422 29.0466C24.1826 29.5644 23.9198 30.0374 23.5116 30.3615C23.1033 30.6856 22.5831 30.8343 22.0652 30.775C21.597 30.751 21.1436 30.6026 20.7517 30.3452C20.3598 30.0878 20.0436 29.7306 19.8355 29.3105C19.69 29.705 19.4248 30.0442 19.0771 30.2808C18.7294 30.5173 18.3165 30.6393 17.8961 30.6298C17.6267 30.6536 17.3554 30.6211 17.0992 30.5345C16.843 30.4479 16.6076 30.309 16.4079 30.1267C16.2082 29.9444 16.0486 29.7226 15.9391 29.4753C15.8296 29.2281 15.7727 28.9608 15.7719 28.6904C15.5474 29.0828 15.2088 29.3977 14.8011 29.5933C14.3935 29.7888 13.936 29.8559 13.4894 29.7854C12.9825 29.7785 12.4945 29.5916 12.1126 29.2581C11.7308 28.9246 11.4799 28.4661 11.4049 27.9647C11.1512 28.2986 10.8091 28.5546 10.4173 28.7039C10.0255 28.8531 9.59978 28.8896 9.18833 28.8091C8.63865 28.6782 8.14773 28.3691 7.79213 27.93C7.43653 27.4909 7.23624 26.9464 7.22248 26.3815C6.81404 26.4118 6.40393 26.4118 5.99549 26.3815C5.70555 26.3798 5.41874 26.3215 5.1511 26.21C2.73668 25.0226 2.60474 17.621 2.60474 17.621C2.86861 22.8984 11.4049 27.2523 21.8937 27.2523C32.3826 27.2523 41.1827 22.9908 41.3146 17.5814Z" fill="#D0E0FC"/>
<path d="M41.3146 17.5287C41.1827 22.938 32.5805 27.2919 21.9993 27.2919C11.418 27.2919 2.97415 23.004 2.71028 17.6606C2.70334 17.5728 2.70334 17.4845 2.71028 17.3967C2.71028 11.9346 11.3389 7.50154 22.0125 7.50154C32.1451 7.50154 40.4834 11.4596 41.2618 16.5787C41.2618 16.7634 41.2882 17.0801 41.3146 17.5287ZM36.7233 19.5473C37.4528 18.815 37.8812 17.8358 37.9239 16.803C37.9239 12.845 30.7862 9.62572 21.9993 9.62572C13.2124 9.62572 6.08785 12.845 6.08785 16.803C6.12439 17.8346 6.54837 18.8144 7.27526 19.5473C9.66329 22.186 15.3497 24.0067 21.9993 24.0067C28.6488 24.0067 34.3616 22.1596 36.7233 19.5473Z" fill="white"/>
<path d="M6.91903 29.4952C6.29828 28.6158 6.00429 27.5471 6.08785 26.4739C6.49629 26.5042 6.90641 26.5042 7.31484 26.4739C7.3286 27.0388 7.52889 27.5832 7.88449 28.0224C8.24009 28.4615 8.73101 28.7706 9.28069 28.9015C9.69214 28.982 10.1179 28.9455 10.5097 28.7963C10.9015 28.647 11.2436 28.391 11.4972 28.0571C11.5723 28.5585 11.8231 29.0169 12.205 29.3505C12.5868 29.684 13.0748 29.8709 13.5818 29.8778C14.0284 29.9482 14.4859 29.8812 14.8935 29.6856C15.3011 29.49 15.6397 29.1752 15.8643 28.7827C15.865 29.0532 15.922 29.3205 16.0315 29.5677C16.141 29.815 16.3006 30.0368 16.5003 30.2191C16.7 30.4014 16.9354 30.5403 17.1915 30.6269C17.4477 30.7135 17.7191 30.746 17.9884 30.7222C18.4088 30.7317 18.8217 30.6097 19.1695 30.3732C19.5172 30.1366 19.7823 29.7974 19.9279 29.4028C20.1359 29.823 20.4521 30.1802 20.844 30.4376C21.2359 30.695 21.6893 30.8434 22.1576 30.8673C22.6754 30.9267 23.1957 30.778 23.6039 30.4539C24.0121 30.1298 24.2749 29.6568 24.3345 29.139C24.4977 29.6837 24.8594 30.1473 25.348 30.438C25.8367 30.7288 26.4167 30.8255 26.9732 30.709C29.0974 30.5507 29.1238 28.9938 29.1238 28.9015C29.3421 29.36 29.7184 29.7245 30.1837 29.9281C30.6489 30.1316 31.172 30.1606 31.6569 30.0097C32.1132 29.9834 32.5449 29.7947 32.874 29.4777C33.2031 29.1607 33.4079 28.7363 33.4513 28.2814C33.8487 28.6001 34.3322 28.7929 34.8399 28.8352C35.3476 28.8776 35.8564 28.7674 36.3011 28.5189C36.7749 28.2831 37.1551 27.8942 37.3802 27.4153C37.6053 26.9363 37.6621 26.3954 37.5413 25.8802C37.7649 26.1424 38.0447 26.3509 38.3599 26.4902C38.675 26.6295 39.0175 26.6961 39.362 26.685C39.771 27.912 38.9398 28.4529 38.8738 29.6535C38.8889 30.3852 38.7008 31.1067 38.3304 31.7378C37.9601 32.369 37.4221 32.8852 36.776 33.229C36.776 33.229 36.776 33.229 36.6837 33.3081C36.4838 33.4727 36.3025 33.6585 36.1428 33.8623C35.2929 35.4963 34.0104 36.8655 32.4354 37.8203C29.9682 39.4036 22.6458 39.6015 17.3815 39.2716C12.1173 38.9418 8.95085 33.8491 8.95085 33.8491C8.15219 33.4806 7.50988 32.8411 7.13793 32.0441C6.76597 31.247 6.68842 30.344 6.91903 29.4952Z" fill="#DFB049"/>
<path d="M37.9239 16.803C37.8812 17.8358 37.4528 18.815 36.7233 19.5472C36.7233 19.5472 32.7652 15.2857 22.0389 15.2857C11.3125 15.2857 7.27527 19.5472 7.27527 19.5472C6.54838 18.8144 6.12441 17.8345 6.08786 16.803C6.08786 12.8449 13.2124 9.6257 21.9993 9.6257C30.7862 9.6257 37.9239 12.8449 37.9239 16.803Z" fill="#8D857E"/>
<path d="M22.0389 15.2858C32.7388 15.2858 36.7233 19.5473 36.7233 19.5473C34.3484 22.186 28.6488 24.0067 21.9993 24.0067C15.3497 24.0067 9.66332 22.1596 7.27528 19.5473C7.27528 19.5473 11.3653 15.2858 22.0389 15.2858Z" fill="#B6DA4E"/>
<path d="M6.0529 25.1887C6.1367 25.0435 6.03584 24.8284 5.8276 24.7082C5.61935 24.588 5.38258 24.6082 5.29879 24.7533C5.21499 24.8984 5.3159 25.1136 5.52414 25.2338C5.73238 25.354 5.96911 25.3338 6.0529 25.1887Z" fill="#9ABAE8"/>
<path d="M9.78735 27.5742C9.84958 27.3646 9.67917 27.1291 9.40676 27.0482C9.13434 26.9673 8.86307 27.0716 8.80084 27.2812C8.73861 27.4907 8.90897 27.7262 9.18139 27.8071C9.45381 27.888 9.72512 27.7837 9.78735 27.5742Z" fill="#9ABAE8"/>
<path d="M14.0847 28.5165C14.136 28.2816 13.9352 28.0382 13.6362 27.9729C13.3373 27.9076 13.0533 28.0451 13.002 28.2801C12.9507 28.515 13.1515 28.7583 13.4504 28.8236C13.7494 28.8889 14.0334 28.7514 14.0847 28.5165Z" fill="#9ABAE8"/>
<path d="M18.4127 29.4032C18.4363 29.1639 18.2085 28.9456 17.9039 28.9156C17.5994 28.8855 17.3334 29.0552 17.3098 29.2945C17.2862 29.5338 17.5139 29.7521 17.8185 29.7821C18.1231 29.8122 18.3891 29.6425 18.4127 29.4032Z" fill="#9ABAE8"/>
<path d="M22.1972 29.891C22.5032 29.891 22.7513 29.7138 22.7513 29.4952C22.7513 29.2766 22.5032 29.0993 22.1972 29.0993C21.8911 29.0993 21.6431 29.2766 21.6431 29.4952C21.6431 29.7138 21.8911 29.891 22.1972 29.891Z" fill="#9ABAE8"/>
<path d="M26.8149 29.759C27.121 29.759 27.3691 29.5818 27.3691 29.3632C27.3691 29.1446 27.121 28.9675 26.8149 28.9675C26.5089 28.9675 26.2608 29.1446 26.2608 29.3632C26.2608 29.5818 26.5089 29.759 26.8149 29.759Z" fill="#9ABAE8"/>
<path d="M31.5443 29.036C31.8372 28.9776 32.0459 28.7854 32.0103 28.6068C31.9747 28.4281 31.7083 28.3306 31.4153 28.389C31.1223 28.4474 30.9137 28.6395 30.9493 28.8182C30.9849 28.9969 31.2513 29.0943 31.5443 29.036Z" fill="#9ABAE8"/>
<path d="M35.6565 27.5946C35.9177 27.5027 36.0843 27.3 36.0287 27.1419C35.973 26.9838 35.7162 26.9302 35.455 27.0221C35.1938 27.114 35.0272 27.3167 35.0828 27.4748C35.1385 27.6329 35.3953 27.6865 35.6565 27.5946Z" fill="#9ABAE8"/>
<path d="M39.3811 25.3761C39.5451 25.2967 39.629 25.1314 39.5687 25.0068C39.5084 24.8822 39.3265 24.8455 39.1626 24.9249C38.9986 25.0043 38.9146 25.1697 38.975 25.2943C39.0353 25.4189 39.2172 25.4555 39.3811 25.3761Z" fill="#9ABAE8"/>
<path d="M6.78711 29.3633C7.17224 29.9429 7.72334 30.3928 8.36834 30.6541C9.01333 30.9154 9.72217 30.9759 10.4021 30.8278" stroke="#B16A15" stroke-width="0.94" stroke-linecap="round" stroke-linejoin="round"/>
<path d="M33.7547 34.4296C34.7802 34.2061 35.7554 33.7946 36.6309 33.2158C36.6309 33.2158 36.6969 33.2158 36.7232 33.1366" stroke="#B16A15" stroke-width="0.94" stroke-linecap="round" stroke-linejoin="round"/>
<path d="M38.887 28.8355C38.887 28.8355 38.1482 30.8937 34.9289 31.2631" stroke="#B16A15" stroke-width="0.94" stroke-linecap="round" stroke-linejoin="round"/>
<path d="M8.92444 33.704C9.37032 34.1186 9.90584 34.4248 10.4894 34.5987C11.0729 34.7726 11.6887 34.8095 12.2888 34.7066" stroke="#B16A15" stroke-width="0.94" stroke-linecap="round" stroke-linejoin="round"/>
<path d="M15.0726 34.931C15.7802 35.3538 16.5802 35.5976 17.4032 35.6413C18.2263 35.685 19.0476 35.5272 19.7959 35.1816" stroke="#B16A15" stroke-width="0.94" stroke-linecap="round" stroke-linejoin="round"/>
<path d="M24.2158 35.4587C24.9744 35.8224 25.8128 35.9878 26.6527 35.9393C27.4926 35.8909 28.3065 35.6302 29.0182 35.1816" stroke="#B16A15" stroke-width="0.94" stroke-linecap="round" stroke-linejoin="round"/>
<path d="M24.8227 32.7804C25.9119 33.1182 27.0858 33.0574 28.1342 32.6089" stroke="#B16A15" stroke-width="0.94" stroke-linecap="round" stroke-linejoin="round"/>
<path d="M15.7587 32.0811C16.8101 32.5222 17.9843 32.5736 19.0703 32.2263" stroke="#B16A15" stroke-width="0.94" stroke-linecap="round" stroke-linejoin="round"/>
<path d="M2.6971 17.7134C2.69016 17.6256 2.69016 17.5373 2.6971 17.4495C2.6971 11.9874 11.3257 7.55432 21.9993 7.55432C32.1319 7.55432 40.4702 11.5124 41.2487 16.6315" stroke="black" stroke-width="0.94" stroke-linecap="round" stroke-linejoin="round"/>
<path d="M41.2487 16.6711C41.2973 16.9276 41.3194 17.1884 41.3146 17.4495V17.5286" stroke="black" stroke-width="0.94" stroke-linecap="round" stroke-linejoin="round"/>
<path d="M7.27524 19.5472C6.54835 18.8144 6.12438 17.8345 6.08783 16.803C6.08783 12.8449 13.2123 9.6257 21.9993 9.6257C30.7862 9.6257 37.9239 12.8449 37.9239 16.803C37.8812 17.8358 37.4528 18.815 36.7232 19.5472C34.3484 22.186 28.6488 24.0067 21.9993 24.0067C15.3497 24.0067 9.66327 22.1596 7.27524 19.5472Z" stroke="black" stroke-width="0.94" stroke-linecap="round" stroke-linejoin="round"/>
<path d="M2.69708 17.7134C2.69708 17.7134 2.82901 25.1149 5.24343 26.3024C5.51106 26.4139 5.7979 26.4721 6.08784 26.4739C6.49627 26.5042 6.90639 26.5042 7.31483 26.4739C7.32858 27.0388 7.52888 27.5832 7.88447 28.0224C8.24007 28.4615 8.73099 28.7706 9.28067 28.9015C9.69212 28.982 10.1179 28.9455 10.5097 28.7963C10.9015 28.647 11.2436 28.391 11.4972 28.0571C11.5722 28.5585 11.8231 29.0169 12.205 29.3505C12.5868 29.684 13.0748 29.8709 13.5818 29.8778C14.0284 29.9482 14.4858 29.8812 14.8935 29.6856C15.3011 29.49 15.6397 29.1752 15.8642 28.7827C15.865 29.0532 15.922 29.3205 16.0315 29.5677C16.1409 29.815 16.3006 30.0368 16.5003 30.2191C16.7 30.4014 16.9354 30.5403 17.1915 30.6269C17.4477 30.7135 17.719 30.746 17.9884 30.7222C18.4088 30.7317 18.8217 30.6097 19.1694 30.3732C19.5171 30.1366 19.7823 29.7974 19.9279 29.4028C20.1359 29.823 20.4521 30.1802 20.844 30.4376C21.2359 30.695 21.6893 30.8434 22.1576 30.8674C22.6754 30.9267 23.1957 30.778 23.6039 30.4539C24.0121 30.1298 24.2749 29.6568 24.3345 29.139C24.4977 29.6837 24.8594 30.1473 25.348 30.438C25.8367 30.7288 26.4167 30.8255 26.9732 30.709C29.0974 30.5507 29.1238 28.9938 29.1238 28.9015C29.3421 29.36 29.7184 29.7245 30.1836 29.9281C30.6489 30.1316 31.172 30.1606 31.6569 30.0097C32.1131 29.9834 32.5449 29.7947 32.874 29.4777C33.2031 29.1607 33.4079 28.7363 33.4513 28.2814C33.8487 28.6001 34.3322 28.7929 34.8399 28.8353C35.3476 28.8776 35.8563 28.7674 36.3011 28.5189C36.7749 28.2831 37.1551 27.8942 37.3802 27.4153C37.6053 26.9363 37.6621 26.3954 37.5413 25.8802C37.7649 26.1424 38.0446 26.3509 38.3598 26.4902C38.675 26.6295 39.0175 26.6961 39.362 26.685C39.6605 26.6021 39.9354 26.4503 40.1646 26.2418C40.3937 26.0332 40.5707 25.7738 40.6813 25.4844C41.6312 23.6109 41.5257 19.5341 41.407 17.6738" stroke="black" stroke-width="0.94" stroke-linecap="round" stroke-linejoin="round"/>
<path d="M36.7233 33.1366C37.3693 32.7928 37.9073 32.2767 38.2777 31.6455C38.648 31.0143 38.8361 30.2928 38.821 29.5612C38.887 28.3605 39.7182 27.8196 39.3092 26.5926" stroke="black" stroke-width="0.94" stroke-linecap="round" stroke-linejoin="round"/>
<path d="M6.08782 26.4739C6.00426 27.5471 6.29825 28.6158 6.919 29.4952C6.72167 30.3172 6.81015 31.1819 7.16986 31.9469C7.52958 32.7119 8.1391 33.3316 8.89804 33.704C8.89804 33.704 12.0645 38.8098 17.3287 39.1265C22.5929 39.4431 29.9154 39.2584 32.3826 37.6752C33.9576 36.7204 35.2401 35.3512 36.0899 33.7171C36.2497 33.5134 36.431 33.3276 36.6309 33.163" stroke="black" stroke-width="0.94" stroke-linecap="round" stroke-linejoin="round"/>
<path d="M7.27527 19.5473C7.27527 19.5473 11.3653 15.2858 22.0389 15.2858C32.7124 15.2858 36.7233 19.5473 36.7233 19.5473" stroke="black" stroke-width="0.94" stroke-linecap="round" stroke-linejoin="round"/>
<path d="M7.97454 18.2279C8.54775 18.0469 9.0474 17.6861 9.39944 17.1988C9.87441 16.4336 8.81892 16.3149 8.81892 16.3149C9.47903 15.2379 9.70097 13.9488 9.43902 12.713C8.91128 10.9055 7.4204 12.4624 7.4336 12.0534C7.37299 11.4829 7.26712 10.9182 7.11696 10.3646C6.07467 7.51477 4.3595 9.54659 4.3595 9.54659C4.04285 8.84733 1.82635 7.77865 1.11389 9.21675C0.401442 10.6548 3.26443 11.3673 3.26443 11.3673C3.26443 11.3673 2.52559 10.7472 2.74988 12.6867C2.97417 14.6261 6.25937 14.006 6.25937 14.006C6.25937 14.006 6.08787 13.4519 5.46777 14.6525C4.84767 15.8531 7.45999 16.6447 7.45999 16.6447C7.45999 16.6447 6.48367 15.576 6.39131 17.1988C6.29896 18.8216 7.97454 18.2016 7.97454 18.2016C8.18438 18.5634 8.32319 18.9619 8.38353 19.3758" fill="#3EED63"/>
<path d="M7.97454 18.2279C8.54775 18.0469 9.0474 17.6861 9.39944 17.1988C9.87441 16.4336 8.81892 16.3149 8.81892 16.3149C9.47903 15.2379 9.70097 13.9488 9.43902 12.713C8.91128 10.9055 7.4204 12.4624 7.4336 12.0534C7.37299 11.4829 7.26712 10.9182 7.11696 10.3646C6.07467 7.51477 4.3595 9.54659 4.3595 9.54659C4.04285 8.84733 1.82635 7.77865 1.11389 9.21675C0.401442 10.6548 3.26443 11.3673 3.26443 11.3673C3.26443 11.3673 2.52559 10.7472 2.74988 12.6867C2.97417 14.6261 6.25937 14.006 6.25937 14.006C6.25937 14.006 6.08787 13.4519 5.46777 14.6525C4.84767 15.8531 7.45999 16.6447 7.45999 16.6447C7.45999 16.6447 6.48367 15.576 6.39132 17.1988C6.29896 18.8216 7.97454 18.2016 7.97454 18.2016C8.18438 18.5634 8.32319 18.9619 8.38353 19.3758" stroke="black" stroke-width="0.61" stroke-linecap="round" stroke-linejoin="round"/>
<path d="M7.8294 16.0906C7.34124 12.7922 3.51511 10.3778 3.51511 10.3778" stroke="#446300" stroke-width="0.45" stroke-linecap="round" stroke-linejoin="round"/>
<path d="M5.75803 12.2644L5.40179 10.325" stroke="#446300" stroke-width="0.45" stroke-linecap="round" stroke-linejoin="round"/>
<path d="M6.57602 13.2408L4.5574 12.7658" stroke="#446300" stroke-width="0.45" stroke-linecap="round" stroke-linejoin="round"/>
<path d="M8.13284 13.3991L7.6315 15.2198" stroke="#AD9800" stroke-width="0.45" stroke-linecap="round" stroke-linejoin="round"/>
<path d="M41.9479 13.5442C41.9479 13.5442 43.3465 10.9055 41.0244 10.602C38.7023 10.2986 38.7551 12.5151 38.6627 12.0401C38.5585 11.8093 38.4016 11.6061 38.2047 11.4468C38.0079 11.2875 37.7764 11.1765 37.5289 11.1226C37.2815 11.0687 37.0248 11.0735 36.7795 11.1366C36.5342 11.1998 36.3071 11.3194 36.1164 11.486C35.0741 12.5415 36.6705 14.1247 36.6705 14.1247C36.6705 14.1247 35.0213 14.7448 35.272 16.2093C35.5227 17.6738 38.0163 17.1329 38.0163 17.1329C38.0163 17.1329 37.9107 18.4522 39.8238 18.782C41.7368 19.1119 41.2751 16.9085 41.2751 16.9085L43.0826 16.6447C44.8901 16.3676 43.7686 13.4254 41.9479 13.597V13.5442Z" fill="#6CEEFF" stroke="black" stroke-width="0.61" stroke-linecap="round" stroke-linejoin="round"/>
<path d="M39.1377 13.7025C38.3329 14.0588 38.6363 14.7316 39.0453 15.1538C39.1835 15.2724 39.3514 15.3511 39.5309 15.3815C39.7104 15.4119 39.8948 15.3929 40.0643 15.3265C40.2339 15.26 40.3821 15.1487 40.4931 15.0043C40.6041 14.86 40.6738 14.6882 40.6945 14.5073C40.7737 13.5442 40.0349 13.3067 39.1377 13.7025Z" fill="white" stroke="#007AFF" stroke-width="0.41" stroke-linecap="round" stroke-linejoin="round"/>
<path d="M9.84802 14.0587C9.15507 14.0015 8.49859 13.7241 7.97454 13.2671C7.22251 12.5283 8.38354 12.1193 8.38354 12.1193C7.34074 11.0641 6.7493 9.64466 6.73434 8.16121C6.83989 5.97108 8.95086 7.33002 8.83211 6.84186C8.74425 6.18166 8.71336 5.51515 8.73977 4.84966C9.14877 1.35337 11.6423 3.18726 11.6423 3.18726C11.8007 2.31648 14.0304 0.548555 15.2178 1.96027C16.4052 3.37198 13.3575 4.95519 13.3575 4.95519C13.3575 4.95519 14.0304 4.05803 14.2811 6.27454C14.5317 8.49106 10.6792 8.74173 10.6792 8.74173C10.6792 8.74173 10.6792 8.06888 11.7479 9.2563C12.8166 10.4437 10.0327 12.0401 10.0327 12.0401C10.0327 12.0401 10.8375 10.5757 11.3521 12.3964C11.8666 14.2171 9.82163 13.9532 9.82163 13.9532C9.68264 14.4191 9.63339 14.9071 9.6765 15.3913" fill="#3EED63"/>
<path d="M9.84802 14.0587C9.15507 14.0015 8.49859 13.7241 7.97454 13.2671C7.22251 12.5283 8.38354 12.1193 8.38354 12.1193C7.34074 11.0641 6.7493 9.64465 6.73434 8.16121C6.83989 5.97108 8.95086 7.33002 8.83211 6.84186C8.74425 6.18166 8.71336 5.51515 8.73977 4.84966C9.14877 1.35337 11.6423 3.18726 11.6423 3.18726C11.8007 2.31648 14.0304 0.548556 15.2178 1.96027C16.4052 3.37198 13.3575 4.95519 13.3575 4.95519C13.3575 4.95519 14.0304 4.05803 14.2811 6.27454C14.5317 8.49106 10.6792 8.74173 10.6792 8.74173C10.6792 8.74173 10.6792 8.06888 11.7479 9.2563C12.8166 10.4437 10.0327 12.0401 10.0327 12.0401C10.0327 12.0401 10.8375 10.5757 11.3521 12.3964C11.8666 14.2171 9.82163 13.9532 9.82163 13.9532C9.68264 14.4191 9.63339 14.9071 9.6765 15.3913" stroke="black" stroke-width="0.62" stroke-linecap="round" stroke-linejoin="round"/>
<path d="M9.38628 11.6179C9.05644 7.739 12.7506 3.99203 12.7506 3.99203" stroke="#446300" stroke-width="0.52" stroke-linecap="round" stroke-linejoin="round"/>
<path d="M10.7188 6.73634L10.6133 4.44067" stroke="#446300" stroke-width="0.52" stroke-linecap="round" stroke-linejoin="round"/>
<path d="M10.0591 8.0689L12.2097 6.98701" stroke="#446300" stroke-width="0.52" stroke-linecap="round" stroke-linejoin="round"/>
<path d="M8.34396 8.64938L9.38627 10.5757" stroke="#446300" stroke-width="0.52" stroke-linecap="round" stroke-linejoin="round"/>
<mask id="mask1_427_5811" style="mask-type:luminance" maskUnits="userSpaceOnUse" x="6" y="0" width="34" height="24">
<path d="M35.0873 20.9062C35.0873 20.9062 18.1336 28.4265 7.57872 19.8507C7.57872 19.8507 3.11929 16.3544 9.26749 6.12944C14.7032 -2.93453 38.9266 -2.09015 39.4148 9.62573C39.9029 21.3416 35.0873 20.9062 35.0873 20.9062Z" fill="white"/>
</mask>
<g mask="url(#mask1_427_5811)">
<path d="M28.8599 18.6501C28.5882 18.4205 28.3017 18.209 28.0023 18.0168C28.2696 18.252 28.5565 18.4639 28.8599 18.6501ZM10.389 18.9799C7.75025 18.5314 7.28847 15.167 8.34395 13.1748C10.2174 9.6389 15.7719 11.1298 15.7719 11.1298C15.7719 11.1298 11.893 6.59117 16.0622 3.54346C19.5849 0.983908 22.2632 4.12397 22.2236 7.25084C22.1691 7.56029 22.1382 7.87348 22.1312 8.18761C22.1939 7.87934 22.2249 7.56543 22.2236 7.25084C22.3896 6.21929 22.8522 5.25837 23.5551 4.48526C24.2579 3.71215 25.1705 3.16028 26.1816 2.89699C30.3112 1.68318 33.1347 4.11078 31.8549 7.09253C31.182 8.66256 30.4695 8.97921 28.8204 9.73124C30.3904 9.12433 36.3011 7.21129 37.726 12.304C39.2433 17.7925 33.1346 21.0909 28.9655 18.6765C30.4432 19.9035 32.9235 22.7665 30.1265 26.4343C29.6329 27.1628 28.9777 27.7674 28.212 28.201C27.4463 28.6346 26.5908 28.8854 25.7122 28.9339C24.8335 28.9825 23.9556 28.8273 23.1468 28.4807C22.338 28.1341 21.6202 27.6053 21.0494 26.9356C20.4128 25.8466 20.0008 24.6411 19.8376 23.3903C19.6745 22.1395 19.7635 20.8687 20.0994 19.6528C19.9543 20.1674 17.4607 28.4397 13.2651 28.2418C9.06959 28.0439 7.98772 24.0331 8.89808 21.236C9.16362 20.3673 9.66078 19.5874 10.3362 18.9799H10.389ZM17.751 14.824C18.2391 19.6132 26.8149 18.5841 26.1553 13.808C25.4956 9.03197 17.0253 10.0743 17.6982 14.7712L17.751 14.824Z" fill="#FDFDFD"/>
<path d="M26.1025 13.808C26.7622 18.5841 18.1863 19.6132 17.6982 14.824C17.21 10.0347 25.6011 9.03198 26.1025 13.808Z" fill="#FDE958"/>
<path d="M22.0784 8.17443C22.1411 7.86616 22.1721 7.55228 22.1708 7.2377C22.1708 4.11083 19.5321 0.970763 16.0094 3.53031C11.8402 6.57802 15.7191 11.1166 15.7191 11.1166C15.7191 11.1166 10.1647 9.62572 8.29118 13.1616C7.2357 15.1538 7.68426 18.5182 10.3362 18.9667" stroke="black" stroke-width="0.94" stroke-linecap="round" stroke-linejoin="round"/>
<path d="M28.3454 9.86318L28.6356 9.73124H28.728C30.3772 9.00559 31.0896 8.68895 31.7625 7.09253C33.0819 4.11078 30.2189 1.68318 26.0893 2.89699C25.0782 3.16028 24.1655 3.71215 23.4627 4.48526C22.7599 5.25837 22.2972 6.21929 22.1312 7.25084C22.0767 7.56029 22.0458 7.87348 22.0389 8.18761" stroke="black" stroke-width="0.94" stroke-linecap="round" stroke-linejoin="round"/>
<path d="M28.8731 18.6501C33.0423 21.0645 39.1509 17.7661 37.6336 12.2776C36.2087 7.18487 30.298 9.09796 28.728 9.70487" stroke="black" stroke-width="0.94" stroke-linecap="round" stroke-linejoin="round"/>
<path d="M27.9628 18.0036C28.23 18.2389 28.5169 18.4507 28.8204 18.6369" stroke="black" stroke-width="0.94" stroke-linecap="round" stroke-linejoin="round"/>
<path d="M28.8599 18.6501C28.5881 18.4206 28.3017 18.209 28.0023 18.0168" stroke="black" stroke-width="0.94" stroke-linecap="round" stroke-linejoin="round"/>
<path d="M28.8599 18.6501H28.8709" stroke="black" stroke-width="0.94" stroke-linecap="round" stroke-linejoin="round"/>
<path d="M20.0202 19.6133C19.6843 20.8291 19.5953 22.0999 19.7585 23.3508C19.9216 24.6016 20.3336 25.8071 20.9702 26.8961C21.541 27.5658 22.2588 28.0945 23.0676 28.4412C23.8764 28.7878 24.7544 28.9429 25.633 28.8944C26.5116 28.8458 27.3671 28.595 28.1328 28.1614C28.8985 27.7278 29.5537 27.1232 30.0473 26.3947C32.884 22.7269 30.364 19.8639 28.8863 18.6369" stroke="black" stroke-width="0.94" stroke-linecap="round" stroke-linejoin="round"/>
<path d="M16.3261 16.7107C14.1319 16.776 12.0229 17.575 10.3362 18.98C9.6309 19.5685 9.10139 20.34 8.80573 21.2097C7.90857 24.0067 9.12237 28.0043 13.1728 28.2154C17.2232 28.4265 19.8619 20.141 20.007 19.6264" stroke="black" stroke-width="0.94" stroke-linecap="round" stroke-linejoin="round"/>
<path d="M26.1025 13.808C26.7622 18.5841 18.1863 19.6132 17.6982 14.824C17.21 10.0347 25.6011 9.03198 26.1025 13.808Z" stroke="#FF9B24" stroke-width="0.94" stroke-linecap="round" stroke-linejoin="round"/>
</g>
<path d="M37.9239 16.803C37.8812 17.8358 37.4528 18.815 36.7233 19.5473C34.3484 22.186 28.6488 24.0067 21.9993 24.0067C15.3497 24.0067 9.66331 22.1596 7.27527 19.5473C6.54838 18.8144 6.12441 17.8346 6.08786 16.803" stroke="black" stroke-width="0.94" stroke-linecap="round" stroke-linejoin="round"/>
<path d="M39.0189 15.9586C39.0189 15.9586 40.3383 14.7448 41.064 16.1829C41.7896 17.621 40.0744 18.1092 40.0744 18.1092C40.2791 18.0182 40.5116 18.0122 40.7207 18.0926C40.9297 18.1731 41.0983 18.3333 41.1893 18.538C41.2803 18.7427 41.2862 18.9751 41.2058 19.1842C41.1254 19.3933 40.9652 19.5618 40.7605 19.6528C39.771 20.3785 38.6231 19.2042 38.6231 19.2042C38.6231 19.2042 38.8606 20.5236 37.1982 20.6819C35.5358 20.8402 36.3538 18.9008 36.1296 18.9008C35.9053 18.9008 34.5859 18.2279 34.9553 17.1196C35.3247 16.0114 36.7101 16.328 36.7101 16.328C36.7101 16.328 35.9053 14.6656 37.1982 14.0191C38.4912 13.3727 39.0189 15.9454 39.0189 15.9454V15.9586Z" fill="#FCFF8F" stroke="black" stroke-width="0.61" stroke-linecap="round" stroke-linejoin="round"/>
<path d="M38.3197 18.1092C38.8606 18.03 38.7815 16.7898 38.3197 16.935C37.2378 17.1593 37.726 18.1751 38.3197 18.1092Z" fill="#FCFF8F" stroke="#F8A739" stroke-width="0.52" stroke-linecap="round" stroke-linejoin="round"/>
<path d="M11.4181 15.8135C10.6396 14.3886 8.8849 16.0905 8.8849 16.0905C9.03003 15.3781 8.97725 14.0983 7.56554 14.4545C6.15383 14.8108 6.89266 16.8426 6.89266 16.8426C6.80419 16.6245 6.64454 16.4428 6.43965 16.327C6.23477 16.2112 5.99673 16.1681 5.76427 16.2048C5.53181 16.2415 5.31861 16.3558 5.15937 16.5291C5.00013 16.7024 4.90422 16.9245 4.88725 17.1592C4.7949 18.4786 6.37811 18.6369 6.37811 18.6369C6.37811 18.6369 4.09562 20.0882 6.37811 20.9062C8.66059 21.7242 8.21201 18.2675 8.50227 19.0987C8.79253 19.9299 10.9959 21.2888 11.4576 19.6132C11.9194 17.9376 9.7161 17.7134 9.7161 17.7134C9.7161 17.7134 12.1965 17.2384 11.4181 15.8135Z" fill="#F0B0FF" stroke="black" stroke-width="0.61" stroke-linecap="round" stroke-linejoin="round"/>
<path d="M7.53914 17.8717C7.60624 17.9621 7.69579 18.0335 7.79894 18.0787C7.90209 18.1239 8.01526 18.1413 8.12723 18.1293C8.23921 18.1173 8.34611 18.0763 8.43734 18.0103C8.52858 17.9443 8.60099 17.8556 8.6474 17.7529C8.68437 17.6577 8.69727 17.5548 8.68492 17.4535C8.67257 17.3521 8.63538 17.2553 8.57663 17.1718C8.51789 17.0882 8.43941 17.0205 8.34818 16.9746C8.25695 16.9286 8.15579 16.906 8.05369 16.9085C7.94657 16.9199 7.84384 16.9572 7.75449 17.0174C7.66514 17.0776 7.5919 17.1587 7.54114 17.2537C7.49038 17.3487 7.46365 17.4547 7.46331 17.5625C7.46296 17.6702 7.489 17.7763 7.53914 17.8717Z" fill="#FCFF8F" stroke="#E87BFF" stroke-width="0.42" stroke-linecap="round" stroke-linejoin="round"/>
</svg>
