<svg width="16" height="24" viewBox="0 0 16 24" fill="none" xmlns="http://www.w3.org/2000/svg">
<path d="M8.30568 18.6781C8.17011 18.2714 8.89035 14.6194 8.0769 12.1282C8.28027 12.5773 8.55141 13.1026 8.8734 13.5941C9.6699 14.7973 9.24623 16.492 9.18691 16.7292C9.17844 16.7462 9.17844 16.7546 9.17844 16.7546C8.88187 17.3817 8.70393 18.2968 8.78867 18.7713C8.78867 18.7713 8.45821 19.1018 8.30568 18.6781Z" fill="#3EA98F"/>
<path d="M6.7551 5.46811C6.74662 4.49367 6.43311 3.80733 6.43311 3.80733C6.43311 3.80733 6.66189 3.75649 7.17876 4.1971C9.00055 5.72232 8.09389 6.26461 9.97499 9.24725C11.3646 11.4334 11.2206 13.7975 9.36491 16.4157C9.30559 16.5089 9.24628 16.6106 9.18696 16.7293C9.24628 16.492 9.66994 14.7973 8.87344 13.5941C8.55146 13.1026 8.28031 12.5773 8.07695 12.1282C8.06847 12.1028 8.06 12.0774 8.05153 12.0519C8.01763 11.9418 7.97527 11.8401 7.9329 11.7384C7.85664 11.5605 7.78885 11.3825 7.72106 11.2131C7.66175 11.0521 7.61938 10.9335 7.59396 10.8657C6.74662 8.51006 6.77204 6.92554 6.7551 5.46811Z" fill="#95EBAE"/>
<path d="M8.0769 12.1282C8.28027 12.5773 8.55141 13.1026 8.8734 13.5941C9.6699 14.7973 9.24623 16.492 9.18691 16.7292" stroke="black" stroke-width="0.4" stroke-miterlimit="10" stroke-linecap="round" stroke-linejoin="round"/>
<path d="M7.72095 11.2131C7.78873 11.4334 7.90736 11.73 8.05141 12.052" stroke="black" stroke-width="0.4" stroke-miterlimit="10" stroke-linecap="round" stroke-linejoin="round"/>
<path d="M7.5769 10.7979C7.5769 10.7979 7.58537 10.8233 7.59385 10.8656" stroke="black" stroke-width="0.4" stroke-miterlimit="10" stroke-linecap="round" stroke-linejoin="round"/>
<path d="M7.59396 10.8657C6.74662 8.51006 6.77204 6.92554 6.7551 5.46811C6.74662 4.49367 6.43311 3.80733 6.43311 3.80733C6.43311 3.80733 6.66189 3.75649 7.17876 4.1971C9.00055 5.72232 8.09389 6.26461 9.97499 9.24725C11.3646 11.4334 11.2206 13.7975 9.36491 16.4157C9.30559 16.5089 9.24628 16.6106 9.18696 16.7293C9.17849 16.7462 9.17849 16.7547 9.17849 16.7547C8.88192 17.3817 8.70398 18.2968 8.78871 18.7713C8.78871 18.7713 8.45825 19.1018 8.30573 18.6781C8.17015 18.2714 8.8904 14.6194 8.07695 12.1282C8.06847 12.1028 8.06 12.0774 8.05153 12.0519C8.01763 11.9418 7.97527 11.8401 7.9329 11.7384C7.85664 11.5605 7.78885 11.3825 7.72106 11.2131C7.66175 11.0521 7.61938 10.9335 7.59396 10.8657Z" stroke="black" stroke-width="0.4" stroke-miterlimit="10" stroke-linecap="round" stroke-linejoin="round"/>
<path d="M7.5769 5.34949C7.5769 5.34949 7.5769 7.97624 8.46661 9.12015C9.35632 10.2641 9.61052 11.552 9.61052 11.552" stroke="#3EA98F" stroke-width="0.4" stroke-miterlimit="10" stroke-linecap="round" stroke-linejoin="round"/>
<path d="M11.1969 8.66252C9.6802 11.4079 8.40919 14.865 8.2482 16.5851C8.07872 18.2968 8.12957 18.7459 7.87536 18.7798C7.61269 18.8136 7.57032 18.3561 7.57032 18.3561C7.57032 18.3561 7.60421 15.5599 7.57032 14.6956C7.5449 13.8398 7.04497 11.679 7.82453 9.57764C8.59561 7.47624 8.8837 4.89186 9.79036 3.65474C10.4428 2.75656 10.2564 1.09577 9.79883 0.511108C9.90051 0.570423 10.7309 1.07035 11.5274 1.79906C12.6883 2.87519 12.7221 5.92561 11.1969 8.66252Z" fill="#95EBAE"/>
<path d="M11.1207 3.54468C11.1207 3.54468 10.2225 8.03558 9.13793 10.2641C8.04486 12.4841 8.21433 14.577 8.21433 14.577" stroke="#3EA98F" stroke-width="0.4" stroke-miterlimit="10" stroke-linecap="round" stroke-linejoin="round"/>
<path d="M9.79875 0.511158C9.79028 0.511158 9.79028 0.502686 9.79028 0.502686" stroke="black" stroke-width="0.4" stroke-miterlimit="10" stroke-linecap="round" stroke-linejoin="round"/>
<path d="M7.57032 18.3561C7.57032 18.3561 7.60421 15.5599 7.57032 14.6956C7.5449 13.8398 7.04497 11.679 7.82453 9.57764C8.59561 7.47624 8.8837 4.89186 9.79036 3.65474C10.4428 2.75656 10.2564 1.09577 9.79883 0.511108C9.90051 0.570423 10.7309 1.07035 11.5274 1.79906C12.6883 2.87519 12.7221 5.92561 11.1969 8.66252C9.6802 11.4079 8.40919 14.865 8.2482 16.5851C8.07872 18.2968 8.12957 18.7459 7.87536 18.7798C7.61269 18.8136 7.57032 18.3561 7.57032 18.3561Z" stroke="black" stroke-width="0.4" stroke-miterlimit="10" stroke-linecap="round" stroke-linejoin="round"/>
<path d="M9.94036 18.1759C9.39057 18.2438 8.82832 18.2097 8.29079 18.0757C7.77482 17.9472 7.2714 17.7262 6.73965 17.7283C6.31612 17.73 5.90765 17.8738 5.49068 17.9481C5.0737 18.0223 4.60741 18.0153 4.27258 17.756C4.19341 17.6946 4.12058 17.6189 4.02477 17.5898C3.93884 17.5636 3.8462 17.579 3.75864 17.599C3.15273 17.7375 2.61958 18.0844 2.07457 18.3832C1.52955 18.682 0.9272 18.9436 0.30835 18.8858L3.47568 23.5558L13.5854 23.1388L15.7273 18.1846C15.4149 17.7924 14.9369 17.5366 14.4372 17.4941C14.2154 17.4752 13.9906 17.4964 13.7707 17.462C13.5508 17.4275 13.325 17.3231 13.222 17.1258C13.172 17.0299 13.1534 16.917 13.0861 16.8323C12.969 16.6851 12.7453 16.6747 12.5654 16.7295C12.3855 16.7843 12.2232 16.8898 12.0406 16.935C11.7409 17.0093 11.4287 16.9136 11.1207 16.8925C10.4069 16.8434 9.72699 17.1974 9.14587 17.6147C8.84628 17.8299 8.5257 17.9828 8.15756 18.0059" fill="#B26526"/>
<path d="M10.9766 19.229C11.3458 19.1506 11.6468 18.788 12.021 18.8374C12.2747 18.8708 12.4609 19.0856 12.6889 19.2017C12.8822 19.3002 13.1115 19.3259 13.3218 19.2728C13.409 19.2508 13.5022 19.2159 13.5854 19.2501" fill="#B26526"/>
<path d="M0.30825 19.1607C1.18462 19.2027 1.91664 18.7825 2.65826 18.3706C2.95748 18.2044 3.47014 17.8437 3.83166 17.8641C4.03411 17.8755 4.19837 18.0519 4.3744 18.1308C4.50517 18.1894 4.6396 18.2222 4.78095 18.2422C5.66955 18.3678 6.46146 17.8753 7.36224 18.0951C8.24827 18.3113 9.01373 18.548 9.94026 18.4508C10.2887 18.4143 10.2925 17.8639 9.94026 17.9008C9.46557 17.9506 8.99486 17.945 8.52576 17.8477C8.1228 17.7642 7.73922 17.6072 7.33648 17.5236C6.9279 17.4388 6.53689 17.4482 6.12835 17.5269C5.69841 17.6096 5.26213 17.7755 4.8194 17.6906C4.47259 17.6241 4.2576 17.2943 3.89222 17.302C3.55628 17.3091 3.20586 17.4783 2.9071 17.6192C2.05809 18.0193 1.29686 18.658 0.30825 18.6107C-0.0455712 18.5938 -0.0446938 19.1438 0.30825 19.1607Z" fill="black"/>
<path d="M8.15742 18.2808C8.87196 18.2076 9.31948 17.7612 9.9339 17.4489C10.2829 17.2714 10.6626 17.1514 11.0577 17.1652C11.4122 17.1775 11.7595 17.2891 12.1136 17.2002C12.2467 17.1667 12.368 17.1017 12.4942 17.0499C12.7114 16.9608 12.8044 16.9671 12.9419 17.1647C13.1163 17.4152 13.2237 17.5855 13.534 17.6862C13.8783 17.7979 14.2432 17.7194 14.5925 17.7937C14.9727 17.8746 15.2839 18.0868 15.5327 18.379C15.7625 18.6489 16.15 18.2583 15.9216 17.9901C15.4441 17.4293 14.8197 17.2267 14.1031 17.2086C13.8723 17.2028 13.6037 17.1989 13.4593 16.987C13.3745 16.8624 13.3612 16.717 13.247 16.6066C13.0476 16.4137 12.7492 16.3922 12.4922 16.4643C12.3289 16.51 12.1841 16.6078 12.0211 16.6531C11.8094 16.7118 11.5995 16.6745 11.3852 16.6481C11.0169 16.6028 10.6667 16.6098 10.3072 16.711C9.93904 16.8146 9.5904 16.9928 9.26975 17.1986C8.91095 17.4288 8.59842 17.6857 8.15742 17.7308C7.80874 17.7666 7.80507 18.3169 8.15742 18.2808Z" fill="black"/>
<path d="M11.0497 19.4942C11.2754 19.4403 11.4681 19.3133 11.6694 19.2041C11.8369 19.1132 11.9738 19.073 12.1449 19.1743C12.3512 19.2965 12.5222 19.451 12.7564 19.5236C12.8814 19.5624 13.0198 19.5805 13.1505 19.5736C13.2179 19.57 13.2866 19.5608 13.3526 19.5475C13.3977 19.5384 13.4672 19.5028 13.5124 19.5152C13.854 19.6096 13.9998 19.0791 13.6586 18.9849C13.4956 18.9399 13.3655 18.9899 13.2064 19.0172C13.0984 19.0356 12.9849 19.0236 12.8819 18.9868C12.6593 18.9074 12.4915 18.7171 12.272 18.6256C12.0152 18.5187 11.757 18.5572 11.5102 18.6697C11.3052 18.7632 11.1252 18.9109 10.9035 18.9638C10.5594 19.046 10.7051 19.5765 11.0497 19.4942Z" fill="black"/>
</svg>
