<svg width="21" height="40" viewBox="0 0 21 40" fill="none" xmlns="http://www.w3.org/2000/svg">
<path d="M15.7788 17.6425V17.6602C15.9556 20.1003 16.4684 22.7703 16.0971 25.8646C15.5136 30.851 13.0027 33.0082 12.7021 33.2557C13.8515 30.9747 15.0185 27.2615 13.5509 23.0002C13.4271 22.6465 13.3033 22.3106 13.1618 21.9923C13.1618 21.9923 13.1618 21.9746 13.1442 21.9392C13.0911 21.6917 12.8436 20.6484 12.6667 19.1631C12.6667 19.1631 12.6667 19.1455 12.6667 19.1278C12.6667 18.7388 12.7198 15.3438 13.6039 13.9116C14.8063 11.9135 14.2404 9.95081 14.2404 9.95081C14.2404 9.95081 13.9575 8.85453 14.3819 8.18261C14.435 8.07652 14.5234 7.98811 14.6118 7.91738C16.8574 5.51262 20.3584 7.54606 20.3584 7.54606C20.3584 7.54606 16.3092 10.3398 15.7788 14.9371C15.6727 15.8036 15.7081 16.7053 15.7788 17.6425Z" fill="#95EBAE"/>
<path d="M17.8478 21.9569C18.891 24.6446 18.8556 28.4816 17.1935 31.0278C16.2917 32.3893 13.0913 34.8648 11.7651 34.8294C12.0304 34.4404 12.3663 33.9099 12.6846 33.2557H12.7023C13.0029 33.0082 15.5137 30.851 16.0972 25.8646C16.4686 22.7703 15.9558 20.1003 15.779 17.6602C15.9381 17.9784 17.2819 20.5246 17.8478 21.9569Z" fill="#95EBAE"/>
<path d="M14.2405 9.95082C14.2405 9.95082 14.8064 11.9135 13.604 13.9116C12.7199 15.3438 12.6668 18.7388 12.6668 19.1278C12.3839 16.7938 12.2955 13.3988 13.3564 10.163C13.4802 9.79168 13.604 9.4734 13.7631 9.17281V9.15513C13.94 8.78381 14.1521 8.46553 14.382 8.18262C13.9576 8.85453 14.2405 9.95082 14.2405 9.95082Z" fill="#95EBAE"/>
<path d="M12.6845 33.2557C12.3663 33.9099 12.0303 34.4404 11.7651 34.8294H11.7474C11.4291 35.3245 11.1992 35.5897 11.1992 35.5897C11.1992 35.5897 10.7925 28.959 8.12256 25.564C5.43489 22.1514 0.979019 15.3791 0.519287 13.664C0.519287 13.664 3.18927 13.4518 6.23059 14.7426C6.88483 15.0255 7.55673 15.3615 8.21097 15.8035C8.21097 15.8212 8.21097 15.8212 8.21097 15.8212C9.4664 16.6346 10.7041 17.7662 11.7474 19.3399C12.2602 20.1002 12.7376 20.949 13.1443 21.9392C13.1619 21.9745 13.1619 21.9922 13.1619 21.9922C13.3034 22.3105 13.4272 22.6465 13.5509 23.0001C15.0186 27.2615 13.8515 30.9747 12.7022 33.2557H12.6845Z" fill="#95EBAE"/>
<path d="M11.7474 19.3399C10.7041 17.7662 9.46639 16.6346 8.21096 15.8212C8.21096 15.8212 8.21096 15.8212 8.21096 15.8035C8.14024 15.6267 7.60978 14.3182 7.11468 12.9744C5.62939 8.96057 6.97323 4.55775 6.97323 4.55775C7.82195 2.57736 8.61765 1.97617 8.51156 0.879883C8.51156 0.879883 9.6609 2.63041 10.7041 3.35537C11.9065 4.20411 14.4174 6.44972 13.7631 9.15508V9.17276C13.604 9.47335 13.4802 9.79163 13.3564 10.1629C12.2955 13.3988 12.3839 16.7937 12.6668 19.1277C12.6668 19.1454 12.6668 19.1631 12.6668 19.1631C12.8437 20.6484 13.0912 21.6916 13.1443 21.9392C12.7376 20.949 12.2602 20.1003 11.7474 19.3399Z" fill="#3EA98F"/>
<path d="M7.11467 12.9744C7.60978 14.3182 8.14023 15.6267 8.21096 15.8035C7.55672 15.3615 6.88481 15.0255 6.23058 14.7426C6.23058 14.7426 4.63919 11.4537 6.47812 5.88389C6.63726 5.37111 6.81408 4.94674 6.97322 4.55774L7.04395 4.5931C7.04395 4.5931 5.62938 8.96056 7.11467 12.9744Z" fill="#95EBAE"/>
<path d="M12.6667 19.1631C12.6667 19.1631 12.6667 19.1455 12.6667 19.1278C12.6667 18.7388 12.7198 15.3438 13.6039 13.9116C14.8063 11.9135 14.2404 9.95079 14.2404 9.95079C14.2404 9.95079 13.9575 8.85451 14.3819 8.18259C14.435 8.0765 14.5234 7.98809 14.6118 7.91736" stroke="#1B705A" stroke-width="0.4" stroke-miterlimit="10" stroke-linecap="round" stroke-linejoin="round"/>
<path d="M8.86512 4.1864C8.86512 4.1864 8.31698 7.15698 9.02427 9.54406" stroke="#1B705A" stroke-width="0.4" stroke-miterlimit="10" stroke-linecap="round" stroke-linejoin="round"/>
<path d="M9.64331 12.444C9.64331 12.444 11.4469 15.892 11.7475 19.34" stroke="#1B705A" stroke-width="0.4" stroke-miterlimit="10" stroke-linecap="round" stroke-linejoin="round"/>
<path d="M17.0874 23.4598C17.0874 23.4598 18.555 27.5621 15.1423 31.1869" stroke="#1B705A" stroke-width="0.4" stroke-miterlimit="10" stroke-linecap="round" stroke-linejoin="round"/>
<path d="M15.7788 17.6602C15.9556 20.1003 16.4684 22.7703 16.0971 25.8646C15.5136 30.851 13.0027 33.0082 12.7021 33.2557H12.6844C12.6667 33.2734 12.6667 33.2734 12.6667 33.2734" stroke="black" stroke-width="0.4" stroke-miterlimit="10" stroke-linecap="round" stroke-linejoin="round"/>
<path d="M14.6118 7.91738C16.8574 5.51262 20.3585 7.54606 20.3585 7.54606C20.3585 7.54606 16.3093 10.3398 15.7788 14.9371C15.6727 15.8036 15.7081 16.7053 15.7788 17.6425" stroke="black" stroke-width="0.4" stroke-miterlimit="10" stroke-linecap="round" stroke-linejoin="round"/>
<path d="M13.7632 9.15513C13.94 8.78381 14.1522 8.46553 14.382 8.18262" stroke="black" stroke-width="0.4" stroke-miterlimit="10" stroke-linecap="round" stroke-linejoin="round"/>
<path d="M12.6668 19.1277C12.3839 16.7937 12.2955 13.3987 13.3564 10.1629C13.4802 9.7916 13.604 9.47332 13.7631 9.17273" stroke="black" stroke-width="0.4" stroke-miterlimit="10" stroke-linecap="round" stroke-linejoin="round"/>
<path d="M13.1618 21.9922C13.1618 21.9922 13.1618 21.9745 13.1442 21.9392C13.0911 21.6916 12.8436 20.6484 12.6667 19.1631" stroke="black" stroke-width="0.4" stroke-miterlimit="10" stroke-linecap="round" stroke-linejoin="round"/>
<path d="M15.7611 17.6248C15.7611 17.6248 15.7611 17.6248 15.7788 17.6424V17.6601C15.938 17.9784 17.2818 20.5246 17.8476 21.9569C18.8909 24.6445 18.8555 28.4815 17.1934 31.0277C16.2916 32.3893 13.0912 34.8647 11.765 34.8294H11.7473" stroke="black" stroke-width="0.4" stroke-miterlimit="10" stroke-linecap="round" stroke-linejoin="round"/>
<path d="M6.23058 14.7426C6.23058 14.7426 4.63919 11.4537 6.47812 5.8839C6.63726 5.37112 6.81408 4.94675 6.97322 4.55775C7.82195 2.57736 8.61765 1.97617 8.51155 0.879883C8.51155 0.879883 9.66089 2.63041 10.7041 3.35537C11.9065 4.20411 14.4173 6.44972 13.7631 9.15508V9.17276" stroke="black" stroke-width="0.4" stroke-miterlimit="10" stroke-linecap="round" stroke-linejoin="round"/>
<path d="M6.97323 4.55774C6.97323 4.55774 5.62939 8.96056 7.11468 12.9744C7.60978 14.3182 8.14024 15.6267 8.21096 15.8035C8.21096 15.8212 8.21096 15.8212 8.21096 15.8212" stroke="black" stroke-width="0.4" stroke-miterlimit="10" stroke-linecap="round" stroke-linejoin="round"/>
<path d="M11.5797 1.49819C11.5797 1.49819 11.2431 1.11357 10.891 1.26509C10.8178 1.29658 10.6941 1.66391 10.4965 2.03725C10.0266 2.92507 10.0393 4.73948 10.0393 4.73948" fill="#F8BABF"/>
<path d="M11.5797 1.49819C11.5797 1.49819 11.2431 1.11357 10.891 1.26509C10.8178 1.29658 10.6941 1.66391 10.4965 2.03725C10.0266 2.92507 10.0393 4.73948 10.0393 4.73948" stroke="black" stroke-width="0.4" stroke-miterlimit="10" stroke-linecap="round" stroke-linejoin="round"/>
<path d="M13.4768 2.2869C15.737 4.33607 14.9897 6.75208 14.9897 6.75208C14.9897 6.75208 14.4919 8.26827 13.0378 8.54626C12.7231 8.61739 12.369 8.61993 11.9736 8.51857C11.8677 8.52463 11.7421 8.49639 11.6155 8.4505C9.0396 7.69458 9.81111 4.46248 10.671 3.08498C11.5486 1.70647 11.7256 1.39525 11.7256 1.39525C11.8138 1.39021 12.4867 1.38714 13.4768 2.2869Z" fill="url(#paint0_linear_488_1076)"/>
<path d="M11.7221 20.842C11.536 20.3745 11.1449 16.3233 11.5891 13.8715C11.8331 12.5647 12.4554 9.81932 11.9736 8.51855C12.3691 8.61991 12.7232 8.61737 13.0379 8.54624C13.0379 8.54624 13.3946 10.1375 12.9296 11.9175C12.1752 14.8298 11.899 18.6712 12.4812 20.7986C12.4812 20.7986 11.9093 21.3272 11.7221 20.842Z" fill="#F3F5C4"/>
<path d="M13.0378 8.54626C14.4919 8.26827 14.9897 6.75208 14.9897 6.75208C14.9897 6.75208 15.737 4.33607 13.4768 2.2869C12.4867 1.38714 11.8138 1.39021 11.7256 1.39525C11.7256 1.39525 11.5486 1.70646 10.671 3.08498C9.81111 4.46248 9.0396 7.69458 11.6155 8.4505C11.7421 8.49639 11.8677 8.52463 11.9736 8.51857C12.369 8.61993 12.7231 8.61739 13.0378 8.54626Z" stroke="black" stroke-width="0.4" stroke-miterlimit="10" stroke-linecap="round" stroke-linejoin="round"/>
<path d="M13.0379 8.54624C13.0379 8.54624 13.3946 10.1375 12.9296 11.9175C12.1752 14.8298 11.899 18.6712 12.4812 20.7986C12.4812 20.7986 11.9093 21.3272 11.7221 20.842C11.536 20.3745 11.1449 16.3233 11.5891 13.8715C11.8331 12.5647 12.4554 9.81932 11.9736 8.51855" stroke="black" stroke-width="0.4" stroke-miterlimit="10" stroke-linecap="round" stroke-linejoin="round"/>
<path d="M11.5178 3.66296C11.5178 3.66296 11.0313 4.90432 11.5404 6.3511" stroke="#EAF4C6" stroke-width="0.17682" stroke-miterlimit="10" stroke-linecap="round" stroke-linejoin="round"/>
<path d="M12.5759 2.09375C12.5759 2.09375 13.9623 3.3958 14.0099 5.37543" stroke="#EAF4C6" stroke-width="0.17682" stroke-miterlimit="10" stroke-linecap="round" stroke-linejoin="round"/>
<path d="M12.6845 33.2557C12.3663 33.9099 12.0303 34.4404 11.7651 34.8294H11.7474C11.4291 35.3245 11.1992 35.5897 11.1992 35.5897C11.1992 35.5897 10.7925 28.959 8.12256 25.564C5.43489 22.1514 0.979019 15.3791 0.519287 13.664C0.519287 13.664 3.18927 13.4518 6.23059 14.7426C6.88483 15.0255 7.55673 15.3615 8.21097 15.8035C8.21097 15.8212 8.21097 15.8212 8.21097 15.8212C9.4664 16.6346 10.7041 17.7662 11.7474 19.3399C12.2602 20.1002 12.7376 20.949 13.1443 21.9392C13.1619 21.9745 13.1619 21.9922 13.1619 21.9922C13.3034 22.3105 13.4272 22.6465 13.5509 23.0001C15.0186 27.2615 13.8515 30.9747 12.7022 33.2557H12.6845Z" fill="#95EBAE"/>
<path d="M8.21094 15.8212C9.46637 16.6345 10.7041 17.7662 11.7473 19.3399C12.2601 20.1002 12.7375 20.949 13.1442 21.9392" stroke="black" stroke-width="0.4" stroke-miterlimit="10" stroke-linecap="round" stroke-linejoin="round"/>
<path d="M11.7474 34.8294C11.4291 35.3245 11.1992 35.5897 11.1992 35.5897C11.1992 35.5897 10.7925 28.959 8.12256 25.564C5.43489 22.1514 0.979019 15.3791 0.519287 13.664C0.519287 13.664 3.18927 13.4518 6.23059 14.7426C6.88483 15.0255 7.55673 15.3615 8.21097 15.8035" stroke="black" stroke-width="0.4" stroke-miterlimit="10" stroke-linecap="round" stroke-linejoin="round"/>
<path d="M3.27759 15.892C3.27759 15.892 5.59393 17.3419 7.0085 18.2967C9.02426 19.6759 10.262 23.7251 10.704 24.6092C11.1284 25.4933 12.4015 29.8077 11.7473 32.1771" stroke="#3EA98F" stroke-width="0.4" stroke-miterlimit="10" stroke-linecap="round" stroke-linejoin="round"/>
<path d="M12.6846 33.2557C12.3663 33.91 12.0304 34.4404 11.7651 34.8294" stroke="black" stroke-width="0.4" stroke-miterlimit="10" stroke-linecap="round" stroke-linejoin="round"/>
<path d="M13.1619 21.9922C13.3033 22.3105 13.4271 22.6464 13.5509 23.0001C15.0185 27.2614 13.8515 30.9747 12.7021 33.2556" stroke="black" stroke-width="0.4" stroke-miterlimit="10" stroke-linecap="round" stroke-linejoin="round"/>
<path d="M14.287 34.176C13.7372 34.244 13.175 34.2098 12.6375 34.0759C12.1215 33.9473 11.6181 33.7263 11.0863 33.7284C10.6628 33.7301 10.2543 33.8739 9.83736 33.9482C9.42038 34.0225 8.9541 34.0155 8.61926 33.7561C8.54008 33.6948 8.46725 33.619 8.37144 33.5899C8.28552 33.5638 8.19287 33.5791 8.10533 33.5991C7.4994 33.7376 6.96626 34.0845 6.42125 34.3833C5.87624 34.6821 5.27388 34.9437 4.65503 34.8859L7.82236 39.556L17.9321 39.1389L20.074 34.1847C19.7615 33.7925 19.2836 33.5367 18.7839 33.4942C18.5621 33.4754 18.3373 33.4966 18.1174 33.4621C17.8974 33.4276 17.6717 33.3233 17.5687 33.1259C17.5186 33.03 17.5001 32.9171 17.4327 32.8325C17.3157 32.6853 17.092 32.6748 16.9121 32.7296C16.7322 32.7844 16.5699 32.8899 16.3873 32.9351C16.0876 33.0094 15.7754 32.9138 15.4674 32.8926C14.7536 32.8435 14.0737 33.1975 13.4926 33.6148C13.1929 33.83 12.8724 33.983 12.5042 34.006" fill="#B26526"/>
<path d="M15.3232 35.2291C15.6924 35.1507 15.9935 34.7881 16.3677 34.8375C16.6213 34.8709 16.8076 35.0858 17.0356 35.2019C17.2289 35.3003 17.4581 35.326 17.6684 35.2729C17.7556 35.2509 17.8489 35.2161 17.9321 35.2502" fill="#B26526"/>
<path d="M4.65493 35.1608C5.53131 35.2028 6.26333 34.7826 7.00494 34.3707C7.30416 34.2045 7.81681 33.8438 8.17834 33.8642C8.38079 33.8756 8.54505 34.052 8.72108 34.1309C8.85185 34.1895 8.98628 34.2224 9.12763 34.2423C10.0162 34.3679 10.8081 33.8754 11.7089 34.0952C12.595 34.3114 13.3604 34.5481 14.287 34.451C14.6354 34.4144 14.6392 33.864 14.287 33.9009C13.8123 33.9507 13.3415 33.9451 12.8724 33.8478C12.4695 33.7643 12.0859 33.6074 11.6832 33.5237C11.2746 33.4389 10.8836 33.4484 10.475 33.527C10.0451 33.6098 9.60882 33.7756 9.16609 33.6907C8.81927 33.6242 8.60427 33.2945 8.2389 33.3021C7.90296 33.3092 7.55253 33.4785 7.25378 33.6193C6.40478 34.0194 5.64353 34.6582 4.65493 34.6108C4.30111 34.5939 4.30198 35.1439 4.65493 35.1608Z" fill="black"/>
<path d="M12.5041 34.281C13.2186 34.2078 13.6661 33.7614 14.2806 33.449C14.6296 33.2715 15.0093 33.1515 15.4044 33.1653C15.7589 33.1777 16.1062 33.2892 16.4603 33.2003C16.5934 33.1669 16.7147 33.1018 16.8409 33.05C17.0581 32.9609 17.151 32.9672 17.2886 33.1648C17.4629 33.4153 17.5704 33.5857 17.8806 33.6863C18.225 33.7981 18.5899 33.7196 18.9392 33.7938C19.3194 33.8747 19.6306 34.0869 19.8794 34.3792C20.1092 34.6491 20.4967 34.2584 20.2683 33.9903C19.7908 33.4294 19.1664 33.2268 18.4498 33.2088C18.2189 33.2029 17.9504 33.199 17.806 32.9871C17.7211 32.8625 17.7079 32.7171 17.5937 32.6067C17.3942 32.4138 17.0958 32.3923 16.8388 32.4644C16.6756 32.5102 16.5308 32.608 16.3678 32.6532C16.1561 32.7119 15.9462 32.6746 15.7319 32.6483C15.3636 32.6029 15.0134 32.61 14.6539 32.7111C14.2857 32.8147 13.9371 32.993 13.6164 33.1987C13.2576 33.4289 12.9451 33.6858 12.5041 33.731C12.1554 33.7667 12.1517 34.3171 12.5041 34.281Z" fill="black"/>
<path d="M15.3964 35.4943C15.6221 35.4404 15.8148 35.3134 16.0161 35.2042C16.1836 35.1133 16.3205 35.0731 16.4916 35.1744C16.6979 35.2966 16.8689 35.4511 17.1031 35.5237C17.2281 35.5625 17.3665 35.5807 17.4972 35.5737C17.5645 35.5701 17.6333 35.5609 17.6993 35.5476C17.7444 35.5386 17.8139 35.5029 17.859 35.5154C18.2007 35.6097 18.3465 35.0792 18.0052 34.985C17.8422 34.94 17.7122 34.9901 17.5531 35.0173C17.4451 35.0358 17.3316 35.0237 17.2286 34.9869C17.006 34.9075 16.8382 34.7172 16.6187 34.6257C16.3619 34.5188 16.1037 34.5573 15.8569 34.6699C15.6518 34.7634 15.4719 34.911 15.2502 34.964C14.906 35.0462 15.0517 35.5766 15.3964 35.4943Z" fill="black"/>
<defs>
<linearGradient id="paint0_linear_488_1076" x1="12.5061" y1="6.2812" x2="12.23" y2="1.45394" gradientUnits="userSpaceOnUse">
<stop offset="0.22395" stop-color="#F3F5C4"/>
<stop offset="0.388702" stop-color="#F3EFC4"/>
<stop offset="0.603415" stop-color="#F5DFC2"/>
<stop offset="0.844679" stop-color="#F7C4C0"/>
<stop offset="1" stop-color="#F9AFBE"/>
</linearGradient>
</defs>
</svg>
