<svg width="49" height="66" viewBox="0 0 49 66" fill="none" xmlns="http://www.w3.org/2000/svg">
<path d="M45.6865 19.1427C47.5295 19.1559 48.6617 19.6956 48.2141 21.2491C47.7797 22.8157 46.292 23.2501 45.9629 23.5397C45.6338 23.8293 39.973 28.8583 37.3927 30.5565C34.8124 32.2679 24.7151 40.3642 24.6492 49.7244C24.5702 59.0845 24.7151 60.0324 24.7151 60.0324C24.7151 60.0324 23.03 60.8354 22.7404 59.5979C21.5029 54.253 17.4086 37.0204 32.4822 24.6851C38.8672 19.4587 43.8303 19.1427 45.6865 19.1427Z" fill="#95EBAE"/>
<path d="M24.7151 60.0324C24.7151 60.0324 24.5702 59.0845 24.6492 49.7244C24.7151 40.3642 34.8124 32.2679 37.3927 30.5565C39.973 28.8583 45.6338 23.8293 45.9629 23.5397C46.292 23.2501 47.7797 22.8157 48.2141 21.2491C48.6617 19.6956 47.5295 19.1559 45.6865 19.1427C43.8303 19.1427 38.8672 19.4587 32.4822 24.6851C17.4086 37.0204 21.5029 54.253 22.7404 59.5979C23.03 60.8354 24.7151 60.0324 24.7151 60.0324Z" stroke="black" stroke-width="0.4" stroke-miterlimit="10" stroke-linecap="round" stroke-linejoin="round"/>
<path d="M43.014 22.7235C43.014 22.7235 30.2706 26.6598 25.3865 39.1926" stroke="#1B705A" stroke-width="0.4" stroke-miterlimit="10" stroke-linecap="round" stroke-linejoin="round"/>
<path d="M24.5202 19.9262C25.9946 24.2837 25.7445 29.905 24.4543 35.5132C21.6766 47.5589 21.5712 59.8153 21.5712 59.8153C21.5712 59.8153 21.716 60.9343 20.1626 60.9343C18.596 60.9343 18.596 59.8153 18.596 59.8153C18.9646 55.6421 18.7803 44.689 17.6087 41.8323C16.358 38.7649 17.1084 36.7902 16.8451 33.3542C16.6213 30.2473 16.6213 18.3991 16.8451 16.4902C17.0689 14.5944 17.6481 13.0542 18.8988 13.3833C20.1363 13.7124 23.0589 15.5818 24.5202 19.9262Z" fill="#95EBAE"/>
<path d="M25.4754 28.5741C25.5767 31.836 21.4733 46.1494 21.6536 57.2633C21.7214 61.4437 21.1024 61.2037 19.0355 60.6204C17.8249 60.2787 19.4579 46.7037 17.9733 43.0866C16.4886 39.4694 16.9027 35.3402 16.9027 35.3402C16.9027 35.3402 16.6487 32.9232 21.1024 31.3519C22.2189 30.958 25.3109 23.2777 25.4754 28.5741Z" fill="#3EA98F"/>
<path d="M21.5712 59.8153C21.5712 59.8153 21.6766 47.5589 24.4543 35.5132C25.7445 29.905 25.9946 24.2837 24.5202 19.9262C23.0589 15.5818 20.1363 13.7124 18.8988 13.3833C17.6481 13.0542 17.0689 14.5944 16.8451 16.4902C16.6213 18.3991 16.6213 30.2473 16.8451 33.3542C17.1084 36.7902 16.358 38.7649 17.6087 41.8323C18.7803 44.689 18.9646 55.6421 18.596 59.8153C18.596 59.8153 18.596 60.9343 20.1626 60.9343C21.716 60.9343 21.5712 59.8153 21.5712 59.8153Z" stroke="black" stroke-width="0.4" stroke-miterlimit="10" stroke-linecap="round" stroke-linejoin="round"/>
<path d="M20.2812 28.0751C20.2812 28.0751 21.1106 29.1546 20.4786 35.8159C19.9257 41.7664 20.2812 44.7943 20.2812 44.7943" stroke="#1B705A" stroke-width="0.4" stroke-miterlimit="10" stroke-linecap="round" stroke-linejoin="round"/>
<path d="M38.7197 7.20917C38.8513 8.34134 38.4564 11.8168 37.0741 13.6072C35.7971 15.266 34.6386 15.8189 33.9145 16.0559C33.3616 16.227 31.2948 16.4376 31.5712 15.8189C33.0983 15.4898 34.2963 14.384 35.1784 12.6594C36.429 10.2239 36.2052 8.05172 35.8366 6.41929C35.6786 5.70839 35.4153 5.20813 35.1652 4.89218L35.468 4.76053C35.468 4.76053 35.9814 4.35243 36.8503 4.44458C36.9424 4.45774 37.0346 4.48407 37.1268 4.49724C38.1668 4.7342 38.6144 6.26131 38.7197 7.20917Z" fill="url(#paint0_linear_488_2678)"/>
<path d="M29.1885 1.12705L29.1622 0.824259C29.1622 0.824259 29.9783 0.231846 31.545 0.389822C32.8088 0.521471 32.8219 1.11388 33.467 1.58781C33.5723 1.6668 33.6777 1.73263 33.7698 1.81161L34.0331 1.74579C34.0331 1.74579 35.1521 1.23237 35.9025 1.61414C36.6529 1.99592 36.5476 2.562 36.5476 2.562C36.5476 2.562 37.4954 3.08859 36.9425 3.97063L36.8504 4.44456C35.9815 4.35241 35.468 4.76051 35.468 4.76051L35.1653 4.89216C34.8625 4.48405 34.5729 4.33924 34.5729 4.33924C34.1516 4.20759 33.8488 4.01012 33.6381 3.83898C33.4012 3.62835 33.1116 3.50986 32.7956 3.4967C30.6103 3.43088 29.0963 3.9443 27.4376 5.84002C24.515 9.1707 25.5023 12.3434 25.7525 13.2649C25.8183 13.5019 25.9236 13.7125 26.0553 13.91C24.673 13.6204 24.3439 12.9621 23.8041 11.9748C23.2512 10.9874 22.435 8.93373 23.7119 5.52407C25.0021 2.04858 27.5166 0.758436 28.2011 0.666283C28.8857 0.587294 28.912 1.17971 28.912 1.17971C28.912 1.17971 28.9778 1.14021 29.1885 1.12705Z" fill="url(#paint1_linear_488_2678)"/>
<path d="M35.8368 6.41925C36.2054 8.05168 36.4292 10.2239 35.1786 12.6593C34.2965 14.3839 33.0986 15.4898 31.5714 15.8189C30.9395 15.9505 30.255 15.9505 29.5046 15.8189C29.1096 15.7399 28.6884 15.6214 28.2539 15.4634C27.7668 15.2791 27.2008 15.0158 26.7268 14.634C26.7137 14.6209 26.7005 14.6077 26.7005 14.6077C26.4504 14.4102 26.2265 14.1864 26.0554 13.91C25.9238 13.7125 25.8185 13.5019 25.7526 13.2649C25.5025 12.3434 24.5151 9.17068 27.4377 5.84C29.0965 3.94428 30.6104 3.43086 32.7958 3.49668C33.1117 3.50985 33.4013 3.62833 33.6383 3.83896C33.8489 4.01011 34.1517 4.20758 34.573 4.33922C34.573 4.33922 34.8626 4.48404 35.1654 4.89214C35.4155 5.2081 35.6788 5.70836 35.8368 6.41925Z" fill="url(#paint2_linear_488_2678)"/>
<path d="M28.2538 15.4634C28.6883 15.6214 29.1095 15.7399 29.5045 15.8189C29.5045 15.8189 27.9905 15.9768 26.8452 21.1769C25.6999 26.3638 23.5672 33.3806 22.6983 37.5012C21.7241 42.1352 20.9079 51.232 21.1449 59.9602C21.1449 59.9602 21.1712 60.4605 20.6709 60.421C20.1575 60.3815 20.197 59.9075 20.197 59.9075C20.197 59.9075 20.276 57.7749 20.2365 53.628C20.197 49.4942 20.7762 45.4 20.9342 43.1752C21.2238 38.8703 22.3165 35.5001 22.6457 34.1837C22.9748 32.8672 24.515 27.5223 24.515 27.5223C24.515 27.5223 26.5292 19.6235 26.9242 17.4645C27.2796 15.5556 26.832 14.7788 26.7267 14.634C27.2007 15.0158 27.7667 15.2791 28.2538 15.4634Z" fill="#63A465"/>
<path d="M31.9212 3.50496C31.8102 3.52856 31.8875 2.29603 32.4202 2.62597C32.4202 2.62597 32.7006 2.20654 33.1619 2.20654C33.2791 2.20654 33.747 2.57511 33.5841 2.91492C33.5841 2.91492 34.1921 2.53466 34.277 3.36499C34.277 3.36499 35.1535 3.03354 35.2269 3.63765C35.3004 4.24177 34.3734 4.18211 34.3734 4.18211C34.3734 4.18211 33.0436 3.26633 31.9212 3.50496Z" fill="#FFEB52"/>
<path d="M29.6571 1.06288C30.0303 0.927713 30.4069 0.790885 30.8091 0.797532C31.3771 0.806917 31.9391 1.02497 32.4643 1.21963C32.6758 1.29801 32.7671 0.959855 32.5574 0.882133C32.0007 0.675843 31.4105 0.457469 30.8091 0.447532C30.3748 0.440355 29.9671 0.579406 29.5641 0.725385C29.3539 0.801503 29.4446 1.13985 29.6571 1.06288Z" fill="#FFC7D8"/>
<path d="M29.8017 4.24766C30.343 4.36109 30.8327 4.22031 31.3435 4.04559C31.9386 3.84203 32.5847 3.76949 33.1508 4.10299C33.3688 4.23144 33.5741 4.38409 33.8185 4.46035C33.9314 4.49557 34.0419 4.49916 34.1573 4.51684C34.3349 4.54404 34.4762 4.64635 34.6113 4.76029C35.0662 5.14434 35.3572 5.69584 35.4208 6.28714C35.4447 6.50874 35.7949 6.51118 35.7708 6.28714C35.7094 5.71678 35.489 5.18615 35.1063 4.7553C34.9258 4.55202 34.6927 4.33623 34.4382 4.23113C34.3183 4.18164 34.2015 4.17824 34.0751 4.15906C33.8823 4.12977 33.7215 4.04463 33.5574 3.94358C33.0013 3.60131 32.4494 3.44401 31.7905 3.55573C31.1419 3.66572 30.5766 4.05303 29.8947 3.91016C29.6749 3.86412 29.581 4.20142 29.8017 4.24766Z" fill="white"/>
<path d="M23.5307 9.85568C23.3736 9.18498 23.3029 8.57775 23.4101 7.89447C23.4865 7.40781 23.6015 6.92736 23.7507 6.45796C24.0654 5.46829 24.5382 4.5325 25.1382 3.68529C25.7405 2.83481 26.4825 2.07199 27.3236 1.45584C27.7016 1.17894 28.4823 0.532119 28.6912 1.39856C28.7439 1.61743 29.0815 1.52475 29.0287 1.30551C28.5335 -0.748782 25.7353 2.36474 25.2697 2.93807C24.515 3.86715 23.9216 4.91875 23.5201 6.04658C23.3099 6.63711 23.1557 7.24798 23.0621 7.86781C22.9525 8.59434 23.0263 9.23631 23.1932 9.94873C23.2446 10.1679 23.5822 10.0751 23.5307 9.85568Z" fill="white"/>
<path d="M35.7554 5.1316C36.3716 4.8468 37.1134 4.85306 37.7253 5.14586C37.9276 5.2426 38.1053 4.94092 37.902 4.84364C37.1676 4.49226 36.3174 4.48795 35.5787 4.82939C35.493 4.86905 35.4715 4.99283 35.516 5.06882C35.5674 5.15686 35.6693 5.17141 35.7554 5.1316Z" fill="white"/>
<path d="M26.7005 14.6077C26.4504 14.4102 26.2265 14.1864 26.0554 13.91C25.9238 13.7125 25.8185 13.5019 25.7526 13.2649C25.5025 12.3434 24.5151 9.17068 27.4377 5.84C29.0965 3.94428 30.6104 3.43086 32.7958 3.49668C33.1117 3.50985 33.4013 3.62833 33.6383 3.83896C33.8489 4.01011 34.1517 4.20758 34.573 4.33922C34.573 4.33922 34.8626 4.48404 35.1654 4.89214C35.4155 5.2081 35.6788 5.70836 35.8368 6.41925C36.2054 8.05168 36.4292 10.2239 35.1786 12.6593C34.2965 14.3839 33.0986 15.4898 31.5714 15.8189C30.9395 15.9505 30.255 15.9505 29.5046 15.8189C29.1096 15.7399 28.6884 15.6214 28.2539 15.4634C27.7668 15.2791 27.2008 15.0158 26.7268 14.634" stroke="black" stroke-width="0.4" stroke-miterlimit="10" stroke-linecap="round" stroke-linejoin="round"/>
<path d="M26.7004 14.6078C26.7004 14.6078 26.7136 14.621 26.7267 14.6341C26.832 14.7789 27.2796 15.5556 26.9242 17.4645C26.5292 19.6236 24.3955 27.3401 24.3955 27.3401C24.3955 27.3401 22.9748 32.8673 22.6457 34.1837C22.3165 35.5002 21.2238 38.8704 20.9342 43.1753C20.7762 45.4001 20.197 49.4943 20.2365 53.628C20.276 57.7749 20.197 59.9076 20.197 59.9076C20.197 59.9076 20.1575 60.3816 20.6709 60.421C21.1712 60.4605 21.1449 59.9603 21.1449 59.9603C20.9079 51.2321 21.7241 42.1352 22.6983 37.5013C23.5672 33.3807 25.6999 26.3639 26.8452 21.177C27.9905 15.9769 29.5045 15.8189 29.5045 15.8189" stroke="black" stroke-width="0.4" stroke-miterlimit="10" stroke-linecap="round" stroke-linejoin="round"/>
<path d="M35.468 4.76053C35.468 4.76053 35.9814 4.35243 36.8503 4.44458C36.9424 4.45774 37.0346 4.48407 37.1268 4.49724C38.1668 4.7342 38.6144 6.26131 38.7197 7.20917C38.8513 8.34134 38.4564 11.8168 37.0741 13.6072C35.7971 15.266 34.6386 15.8189 33.9145 16.0559C33.3616 16.227 31.2948 16.4376 31.5712 15.8189" stroke="black" stroke-width="0.4" stroke-miterlimit="10" stroke-linecap="round" stroke-linejoin="round"/>
<path d="M34.0332 1.74573C34.0332 1.74573 35.1522 1.23231 35.9026 1.61409C36.653 1.99586 36.5477 2.56195 36.5477 2.56195C36.5477 2.56195 37.4955 3.08854 36.9426 3.97057" stroke="black" stroke-width="0.4" stroke-miterlimit="10" stroke-linecap="round" stroke-linejoin="round"/>
<path d="M29.1621 0.824259C29.1621 0.824259 29.9783 0.231846 31.5449 0.389822C32.8087 0.521471 32.8219 1.11388 33.4669 1.58781C33.5723 1.6668 33.6776 1.73263 33.7697 1.81161C34.112 2.1144 34.2963 2.40403 34.1647 2.71998" stroke="black" stroke-width="0.4" stroke-miterlimit="10" stroke-linecap="round" stroke-linejoin="round"/>
<path d="M32.0979 2.90435C32.0979 2.90435 32.0848 2.48307 32.5718 2.66738C32.7167 2.72004 32.822 3.00966 32.664 3.14131" stroke="black" stroke-width="0.35" stroke-miterlimit="10" stroke-linecap="round" stroke-linejoin="round"/>
<path d="M28.912 1.17973C28.912 1.17973 28.8857 0.58732 28.2011 0.666309C27.5166 0.758462 25.0021 2.0486 23.7119 5.52409C22.435 8.93376 23.2512 10.9875 23.8041 11.9748C24.3439 12.9622 24.673 13.6204 26.0553 13.91" stroke="black" stroke-width="0.4" stroke-miterlimit="10" stroke-linecap="round" stroke-linejoin="round"/>
<path d="M30.6367 3.1413C30.6367 3.1413 30.7947 1.35089 29.9785 1.17975C29.6099 1.11393 29.3597 1.10076 29.1886 1.12709C28.9779 1.14026 28.9121 1.17975 28.9121 1.17975" stroke="black" stroke-width="0.4" stroke-miterlimit="10" stroke-linecap="round" stroke-linejoin="round"/>
<path d="M33.4407 3.08865C33.4407 3.08865 33.8093 2.81219 34.0331 2.957C34.1647 3.03599 34.1121 3.36511 34.1121 3.36511" stroke="black" stroke-width="0.35" stroke-miterlimit="10" stroke-linecap="round" stroke-linejoin="round"/>
<path d="M34.5598 3.365C34.5598 3.365 35.1259 3.24652 35.1391 3.57564C35.1522 3.91792 34.8495 3.93108 34.8495 3.93108" stroke="black" stroke-width="0.35" stroke-miterlimit="10" stroke-linecap="round" stroke-linejoin="round"/>
<path d="M32.8877 2.3909C32.8877 2.3909 33.3353 2.19343 33.3484 2.57521" stroke="black" stroke-width="0.35" stroke-miterlimit="10" stroke-linecap="round" stroke-linejoin="round"/>
<path d="M34.434 7.29899C34.6661 7.97619 34.6132 8.70943 34.5001 9.40592C34.3998 10.0237 34.1503 10.6133 33.6912 11.0488C33.5274 11.2041 33.7752 11.4514 33.9387 11.2963C34.438 10.8227 34.7279 10.1722 34.8376 9.49897C34.9609 8.74196 35.0242 7.94315 34.7715 7.20595C34.6989 6.9941 34.3607 7.0851 34.434 7.29899Z" fill="#F44D79"/>
<path d="M33.6399 9.53218C33.6085 10.0695 33.3501 10.5622 32.9854 10.9494C32.831 11.1133 33.078 11.3612 33.2329 11.1969C33.6635 10.7398 33.9529 10.1647 33.9899 9.53218C33.9954 9.43773 33.9055 9.35718 33.8149 9.35718C33.7155 9.35718 33.6454 9.43745 33.6399 9.53218Z" fill="#F44D79"/>
<path d="M28.8305 6.07229C27.9336 7.03693 27.2939 8.21917 26.9811 9.49898C26.943 9.65524 27.184 9.7219 27.2222 9.56544C27.5249 8.3269 28.1389 7.18301 29.0073 6.24906C29.1168 6.13135 28.9404 5.95416 28.8305 6.07229Z" fill="#F44D79"/>
<path d="M28.5357 7.38121C28.251 7.78238 28.028 8.22375 27.8676 8.68863C27.8367 8.77797 27.9028 8.88 27.9898 8.90391C28.0859 8.93033 28.1741 8.87134 28.2051 8.78168C28.3557 8.34522 28.5707 7.93437 28.8379 7.55786C28.8926 7.48075 28.8516 7.36317 28.7752 7.31843C28.6874 7.26712 28.5905 7.30392 28.5357 7.38121Z" fill="#F44D79"/>
<path d="M37.0954 5.4591C37.522 5.79064 37.7472 6.35265 37.6333 6.88613C37.6136 6.97848 37.6606 7.07534 37.7555 7.1014C37.8427 7.12535 37.951 7.07203 37.9708 6.97918C38.1088 6.33244 37.8693 5.62068 37.3429 5.21161C37.2683 5.15368 37.1681 5.13893 37.0954 5.21161C37.035 5.27199 37.0203 5.40077 37.0954 5.4591Z" fill="#F44D79"/>
<path d="M28.8832 7.97322C28.7431 8.27069 28.62 8.57633 28.5166 8.88852C28.4879 8.97548 28.55 9.08354 28.6389 9.10379C28.7353 9.12575 28.8233 9.07467 28.8541 8.98156C28.9026 8.83525 28.9551 8.69032 29.0122 8.54713C29.0264 8.51133 29.041 8.47569 29.0557 8.44007C29.0765 8.38977 29.0424 8.47104 29.0637 8.421C29.0724 8.40075 29.0811 8.38052 29.0899 8.36034C29.1207 8.28971 29.1526 8.21958 29.1855 8.14987C29.2244 8.06722 29.2113 7.95724 29.1227 7.91044C29.045 7.86939 28.9249 7.88481 28.8832 7.97322Z" fill="#F44D79"/>
<path d="M27.8106 1.40246C27.3453 1.62255 26.9501 1.97802 26.6729 2.41083C26.6235 2.48805 26.6545 2.60734 26.7357 2.65026C26.8224 2.69608 26.9224 2.6699 26.9752 2.58748C27.0062 2.53899 27.0386 2.49139 27.0727 2.44502C27.0727 2.44502 27.1053 2.40174 27.0871 2.42538C27.0959 2.41398 27.1049 2.40276 27.1139 2.39157C27.132 2.36916 27.1504 2.34707 27.1692 2.32529C27.2464 2.23597 27.3297 2.152 27.4183 2.07402C27.4399 2.055 27.4619 2.03636 27.4841 2.01807C27.4952 2.00893 27.5064 1.99989 27.5177 1.99093C27.5246 1.98544 27.5488 1.96701 27.53 1.98123C27.5759 1.94652 27.6229 1.91323 27.671 1.88163C27.7722 1.81522 27.8779 1.7564 27.9872 1.70467C28.0702 1.66542 28.0981 1.5399 28.05 1.46524C27.995 1.3799 27.8994 1.36047 27.8106 1.40246Z" fill="#F44D79"/>
<path d="M27.8131 1.91995C27.7143 1.97061 27.6234 2.03462 27.5385 2.10614C27.4532 2.1781 27.3811 2.26133 27.3143 2.35047C27.2888 2.38442 27.2859 2.44642 27.2966 2.48532C27.3078 2.52591 27.3392 2.56991 27.3771 2.58991C27.4177 2.61137 27.4669 2.62212 27.5119 2.60755C27.5258 2.60167 27.5398 2.59579 27.5537 2.58991C27.58 2.57435 27.6009 2.55342 27.6165 2.52713C27.6208 2.52137 27.6251 2.51564 27.6295 2.50994C27.6204 2.52174 27.6113 2.53355 27.6022 2.54535C27.6685 2.46 27.7453 2.38364 27.8308 2.31754C27.8191 2.32666 27.8072 2.33578 27.7954 2.34491C27.8565 2.29827 27.9214 2.25722 27.9897 2.22216C28.0276 2.20278 28.0591 2.15765 28.0702 2.11758C28.0817 2.07569 28.0765 2.01991 28.0525 1.98273C27.9989 1.89947 27.9004 1.87519 27.8131 1.91995Z" fill="#F44D79"/>
<path d="M36.8773 6.40495C36.845 6.36318 36.8765 6.40494 36.8828 6.4138C36.8912 6.42583 36.8994 6.43803 36.9074 6.45039C36.9212 6.47202 36.9344 6.49415 36.9467 6.51671C36.9609 6.54255 36.9733 6.56907 36.9859 6.59569C36.9934 6.61291 36.9919 6.6091 36.9813 6.58427C36.9841 6.59106 36.9868 6.59789 36.9895 6.60473C36.9942 6.61672 36.9986 6.62879 37.0029 6.64093C37.021 6.69297 37.0353 6.74633 37.0456 6.8005C37.048 6.81314 37.0499 6.82583 37.0521 6.83851C37.0549 6.85763 37.0543 6.85304 37.0503 6.82474C37.0512 6.83204 37.052 6.83934 37.0528 6.84665C37.0558 6.87591 37.0574 6.90524 37.0581 6.93464C37.0603 7.02609 37.137 7.11395 37.2331 7.10964C37.326 7.10548 37.4104 7.03269 37.4081 6.93464C37.4049 6.80035 37.3823 6.66405 37.3367 6.5375C37.2861 6.39733 37.2157 6.27487 37.1248 6.15746C37.0994 6.12461 37.0403 6.1062 37.0011 6.1062C36.9581 6.1062 36.9069 6.12527 36.8773 6.15746C36.8467 6.19081 36.824 6.23459 36.8261 6.2812C36.8283 6.33078 36.8472 6.3661 36.8773 6.40495Z" fill="#F44D79"/>
<path d="M32.5739 9.77021C32.5602 9.86022 32.5398 9.9489 32.5116 10.0355C32.5043 10.0577 32.4966 10.0798 32.4884 10.1017C32.4848 10.1115 32.481 10.1211 32.4772 10.1308C32.4718 10.1451 32.4703 10.1483 32.4771 10.1323C32.4589 10.1753 32.4384 10.2175 32.4165 10.2588C32.3749 10.3368 32.3272 10.4114 32.2738 10.4819C32.2888 10.4621 32.2756 10.4795 32.2675 10.4894C32.261 10.4975 32.2543 10.5055 32.2476 10.5134C32.2325 10.5313 32.2171 10.5488 32.2012 10.566C32.1695 10.6004 32.1362 10.6333 32.1017 10.6649C32.0342 10.727 32.0341 10.8503 32.1017 10.9124C32.174 10.9788 32.2771 10.9786 32.3492 10.9124C32.6459 10.6398 32.851 10.2621 32.9114 9.86325C32.925 9.77313 32.8888 9.67067 32.7892 9.64798C32.7058 9.62899 32.5885 9.67341 32.5739 9.77021Z" fill="#F44D79"/>
<path d="M40.2732 20.0974C40.8656 20.1633 41.3395 20.6372 41.4053 21.2296C41.537 22.3618 41.3132 24.4945 38.9172 27.1801C36.8766 29.4707 34.7045 29.1153 33.1115 28.1938C32.111 27.6145 31.3475 26.8115 31.0183 26.3244C30.9657 26.2322 30.913 26.1532 30.8867 26.0874C30.031 24.1522 29.8467 21.7562 32.7561 19.1233C33.6776 18.2939 34.6255 17.8068 35.2574 17.5435C35.7577 17.3197 36.3369 17.4645 36.6792 17.8858C36.8108 18.0438 36.9425 18.2281 37.0741 18.4387C37.4033 18.9258 37.7192 19.5577 37.9167 20.3081C37.9167 20.3081 39.1147 19.9658 40.2732 20.0974Z" fill="url(#paint3_linear_488_2678)"/>
<path d="M40.2733 20.0975C39.1147 19.9658 37.9168 20.3081 37.9168 20.3081C37.7193 19.5577 37.4034 18.9258 37.0742 18.4387C37.0742 18.4387 37.377 18.3202 37.9431 18.8073C37.9431 18.8073 38.6408 18.5835 39.1016 19.2944C39.1016 19.2944 39.8783 19.2681 40.2733 20.0975Z" fill="#F65061"/>
<path d="M33.1115 28.1937C33.1115 28.1937 31.6371 28.378 30.031 30.9452C27.793 34.5523 25.3049 40.0683 23.4092 47.4801C22.2901 51.8113 22.5271 59.6574 22.5271 59.6574C22.5271 59.6574 22.6324 60.2498 22.119 60.1972C21.882 60.1709 21.8952 59.8154 21.8952 59.8154C21.8952 59.8154 21.8425 52.5485 22.3823 49.0862C23.2117 43.7676 24.6203 40.0157 28.7145 31.6692C29.2938 30.5107 29.794 29.734 30.4523 28.7072C31.4659 27.1406 31.0183 26.3243 31.0183 26.3243C31.3475 26.8114 32.111 27.6145 33.1115 28.1937Z" fill="#63A465"/>
<path d="M30.8542 22.4879C31.3959 21.3986 32.1307 20.4185 33.0311 19.5996C33.4745 19.1964 33.9549 18.8358 34.4662 18.523C34.9884 18.2036 35.705 17.6699 36.2675 18.201C36.4313 18.3556 36.6792 18.1085 36.515 17.9535C36.0246 17.4905 35.394 17.5838 34.8446 17.8919C34.2388 18.2317 33.6578 18.614 33.1227 19.0576C32.0495 19.947 31.1723 21.064 30.552 22.3113C30.452 22.5123 30.7538 22.6899 30.8542 22.4879Z" fill="white"/>
<path d="M36.186 18.1209C36.7268 18.6465 37.0745 19.2687 37.3873 19.9474C37.6878 20.5995 37.8995 21.2783 37.9631 21.9959C37.9829 22.2185 38.333 22.2206 38.3131 21.9959C38.2456 21.2344 38.031 20.5216 37.7156 19.8276C37.3857 19.1019 37.0099 18.4338 36.4335 17.8734C36.2719 17.7163 36.0242 17.9635 36.186 18.1209Z" fill="white"/>
<path d="M38.1861 20.695C38.5949 20.6135 39.0085 20.5731 39.4253 20.5745C39.7125 20.5755 40.0073 20.5656 40.291 20.6176C40.5488 20.6649 40.7864 20.7608 40.9006 21.0119C41.0212 21.2772 41.0507 21.5904 41.0574 21.8783C41.0626 22.1032 41.4126 22.104 41.4074 21.8783C41.3995 21.5396 41.3565 21.1849 41.2193 20.8723C41.0858 20.5681 40.8226 20.3886 40.5066 20.3069C40.1775 20.2218 39.8311 20.227 39.4938 20.225C39.0224 20.2222 38.5555 20.2653 38.0931 20.3575C37.8724 20.4015 37.9658 20.7389 38.1861 20.695Z" fill="white"/>
<path d="M37.0742 18.4387C37.4034 18.9258 37.7193 19.5577 37.9168 20.3081C38.2854 21.6509 38.2854 23.3887 37.2059 25.4424" stroke="#DC314F" stroke-width="0.4" stroke-miterlimit="10" stroke-linecap="round" stroke-linejoin="round"/>
<path d="M40.2732 20.0974C40.8656 20.1633 41.3395 20.6372 41.4053 21.2296C41.537 22.3618 41.3132 24.4945 38.9172 27.1801C36.8766 29.4707 34.7045 29.1153 33.1115 28.1938C32.111 27.6145 31.3475 26.8115 31.0183 26.3244C30.9657 26.2322 30.913 26.1532 30.8867 26.0874C30.031 24.1522 29.8467 21.7562 32.7561 19.1233C33.6776 18.2939 34.6255 17.8068 35.2574 17.5435C35.7577 17.3197 36.3369 17.4645 36.6792 17.8858C36.8108 18.0438 36.9425 18.2281 37.0741 18.4387" stroke="black" stroke-width="0.4" stroke-miterlimit="10" stroke-linecap="round" stroke-linejoin="round"/>
<path d="M37.9167 20.308C37.9167 20.308 39.1147 19.9658 40.2732 20.0974" stroke="#DC314F" stroke-width="0.4" stroke-miterlimit="10" stroke-linecap="round" stroke-linejoin="round"/>
<path d="M37.0742 18.4387C37.0742 18.4387 37.377 18.3202 37.9431 18.8073C37.9431 18.8073 38.6408 18.5835 39.1016 19.2944C39.1016 19.2944 39.8783 19.2681 40.2733 20.0975" stroke="black" stroke-width="0.4" stroke-miterlimit="10" stroke-linecap="round" stroke-linejoin="round"/>
<path d="M34.6519 19.0311C34.6519 19.0311 33.5592 19.7947 33.1511 20.8347" stroke="#F44D79" stroke-width="0.25" stroke-miterlimit="10" stroke-linecap="round" stroke-linejoin="round"/>
<path d="M34.5333 19.7289C34.5333 19.7289 33.8434 20.2552 33.5986 20.9269" stroke="#F44D79" stroke-width="0.25" stroke-miterlimit="10" stroke-linecap="round" stroke-linejoin="round"/>
<path d="M34.7794 20.8741C34.7794 20.8741 34.5798 21.0585 34.5332 21.2428" stroke="#F44D79" stroke-width="0.25" stroke-miterlimit="10" stroke-linecap="round" stroke-linejoin="round"/>
<path d="M35.2838 20.8347C35.2838 20.8347 34.9379 21.1225 34.8494 21.493" stroke="#F44D79" stroke-width="0.25" stroke-miterlimit="10" stroke-linecap="round" stroke-linejoin="round"/>
<path d="M40.3522 22.941C40.3522 22.941 40.0776 23.6914 39.5774 24.1127" stroke="#F44D79" stroke-width="0.25" stroke-miterlimit="10" stroke-linecap="round" stroke-linejoin="round"/>
<path d="M39.7072 22.8357C39.7072 22.8357 39.5623 23.1911 39.2991 23.4544" stroke="#F44D79" stroke-width="0.25" stroke-miterlimit="10" stroke-linecap="round" stroke-linejoin="round"/>
<path d="M39.2595 22.7831C39.2595 22.7831 39.148 23.0795 38.99 23.1717" stroke="#F44D79" stroke-width="0.25" stroke-miterlimit="10" stroke-linecap="round" stroke-linejoin="round"/>
<path d="M31.0183 26.3243C31.0183 26.3243 31.4659 27.1406 30.4523 28.7072C29.794 29.734 29.2938 30.5107 28.7145 31.6692C24.6203 40.0157 23.2117 43.7676 22.3823 49.0862C21.8425 52.5485 21.8952 59.8154 21.8952 59.8154C21.8952 59.8154 21.882 60.1709 22.119 60.1972C22.6324 60.2498 22.5271 59.6574 22.5271 59.6574C22.5271 59.6574 22.2901 51.8113 23.4092 47.4801C25.3049 40.0683 27.793 34.5523 30.031 30.9452C31.6371 28.378 33.1115 28.1937 33.1115 28.1937" stroke="black" stroke-width="0.4" stroke-miterlimit="10" stroke-linecap="round" stroke-linejoin="round"/>
<path d="M17.8321 20.6599C17.8321 20.6599 18.5539 19.856 19.0255 19.5103C19.1628 19.4188 19.3144 19.3394 19.4683 19.2861C19.906 19.1549 20.4028 19.2431 20.7227 19.5716C21.5525 20.4366 22.75 22.0223 22.4785 25.3768C22.2649 27.8935 21.1389 29.209 19.8466 29.8387C19.8466 29.8387 19.781 29.8445 19.6939 29.9051C19.6808 29.9063 19.6557 29.9217 19.6438 29.936C18.3707 30.4847 16.9775 30.4229 16.1687 30.2434C16.1555 30.2445 16.1544 30.2314 16.1544 30.2314C16.0009 30.1393 15.8971 30.1617 15.8971 30.1617C15.7756 30.1328 15.6792 30.0884 15.6101 30.0549C13.7092 29.0336 11.8856 27.0935 12.705 22.9108C12.833 22.2651 13.2373 21.1588 13.6453 20.5413C13.9969 20.0344 14.7971 19.3689 15.3367 19.4929C15.3629 19.4906 15.3772 19.5026 15.4046 19.5134C16.1467 19.6856 17.0266 20.0704 17.8321 20.6599Z" fill="url(#paint4_linear_488_2678)"/>
<path d="M19.4682 19.286C19.3143 19.3393 19.1627 19.4188 19.0254 19.5102C18.5538 19.8559 17.8319 20.6599 17.8319 20.6599C17.0265 20.0703 16.1466 19.6856 15.4045 19.5133L15.4033 19.5002C15.4033 19.5002 15.5868 19.0346 16.3281 19.0484C16.3281 19.0484 16.7183 18.3795 17.5353 18.6508C17.5353 18.6508 18.5557 18.0848 19.4682 19.286Z" fill="#F65061"/>
<path d="M19.6438 29.9359C19.2057 30.2126 18.2174 31.2912 18.4898 35.417C18.8358 40.6728 20.6664 59.2778 20.6612 59.9655C20.6658 60.0179 20.7014 60.5699 20.1638 60.6174C19.5999 60.6673 19.5859 60.0606 19.5859 60.0606C19.5859 60.0606 18.1302 40.1669 17.6373 35.043C17.2778 31.4272 16.5602 30.4862 16.1687 30.2433C16.9776 30.4229 18.3707 30.4846 19.6438 29.9359Z" fill="#63A465"/>
<path d="M15.9832 19.4228C16.24 19.463 16.4849 19.4126 16.7075 19.2766C16.8124 19.2125 16.8992 19.0974 17.0079 19.0454C17.1273 18.9883 17.3281 19.018 17.4587 19.0125C17.7496 19.0003 18.0516 18.9653 18.3419 18.9991C18.6299 19.0327 18.8631 19.1886 19.0949 19.3512C19.2798 19.4808 19.4548 19.1775 19.2716 19.049C19.0416 18.8877 18.8013 18.7309 18.5214 18.6746C18.2331 18.6167 17.9366 18.6424 17.6453 18.6547C17.4898 18.6612 17.3342 18.6672 17.1788 18.6742C17.0411 18.6804 16.9135 18.6879 16.7958 18.7664C16.5655 18.9201 16.3855 19.1337 16.0762 19.0853C15.8558 19.0508 15.7609 19.3881 15.9832 19.4228Z" fill="#FFC7D8"/>
<path d="M16.7576 19.9945C16.0334 19.6444 15.2555 19.4066 14.5065 19.8446C13.8207 20.2456 13.4167 20.9535 13.1705 21.6832C12.5921 23.3974 12.1863 25.1563 12.8043 26.917C12.8784 27.1281 13.2167 27.0372 13.1418 26.8239C12.89 26.1065 12.7868 25.3664 12.8354 24.6076C12.8848 23.8366 13.1199 23.0735 13.3335 22.3334C13.5415 21.6125 13.779 20.9172 14.3488 20.3978C15.0379 19.7697 15.8099 19.9239 16.5809 20.2967C16.7828 20.3944 16.9605 20.0927 16.7576 19.9945Z" fill="white"/>
<path d="M18.7282 20.3444C18.929 20.185 19.1259 20.0118 19.3556 19.8946C19.5779 19.781 19.9249 19.6595 20.1666 19.7747C20.2684 19.8232 20.3493 19.9151 20.4302 19.9908C20.5145 20.0697 20.6022 20.1397 20.6986 20.2032C20.9015 20.3369 21.0971 20.4799 21.2089 20.7016C21.2972 20.8766 21.5956 20.7547 21.5288 20.5668C21.4843 20.4416 21.4195 20.3342 21.3211 20.2442C21.1553 20.0923 20.9071 20.3391 21.0736 20.4916C21.1273 20.5408 21.1668 20.5908 21.1913 20.6598C21.2979 20.6149 21.4045 20.5699 21.5111 20.525C21.3762 20.2574 21.1374 20.0748 20.8928 19.9126C20.6667 19.7625 20.4983 19.514 20.2339 19.4256C19.9138 19.3187 19.552 19.4253 19.2557 19.556C18.967 19.6833 18.7255 19.9025 18.4807 20.0969C18.3044 20.2369 18.5536 20.4831 18.7282 20.3444Z" fill="white"/>
<path d="M15.3367 19.4928C15.3629 19.4905 15.3772 19.5025 15.4045 19.5133C16.1467 19.6855 17.0265 20.0703 17.832 20.6598C18.6101 21.2386 19.3114 21.996 19.7502 22.9219" stroke="#DC314F" stroke-width="0.4" stroke-miterlimit="10" stroke-linecap="round" stroke-linejoin="round"/>
<path d="M16.1544 30.2314C16.0603 30.2133 15.9662 30.1952 15.8971 30.1616C15.7756 30.1327 15.6792 30.0884 15.6101 30.0548C13.7092 29.0335 11.8856 27.0935 12.705 22.9108C12.833 22.2651 13.2373 21.1588 13.6453 20.5412C13.9969 20.0343 14.7971 19.3688 15.3367 19.4929" stroke="black" stroke-width="0.4" stroke-miterlimit="10" stroke-linecap="round" stroke-linejoin="round"/>
<path d="M19.6438 29.9359C18.3707 30.4846 16.9776 30.4229 16.1687 30.2433" stroke="black" stroke-width="0.4" stroke-miterlimit="10" stroke-linecap="round" stroke-linejoin="round"/>
<path d="M19.4683 19.2861C19.906 19.1549 20.4028 19.2431 20.7226 19.5716C21.5524 20.4366 22.75 22.0223 22.4784 25.3768C22.2649 27.8935 21.1389 29.209 19.8466 29.8387C19.7964 29.8696 19.7451 29.8874 19.6939 29.9051" stroke="black" stroke-width="0.4" stroke-miterlimit="10" stroke-linecap="round" stroke-linejoin="round"/>
<path d="M17.832 20.6598C17.832 20.6598 18.5539 19.8559 19.0255 19.5102C19.1628 19.4188 19.3144 19.3393 19.4683 19.286" stroke="#DC314F" stroke-width="0.4" stroke-miterlimit="10" stroke-linecap="round" stroke-linejoin="round"/>
<path d="M15.4033 19.5002C15.4033 19.5002 15.5868 19.0346 16.3281 19.0484C16.3281 19.0484 16.7183 18.3795 17.5353 18.6508C17.5353 18.6508 18.5557 18.0848 19.4682 19.286" stroke="black" stroke-width="0.4" stroke-miterlimit="10" stroke-linecap="round" stroke-linejoin="round"/>
<path d="M14.0709 21.6119C14.0709 21.6119 13.6111 23.5958 14.111 25.2333" stroke="#F44D79" stroke-width="0.25" stroke-miterlimit="10" stroke-linecap="round" stroke-linejoin="round"/>
<path d="M14.5859 22.5753C14.5859 22.5753 14.4036 24.1049 14.6797 24.9026" stroke="#F44D79" stroke-width="0.25" stroke-miterlimit="10" stroke-linecap="round" stroke-linejoin="round"/>
<path d="M15.9668 23.6116C15.9668 23.6116 15.9168 24.1018 15.9768 24.3581" stroke="#F44D79" stroke-width="0.25" stroke-miterlimit="10" stroke-linecap="round" stroke-linejoin="round"/>
<path d="M16.4096 23.124C16.4096 23.124 16.3351 23.9714 16.5347 24.3275" stroke="#F44D79" stroke-width="0.25" stroke-miterlimit="10" stroke-linecap="round" stroke-linejoin="round"/>
<path d="M20.6218 20.7626C20.6218 20.7626 21.1693 21.3749 21.2493 22.0888" stroke="#F44D79" stroke-width="0.25" stroke-miterlimit="10" stroke-linecap="round" stroke-linejoin="round"/>
<path d="M20.1702 21.2511C20.1702 21.2511 20.4019 21.6147 20.464 22.0127" stroke="#F44D79" stroke-width="0.25" stroke-miterlimit="10" stroke-linecap="round" stroke-linejoin="round"/>
<path d="M19.8811 21.6097C19.8811 21.6097 20.0407 21.9298 20.0224 22.1469" stroke="#F44D79" stroke-width="0.25" stroke-miterlimit="10" stroke-linecap="round" stroke-linejoin="round"/>
<path d="M16.1687 30.2434C16.5602 30.4863 17.2778 31.4272 17.6373 35.0431C18.1302 40.167 19.5859 60.0607 19.5859 60.0607C19.5859 60.0607 19.5999 60.6674 20.1638 60.6175C20.7014 60.5699 20.6658 60.018 20.6612 59.9656C20.6664 59.2778 18.8358 40.6729 18.4898 35.417C18.2174 31.2913 19.2057 30.2126 19.6438 29.936C19.6557 29.9217 19.6808 29.9063 19.6939 29.9051C19.7811 29.8445 19.8466 29.8387 19.8466 29.8387" stroke="black" stroke-width="0.4" stroke-miterlimit="10" stroke-linecap="round" stroke-linejoin="round"/>
<path d="M16.1543 30.2313C16.1543 30.2313 16.1555 30.2444 16.1686 30.2433" stroke="black" stroke-width="0.4" stroke-miterlimit="10" stroke-linecap="round" stroke-linejoin="round"/>
<path d="M15.8972 30.1616C15.8972 30.1616 16.001 30.1392 16.1545 30.2313" stroke="black" stroke-width="0.4" stroke-miterlimit="10" stroke-linecap="round" stroke-linejoin="round"/>
<path d="M18.3571 55.86C19.9236 59.1381 20.7004 60.5204 19.8447 60.889C18.9758 61.2444 18.3307 59.0459 16.0269 56.4261C13.7231 53.8063 7.57513 51.3314 4.15231 46.1708C0.742645 41.0102 0.374023 32.1504 0.374023 32.1504C0.374023 32.1504 0.689972 31.2025 1.36139 32.6111C2.03278 34.0066 3.79684 34.5858 4.77103 35.4547C5.50827 36.1129 5.82422 36.5342 6.24548 37.9033C6.24548 37.9033 6.27182 37.9692 6.31131 38.1008C6.42981 38.5089 6.54828 38.996 6.70627 39.6016C8.16754 45.3941 11.0506 46.1313 13.96 48.0533C14.1443 48.1718 14.3286 48.3035 14.4866 48.4351C16.8694 50.3177 16.8958 52.8058 18.3571 55.86Z" fill="#95EBAE"/>
<path d="M14.4866 48.4351C14.3286 48.3035 14.1443 48.1718 13.96 48.0534C11.0506 46.1313 8.16751 45.3941 6.70624 39.6016C6.54825 38.996 6.42978 38.5089 6.31128 38.1008C6.52191 38.6274 7.23282 40.1282 8.8389 40.8523C10.2739 41.4973 10.9453 43.0639 11.5903 44.6174C12.2091 46.0918 14.3813 46.6974 14.4866 48.4351Z" fill="#3EA98F"/>
<path d="M6.24548 37.9033C5.82422 36.5342 5.50827 36.1129 4.77103 35.4547C3.79684 34.5858 2.03278 34.0066 1.36139 32.6111C0.689972 31.2025 0.374023 32.1504 0.374023 32.1504C0.374023 32.1504 0.742645 41.0102 4.15231 46.1708C7.57513 51.3314 13.7231 53.8063 16.0269 56.4261C18.3307 59.0459 18.9758 61.2444 19.8447 60.889C20.7004 60.5204 19.9236 59.1381 18.3571 55.86C16.8958 52.8058 16.8694 50.3177 14.4866 48.4351C14.3286 48.3035 14.1443 48.1718 13.96 48.0533C11.0506 46.1313 8.16754 45.3941 6.70627 39.6016C6.54828 38.996 6.42981 38.5089 6.31131 38.1008" stroke="black" stroke-width="0.4" stroke-miterlimit="10" stroke-linecap="round" stroke-linejoin="round"/>
<path d="M6.24561 37.9033C6.24561 37.9033 6.27194 37.9691 6.31143 38.1008C6.52206 38.6274 7.23297 40.1282 8.83905 40.8522C10.274 41.4973 10.9454 43.0639 11.5905 44.6173C12.2092 46.0918 14.3814 46.6974 14.4867 48.4351" stroke="black" stroke-width="0.4" stroke-miterlimit="10" stroke-linecap="round" stroke-linejoin="round"/>
<path d="M32.9951 32.6829C33.2979 32.6566 33.6928 32.6302 33.9561 32.7487C34.1404 32.8277 34.7328 33.5781 34.8513 34.2758C34.9566 34.9867 34.9303 35.8161 34.4169 35.9609C34.1799 35.2105 33.6797 34.6313 33.2321 34.3022C33.1399 34.2363 33.0346 34.1837 32.9293 34.1574C32.4948 33.9072 32.7186 33.5386 32.5343 33.1173C32.35 32.6961 31.3627 32.7751 31.3627 32.7751H31.3495C31.2178 32.209 30.9151 31.6824 30.2963 31.3664C29.7697 31.1031 29.1642 30.932 28.5454 30.8662V30.853C28.5454 30.853 29.6381 30.3264 30.5201 30.4844C31.4153 30.6424 31.4943 31.2348 31.705 31.3006C31.9024 31.3664 32.5211 31.1821 32.745 31.7219C32.9819 32.2485 32.9951 32.6829 32.9951 32.6829Z" fill="#FC87A5"/>
<path d="M32.9293 34.1573C33.0346 34.1837 33.1399 34.2363 33.2321 34.3021C33.6797 34.6313 34.1799 35.2105 34.4169 35.9609C34.5617 36.4612 34.588 37.0404 34.3906 37.6723C33.9035 39.2653 32.4554 41.5691 30.9283 41.7929C29.4012 42.0167 28.7692 41.7797 28.3085 41.3979C28.2163 41.319 28.111 41.24 28.0189 41.161C27.7292 40.9372 27.4528 40.7792 27.3738 40.7265C27.5317 40.7529 27.7029 40.7924 27.8872 40.845C29.5065 41.3058 31.2179 39.1336 31.5865 37.8961C32.0472 36.3822 31.6786 34.5786 31.3232 34.7234C31.3232 34.7234 31.5865 33.7229 31.3495 32.775H31.3627C31.3627 32.775 32.35 32.6961 32.5344 33.1173C32.7187 33.5386 32.4948 33.9072 32.9293 34.1573Z" fill="url(#paint5_linear_488_2678)"/>
<path d="M31.323 34.7235C31.6785 34.5787 32.0471 36.3823 31.5863 37.8962C31.2177 39.1337 29.5063 41.3059 27.8871 40.8451C27.7027 40.7924 27.5316 40.7529 27.3736 40.7266C27.3605 40.7134 27.3473 40.7134 27.3473 40.7134C26.36 40.5028 26.0177 40.6081 25.5305 40.2922C25.3857 40.1869 25.2146 40.0552 25.0171 39.8446C22.5685 37.3828 23.3715 34.2496 24.7275 32.3802C25.6622 31.09 27.163 30.6951 28.5453 30.8662C29.164 30.9321 29.7696 31.1032 30.2962 31.3665C30.9149 31.6824 31.2177 32.209 31.3494 32.7751C31.5863 33.723 31.323 34.7235 31.323 34.7235Z" fill="url(#paint6_linear_488_2678)"/>
<path d="M28.0188 41.161V41.1742C28.0188 41.1742 25.3069 44.3863 24.4643 50.2447C23.7929 54.9576 23.5296 60.2762 23.5296 60.2762C23.5296 60.3157 23.5164 60.7369 23.0294 60.7369C22.5686 60.7369 22.5554 60.1972 22.5554 60.1445C22.5554 60.1445 22.6871 56.2873 22.9372 54.0229C23.1742 51.7586 23.8192 47.9935 24.9382 44.439C26.0573 40.8977 25.5306 40.2921 25.5306 40.2921C26.0178 40.6081 26.36 40.5028 27.3474 40.7134C27.3474 40.7134 27.3606 40.7134 27.3737 40.7266C27.4527 40.7792 27.7292 40.9372 28.0188 41.161Z" fill="#63A465"/>
<path d="M30.0776 31.2618C30.0776 31.2618 30.8393 30.9452 31.0458 31.2618C31.2523 31.5785 31.6053 32.0126 32.2711 32.1567C32.9369 32.3007 32.4296 32.5608 32.722 32.7304C33.0145 32.9001 33.7576 32.9825 33.9369 33.3819C34.1162 33.7814 33.9128 34.5177 34.016 34.9514C34.016 34.9514 33.2715 33.85 32.4088 34.0795C31.546 34.3089 31.4818 34.5751 31.4818 34.5751C31.4818 34.5751 31.647 32.4733 31.0871 32.0328C30.5273 31.5922 30.0776 31.2618 30.0776 31.2618Z" fill="#F65061"/>
<path d="M26.8274 31.2899C27.3703 31.2086 27.9327 31.1578 28.4787 31.2416C28.9754 31.3178 29.4949 31.5032 29.9536 31.7068C30.1609 31.7988 30.413 31.9137 30.5718 32.0804C30.7034 32.2186 30.7466 32.4278 30.823 32.5982C30.9125 32.7979 31.0432 32.962 31.0928 33.1806C31.1502 33.433 31.1241 33.6999 31.019 33.9365C30.9283 34.1405 31.2298 34.3188 31.3212 34.1131C31.5509 33.5961 31.4987 33.0648 31.211 32.5845C31.0941 32.3895 31.0478 32.16 30.9262 31.9679C30.7909 31.7542 30.541 31.6113 30.3225 31.4972C29.8165 31.2331 29.2111 31.0176 28.6496 30.9171C28.013 30.8031 27.3694 30.8573 26.7344 30.9524C26.5124 30.9856 26.6067 31.3229 26.8274 31.2899Z" fill="white"/>
<path d="M32.4456 34.5484C32.731 34.532 33.0153 34.5285 33.2656 34.6852C33.467 34.8113 33.6167 35.0067 33.7268 35.2141C33.8607 35.4661 33.9323 35.7465 33.9991 36.0222C34.0348 36.1693 34.0684 36.317 34.1065 36.4635C34.1443 36.6086 34.1849 36.7493 34.184 36.9004C34.1826 37.1256 34.5326 37.1259 34.534 36.9004C34.5351 36.7263 34.4937 36.5595 34.4498 36.3922C34.4056 36.2238 34.3674 36.054 34.3259 35.885C34.2487 35.5707 34.1564 35.2534 33.9926 34.9719C33.8511 34.7285 33.6559 34.5071 33.411 34.3641C33.1147 34.191 32.7796 34.1792 32.4456 34.1984C32.2217 34.2113 32.2202 34.5614 32.4456 34.5484Z" fill="white"/>
<path d="M30.678 31.1294C30.678 31.1294 31.1124 31.0241 31.2177 31.3006C31.323 31.577 31.4547 31.9457 31.9813 32.0378" stroke="#DC314F" stroke-width="0.35" stroke-miterlimit="10" stroke-linecap="round" stroke-linejoin="round"/>
<path d="M33.6533 33.1173C33.6533 33.1173 34.0351 33.2226 34.0219 33.6834C33.9956 34.1442 34.0219 34.4733 34.0219 34.4733" stroke="#DC314F" stroke-width="0.35" stroke-miterlimit="10" stroke-linecap="round" stroke-linejoin="round"/>
<path d="M31.3625 32.775C31.3625 32.775 32.3499 32.6961 32.5342 33.1173C32.7185 33.5386 32.4947 33.9072 32.9291 34.1573" stroke="#DC314F" stroke-width="0.35" stroke-miterlimit="10" stroke-linecap="round" stroke-linejoin="round"/>
<path d="M27.3736 40.7266C27.5316 40.7529 27.7027 40.7924 27.8871 40.8451C29.5063 41.3059 31.2177 39.1337 31.5863 37.8962C32.0471 36.3823 31.9813 34.9515 31.323 34.7235C31.323 34.7235 31.5863 33.723 31.3494 32.7751C31.2177 32.209 30.9149 31.6824 30.2962 31.3665C29.7696 31.1032 29.164 30.9321 28.5453 30.8662C27.163 30.6951 25.6622 31.09 24.7275 32.3802C23.3715 34.2496 22.5685 37.3828 25.0171 39.8446C25.2146 40.0552 25.3857 40.1869 25.5305 40.2922C26.0177 40.6081 26.36 40.5028 27.3473 40.7134" stroke="black" stroke-width="0.35" stroke-miterlimit="10" stroke-linecap="round" stroke-linejoin="round"/>
<path d="M31.547 34.6444C31.547 34.6444 32.2447 33.9467 32.9293 34.1573C33.0346 34.1836 33.1399 34.2363 33.2321 34.3021C33.6797 34.6312 34.1799 35.2105 34.4169 35.9609C34.5617 36.4611 34.588 37.0404 34.3905 37.6723C33.9034 39.2652 32.4553 41.569 30.9282 41.7928C29.4011 42.0166 28.7692 41.7797 28.3084 41.3979C28.2163 41.3189 28.111 41.2399 28.0188 41.1609C27.7292 40.9371 27.4527 40.7792 27.3737 40.7265C27.3606 40.7133 27.3474 40.7133 27.3474 40.7133" stroke="black" stroke-width="0.35" stroke-miterlimit="10" stroke-linecap="round" stroke-linejoin="round"/>
<path d="M28.5454 30.853C28.5454 30.853 29.6381 30.3264 30.5201 30.4844C31.4153 30.6424 31.4943 31.2348 31.705 31.3006C31.9024 31.3664 32.5211 31.1821 32.745 31.7219C32.9819 32.2485 32.9951 32.6829 32.9951 32.6829" stroke="black" stroke-width="0.35" stroke-miterlimit="10" stroke-linecap="round" stroke-linejoin="round"/>
<path d="M32.6265 32.7487C32.6265 32.7487 32.7845 32.7092 32.9951 32.6829C33.2979 32.6565 33.6928 32.6302 33.9561 32.7487C34.1404 32.8277 34.7328 33.5781 34.8513 34.2758C34.9566 34.9867 34.9303 35.8161 34.4169 35.9609" stroke="black" stroke-width="0.35" stroke-miterlimit="10" stroke-linecap="round" stroke-linejoin="round"/>
<path d="M25.5306 40.2921C25.5306 40.2921 26.0573 40.8977 24.9382 44.439C23.8192 47.9935 23.1742 51.7586 22.9372 54.0229C22.6871 56.2873 22.5554 60.1445 22.5554 60.1445C22.5554 60.1972 22.5686 60.7369 23.0294 60.7369C23.5164 60.7369 23.5296 60.3157 23.5296 60.2762C23.5296 60.2762 23.7929 54.9576 24.4643 50.2447C25.3069 44.3863 28.0188 41.1742 28.0188 41.1742" stroke="black" stroke-width="0.35" stroke-miterlimit="10" stroke-linecap="round" stroke-linejoin="round"/>
<path d="M26.7023 32.0225C26.1182 32.6807 25.7834 33.5299 25.7649 34.4102C25.7615 34.5711 26.0115 34.5711 26.0149 34.4102C26.0319 33.5979 26.3395 32.8073 26.879 32.1992C26.9855 32.0793 26.8093 31.9018 26.7023 32.0225Z" fill="#F44D79"/>
<path d="M27.0535 32.9086C26.7975 33.205 26.6116 33.5523 26.5277 33.9361C26.5133 34.002 26.5474 34.0713 26.615 34.0899C26.6775 34.1071 26.7543 34.0688 26.7688 34.0026C26.8435 33.661 27.0021 33.3496 27.2303 33.0854C27.2744 33.0343 27.2805 32.9588 27.2303 32.9086C27.1852 32.8635 27.0979 32.8573 27.0535 32.9086Z" fill="#F44D79"/>
<path d="M27.622 33.1312C27.3927 33.4481 27.2196 33.8041 27.1083 34.179C27.0624 34.3336 27.3036 34.3996 27.3494 34.2455C27.4549 33.8901 27.6206 33.5577 27.8379 33.2574C27.8774 33.2026 27.8473 33.1181 27.793 33.0863C27.7299 33.0494 27.6617 33.0763 27.622 33.1312Z" fill="#F44D79"/>
<path d="M33.3344 35.7564C33.5213 36.1989 33.4821 36.723 33.2459 37.1384C33.1662 37.2784 33.3821 37.4045 33.4617 37.2645C33.7463 36.764 33.7734 36.1584 33.5503 35.6303C33.524 35.5681 33.4321 35.5545 33.3793 35.5854C33.3148 35.6231 33.308 35.694 33.3344 35.7564Z" fill="#F44D79"/>
<path d="M32.7702 36.6378C32.7723 36.6522 32.7723 36.6513 32.7701 36.6349C32.771 36.6417 32.7718 36.6484 32.7725 36.6552C32.7735 36.6654 32.7744 36.6755 32.7752 36.6857C32.7769 36.7095 32.7777 36.7333 32.7776 36.7572C32.7776 36.781 32.7766 36.8049 32.7747 36.8286C32.7738 36.8405 32.7723 36.8523 32.7713 36.8642C32.7702 36.8736 32.7706 36.871 32.7725 36.8563C32.7715 36.8631 32.7705 36.8698 32.7694 36.8765C32.7617 36.9235 32.7505 36.97 32.7359 37.0154C32.7287 37.0377 32.722 37.0617 32.7114 37.0826C32.7212 37.0632 32.7122 37.0806 32.7078 37.0902C32.7021 37.1026 32.696 37.1148 32.6899 37.127C32.6603 37.1852 32.6726 37.2652 32.7347 37.298C32.7917 37.3281 32.8741 37.3154 32.9057 37.2531C33.0137 37.0403 33.0479 36.8065 33.0113 36.5714C33.0012 36.5065 32.9167 36.4649 32.8575 36.4841C32.787 36.5069 32.7594 36.5684 32.7702 36.6378Z" fill="#F44D79"/>
<path d="M33.3694 44.4099C34.133 41.8954 36.1209 38.8017 37.8059 37.9724C39.4779 37.1298 41.3867 35.0366 41.3867 35.0366C41.3867 35.0366 41.5711 39.3152 37.4373 42.7512C33.9487 45.6474 30.8155 48.9386 28.8408 52.0849C26.8661 55.2313 24.7071 58.8516 24.7466 59.839C24.7466 59.839 24.6939 60.6025 23.4696 60.7078C22.627 60.7737 22.3374 60.3524 22.3374 60.3524C22.3374 60.3524 22.7323 54.3098 24.3779 51.2819C25.8919 48.5173 30.0519 46.332 33.3694 44.4099Z" fill="#95EBAE"/>
<path d="M33.3694 44.4099C34.8701 43.541 36.1998 42.7248 37.0292 41.9218" stroke="black" stroke-width="0.4" stroke-miterlimit="10" stroke-linecap="round" stroke-linejoin="round"/>
<path d="M33.3694 44.4099C34.133 41.8954 36.1209 38.8017 37.8059 37.9724C39.4779 37.1298 41.3867 35.0366 41.3867 35.0366C41.3867 35.0366 41.5711 39.3152 37.4373 42.7512C33.9487 45.6474 30.8155 48.9386 28.8408 52.0849C26.8661 55.2313 24.7071 58.8516 24.7466 59.839C24.7466 59.839 24.6939 60.6025 23.4696 60.7078C22.627 60.7737 22.3374 60.3524 22.3374 60.3524C22.3374 60.3524 22.7323 54.3098 24.3779 51.2819C25.8919 48.5173 30.0519 46.332 33.3694 44.4099Z" stroke="black" stroke-width="0.4" stroke-miterlimit="10" stroke-linecap="round" stroke-linejoin="round"/>
<path d="M22.902 60.1759C22.3522 60.2438 21.79 60.2097 21.2525 60.0757C20.7365 59.9472 20.2331 59.7262 19.7013 59.7283C19.2778 59.73 18.8693 59.8738 18.4524 59.9481C18.0354 60.0223 17.5691 60.0153 17.2343 59.756C17.1551 59.6946 17.0822 59.6189 16.9865 59.5898C16.9005 59.5636 16.8079 59.579 16.7203 59.599C16.1144 59.7375 15.5813 60.0844 15.0363 60.3832C14.4912 60.682 13.8889 60.9436 13.27 60.8858L16.4373 65.5558L26.5471 65.1388L28.689 60.1846C28.3766 59.7924 27.8986 59.5366 27.3989 59.4941C27.1771 59.4752 26.9523 59.4964 26.7324 59.462C26.5125 59.4275 26.2867 59.3231 26.1837 59.1258C26.1336 59.0299 26.1151 58.917 26.0478 58.8323C25.9307 58.6851 25.707 58.6747 25.5271 58.7295C25.3472 58.7843 25.1849 58.8898 25.0023 58.935C24.7026 59.0093 24.3904 58.9136 24.0824 58.8925C23.3686 58.8434 22.6887 59.1974 22.1075 59.6147C21.808 59.8299 21.4874 59.9828 21.1192 60.0059" fill="#B26526"/>
<path d="M23.9382 61.229C24.3074 61.1506 24.6085 60.788 24.9827 60.8374C25.2364 60.8708 25.4226 61.0856 25.6506 61.2017C25.8439 61.3002 26.0732 61.3259 26.2834 61.2728C26.3706 61.2508 26.4639 61.2159 26.5471 61.2501" fill="#B26526"/>
<path d="M13.2699 61.1607C14.1463 61.2027 14.8783 60.7825 15.6199 60.3706C15.9191 60.2044 16.4318 59.8437 16.7933 59.8641C16.9958 59.8755 17.1601 60.0519 17.3361 60.1308C17.4668 60.1894 17.6013 60.2222 17.7426 60.2422C18.6312 60.3678 19.4231 59.8753 20.3239 60.0951C21.2099 60.3113 21.9754 60.548 22.9019 60.4508C23.2504 60.4143 23.2542 59.8639 22.9019 59.9008C22.4272 59.9506 21.9565 59.945 21.4874 59.8477C21.0845 59.7642 20.7009 59.6072 20.2981 59.5236C19.8896 59.4388 19.4986 59.4482 19.09 59.5269C18.6601 59.6096 18.2238 59.7755 17.7811 59.6906C17.4343 59.6241 17.2193 59.2943 16.8539 59.302C16.518 59.3091 16.1675 59.4783 15.8688 59.6192C15.0198 60.0193 14.2585 60.658 13.2699 60.6107C12.9161 60.5938 12.917 61.1438 13.2699 61.1607Z" fill="black"/>
<path d="M21.1191 60.2808C21.8336 60.2076 22.2812 59.7612 22.8956 59.4489C23.2446 59.2714 23.6243 59.1514 24.0194 59.1652C24.3739 59.1775 24.7212 59.2891 25.0753 59.2002C25.2084 59.1667 25.3297 59.1017 25.4559 59.0499C25.6731 58.9608 25.7661 58.9671 25.9036 59.1647C26.0779 59.4152 26.1853 59.5855 26.4956 59.6862C26.84 59.7979 27.2049 59.7194 27.5542 59.7937C27.9344 59.8746 28.2456 60.0868 28.4944 60.379C28.7242 60.6489 29.1117 60.2583 28.8833 59.9901C28.4058 59.4293 27.7814 59.2267 27.0648 59.2086C26.8339 59.2028 26.5653 59.1989 26.421 58.987C26.3362 58.8624 26.3229 58.717 26.2087 58.6066C26.0092 58.4137 25.7109 58.3922 25.4538 58.4643C25.2906 58.51 25.1458 58.6078 24.9828 58.6531C24.7711 58.7118 24.5612 58.6745 24.3469 58.6481C23.9786 58.6028 23.6284 58.6098 23.2689 58.711C22.9007 58.8146 22.5521 58.9928 22.2314 59.1986C21.8726 59.4288 21.5601 59.6857 21.1191 59.7308C20.7704 59.7666 20.7667 60.3169 21.1191 60.2808Z" fill="black"/>
<path d="M24.0114 61.4942C24.2371 61.4403 24.4298 61.3133 24.6311 61.2041C24.7986 61.1132 24.9354 61.073 25.1065 61.1743C25.3128 61.2965 25.4839 61.451 25.7181 61.5236C25.8431 61.5624 25.9815 61.5805 26.1122 61.5736C26.1795 61.57 26.2482 61.5608 26.3143 61.5475C26.3594 61.5384 26.4288 61.5028 26.474 61.5152C26.8157 61.6096 26.9615 61.0791 26.6202 60.9849C26.4572 60.9399 26.3271 60.9899 26.1681 61.0172C26.0601 61.0356 25.9466 61.0236 25.8436 60.9868C25.6209 60.9074 25.4532 60.7171 25.2337 60.6256C24.9769 60.5187 24.7187 60.5572 24.4719 60.6697C24.2669 60.7632 24.0869 60.9109 23.8652 60.9638C23.521 61.046 23.6667 61.5765 24.0114 61.4942Z" fill="black"/>
<defs>
<linearGradient id="paint0_linear_488_2678" x1="30.4882" y1="14.9413" x2="39.1708" y2="6.25879" gradientUnits="userSpaceOnUse">
<stop stop-color="white"/>
<stop offset="0.0393326" stop-color="#FFF1F4"/>
<stop offset="0.175537" stop-color="#FEC6D1"/>
<stop offset="0.307309" stop-color="#FEA3B6"/>
<stop offset="0.431779" stop-color="#FD8BA2"/>
<stop offset="0.545978" stop-color="#FD7C96"/>
<stop offset="0.640318" stop-color="#FD7792"/>
</linearGradient>
<linearGradient id="paint1_linear_488_2678" x1="26.2092" y1="13.1847" x2="33.3951" y2="-1.3966" gradientUnits="userSpaceOnUse">
<stop stop-color="white"/>
<stop offset="0.102919" stop-color="#FED5DE"/>
<stop offset="0.220603" stop-color="#FEADBD"/>
<stop offset="0.327925" stop-color="#FD8FA5"/>
<stop offset="0.420201" stop-color="#FD7D97"/>
<stop offset="0.486719" stop-color="#FD7792"/>
</linearGradient>
<linearGradient id="paint2_linear_488_2678" x1="27.7603" y1="15.154" x2="34.2814" y2="4.0154" gradientUnits="userSpaceOnUse">
<stop stop-color="white"/>
<stop offset="0.0242436" stop-color="#FFF8F9"/>
<stop offset="0.191746" stop-color="#FECAD4"/>
<stop offset="0.352204" stop-color="#FEA6B8"/>
<stop offset="0.501776" stop-color="#FD8CA3"/>
<stop offset="0.636269" stop-color="#FD7C96"/>
<stop offset="0.742728" stop-color="#FD7792"/>
</linearGradient>
<linearGradient id="paint3_linear_488_2678" x1="31.7849" y1="27.2019" x2="39.7787" y2="19.208" gradientUnits="userSpaceOnUse">
<stop stop-color="white"/>
<stop offset="0.142926" stop-color="#FED3DB"/>
<stop offset="0.29371" stop-color="#FEABBC"/>
<stop offset="0.432061" stop-color="#FD8FA5"/>
<stop offset="0.552104" stop-color="#FD7D97"/>
<stop offset="0.640318" stop-color="#FD7792"/>
</linearGradient>
<linearGradient id="paint4_linear_488_2678" x1="18.0193" y1="30.3419" x2="17.0437" y2="19.3117" gradientUnits="userSpaceOnUse">
<stop stop-color="white"/>
<stop offset="0.122248" stop-color="#FEDAE1"/>
<stop offset="0.283927" stop-color="#FEAFBF"/>
<stop offset="0.429945" stop-color="#FD91A6"/>
<stop offset="0.553658" stop-color="#FD7E97"/>
<stop offset="0.640318" stop-color="#FD7792"/>
</linearGradient>
<linearGradient id="paint5_linear_488_2678" x1="29.1245" y1="41.9037" x2="33.8189" y2="33.7727" gradientUnits="userSpaceOnUse">
<stop stop-color="white"/>
<stop offset="0.0209008" stop-color="#FFF8F9"/>
<stop offset="0.165308" stop-color="#FECAD4"/>
<stop offset="0.303641" stop-color="#FEA6B8"/>
<stop offset="0.43259" stop-color="#FD8CA3"/>
<stop offset="0.548538" stop-color="#FD7C96"/>
<stop offset="0.640318" stop-color="#FD7792"/>
</linearGradient>
<linearGradient id="paint6_linear_488_2678" x1="25.2911" y1="40.1566" x2="30.35" y2="31.3943" gradientUnits="userSpaceOnUse">
<stop stop-color="white"/>
<stop offset="0.0209008" stop-color="#FFF8F9"/>
<stop offset="0.165308" stop-color="#FECAD4"/>
<stop offset="0.303641" stop-color="#FEA6B8"/>
<stop offset="0.43259" stop-color="#FD8CA3"/>
<stop offset="0.548538" stop-color="#FD7C96"/>
<stop offset="0.640318" stop-color="#FD7792"/>
</linearGradient>
</defs>
</svg>
