<svg width="40" height="36" viewBox="0 0 40 36" fill="none" xmlns="http://www.w3.org/2000/svg">
<path d="M39.0295 19.3412C39.3239 19.8121 39.6739 20.2234 39.7869 20.614C39.9535 21.1897 39.5516 21.6789 39.4424 22.0323C39.2604 22.6216 38.9105 23.0163 38.4859 22.7764C37.8095 22.394 37.8118 22.3551 37.3482 22.1097C37.116 21.9869 36.6984 21.925 36.1165 21.5826C35.6699 21.3197 35.3678 20.7982 34.8766 20.5721C34.4314 20.3672 33.9968 20.0935 33.4916 19.8486C33.0574 19.6381 32.5506 19.5125 32.0568 19.2266C31.6395 18.9851 31.2177 18.695 30.7486 18.3717C30.3484 18.0959 29.8367 17.9136 29.3929 17.5611C29.0473 17.2865 28.6348 17.1018 28.1863 16.9206C27.7744 16.7542 27.3123 16.7837 26.8416 16.6953C26.3988 16.6122 25.9739 16.4778 25.5019 16.463C25.0454 16.4488 24.5813 16.2933 24.1179 16.3425C23.6579 16.3913 23.1525 16.3003 22.7053 16.411C22.2514 16.5235 21.8243 16.7867 21.4039 16.9625C20.9682 17.1446 20.4906 17.2925 20.1134 17.5421C19.7184 17.8034 19.4186 18.2135 19.1134 18.548C18.7991 18.8926 18.4186 19.2413 18.2278 19.6629C18.0426 20.0721 17.8897 20.5745 17.8476 21.0555C17.8025 21.5701 18.1924 22.057 18.1634 22.461C18.125 22.9961 17.8758 23.429 17.8595 23.8212C17.8371 24.3629 17.9552 24.7944 17.9594 25.1954C17.9642 25.654 18.0518 26.0662 18.066 26.5555C18.0773 26.9458 18.0525 27.3876 18.0542 27.9285C18.0554 28.3235 17.8455 28.8532 17.8353 29.3822C17.1887 28.5016 17.0805 29.3917 16.8456 29.3785C16.7218 29.3715 16.7128 29.0303 16.4557 28.0947C16.3225 27.61 16.0205 27.1819 15.9195 26.7147C15.8131 26.2227 15.831 25.7214 15.7598 25.2496C15.6845 24.7515 15.759 24.259 15.7221 23.7843C15.6831 23.2821 15.5353 22.8082 15.5384 22.3332C15.5416 21.8299 15.6218 21.3535 15.6712 20.8818C15.7236 20.381 15.7904 19.909 15.8937 19.4452C16.0028 18.955 16.0907 18.4824 16.2551 18.0351C16.4274 17.5665 16.6508 17.1431 16.882 16.7236C17.121 16.29 17.3147 15.8402 17.6147 15.4611C17.9187 15.0771 18.3823 14.8649 18.7469 14.5391C19.1077 14.2167 19.4057 13.8361 19.824 13.5728C20.2293 13.3177 20.6938 13.1905 21.1513 12.9929C21.5882 12.8042 22.0277 12.6514 22.5106 12.5169C22.9678 12.3895 23.3917 12.0704 23.8888 11.9931C24.3566 11.9204 24.8377 11.6929 25.3396 11.6658C25.813 11.6402 26.311 11.9535 26.8138 11.9695C27.2869 11.9846 27.7634 12.0474 28.2618 12.1002C28.7356 12.1504 29.2286 12.1265 29.7245 12.2114C30.195 12.2921 30.6725 12.395 31.1624 12.5076C31.6244 12.6139 31.9868 12.9229 32.3905 13.0672C32.8367 13.2268 33.4328 12.9877 33.815 13.1862C34.2327 13.4032 34.5965 13.7239 34.9471 13.9774C35.3254 14.251 35.5425 14.7033 35.8545 15.0067C36.1874 15.3306 36.394 15.7326 36.6659 16.0749C36.9548 16.4387 37.4713 16.6225 37.7088 16.9884C37.9633 17.3804 38.0427 17.8647 38.2596 18.2364C38.4992 18.647 38.8072 18.9859 39.0295 19.3412Z" fill="#A3903B"/>
<path d="M17.7753 29.4943C17.7863 28.9652 17.8143 28.324 17.8135 27.9289C17.8123 27.3844 17.726 26.95 17.7146 26.5578C17.7004 26.0677 17.7176 25.6469 17.7126 25.186C17.7083 24.7879 17.6284 24.3477 17.6504 23.8103C17.6663 23.4194 17.9681 22.9855 18.0062 22.4529C18.0351 22.0481 18.1925 21.6057 18.2377 21.0898C18.2799 20.6085 18.1175 20.1055 18.3028 19.6961C18.4937 19.2746 18.8285 18.9183 19.1429 18.5737C19.4479 18.2395 19.8506 18.0028 20.2452 17.7417C20.6219 17.4924 21.0224 17.2776 21.4575 17.0956C21.8777 16.9198 22.2915 16.6946 22.7453 16.5821C23.1923 16.4712 23.6692 16.5225 24.1291 16.4735C24.5929 16.4242 25.0501 16.232 25.5069 16.2462C25.9795 16.2609 26.4832 16.159 26.9265 16.2422C27.3973 16.3306 27.7347 16.8526 28.1465 17.019C28.595 17.2002 29.1404 17.1692 29.486 17.4438C29.9298 17.7965 30.3032 18.1617 30.7035 18.4375C31.1724 18.7607 31.6855 18.9051 32.1027 19.1466C32.5983 19.4336 32.9 19.9705 33.3357 20.1816C33.8418 20.4268 34.2839 20.7037 34.7299 20.9091C35.2184 21.134 35.7191 21.241 36.1635 21.5026C36.7045 21.821 37.011 22.0198 37.2168 22.1338C37.6744 22.3873 37.671 22.1886 38.3321 22.6469C38.8402 22.9992 39.2305 22.7836 39.4585 22.2344C39.612 21.8644 39.4969 21.4252 39.3537 20.8235C39.2512 20.393 39.1611 19.9445 38.8468 19.4579C38.6188 19.1049 38.5374 18.6222 38.2948 18.2118C38.0757 17.8411 37.9918 17.3562 37.7367 16.964C37.4991 16.5987 37.1371 16.2868 36.8492 15.923C36.5783 15.5808 36.3371 15.1698 36.0058 14.8456C35.6951 14.5416 35.262 14.3313 34.8852 14.057C34.5356 13.8027 34.2036 13.4519 33.7866 13.2342C33.4059 13.0354 32.9784 12.828 32.5334 12.6683C32.1296 12.5233 31.5796 12.8057 31.1168 12.6992C30.6266 12.5865 30.1964 12.2717 29.7256 12.191C29.2291 12.1058 28.7311 12.1602 28.2569 12.11C27.7556 12.0569 27.2742 12.0952 26.7986 12.0802C26.2949 12.0644 25.821 12.0348 25.3469 12.0608C24.8441 12.0884 24.363 12.0627 23.8945 12.1361C23.397 12.214 22.9145 12.2623 22.4571 12.3906C21.9736 12.526 21.4473 12.5265 21.0101 12.7164C20.5526 12.9152 20.2037 13.3149 19.7986 13.5714C19.3808 13.8359 18.9257 14.045 18.5655 14.3687C18.202 14.6954 17.7592 14.9787 17.4563 15.3635C17.1576 15.7432 16.986 16.2393 16.7482 16.6733C16.5183 17.0929 16.2629 17.5269 16.0918 17.9954C15.9286 18.4422 15.7976 18.9273 15.6894 19.4169C15.5869 19.8804 15.5556 20.3793 15.5037 20.8796C15.4549 21.3506 15.4004 21.8429 15.3975 22.3454C15.3948 22.8196 15.5003 23.3078 15.5394 23.809C15.5763 24.2813 15.4416 24.7937 15.5164 25.289C15.5876 25.7603 15.8007 26.2271 15.9069 26.7185C16.0077 27.1854 16.0254 27.692 16.1584 28.1765C16.4152 29.1118 16.7139 29.5053 16.8376 29.5123C17.0728 29.5257 17.1291 28.614 17.7753 29.4943Z" stroke="black" stroke-width="0.4" stroke-miterlimit="10" stroke-linecap="round" stroke-linejoin="round"/>
<path d="M36.2607 19.1454C35.7317 18.6439 35.7602 18.6139 35.2312 18.1124C34.7007 17.6095 34.575 17.742 34.0446 17.2391C33.5141 16.7362 33.628 16.6001 33.0278 16.1828C32.4304 15.7675 32.4247 15.7541 31.7714 15.4341C31.117 15.1135 31.1184 15.1106 30.4641 14.79C29.8097 14.4694 29.7824 14.5179 29.0802 14.3234C28.3797 14.1293 28.3609 14.3132 27.6366 14.2518C26.9111 14.1904 26.913 14.1686 26.1875 14.1071C25.4621 14.0457 25.4796 13.98 24.7539 14.0388C24.0273 14.0977 24.0248 14.0385 23.3178 14.2161C22.6096 14.3939 22.5904 14.3174 21.8823 14.4952C21.1741 14.6731 21.2203 14.8571 20.5122 15.0349" stroke="#C2AE65" stroke-width="0.4" stroke-miterlimit="10" stroke-linecap="round" stroke-linejoin="round"/>
<path d="M26.4608 16.5939C25.2523 13.6555 25.02 14.9246 24.6177 9.51231C24.2153 4.09999 12.8079 10.1533 15.5487 24.9044V30.2182C15.5487 30.2182 17.4005 32.0728 17.1042 29.7901C16.8079 27.5073 14.6598 18.9888 17.4746 13.3592C20.2894 7.72961 23.2287 7.98105 23.3146 9.89236C23.4005 11.8037 25.0978 15.1549 23.9159 16.2941C22.7338 17.4333 26.4608 16.5939 26.4608 16.5939Z" fill="#C2AE65"/>
<path d="M26.4608 16.5939C25.2523 13.6555 25.02 14.9246 24.6177 9.51231C24.2153 4.09999 12.8079 10.1533 15.5487 24.9044V30.2182C15.5487 30.2182 17.4005 32.0728 17.1042 29.7901C16.8079 27.5073 14.6598 18.9888 17.4746 13.3592C20.2894 7.72961 23.2287 7.98105 23.3146 9.89236C23.4005 11.8037 25.0978 15.1549 23.9159 16.2941C22.7338 17.4333 26.4608 16.5939 26.4608 16.5939Z" stroke="black" stroke-width="0.4" stroke-miterlimit="10" stroke-linecap="round" stroke-linejoin="round"/>
<path d="M26.8312 26.5402C26.696 26.7222 26.5154 26.9557 26.3274 27.0379C26.1966 27.0981 25.5047 27.0189 25.0535 26.6846C24.5773 26.3162 24.0733 25.7676 24.2732 25.3521C24.8696 25.705 25.4757 25.7762 25.8926 25.7203C25.9759 25.7077 26.0586 25.6796 26.127 25.6352C26.4791 25.5414 26.5513 25.8917 26.8494 26.037C27.1384 26.1778 27.5785 25.5933 27.5785 25.5933L27.5848 25.5862C27.895 25.842 28.2556 25.9765 28.6626 25.8284C28.9984 25.7023 29.328 25.4888 29.6209 25.214L29.6255 25.2213C29.6255 25.2213 29.3393 26.0515 28.8994 26.413C28.4452 26.7883 28.1739 26.5215 28.0512 26.5969C27.9337 26.6658 27.7278 27.0874 27.3911 26.9258C27.0411 26.7721 26.8312 26.5402 26.8312 26.5402Z" fill="url(#paint0_linear_488_1171)"/>
<path d="M26.1269 25.6351C26.0585 25.6795 25.9758 25.7077 25.8926 25.7202C25.4757 25.7761 24.8696 25.7049 24.2731 25.352C23.8626 25.0962 23.4507 24.6955 23.1188 24.0882C22.1972 22.4224 21.1793 19.0361 22.0972 17.6704C23.012 16.3093 23.6626 16.1737 24.2861 16.339C24.4097 16.3744 24.541 16.4008 24.6624 16.4356C25.0194 16.514 25.3134 16.5211 25.4016 16.532C25.28 16.6039 25.1398 16.6692 24.9806 16.728C23.53 17.2666 24.0481 20.7446 24.6738 22.0998C25.3566 23.5964 26.5556 24.6467 26.6658 24.3461C26.6658 24.3461 27.0286 25.1434 27.5848 25.5861L27.5784 25.5932C27.5784 25.5932 27.1383 26.1778 26.8494 26.0369C26.5512 25.8916 26.4791 25.5413 26.1269 25.6351Z" fill="url(#paint1_linear_488_1171)"/>
<path d="M26.6658 24.3462C26.5556 24.6467 25.3565 23.5965 24.6738 22.0998C24.0481 20.7447 23.53 17.2667 24.9806 16.7281C25.1398 16.6693 25.28 16.604 25.4016 16.5321C25.4193 16.5391 25.4279 16.5305 25.4279 16.5305C26.204 16.1435 26.3541 15.8003 26.8566 15.8678C27.0095 15.9007 27.1921 15.9474 27.4331 16.0676C29.9941 17.2301 30.769 20.3649 30.7772 22.385C30.7829 23.6588 30.2719 24.6242 29.6208 25.214C29.3279 25.4887 28.9983 25.7023 28.6625 25.8283C28.2555 25.9765 27.8949 25.842 27.5848 25.5861C27.0286 25.1434 26.6658 24.3462 26.6658 24.3462Z" fill="url(#paint2_linear_488_1171)"/>
<path d="M25.4384 16.594L25.3365 16.6486L25.2281 16.6981L25.1173 16.7433L25.0025 16.7868L24.1682 17.8906L24.0308 19.3193L24.1949 20.7529L24.6107 22.1289L24.9797 22.8366L25.4317 23.4946L25.991 24.0594L26.7187 24.2698L27.0097 24.5608L27.1541 24.9444L27.2715 25.3358L27.5314 25.6524L27.7847 25.8084L28.0709 25.8875L28.3687 25.8873L28.6582 25.8162L28.9031 25.6744L29.1075 25.4825L29.2962 25.2743L29.4914 25.0725L30.0258 24.5175L30.4506 23.8746L30.7151 23.1521L30.7987 22.3849L30.5769 20.542L29.9498 18.7939L28.8805 17.2793L27.3659 16.2148L27.2239 16.101L27.1137 15.9498L27.0146 15.7948L26.8851 15.6829L26.4671 15.7426L26.1014 15.9586L25.7436 16.1954L25.3663 16.4068" stroke="black" stroke-width="0.4" stroke-miterlimit="10" stroke-linecap="round" stroke-linejoin="round"/>
<path d="M26.5901 24.5275L26.541 24.9388L26.4045 25.3315L26.127 25.6351L26.0536 25.6744L25.9748 25.7026L25.8926 25.7202L25.3312 25.7186L24.7842 25.5899L24.2732 25.352L23.8163 25.001L23.4314 24.5734L23.1188 24.0882L22.254 22.0301L21.772 19.8419L22.0972 17.6704L22.6625 16.943L23.3904 16.3897L24.2862 16.339L24.4116 16.3721L24.5384 16.403L24.6624 16.4356L24.9078 16.481L25.1581 16.5116L25.4016 16.532L25.4163 16.5347L25.425 16.5324L25.4279 16.5304" stroke="black" stroke-width="0.4" stroke-miterlimit="10" stroke-linecap="round" stroke-linejoin="round"/>
<path d="M29.6253 25.2213C29.6253 25.2213 29.3391 26.0516 28.8993 26.4131C28.4451 26.7883 28.1738 26.5216 28.0511 26.5969C27.9336 26.6659 27.7277 27.0875 27.391 26.9258C27.041 26.7721 26.8311 26.5402 26.8311 26.5402" stroke="black" stroke-width="0.4" stroke-miterlimit="10" stroke-linecap="round" stroke-linejoin="round"/>
<path d="M26.9796 26.2999C26.9796 26.2999 26.9213 26.4092 26.8312 26.5402C26.696 26.7222 26.5154 26.9557 26.3274 27.0379C26.1966 27.0981 25.5047 27.0189 25.0535 26.6846C24.5773 26.3162 24.0733 25.7676 24.2732 25.3521" stroke="black" stroke-width="0.4" stroke-miterlimit="10" stroke-linecap="round" stroke-linejoin="round"/>
<path d="M4.45874 10.5558C5.73712 6.38308 6.44696 9.75517 6.38773 3.67337C6.32849 -2.40843 16.0824 2.84968 16.6232 13.1165C16.9774 14.5648 17.1667 15.0162 17.4945 16.7581C17.7926 18.3427 16.0408 20.4901 16.1081 17.6109C16.1755 14.7317 15.3435 7.60432 13.1332 5.37127C10.9231 3.13821 7.7291 0.191608 7.47308 3.86332C7.30176 6.32026 6.2515 8.1193 7.1525 9.61304C8.05362 11.1069 4.99957 10.0178 4.45874 10.5558Z" fill="#C2AE65"/>
<path d="M4.45874 10.5558C5.73712 6.38308 6.44696 9.75517 6.38773 3.67337C6.32849 -2.40843 16.0824 2.84968 16.6232 13.1165C16.9774 14.5648 17.5578 16.3837 17.6632 18.153C17.9411 22.8149 16.3631 23.8894 16.4304 21.0103C16.4977 18.131 15.3435 7.60432 13.1332 5.37127C10.9231 3.13821 7.69357 0.170364 7.47308 3.86332C7.32629 6.32185 6.2515 8.1193 7.1525 9.61304C8.05362 11.1069 4.99957 10.0178 4.45874 10.5558Z" stroke="black" stroke-width="0.4" stroke-miterlimit="10" stroke-linecap="round" stroke-linejoin="round"/>
<path d="M4.00124 16.3107C3.77828 16.2274 3.75218 16.4542 3.5313 16.5427C3.30834 16.6321 3.35805 16.7627 3.13338 16.8477C2.90883 16.9327 2.82134 16.6873 2.59377 16.7639C2.52858 16.7858 2.59557 17.0314 2.52819 17.0451C2.46019 17.0589 2.44039 16.9761 2.37148 16.9842C2.30348 16.9922 2.30681 16.8997 2.23879 16.8918C2.05364 16.8705 2.08705 16.8267 1.9121 16.7625C1.73735 16.6984 1.63722 16.8812 1.49629 16.7596C1.35564 16.6383 1.3477 16.6016 1.27654 16.43C0.949053 15.6405 0.934252 15.6399 0.83568 14.7909C0.736987 13.9411 0.753954 13.9369 0.939501 13.1017C1.12682 12.2585 1.05794 12.22 1.40004 11.4269C1.69695 10.7387 1.7271 10.7281 2.16875 10.1225C2.60893 9.51895 2.68648 9.58878 3.30593 9.17126C3.92098 8.75672 3.94927 8.85327 4.64092 8.5854C4.66149 8.57743 4.63472 8.39121 4.65676 8.39085C4.67748 8.39051 4.70241 8.65038 4.72283 8.64682C4.74935 8.64219 4.73967 8.58246 4.76613 8.57753C4.77309 8.57623 4.7726 8.59785 4.77959 8.59688C4.78856 8.59562 4.71514 8.32802 4.72368 8.32506C4.73189 8.32222 4.79427 8.3244 4.80294 8.32454C5.26506 8.33258 5.2629 8.47634 5.72032 8.54236C6.17812 8.60843 6.24306 8.43685 6.67626 8.599C7.10652 8.76006 7.05013 8.91308 7.46865 9.10256C7.49703 9.1154 7.47832 9.22892 7.50942 9.22697C7.54253 9.2249 7.54753 9.27158 7.58065 9.26893C7.61244 9.26637 7.63164 9.0706 7.66112 9.08281C7.69747 9.09786 7.63286 9.21048 7.66335 9.23533C7.69264 9.25919 7.69316 9.27951 7.72685 9.29659C7.75841 9.31258 7.86919 9.0902 7.90084 9.10599C7.96324 9.13711 7.84535 9.36311 7.90569 9.39811C7.96727 9.43385 7.94597 9.46356 8.00637 9.50128C8.06539 9.53812 8.19139 9.39641 8.22847 9.45527C8.83165 10.4125 8.89897 10.3776 9.20189 11.4677C9.50499 12.5584 9.51961 12.5739 9.30736 13.6858C9.09337 14.8069 9.11467 14.841 8.62456 15.8717C8.47814 16.1796 8.35143 16.1248 8.15209 16.4014C7.95217 16.6789 7.82057 16.5678 7.59404 16.824C7.37026 17.0772 7.57653 17.3385 7.29085 17.5189C7.0443 17.6746 6.95424 17.5471 6.68651 17.6628C6.41585 17.7797 6.40233 17.7595 6.11553 17.8279C5.84087 17.8934 5.83461 17.8992 5.55229 17.905C5.54265 17.9052 5.61534 17.7191 5.60701 17.7142C5.59905 17.7095 5.52642 17.8336 5.5194 17.8276C5.5111 17.8206 5.50884 17.823 5.50081 17.8157C5.24391 17.5808 5.26482 17.5571 5.00218 17.3286C4.73717 17.098 4.52257 17.2753 4.31655 16.9908C4.0927 16.6816 4.32988 16.4334 4.00124 16.3107Z" fill="url(#paint3_linear_488_1171)"/>
<path d="M2.18019 16.9744C2.16188 16.9083 2.29405 16.9098 2.3622 16.9018C2.43083 16.8938 2.44005 16.959 2.50777 16.9452C2.5753 16.9315 2.56297 16.8912 2.62749 16.867C2.84294 16.7862 2.84389 16.7929 3.05299 16.6968C3.26195 16.6007 3.28093 16.639 3.48424 16.5315C3.68669 16.4245 3.64201 16.2599 3.85777 16.3366C4.209 16.4615 4.13512 16.5542 4.40745 16.8088C4.68135 17.0648 4.66377 17.0828 4.94606 17.3296C5.22398 17.5725 5.19209 17.6051 5.46043 17.8586L5.54115 17.8254C5.54072 17.8274 5.446 17.8059 5.44554 17.8079C5.44511 17.8099 5.53535 17.8771 5.53361 17.8781C5.40864 17.9557 5.37526 17.8917 5.23591 17.9388C5.0944 17.9865 5.10399 17.9609 4.95485 17.9532C4.80278 17.9455 4.8015 17.9054 4.65129 17.9304C4.46629 17.9612 4.49785 18.0573 4.31557 18.1014C4.13301 18.1457 4.12956 18.1462 3.94624 18.1053C3.75969 18.0636 3.77287 18.042 3.58787 17.9939C3.2964 17.918 3.2805 17.9866 3.00279 17.8701C2.72261 17.7526 2.79072 17.6516 2.55537 17.4595C2.30705 17.2567 2.2621 17.2704 2.18019 16.9744Z" fill="#845D69"/>
<path d="M5.49951 17.8148C5.40631 17.7267 5.41971 17.715 5.3389 17.6154C5.25906 17.517 5.27939 17.504 5.20255 17.4032C5.12628 17.3032 5.13959 17.2727 5.03397 17.2044C4.91287 17.1261 4.88892 17.1595 4.74689 17.1343C4.60419 17.109 4.58566 17.2246 4.44431 17.1927C4.30582 17.1613 4.33963 17.0706 4.24149 16.968C4.14362 16.8657 4.12219 16.8826 4.09619 16.7435C4.06992 16.6031 4.10397 16.6033 4.08463 16.4619C4.06543 16.3217 4.07294 16.3195 4.0069 16.1944C3.94281 16.0731 3.98694 16.037 3.9017 15.9295C3.81924 15.8255 3.79404 15.8493 3.71878 15.74C3.64139 15.6276 3.66296 15.6163 3.59006 15.501C3.51352 15.3799 3.43158 15.4375 3.34158 15.3261C3.25299 15.2163 3.22324 15.2362 3.14282 15.1204C3.06277 15.005 3.11481 14.9686 3.05896 14.8398C3.00241 14.7094 2.99139 14.7141 2.9364 14.583C2.88293 14.4557 2.94437 14.4322 2.89606 14.3028C2.84674 14.1708 2.8255 14.1806 2.78564 14.0454" stroke="#825563" stroke-width="0.4" stroke-miterlimit="10" stroke-linecap="round" stroke-linejoin="round"/>
<path d="M7.61395 9.18376C7.64667 9.20199 7.60165 9.27641 7.63391 9.29542C7.66721 9.31501 7.6521 9.31876 7.68375 9.34089C7.71234 9.3609 7.88965 9.11184 7.91791 9.1323C7.95367 9.15817 7.8605 9.28689 7.89612 9.31296C7.92996 9.33772 7.98767 9.27084 8.01953 9.2981C8.05096 9.325 8.12009 9.31204 8.14227 9.34696C8.75665 10.315 9.00616 10.2413 9.34473 11.3367C9.68277 12.4304 9.57834 12.5402 9.39282 13.6698C9.20587 14.8083 8.99185 14.7686 8.52399 15.8232C8.3804 16.1468 8.23834 16.0581 8.02872 16.3435C7.81863 16.6295 7.92917 16.7169 7.68948 16.9786C7.45032 17.2397 7.40848 17.1969 7.12915 17.4145C6.90271 17.5909 6.86652 17.4957 6.60385 17.6115C6.34042 17.7276 6.39197 17.8384 6.10553 17.8669C5.82587 17.8948 5.83939 17.797 5.56006 17.7661" stroke="black" stroke-width="0.4" stroke-miterlimit="10" stroke-linecap="round" stroke-linejoin="round"/>
<path d="M4.7998 8.50024C5.28983 8.51064 5.28763 8.5008 5.77393 8.56196C6.26126 8.62325 6.26437 8.60015 6.73007 8.75643C7.19186 8.91141 7.16434 8.9736 7.60919 9.17206" stroke="black" stroke-width="0.4" stroke-miterlimit="10" stroke-linecap="round" stroke-linejoin="round"/>
<path d="M3.94357 16.4104C3.7319 16.5149 3.73495 16.5236 3.51511 16.6096C3.29941 16.6939 3.29062 16.6676 3.06747 16.7295C2.84586 16.791 2.84741 16.7961 2.62299 16.8464C2.5582 16.8609 2.55881 16.8716 2.4924 16.8711C2.42682 16.8706 2.42874 16.8437 2.36343 16.8376C2.29849 16.8314 2.29626 16.8573 2.2312 16.8525" stroke="#825563" stroke-width="0.4" stroke-miterlimit="10" stroke-linecap="round" stroke-linejoin="round"/>
<path d="M2.20169 17.1185C2.01844 17.0847 2.08313 16.8375 1.90818 16.7733C1.73343 16.7091 1.62983 16.8898 1.48887 16.7682C1.34821 16.6469 1.34867 16.5999 1.28348 16.426C0.980595 15.618 0.786015 15.6363 0.679112 14.78C0.572178 13.9237 0.843693 13.9069 0.99091 13.0567C1.1391 12.2006 1.20701 12.2391 1.54126 11.4372C1.83039 10.7436 1.72474 10.7014 2.18506 10.1075C2.64377 9.51561 2.62522 9.50163 3.26099 9.10598C3.89389 8.71211 3.90574 8.74926 4.6066 8.49532C4.62897 8.48722 4.63114 8.46038 4.6547 8.45726C4.67743 8.45424 4.67533 8.34629 4.69825 8.34499C4.7208 8.34371 4.7269 8.40658 4.74949 8.40588" stroke="black" stroke-width="0.4" stroke-miterlimit="10" stroke-linecap="round" stroke-linejoin="round"/>
<path d="M5.50842 17.8378C5.38269 17.9141 5.39038 17.9365 5.25104 17.9835C5.10953 18.0313 5.10425 17.9554 4.95511 17.9477C4.80304 17.94 4.79718 17.8796 4.647 17.9046C4.46201 17.9354 4.48938 18.0224 4.3071 18.0665C4.12454 18.1108 4.11719 18.2015 3.93387 18.1605C3.74731 18.1189 3.77182 18.046 3.58682 17.9978C3.29535 17.922 3.27759 17.9935 2.99985 17.877C2.7197 17.7595 2.69867 17.7492 2.50284 17.517C2.30484 17.2821 2.41696 17.2091 2.27222 16.9382" stroke="black" stroke-width="0.4" stroke-miterlimit="10" stroke-linecap="round" stroke-linejoin="round"/>
<path d="M7.63467 9.14628L7.63474 9.14346L7.63348 9.13755L7.62646 9.13318" stroke="black" stroke-width="0.4" stroke-miterlimit="10" stroke-linecap="round" stroke-linejoin="round"/>
<path d="M7.82022 9.26753C7.78564 9.25509 7.78452 9.25779 7.7518 9.24109C7.7186 9.22416 7.71893 9.22323 7.69012 9.19958C7.6604 9.17518 7.66321 9.17219 7.63574 9.14526" stroke="black" stroke-width="0.4" stroke-miterlimit="10" stroke-linecap="round" stroke-linejoin="round"/>
<path d="M6.77728 20.3969C6.23666 20.4235 5.81317 20.7695 5.35718 21.0041C4.89917 21.2397 4.46945 21.5116 4.10239 21.8925C3.7442 22.2641 3.52802 22.7391 3.26166 23.1883C2.99066 23.6453 2.54938 24.0203 2.37888 24.4948C2.18939 25.0224 2.00522 25.5572 1.94702 26.0239C1.87271 26.6195 1.87607 27.0556 1.77121 27.4106C1.61908 27.9256 1.42099 28.2413 1.16174 28.6467C0.956726 28.9673 0.806702 29.3627 0.506348 29.8777C0.997406 29.7192 1.39352 29.53 1.78625 29.3781C2.27136 29.1904 2.62344 28.9074 2.98611 28.6957C3.41315 28.4464 3.7738 28.2432 4.07709 27.9036C4.36618 27.5799 4.70718 27.2791 4.92804 26.8188C5.10748 26.4448 5.39404 26.0532 5.55426 25.5571C5.68369 25.1564 5.73059 24.6815 5.86108 24.1843C5.99774 23.6637 6.2579 23.2906 6.54111 22.9298C6.85297 22.5325 7.1571 22.1852 7.59415 21.9651C8.02518 21.748 8.50043 21.7041 9.00009 21.6427C9.47897 21.5838 9.94159 21.6047 10.436 21.6739C10.9223 21.7419 11.4846 21.5727 11.9413 21.7504C12.4081 21.9321 12.7903 22.3186 13.1796 22.6003C13.6139 22.9144 14.0213 23.2189 14.2776 23.5996C14.5583 24.0165 14.8092 24.4804 14.9379 24.95C15.0663 25.4185 15.1145 25.9344 15.1553 26.4271C15.1957 26.9167 15.1544 27.4188 15.1709 27.9045C15.188 28.4075 15.1692 28.9001 15.2286 29.3688C15.3402 30.2483 15.7413 30.2677 16.4014 30.4498C16.8554 30.575 17.246 30.4118 17.6599 30.1574C17.6587 29.6841 17.7537 29.2253 17.7846 28.7435C17.8152 28.2678 17.9485 27.7971 17.9843 27.3192C18.0204 26.8398 17.9587 26.3519 17.9739 25.8764C17.9894 25.3937 18.0262 24.9075 17.9931 24.4352C17.9594 23.9546 17.8846 23.4692 17.772 23.0061C17.6601 22.5462 17.4653 22.0964 17.2472 21.6603C17.0416 21.2492 16.7928 20.8292 16.4683 20.445C16.1319 20.0467 15.7047 19.768 15.2931 19.517C14.8654 19.2562 14.4378 18.9357 13.9536 18.814C13.4781 18.6945 12.9487 18.7235 12.4427 18.7187C11.9524 18.714 11.4326 18.6855 10.9357 18.7706C10.4475 18.8542 9.94418 18.9797 9.47025 19.1332C8.99176 19.2882 8.58005 19.6258 8.13708 19.835C7.67279 20.0542 7.17877 20.1373 6.77728 20.3969Z" fill="#C2AE65"/>
<path d="M8.80273 21.3748C8.86981 21.3301 9.48523 21.0042 10.2034 20.7867C10.6747 20.644 11.1672 20.5252 11.6515 20.6279C12.1867 20.7414 12.5535 20.9524 12.8842 21.1773C13.3086 21.466 13.681 21.7079 14.0141 21.9577C14.3455 22.2063 14.9063 22.5324 15.3781 23.0096C15.75 23.3858 15.9763 23.8738 16.0253 24.5431C16.0685 25.1338 16.2588 25.4886 16.4497 25.6905C16.7496 26.0078 17.1938 26.0182 17.1938 26.5613C17.1938 28.0671 17.9818 26.9141 17.8448 28.14C17.8262 28.3067 18.0108 28.5972 17.7716 28.821C17.313 29.25 17.2196 29.1477 16.6627 29.4379C16.1058 29.7281 16.0933 30.1869 15.524 29.9221C14.9661 29.6626 15.4685 29.3292 15.3509 28.7253C15.2332 28.1213 15.0847 28.1468 15.0035 27.5369C14.9014 26.7697 14.9684 26.7613 14.903 25.99C14.8376 25.2188 15.0938 25.1548 14.8007 24.4385C14.5298 23.7766 14.325 23.8948 13.8544 23.3563C13.3838 22.8177 13.4698 22.7221 12.8902 22.3032C12.4271 21.9684 12.3721 22.0653 11.8336 21.8744C11.295 21.6836 11.2986 21.6679 10.7379 21.5581C9.78171 21.3709 9.76566 21.5085 8.80273 21.3748Z" fill="#A3903B"/>
<path d="M6.78888 20.5059C6.47452 20.8299 6.23236 21.1852 6.02554 21.5503C5.81299 21.9255 5.67728 22.3334 5.52362 22.7404C5.37421 23.1362 5.21399 23.5345 5.0686 23.9495" stroke="black" stroke-width="0.4" stroke-miterlimit="10" stroke-linecap="round" stroke-linejoin="round"/>
<path d="M6.84235 20.6115C6.30176 20.6382 5.76871 20.6834 5.31274 20.918C4.85474 21.1536 4.439 21.4824 4.07193 21.8633C3.71375 22.235 3.55768 22.7568 3.29135 23.206C3.02036 23.663 2.68204 24.068 2.51154 24.5426C2.32205 25.0701 2.10449 25.5697 2.0463 26.0363C1.97202 26.6319 2.06805 27.1124 1.9632 27.4674C1.81107 27.9824 1.43246 28.2488 1.17325 28.6542C0.968231 28.9747 0.936096 29.2934 0.635742 29.8084C1.1268 29.6499 1.3504 29.4188 1.7431 29.2669C2.22824 29.0793 2.6781 29.0013 3.04077 28.7896C3.4678 28.5403 3.83475 28.2978 4.13803 27.9582C4.42712 27.6345 4.72696 27.2887 4.94781 26.8284C5.12729 26.4544 5.31964 26.0293 5.47986 25.5332C5.60928 25.1325 5.59836 24.6469 5.72885 24.1496C5.86554 23.629 6.25284 23.2868 6.53604 22.926C6.8479 22.5287 7.20016 22.271 7.63721 22.0509C8.06824 21.8339 8.4686 21.4461 8.96826 21.3847C9.44714 21.3258 9.97119 21.3924 10.4656 21.4615C10.9518 21.5295 11.4451 21.6738 11.9018 21.8516C12.3687 22.0332 12.8509 22.2347 13.2402 22.5164C13.6745 22.8305 13.8414 23.3399 14.0978 23.7207C14.3785 24.1376 14.7775 24.4891 14.9062 24.9587C15.0346 25.4272 14.9109 25.9513 14.9517 26.444C14.9921 26.9335 15.0164 27.4235 15.0329 27.9092C15.05 28.4122 15.2049 28.8956 15.2643 29.3643C15.3759 30.2438 15.7372 30.2823 16.3973 30.4644C16.8513 30.5896 17.1696 30.3686 17.5835 30.1142C17.5822 29.6409 17.714 29.2228 17.745 28.741C17.7755 28.2653 17.8602 27.7905 17.8961 27.3126C17.9321 26.8332 18.071 26.3555 18.0862 25.88C18.1017 25.3973 18.0917 24.903 18.0586 24.4307C18.0249 23.9501 17.8473 23.4783 17.7346 23.0152C17.6227 22.5553 17.532 22.063 17.3139 21.627C17.1083 21.2158 16.8684 20.7652 16.5439 20.381C16.2075 19.9827 15.6604 19.8405 15.2487 19.5895C14.821 19.3287 14.4264 18.9809 13.9421 18.8592C13.4666 18.7397 12.9475 18.8329 12.4415 18.828C11.9512 18.8233 11.4483 18.7776 10.9514 18.8627C10.4632 18.9463 9.98819 19.116 9.51425 19.2695C9.03574 19.4245 8.49008 19.4356 8.04715 19.6448C7.58282 19.864 7.24387 20.352 6.84235 20.6115Z" stroke="black" stroke-width="0.4" stroke-miterlimit="10" stroke-linecap="round" stroke-linejoin="round"/>
<path d="M17.1638 30.1759C16.614 30.2438 16.0517 30.2097 15.5142 30.0757C14.9982 29.9472 14.4948 29.7262 13.963 29.7283C13.5395 29.73 13.131 29.8738 12.7141 29.9481C12.2971 30.0223 11.8308 30.0153 11.496 29.756C11.4168 29.6946 11.344 29.6189 11.2481 29.5898C11.1622 29.5636 11.0696 29.579 10.982 29.599C10.3761 29.7375 9.84296 30.0844 9.29794 30.3832C8.75293 30.682 8.15057 30.9436 7.53174 30.8858L10.6991 35.5558L20.8088 35.1388L22.9507 30.1846C22.6382 29.7924 22.1603 29.5366 21.6606 29.4941C21.4388 29.4752 21.214 29.4964 20.994 29.462C20.7741 29.4275 20.5484 29.3231 20.4454 29.1258C20.3953 29.0299 20.3768 28.917 20.3094 28.8323C20.1924 28.6851 19.9687 28.6747 19.7888 28.7295C19.6089 28.7843 19.4466 28.8898 19.264 28.935C18.9643 29.0093 18.6521 28.9136 18.3441 28.8925C17.6303 28.8434 16.9504 29.1974 16.3693 29.6147C16.0696 29.8299 15.7491 29.9828 15.381 30.0059" fill="#B26526"/>
<path d="M18.2 31.229C18.5692 31.1506 18.8702 30.788 19.2444 30.8374C19.498 30.8708 19.6843 31.0856 19.9123 31.2017C20.1056 31.3002 20.3348 31.3259 20.5451 31.2728C20.6324 31.2508 20.7256 31.2159 20.8088 31.2501" fill="#B26526"/>
<path d="M7.53165 31.1607C8.40802 31.2027 9.14005 30.7825 9.88165 30.3706C10.1809 30.2044 10.6935 29.8437 11.0551 29.8641C11.2575 29.8755 11.4218 30.0519 11.5978 30.1308C11.7285 30.1894 11.863 30.2222 12.0043 30.2422C12.8929 30.3678 13.6848 29.8753 14.5856 30.0951C15.4716 30.3113 16.2371 30.548 17.1637 30.4508C17.5121 30.4143 17.5159 29.8639 17.1637 29.9008C16.689 29.9506 16.2183 29.945 15.7491 29.8477C15.3462 29.7642 14.9626 29.6072 14.5599 29.5236C14.1513 29.4388 13.7603 29.4482 13.3517 29.5269C12.9218 29.6096 12.4855 29.7755 12.0428 29.6906C11.696 29.6241 11.481 29.2943 11.1156 29.302C10.7797 29.3091 10.4292 29.4783 10.1305 29.6192C9.28146 30.0193 8.52023 30.658 7.53165 30.6107C7.17783 30.5938 7.17868 31.1438 7.53165 31.1607Z" fill="black"/>
<path d="M15.3808 30.2808C16.0954 30.2076 16.5429 29.7612 17.1573 29.4489C17.5063 29.2714 17.886 29.1514 18.2811 29.1652C18.6356 29.1775 18.9829 29.2891 19.337 29.2002C19.4701 29.1667 19.5914 29.1017 19.7176 29.0499C19.9348 28.9608 20.0278 28.9671 20.1653 29.1647C20.3396 29.4152 20.4471 29.5855 20.7573 29.6862C21.1017 29.7979 21.4666 29.7194 21.8159 29.7937C22.1961 29.8746 22.5073 30.0868 22.7561 30.379C22.9859 30.6489 23.3734 30.2583 23.145 29.9901C22.6675 29.4293 22.0431 29.2267 21.3265 29.2086C21.0957 29.2028 20.8271 29.1989 20.6827 28.987C20.5979 28.8624 20.5846 28.717 20.4704 28.6066C20.271 28.4137 19.9726 28.3922 19.7155 28.4643C19.5523 28.51 19.4075 28.6078 19.2445 28.6531C19.0328 28.7118 18.8229 28.6745 18.6086 28.6481C18.2403 28.6028 17.8901 28.6098 17.5306 28.711C17.1624 28.8146 16.8138 28.9928 16.4931 29.1986C16.1343 29.4288 15.8218 29.6857 15.3808 29.7308C15.0321 29.7666 15.0285 30.3169 15.3808 30.2808Z" fill="black"/>
<path d="M18.2728 31.4942C18.4986 31.4403 18.6913 31.3133 18.8926 31.2041C19.06 31.1132 19.1969 31.073 19.368 31.1743C19.5743 31.2965 19.7454 31.451 19.9795 31.5236C20.1046 31.5624 20.243 31.5805 20.3737 31.5736C20.441 31.57 20.5097 31.5608 20.5758 31.5475C20.6209 31.5384 20.6903 31.5028 20.7355 31.5152C21.0772 31.6096 21.223 31.0791 20.8817 30.9849C20.7187 30.9399 20.5886 30.9899 20.4295 31.0172C20.3216 31.0356 20.2081 31.0236 20.1051 30.9868C19.8824 30.9074 19.7146 30.7171 19.4951 30.6256C19.2384 30.5187 18.9801 30.5572 18.7333 30.6697C18.5283 30.7632 18.3484 30.9109 18.1266 30.9638C17.7825 31.046 17.9282 31.5765 18.2728 31.4942Z" fill="black"/>
<defs>
<linearGradient id="paint0_linear_488_1171" x1="24.2283" y1="26.1352" x2="29.6255" y2="26.1352" gradientUnits="userSpaceOnUse">
<stop stop-color="#C2AE65"/>
<stop offset="0.0599141" stop-color="#C0A66A"/>
<stop offset="0.2816" stop-color="#B88C7B"/>
<stop offset="0.481793" stop-color="#B47C85"/>
<stop offset="0.640318" stop-color="#B27788"/>
</linearGradient>
<linearGradient id="paint1_linear_488_1171" x1="23.0982" y1="16.445" x2="25.6128" y2="26.4046" gradientUnits="userSpaceOnUse">
<stop stop-color="#EBF090"/>
<stop offset="0.205854" stop-color="#D9CA8D"/>
<stop offset="0.435891" stop-color="#C8A68B"/>
<stop offset="0.651927" stop-color="#BC8C89"/>
<stop offset="0.846199" stop-color="#B57C88"/>
<stop offset="1" stop-color="#B27788"/>
</linearGradient>
<linearGradient id="paint2_linear_488_1171" x1="26.2329" y1="15.963" x2="28.7214" y2="25.8193" gradientUnits="userSpaceOnUse">
<stop stop-color="#EBF090"/>
<stop offset="0.205854" stop-color="#D9CA8D"/>
<stop offset="0.435891" stop-color="#C8A68B"/>
<stop offset="0.651927" stop-color="#BC8C89"/>
<stop offset="0.846199" stop-color="#B57C88"/>
<stop offset="1" stop-color="#B27788"/>
</linearGradient>
<linearGradient id="paint3_linear_488_1171" x1="6.23766" y1="8.48636" x2="4.1742" y2="17.5928" gradientUnits="userSpaceOnUse">
<stop stop-color="#EBF090"/>
<stop offset="0.205854" stop-color="#D9CA8D"/>
<stop offset="0.435891" stop-color="#C8A68B"/>
<stop offset="0.651927" stop-color="#BC8C89"/>
<stop offset="0.846199" stop-color="#B57C88"/>
<stop offset="1" stop-color="#B27788"/>
</linearGradient>
</defs>
</svg>
