<svg width="38" height="45" viewBox="0 0 38 45" fill="none" xmlns="http://www.w3.org/2000/svg">
<mask id="mask0_742_27201" style="mask-type:luminance" maskUnits="userSpaceOnUse" x="0" y="0" width="38" height="44">
<path d="M17.8248 43.5039C17.4655 43.5483 17.098 43.526 16.7467 43.4385C16.4095 43.3545 16.0805 43.21 15.7329 43.2114C15.4561 43.2125 15.1892 43.3065 14.9167 43.355C14.6442 43.4036 14.3394 43.399 14.1206 43.2295C14.0688 43.1894 14.0212 43.1399 13.9586 43.1209C13.9025 43.1038 13.8419 43.1138 13.7847 43.1269C13.3887 43.2174 13.0403 43.4442 12.6841 43.6394C12.3279 43.8347 11.9342 44.0057 11.5297 43.9679L2.00202 32.3008L0 20.5634L19.9557 0L29.5512 0.657461L37.3009 15.692L30.0989 31.3054L21.6069 43.5097C21.4027 43.2533 21.0903 43.0861 20.7638 43.0584C20.6188 43.046 20.4719 43.0599 20.3281 43.0374C20.1844 43.0148 20.0368 42.9466 19.9695 42.8176C19.9368 42.755 19.9247 42.6812 19.8807 42.6259C19.8042 42.5297 19.658 42.5228 19.5404 42.5586C19.4228 42.5945 19.3168 42.6634 19.1974 42.693C19.0016 42.7415 18.7975 42.679 18.5962 42.6651C18.1297 42.6331 17.6853 42.8644 17.3056 43.1372C17.1097 43.2778 16.9002 43.3778 16.6596 43.3928" fill="white"/>
</mask>
<g mask="url(#mask0_742_27201)">
<path d="M33.9489 14.3295C35.2598 14.3388 36.065 14.7227 35.7467 15.8276C35.4377 16.9419 34.3796 17.2509 34.1455 17.4568C33.9114 17.6628 29.8852 21.2396 28.05 22.4475C26.2147 23.6648 19.033 29.4232 18.9862 36.0806C18.93 42.7379 19.033 43.4121 19.033 43.4121C19.033 43.4121 17.8345 43.9833 17.6285 43.1031C16.7484 39.3016 13.8364 27.0449 24.5574 18.2715C29.0987 14.5542 32.6287 14.3295 33.9489 14.3295Z" fill="#95EBAE"/>
<path d="M19.033 43.4121C19.033 43.4121 18.93 42.7379 18.9862 36.0806C19.033 29.4232 26.2147 23.6648 28.05 22.4475C29.8852 21.2396 33.9114 17.6628 34.1455 17.4568C34.3796 17.2509 35.4377 16.9419 35.7467 15.8276C36.065 14.7227 35.2598 14.3388 33.9489 14.3295C32.6287 14.3295 29.0987 14.5542 24.5574 18.2715C13.8364 27.0449 16.7484 39.3016 17.6285 43.1031C17.8345 43.9833 19.033 43.4121 19.033 43.4121Z" stroke="black" stroke-width="0.284499" stroke-miterlimit="10" stroke-linecap="round" stroke-linejoin="round"/>
<path d="M32.0481 16.8763C32.0481 16.8763 22.9843 19.676 19.5105 28.5899" stroke="#1B705A" stroke-width="0.284499" stroke-miterlimit="10" stroke-linecap="round" stroke-linejoin="round"/>
<path d="M18.8944 14.8867C19.9431 17.986 19.7652 21.9842 18.8476 25.973C16.8719 34.5405 16.797 43.2578 16.797 43.2578C16.797 43.2578 16.9 44.0536 15.7951 44.0536C14.6809 44.0536 14.6809 43.2578 14.6809 43.2578C14.943 40.2896 14.812 32.4993 13.9786 30.4674C13.0891 28.2857 13.6228 26.8812 13.4355 24.4374C13.2764 22.2276 13.2764 13.8006 13.4355 12.4429C13.5947 11.0946 14.0067 9.99909 14.8962 10.2332C15.7764 10.4672 17.8551 11.7968 18.8944 14.8867Z" fill="#95EBAE"/>
<path d="M19.5738 21.0375C19.6459 23.3576 16.7273 33.538 16.8555 41.4427C16.9038 44.416 16.4635 44.2453 14.9934 43.8304C14.1324 43.5874 15.2939 33.9322 14.2379 31.3595C13.182 28.7868 13.4765 25.8499 13.4765 25.8499C13.4765 25.8499 13.2958 24.1309 16.4635 23.0132C17.2576 22.7331 19.4568 17.2705 19.5738 21.0375Z" fill="#3EA98F"/>
<path d="M16.797 43.2578C16.797 43.2578 16.8719 34.5405 18.8476 25.973C19.7652 21.9842 19.9431 17.986 18.8944 14.8867C17.8551 11.7968 15.7764 10.4672 14.8962 10.2332C14.0067 9.99909 13.5947 11.0946 13.4355 12.4429C13.2764 13.8006 13.2764 22.2276 13.4355 24.4374C13.6228 26.8812 13.0891 28.2857 13.9786 30.4674C14.812 32.4993 14.943 40.2896 14.6809 43.2578C14.6809 43.2578 14.6809 44.0536 15.7951 44.0536C16.9 44.0536 16.797 43.2578 16.797 43.2578Z" stroke="black" stroke-width="0.284499" stroke-miterlimit="10" stroke-linecap="round" stroke-linejoin="round"/>
<path d="M15.8795 20.6827C15.8795 20.6827 16.4694 21.4505 16.02 26.1883C15.6267 30.4206 15.8795 32.5741 15.8795 32.5741" stroke="#1B705A" stroke-width="0.284499" stroke-miterlimit="10" stroke-linecap="round" stroke-linejoin="round"/>
<path d="M28.9939 5.84176C29.0876 6.64699 28.8066 9.11895 27.8235 10.3924C26.9153 11.5722 26.0913 11.9654 25.5763 12.1339C25.183 12.2557 23.713 12.4055 23.9096 11.9654C24.9958 11.7313 25.8478 10.9448 26.4752 9.71819C27.3647 7.98596 27.2055 6.441 26.9433 5.27993C26.831 4.77432 26.6437 4.41853 26.4658 4.19379L26.6812 4.10015C26.6812 4.10015 27.0464 3.8099 27.6643 3.87545C27.7299 3.88479 27.7954 3.90354 27.861 3.91292C28.6007 4.08144 28.919 5.16758 28.9939 5.84176Z" fill="url(#paint0_linear_742_27201)"/>
<path d="M22.2148 1.51585L22.1961 1.30049C22.1961 1.30049 22.7766 0.879142 23.8909 0.99149C24.7898 1.08513 24.7991 1.50648 25.2579 1.84356C25.3328 1.89974 25.4077 1.94653 25.4733 2.00275L25.6605 1.95591C25.6605 1.95591 26.4564 1.59074 26.9901 1.86227C27.5239 2.13381 27.449 2.53645 27.449 2.53645C27.449 2.53645 28.1231 2.911 27.7298 3.53833L27.6643 3.87542C27.0463 3.80987 26.6812 4.10011 26.6812 4.10011L26.4658 4.19375C26.2504 3.90351 26.0445 3.80049 26.0445 3.80049C25.7448 3.70685 25.5295 3.56642 25.3797 3.44469C25.2111 3.29488 25.0051 3.21062 24.7804 3.20124C23.2261 3.15445 22.1493 3.51962 20.9695 4.86793C18.8908 7.23687 19.5931 9.49342 19.771 10.1489C19.8178 10.3174 19.8927 10.4672 19.9863 10.6077C19.0032 10.4017 18.7691 9.93352 18.3852 9.23126C17.9919 8.529 17.4114 7.0683 18.3197 4.64319C19.2373 2.17127 21.0257 1.25365 21.5126 1.1881C21.9995 1.13192 22.0182 1.55327 22.0182 1.55327C22.0182 1.55327 22.065 1.52519 22.2148 1.51585Z" fill="url(#paint1_linear_742_27201)"/>
<path d="M26.9433 5.27996C27.2055 6.44103 27.3647 7.98599 26.4752 9.71822C25.8478 10.9448 24.9958 11.7313 23.9096 11.9654C23.4602 12.0591 22.9733 12.0591 22.4396 11.9654C22.1587 11.9093 21.859 11.825 21.55 11.7126C21.2036 11.5815 20.801 11.3943 20.4639 11.1227C20.4545 11.1134 20.4452 11.104 20.4452 11.104C20.2673 10.9636 20.1081 10.8044 19.9864 10.6078C19.8927 10.4673 19.8178 10.3175 19.771 10.1489C19.5931 9.49348 18.8908 7.23693 20.9695 4.86799C22.1493 3.51968 23.2261 3.15451 24.7804 3.20131C25.0051 3.21068 25.2111 3.29494 25.3797 3.44476C25.5295 3.56648 25.7448 3.70691 26.0445 3.80055C26.0445 3.80055 26.2505 3.90357 26.4658 4.19381C26.6437 4.41856 26.831 4.77435 26.9433 5.27996Z" fill="url(#paint2_linear_742_27201)"/>
<path d="M21.55 11.7126C21.859 11.8249 22.1586 11.9092 22.4395 11.9654C22.4395 11.9654 21.3627 12.0778 20.5481 15.7763C19.7335 19.4655 18.2166 24.4561 17.5986 27.3869C16.9057 30.6828 16.3252 37.1529 16.4938 43.3608C16.4938 43.3608 16.5125 43.7166 16.1567 43.6885C15.7915 43.6604 15.8196 43.3234 15.8196 43.3234C15.8196 43.3234 15.8758 41.8065 15.8477 38.857C15.8196 35.9169 16.2316 33.0049 16.3439 31.4225C16.5499 28.3607 17.3271 25.9637 17.5612 25.0273C17.7953 24.091 18.8908 20.2894 18.8908 20.2894C18.8908 20.2894 20.3234 14.6714 20.6043 13.1358C20.8571 11.7781 20.5387 11.2257 20.4638 11.1227C20.8009 11.3942 21.2035 11.5815 21.55 11.7126Z" fill="#63A465"/>
<path d="M24.1586 3.20721C24.0796 3.22401 24.1346 2.34736 24.5135 2.58204C24.5135 2.58204 24.7129 2.28372 25.041 2.28372C25.1243 2.28372 25.4571 2.54588 25.3413 2.78755C25.3413 2.78755 25.7737 2.5171 25.8341 3.10766C25.8341 3.10766 26.4575 2.87194 26.5098 3.30158C26.562 3.73126 25.9026 3.68885 25.9026 3.68885C25.9026 3.68885 24.9568 3.03751 24.1586 3.20721Z" fill="#FFEB52"/>
<path d="M22.548 1.4703C22.8134 1.37414 23.0813 1.27686 23.3673 1.28159C23.7713 1.28823 24.171 1.44334 24.5446 1.58178C24.695 1.63752 24.7599 1.39702 24.6108 1.34176C24.2149 1.19503 23.795 1.0397 23.3673 1.03263C23.0584 1.02755 22.7684 1.12644 22.4818 1.23023C22.3323 1.28441 22.3968 1.52504 22.548 1.4703Z" fill="#FFC7D8"/>
<path d="M22.651 3.73544C23.0361 3.8161 23.3844 3.71599 23.7477 3.59171C24.1709 3.44693 24.6305 3.39536 25.0331 3.63256C25.1882 3.7239 25.3342 3.83247 25.508 3.88673C25.5883 3.91178 25.6669 3.9143 25.749 3.92689C25.8753 3.94625 25.9759 4.019 26.0719 4.10005C26.3955 4.37319 26.6024 4.76546 26.6477 5.18602C26.6646 5.34361 26.9138 5.34534 26.8966 5.18602C26.8529 4.78035 26.6962 4.40293 26.424 4.09649C26.2956 3.95193 26.1298 3.79843 25.9488 3.72368C25.8635 3.68847 25.7804 3.68608 25.6906 3.67241C25.5534 3.65157 25.4391 3.59101 25.3223 3.51917C24.9268 3.27572 24.5342 3.16385 24.0657 3.24329C23.6043 3.32152 23.2022 3.597 22.7172 3.49538C22.5609 3.46265 22.4941 3.70254 22.651 3.73544Z" fill="white"/>
<path d="M18.1908 7.72411C18.079 7.24707 18.0287 6.81517 18.105 6.32923C18.1593 5.98307 18.2411 5.64138 18.3472 5.3075C18.571 4.60359 18.9073 3.93801 19.334 3.33547C19.7624 2.73054 20.2902 2.18798 20.8884 1.74975C21.1573 1.55279 21.7126 1.09277 21.8611 1.70903C21.8986 1.8647 22.1387 1.79876 22.1011 1.64283C21.749 0.181741 19.7588 2.39623 19.4275 2.80399C18.8908 3.46479 18.4687 4.21276 18.1832 5.01491C18.0337 5.43492 17.924 5.86942 17.8575 6.31026C17.7794 6.82698 17.832 7.28358 17.9507 7.79031C17.9872 7.9462 18.2273 7.88022 18.1908 7.72411Z" fill="white"/>
<path d="M26.8853 4.36416C27.3235 4.16156 27.8512 4.16603 28.2864 4.37428C28.4302 4.44308 28.5567 4.2285 28.4121 4.15935C27.8897 3.90943 27.2851 3.90635 26.7597 4.14919C26.6986 4.17741 26.6834 4.26545 26.715 4.31949C26.7516 4.38209 26.8241 4.39247 26.8853 4.36416Z" fill="white"/>
<path d="M20.4452 11.104C20.2673 10.9636 20.1081 10.8044 19.9864 10.6078C19.8927 10.4673 19.8178 10.3175 19.771 10.1489C19.5931 9.49348 18.8908 7.23693 20.9695 4.86799C22.1493 3.51968 23.2261 3.15451 24.7804 3.20131C25.0051 3.21068 25.2111 3.29494 25.3797 3.44476C25.5295 3.56648 25.7448 3.70691 26.0445 3.80055C26.0445 3.80055 26.2505 3.90357 26.4658 4.19381C26.6437 4.41855 26.831 4.77435 26.9433 5.27996C27.2055 6.44103 27.3647 7.98599 26.4752 9.71822C25.8478 10.9448 24.9958 11.7313 23.9096 11.9654C23.4602 12.0591 22.9733 12.0591 22.4396 11.9654C22.1587 11.9093 21.859 11.825 21.55 11.7126C21.2036 11.5815 20.801 11.3943 20.4639 11.1227" stroke="black" stroke-width="0.284499" stroke-miterlimit="10" stroke-linecap="round" stroke-linejoin="round"/>
<path d="M20.4451 11.104C20.4451 11.104 20.4545 11.1134 20.4638 11.1227C20.5387 11.2257 20.8571 11.7781 20.6043 13.1358C20.3234 14.6714 18.8058 20.1598 18.8058 20.1598C18.8058 20.1598 17.7953 24.091 17.5612 25.0273C17.3271 25.9637 16.5499 28.3607 16.3439 31.4225C16.2316 33.0049 15.8196 35.9169 15.8477 38.857C15.8758 41.8065 15.8196 43.3234 15.8196 43.3234C15.8196 43.3234 15.7915 43.6605 16.1567 43.6885C16.5125 43.7166 16.4938 43.3608 16.4938 43.3608C16.3252 37.1529 16.9057 30.6828 17.5986 27.3869C18.2166 24.4561 19.7335 19.4655 20.5481 15.7763C21.3627 12.0778 22.4395 11.9654 22.4395 11.9654" stroke="black" stroke-width="0.284499" stroke-miterlimit="10" stroke-linecap="round" stroke-linejoin="round"/>
<path d="M26.6812 4.10015C26.6812 4.10015 27.0464 3.8099 27.6643 3.87545C27.7299 3.88479 27.7954 3.90354 27.861 3.91292C28.6007 4.08144 28.919 5.16758 28.9939 5.84176C29.0876 6.64699 28.8066 9.11895 27.8235 10.3924C26.9153 11.5722 26.0913 11.9654 25.5763 12.1339C25.183 12.2557 23.713 12.4055 23.9096 11.9654" stroke="black" stroke-width="0.284499" stroke-miterlimit="10" stroke-linecap="round" stroke-linejoin="round"/>
<path d="M25.6606 1.95602C25.6606 1.95602 26.4565 1.59084 26.9902 1.86238C27.524 2.13392 27.4491 2.53655 27.4491 2.53655C27.4491 2.53655 28.1232 2.9111 27.7299 3.53844" stroke="black" stroke-width="0.284499" stroke-miterlimit="10" stroke-linecap="round" stroke-linejoin="round"/>
<path d="M22.196 1.30049C22.196 1.30049 22.7766 0.879142 23.8908 0.99149C24.7897 1.08513 24.7991 1.50648 25.2579 1.84356C25.3328 1.89974 25.4077 1.94653 25.4732 2.00275C25.7167 2.21807 25.8478 2.4241 25.7541 2.64879" stroke="black" stroke-width="0.284499" stroke-miterlimit="10" stroke-linecap="round" stroke-linejoin="round"/>
<path d="M24.2842 2.77993C24.2842 2.77993 24.2748 2.4803 24.6213 2.6114C24.7243 2.64882 24.7992 2.85481 24.6868 2.94845" stroke="black" stroke-width="0.248937" stroke-miterlimit="10" stroke-linecap="round" stroke-linejoin="round"/>
<path d="M22.0182 1.55331C22.0182 1.55331 21.9995 1.13197 21.5126 1.18814C21.0257 1.25369 19.2373 2.17131 18.3197 4.64323C17.4114 7.06834 17.9919 8.52904 18.3852 9.2313C18.7691 9.93356 19.0032 10.4017 19.9863 10.6077" stroke="black" stroke-width="0.284499" stroke-miterlimit="10" stroke-linecap="round" stroke-linejoin="round"/>
<path d="M23.2447 2.94843C23.2447 2.94843 23.357 1.67501 22.7765 1.55328C22.5143 1.50649 22.3364 1.49711 22.2147 1.51586C22.0649 1.5252 22.0181 1.55328 22.0181 1.55328" stroke="black" stroke-width="0.284499" stroke-miterlimit="10" stroke-linecap="round" stroke-linejoin="round"/>
<path d="M25.2393 2.911C25.2393 2.911 25.5014 2.71434 25.6606 2.81736C25.7542 2.87353 25.7168 3.10761 25.7168 3.10761" stroke="black" stroke-width="0.248937" stroke-miterlimit="10" stroke-linecap="round" stroke-linejoin="round"/>
<path d="M26.0352 3.10772C26.0352 3.10772 26.4378 3.02346 26.4471 3.25753C26.4565 3.50098 26.2412 3.51036 26.2412 3.51036" stroke="black" stroke-width="0.248937" stroke-miterlimit="10" stroke-linecap="round" stroke-linejoin="round"/>
<path d="M24.8459 2.41481C24.8459 2.41481 25.1643 2.27438 25.1737 2.54592" stroke="black" stroke-width="0.248937" stroke-miterlimit="10" stroke-linecap="round" stroke-linejoin="round"/>
<path d="M25.9457 5.90565C26.1108 6.38729 26.0731 6.90879 25.9927 7.4042C25.9214 7.84356 25.7439 8.26295 25.4174 8.57269C25.3009 8.68317 25.4771 8.85899 25.5934 8.74872C25.9485 8.41185 26.1548 7.94918 26.2327 7.47035C26.3205 6.93193 26.3655 6.36381 26.1858 5.83944C26.1341 5.68881 25.8936 5.75349 25.9457 5.90565Z" fill="#F44D79"/>
<path d="M25.3809 7.49406C25.3586 7.87621 25.1748 8.22666 24.9154 8.50202C24.8056 8.61858 24.9813 8.79496 25.0914 8.67805C25.3977 8.35295 25.6035 7.94393 25.6298 7.49406C25.6337 7.42686 25.5698 7.3696 25.5053 7.3696C25.4347 7.3696 25.3848 7.42668 25.3809 7.49406Z" fill="#F44D79"/>
<path d="M21.9601 5.03313C21.3222 5.71925 20.8672 6.56012 20.6448 7.47036C20.6176 7.5815 20.789 7.62894 20.8162 7.51764C21.0315 6.63674 21.4682 5.82313 22.0859 5.1589C22.1637 5.07516 22.0383 4.94913 21.9601 5.03313Z" fill="#F44D79"/>
<path d="M21.7505 5.96415C21.548 6.24949 21.3894 6.56339 21.2753 6.89406C21.2533 6.95761 21.3003 7.03015 21.3622 7.04717C21.4306 7.06596 21.4933 7.02399 21.5153 6.96021C21.6224 6.64978 21.7754 6.35758 21.9654 6.08978C22.0044 6.03495 21.9752 5.9513 21.9208 5.91952C21.8584 5.88301 21.7895 5.90919 21.7505 5.96415Z" fill="#F44D79"/>
<path d="M27.8385 4.59703C28.1419 4.83284 28.3021 5.23257 28.2211 5.61202C28.207 5.6777 28.2405 5.7466 28.308 5.76513C28.37 5.78215 28.447 5.74421 28.4611 5.67818C28.5593 5.2182 28.3889 4.71194 28.0145 4.421C27.9615 4.3798 27.8902 4.36929 27.8385 4.421C27.7955 4.46393 27.7851 4.55553 27.8385 4.59703Z" fill="#F44D79"/>
<path d="M21.9977 6.38521C21.898 6.59679 21.8105 6.81415 21.737 7.0362C21.7165 7.09806 21.7607 7.1749 21.8239 7.18931C21.8925 7.20494 21.9551 7.1686 21.977 7.1024C22.0115 6.9983 22.0489 6.89525 22.0894 6.7934C22.0996 6.76792 22.11 6.74257 22.1204 6.71726C22.1352 6.68149 22.1109 6.73927 22.1261 6.70367C22.1323 6.6893 22.1384 6.67489 22.1447 6.66057C22.1666 6.61029 22.1893 6.56042 22.2127 6.51084C22.2404 6.45206 22.231 6.37383 22.168 6.34054C22.1128 6.31137 22.0274 6.32235 21.9977 6.38521Z" fill="#F44D79"/>
<path d="M21.2347 1.71179C20.9038 1.86833 20.6228 2.12115 20.4256 2.42898C20.3904 2.48394 20.4125 2.56876 20.4702 2.59928C20.5319 2.63188 20.603 2.61326 20.6405 2.55461C20.6626 2.52014 20.6857 2.48628 20.7099 2.45329C20.7099 2.45329 20.7331 2.42251 20.7202 2.43936C20.7264 2.43124 20.7328 2.42325 20.7392 2.41531C20.7521 2.39937 20.7652 2.38366 20.7786 2.36816C20.8335 2.30461 20.8927 2.24492 20.9557 2.18944C20.9711 2.17589 20.9867 2.16265 21.0025 2.14963C21.0104 2.14312 21.0184 2.13669 21.0264 2.13036C21.0313 2.12645 21.0485 2.11334 21.0352 2.12345C21.0678 2.09875 21.1013 2.07509 21.1355 2.05261C21.2074 2.00538 21.2826 1.96353 21.3604 1.92676C21.4194 1.8988 21.4393 1.80955 21.405 1.75646C21.3659 1.69572 21.2979 1.68192 21.2347 1.71179Z" fill="#F44D79"/>
<path d="M21.2365 2.07984C21.1662 2.11587 21.1016 2.16141 21.0412 2.21228C20.9805 2.26347 20.9292 2.32264 20.8817 2.38606C20.8636 2.4102 20.8615 2.4543 20.8692 2.48195C20.8771 2.51082 20.8994 2.54212 20.9264 2.55636C20.9552 2.5716 20.9902 2.57928 21.0223 2.56891C21.0322 2.56474 21.0421 2.56053 21.052 2.55636C21.0707 2.54529 21.0856 2.5304 21.0967 2.51169C21.0997 2.50761 21.1028 2.50353 21.1059 2.49949C21.0994 2.50787 21.093 2.51629 21.0865 2.52467C21.1337 2.46398 21.1883 2.40963 21.2491 2.36262C21.2407 2.36913 21.2323 2.3756 21.2239 2.38211C21.2674 2.34894 21.3135 2.31973 21.3621 2.29481C21.389 2.281 21.4115 2.24892 21.4193 2.2204C21.4275 2.19062 21.4238 2.15095 21.4068 2.12451C21.3686 2.06529 21.2986 2.04802 21.2365 2.07984Z" fill="#F44D79"/>
<path d="M27.6835 5.26972C27.6605 5.24002 27.683 5.26972 27.6874 5.27601C27.6934 5.28456 27.6992 5.29325 27.7049 5.30202C27.7148 5.31743 27.7241 5.33314 27.7329 5.3492C27.7429 5.36757 27.7518 5.38645 27.7607 5.40538C27.7661 5.41762 27.765 5.41493 27.7575 5.39726C27.7595 5.40208 27.7614 5.40694 27.7633 5.4118C27.7666 5.42035 27.7698 5.42891 27.7728 5.43754C27.7857 5.47457 27.7959 5.51252 27.8032 5.55102C27.8049 5.56005 27.8063 5.56908 27.8078 5.57807C27.8098 5.5917 27.8094 5.5884 27.8066 5.5683C27.8072 5.57346 27.8078 5.57867 27.8083 5.58388C27.8104 5.60468 27.8116 5.62556 27.8121 5.64644C27.8136 5.71151 27.8682 5.77398 27.9366 5.77094C28.0027 5.76795 28.0627 5.7162 28.061 5.64644C28.0588 5.55093 28.0427 5.454 28.0102 5.36401C27.9743 5.26429 27.9242 5.17721 27.8595 5.09369C27.8415 5.07033 27.7994 5.05722 27.7715 5.05722C27.741 5.05722 27.7045 5.07081 27.6835 5.09369C27.6617 5.11739 27.6456 5.14856 27.6471 5.18168C27.6487 5.21697 27.6621 5.24207 27.6835 5.26972Z" fill="#F44D79"/>
<path d="M24.6226 7.66331C24.6129 7.72735 24.5983 7.79042 24.5783 7.85198C24.5731 7.86782 24.5677 7.8835 24.5618 7.89908C24.5593 7.90603 24.5565 7.91288 24.5539 7.91979C24.55 7.9299 24.549 7.9322 24.5538 7.92083C24.5408 7.95148 24.5263 7.98147 24.5106 8.01082C24.4811 8.0663 24.4471 8.11935 24.4092 8.16953C24.4199 8.15542 24.4104 8.16775 24.4047 8.17483C24.4 8.18056 24.3953 8.18629 24.3906 8.19193C24.3798 8.20461 24.3688 8.21711 24.3576 8.22935C24.335 8.25379 24.3113 8.27715 24.2868 8.29968C24.2387 8.34383 24.2387 8.43152 24.2868 8.47571C24.3382 8.5229 24.4115 8.52281 24.4628 8.47571C24.6739 8.28179 24.8197 8.01316 24.8627 7.72947C24.8724 7.6654 24.8466 7.59251 24.7757 7.57636C24.7164 7.56286 24.633 7.59446 24.6226 7.66331Z" fill="#F44D79"/>
<path d="M30.0988 15.0084C30.5201 15.0553 30.8572 15.3924 30.904 15.8137C30.9977 16.6189 30.8385 18.1358 29.1344 20.0459C27.683 21.6752 26.1381 21.4224 25.0051 20.7669C24.2935 20.3549 23.7504 19.7838 23.5163 19.4373C23.4789 19.3718 23.4414 19.3156 23.4227 19.2688C22.8141 17.8924 22.683 16.1882 24.7523 14.3155C25.4077 13.7257 26.0819 13.3792 26.5314 13.1919C26.8871 13.0328 27.2991 13.1358 27.5426 13.4354C27.6362 13.5478 27.7298 13.6788 27.8235 13.8286C28.0576 14.1751 28.2823 14.6245 28.4228 15.1582C28.4228 15.1582 29.2748 14.9148 30.0988 15.0084Z" fill="url(#paint3_linear_742_27201)"/>
<path d="M30.0988 15.0084C29.2748 14.9148 28.4228 15.1583 28.4228 15.1583C28.2823 14.6246 28.0576 14.1751 27.8235 13.8287C27.8235 13.8287 28.0388 13.7444 28.4415 14.0909C28.4415 14.0909 28.9377 13.9317 29.2655 14.4373C29.2655 14.4373 29.8179 14.4186 30.0988 15.0084Z" fill="#F65061"/>
<path d="M25.0052 20.7669C25.0052 20.7669 23.9565 20.898 22.8142 22.7239C21.2224 25.2894 19.4527 29.2127 18.1044 34.4842C17.3085 37.5648 17.4771 43.1454 17.4771 43.1454C17.4771 43.1454 17.552 43.5668 17.1868 43.5293C17.0182 43.5106 17.0276 43.2578 17.0276 43.2578C17.0276 43.2578 16.9902 38.0891 17.3741 35.6266C17.9639 31.8438 18.9658 29.1752 21.8778 23.2389C22.2898 22.4149 22.6456 21.8624 23.1138 21.1321C23.8348 20.0179 23.5164 19.4373 23.5164 19.4373C23.7505 19.7838 24.2936 20.3549 25.0052 20.7669Z" fill="#63A465"/>
<path d="M23.3996 16.7087C23.7849 15.9339 24.3075 15.2368 24.9479 14.6544C25.2632 14.3675 25.605 14.1111 25.9686 13.8887C26.34 13.6615 26.8497 13.2819 27.2498 13.6596C27.3662 13.7696 27.5426 13.5938 27.4258 13.4836C27.077 13.1542 26.6285 13.2207 26.2378 13.4398C25.8069 13.6814 25.3936 13.9534 25.013 14.2688C24.2498 14.9015 23.6258 15.696 23.1847 16.583C23.1135 16.7261 23.3282 16.8523 23.3996 16.7087Z" fill="white"/>
<path d="M27.1918 13.6026C27.5764 13.9764 27.8237 14.4189 28.0462 14.9017C28.26 15.3655 28.4105 15.8483 28.4558 16.3586C28.4698 16.517 28.7189 16.5185 28.7047 16.3586C28.6567 15.8171 28.504 15.3101 28.2797 14.8165C28.0451 14.3003 27.7778 13.8251 27.3678 13.4265C27.2529 13.3148 27.0767 13.4906 27.1918 13.6026Z" fill="white"/>
<path d="M28.6143 15.4335C28.9051 15.3756 29.1992 15.3468 29.4957 15.3479C29.7 15.3486 29.9096 15.3415 30.1114 15.3785C30.2948 15.4121 30.4638 15.4803 30.545 15.6589C30.6308 15.8476 30.6518 16.0704 30.6565 16.2752C30.6602 16.4351 30.9091 16.4357 30.9054 16.2752C30.8999 16.0342 30.8692 15.782 30.7717 15.5597C30.6767 15.3433 30.4895 15.2156 30.2648 15.1575C30.0307 15.0969 29.7843 15.1006 29.5444 15.0992C29.2091 15.0972 28.8771 15.1279 28.5481 15.1935C28.3912 15.2248 28.4576 15.4648 28.6143 15.4335Z" fill="white"/>
<path d="M27.8235 13.8286C28.0576 14.1751 28.2823 14.6245 28.4228 15.1582C28.6849 16.1133 28.6849 17.3493 27.9171 18.81" stroke="#DC314F" stroke-width="0.284499" stroke-miterlimit="10" stroke-linecap="round" stroke-linejoin="round"/>
<path d="M30.0988 15.0084C30.5201 15.0553 30.8572 15.3924 30.904 15.8137C30.9977 16.6189 30.8385 18.1358 29.1344 20.0459C27.683 21.6752 26.1381 21.4224 25.0051 20.7669C24.2935 20.3549 23.7504 19.7838 23.5163 19.4373C23.4789 19.3718 23.4414 19.3156 23.4227 19.2688C22.8141 17.8924 22.683 16.1882 24.7523 14.3155C25.4077 13.7257 26.0819 13.3792 26.5314 13.1919C26.8871 13.0328 27.2991 13.1358 27.5426 13.4354C27.6362 13.5478 27.7298 13.6788 27.8235 13.8286" stroke="black" stroke-width="0.284499" stroke-miterlimit="10" stroke-linecap="round" stroke-linejoin="round"/>
<path d="M28.4229 15.1583C28.4229 15.1583 29.2749 14.9148 30.0989 15.0085" stroke="#DC314F" stroke-width="0.284499" stroke-miterlimit="10" stroke-linecap="round" stroke-linejoin="round"/>
<path d="M27.8235 13.8287C27.8235 13.8287 28.0388 13.7444 28.4415 14.0909C28.4415 14.0909 28.9377 13.9317 29.2655 14.4373C29.2655 14.4373 29.8179 14.4186 30.0988 15.0084" stroke="black" stroke-width="0.284499" stroke-miterlimit="10" stroke-linecap="round" stroke-linejoin="round"/>
<path d="M26.1006 14.25C26.1006 14.25 25.3235 14.793 25.0332 15.5328" stroke="#F44D79" stroke-width="0.177812" stroke-miterlimit="10" stroke-linecap="round" stroke-linejoin="round"/>
<path d="M26.0164 14.7463C26.0164 14.7463 25.5256 15.1207 25.3516 15.5984" stroke="#F44D79" stroke-width="0.177812" stroke-miterlimit="10" stroke-linecap="round" stroke-linejoin="round"/>
<path d="M26.1914 15.5609C26.1914 15.5609 26.0495 15.692 26.0164 15.8231" stroke="#F44D79" stroke-width="0.177812" stroke-miterlimit="10" stroke-linecap="round" stroke-linejoin="round"/>
<path d="M26.5502 15.5327C26.5502 15.5327 26.3042 15.7375 26.2412 16.0009" stroke="#F44D79" stroke-width="0.177812" stroke-miterlimit="10" stroke-linecap="round" stroke-linejoin="round"/>
<path d="M30.1551 17.031C30.1551 17.031 29.9598 17.5647 29.604 17.8643" stroke="#F44D79" stroke-width="0.177812" stroke-miterlimit="10" stroke-linecap="round" stroke-linejoin="round"/>
<path d="M29.6963 16.956C29.6963 16.956 29.5933 17.2089 29.406 17.3961" stroke="#F44D79" stroke-width="0.177812" stroke-miterlimit="10" stroke-linecap="round" stroke-linejoin="round"/>
<path d="M29.378 16.9186C29.378 16.9186 29.2986 17.1295 29.1863 17.195" stroke="#F44D79" stroke-width="0.177812" stroke-miterlimit="10" stroke-linecap="round" stroke-linejoin="round"/>
<path d="M23.5164 19.4373C23.5164 19.4373 23.8348 20.0179 23.1138 21.1321C22.6456 21.8624 22.2898 22.4149 21.8778 23.2389C18.9658 29.1752 17.9639 31.8438 17.3741 35.6266C16.9902 38.0891 17.0276 43.2578 17.0276 43.2578C17.0276 43.2578 17.0182 43.5106 17.1868 43.5293C17.552 43.5668 17.4771 43.1454 17.4771 43.1454C17.4771 43.1454 17.3085 37.5648 18.1044 34.4842C19.4527 29.2127 21.2224 25.2894 22.8142 22.7239C23.9565 20.898 25.0052 20.7669 25.0052 20.7669" stroke="black" stroke-width="0.284499" stroke-miterlimit="10" stroke-linecap="round" stroke-linejoin="round"/>
<path d="M14.1377 15.4086C14.1377 15.4086 14.6511 14.8367 14.9866 14.5909C15.0842 14.5258 15.192 14.4693 15.3015 14.4314C15.6128 14.3381 15.9662 14.4009 16.1936 14.6345C16.7838 15.2497 17.6356 16.3776 17.4424 18.7634C17.2906 20.5535 16.4897 21.4891 15.5705 21.937C15.5705 21.937 15.5239 21.9411 15.4619 21.9842C15.4526 21.985 15.4348 21.996 15.4263 22.0061C14.5208 22.3964 13.5299 22.3525 12.9546 22.2247C12.9453 22.2256 12.9445 22.2163 12.9445 22.2163C12.8353 22.1507 12.7615 22.1667 12.7615 22.1667C12.6751 22.1461 12.6065 22.1146 12.5574 22.0907C11.2053 21.3643 9.90829 19.9844 10.4911 17.0095C10.5821 16.5503 10.8697 15.7634 11.1599 15.3242C11.41 14.9636 11.9791 14.4903 12.3629 14.5785C12.3816 14.5769 12.3917 14.5854 12.4112 14.5931C12.939 14.7156 13.5648 14.9893 14.1377 15.4086Z" fill="url(#paint4_linear_742_27201)"/>
<path d="M15.3015 14.4314C15.1921 14.4693 15.0843 14.5258 14.9866 14.5908C14.6512 14.8367 14.1377 15.4085 14.1377 15.4085C13.5649 14.9892 12.9391 14.7155 12.4112 14.593L12.4104 14.5837C12.4104 14.5837 12.5409 14.2526 13.0682 14.2623C13.0682 14.2623 13.3457 13.7866 13.9267 13.9796C13.9267 13.9796 14.6525 13.577 15.3015 14.4314Z" fill="#F65061"/>
<path d="M15.4265 22.0061C15.1149 22.2029 14.4119 22.97 14.6057 25.9045C14.8518 29.6427 16.1538 42.8754 16.1501 43.3646C16.1534 43.4019 16.1787 43.7944 15.7963 43.8282C15.3952 43.8637 15.3853 43.4322 15.3853 43.4322C15.3853 43.4322 14.3499 29.2829 13.9994 25.6385C13.7437 23.0668 13.2333 22.3975 12.9548 22.2247C13.5301 22.3524 14.521 22.3964 15.4265 22.0061Z" fill="#63A465"/>
<path d="M12.8225 14.5287C13.0052 14.5573 13.1794 14.5214 13.3378 14.4246C13.4123 14.3791 13.4741 14.2972 13.5514 14.2602C13.6363 14.2196 13.7791 14.2407 13.872 14.2368C14.0789 14.2281 14.2937 14.2032 14.5002 14.2273C14.7051 14.2512 14.8709 14.3621 15.0358 14.4777C15.1672 14.5699 15.2918 14.3542 15.1614 14.2628C14.9978 14.1481 14.8269 14.0365 14.6279 13.9965C14.4228 13.9553 14.2119 13.9736 14.0047 13.9823C13.8941 13.9869 13.7835 13.9912 13.6729 13.9962C13.575 14.0006 13.4843 14.0059 13.4005 14.0618C13.2367 14.1711 13.1087 14.3231 12.8887 14.2886C12.732 14.2641 12.6645 14.5039 12.8225 14.5287Z" fill="#FFC7D8"/>
<path d="M13.3734 14.9353C12.8584 14.6863 12.3051 14.5172 11.7724 14.8287C11.2846 15.1139 10.9973 15.6174 10.8221 16.1364C10.4108 17.3556 10.1222 18.6066 10.5617 19.8589C10.6144 20.0091 10.855 19.9445 10.8018 19.7927C10.6227 19.2825 10.5493 18.756 10.5838 18.2164C10.6189 17.668 10.7862 17.1253 10.9381 16.5989C11.086 16.0861 11.2549 15.5915 11.6602 15.2222C12.1503 14.7755 12.6994 14.8851 13.2478 15.1503C13.3914 15.2197 13.5178 15.0051 13.3734 14.9353Z" fill="white"/>
<path d="M14.7751 15.1841C14.9179 15.0708 15.0579 14.9476 15.2213 14.8642C15.3795 14.7835 15.6262 14.697 15.7981 14.779C15.8705 14.8135 15.9281 14.8788 15.9856 14.9327C16.0456 14.9888 16.1079 15.0385 16.1765 15.0837C16.3208 15.1788 16.46 15.2805 16.5395 15.4382C16.6022 15.5627 16.8145 15.476 16.767 15.3423C16.7354 15.2533 16.6892 15.1769 16.6193 15.1129C16.5013 15.0049 16.3248 15.1804 16.4433 15.2889C16.4814 15.3238 16.5095 15.3594 16.5269 15.4085C16.6028 15.3765 16.6786 15.3445 16.7544 15.3126C16.6585 15.1222 16.4886 14.9924 16.3146 14.877C16.1538 14.7703 16.034 14.5935 15.846 14.5307C15.6183 14.4546 15.361 14.5305 15.1503 14.6234C14.9449 14.714 14.7732 14.8698 14.5991 15.0081C14.4737 15.1077 14.6509 15.2828 14.7751 15.1841Z" fill="white"/>
<path d="M12.363 14.5785C12.3817 14.5768 12.3918 14.5853 12.4113 14.593C12.9392 14.7155 13.5649 14.9892 14.1378 15.4085C14.6912 15.8202 15.1901 16.3588 15.5021 17.0174" stroke="#DC314F" stroke-width="0.284499" stroke-miterlimit="10" stroke-linecap="round" stroke-linejoin="round"/>
<path d="M12.9445 22.2163C12.8775 22.2034 12.8106 22.1905 12.7615 22.1667C12.6751 22.1461 12.6065 22.1146 12.5574 22.0907C11.2053 21.3643 9.90829 19.9844 10.4911 17.0095C10.5821 16.5503 10.8697 15.7634 11.1599 15.3242C11.41 14.9636 11.9791 14.4903 12.3629 14.5785" stroke="black" stroke-width="0.284499" stroke-miterlimit="10" stroke-linecap="round" stroke-linejoin="round"/>
<path d="M15.4262 22.0061C14.5208 22.3964 13.5299 22.3524 12.9546 22.2247" stroke="black" stroke-width="0.284499" stroke-miterlimit="10" stroke-linecap="round" stroke-linejoin="round"/>
<path d="M15.3015 14.4314C15.6129 14.3381 15.9662 14.4008 16.1937 14.6345C16.7839 15.2497 17.6356 16.3776 17.4425 18.7634C17.2906 20.5534 16.4898 21.489 15.5706 21.9369C15.5349 21.9589 15.4985 21.9715 15.462 21.9842" stroke="black" stroke-width="0.284499" stroke-miterlimit="10" stroke-linecap="round" stroke-linejoin="round"/>
<path d="M14.1377 15.4085C14.1377 15.4085 14.6511 14.8367 14.9866 14.5908C15.0842 14.5258 15.192 14.4693 15.3015 14.4314" stroke="#DC314F" stroke-width="0.284499" stroke-miterlimit="10" stroke-linecap="round" stroke-linejoin="round"/>
<path d="M12.4104 14.5837C12.4104 14.5837 12.5409 14.2525 13.0682 14.2623C13.0682 14.2623 13.3457 13.7866 13.9267 13.9796C13.9267 13.9796 14.6525 13.577 15.3015 14.4313" stroke="black" stroke-width="0.284499" stroke-miterlimit="10" stroke-linecap="round" stroke-linejoin="round"/>
<path d="M11.4625 16.0856C11.4625 16.0856 11.1354 17.4966 11.4909 18.6613" stroke="#F44D79" stroke-width="0.177812" stroke-miterlimit="10" stroke-linecap="round" stroke-linejoin="round"/>
<path d="M11.8289 16.7709C11.8289 16.7709 11.6992 17.8589 11.8955 18.4262" stroke="#F44D79" stroke-width="0.177812" stroke-miterlimit="10" stroke-linecap="round" stroke-linejoin="round"/>
<path d="M12.811 17.508C12.811 17.508 12.7754 17.8566 12.8181 18.0389" stroke="#F44D79" stroke-width="0.177812" stroke-miterlimit="10" stroke-linecap="round" stroke-linejoin="round"/>
<path d="M13.1259 17.1611C13.1259 17.1611 13.0729 17.7639 13.2149 18.0171" stroke="#F44D79" stroke-width="0.177812" stroke-miterlimit="10" stroke-linecap="round" stroke-linejoin="round"/>
<path d="M16.1218 15.4816C16.1218 15.4816 16.5113 15.9171 16.5681 16.4249" stroke="#F44D79" stroke-width="0.177812" stroke-miterlimit="10" stroke-linecap="round" stroke-linejoin="round"/>
<path d="M15.8005 15.8291C15.8005 15.8291 15.9654 16.0877 16.0095 16.3708" stroke="#F44D79" stroke-width="0.177812" stroke-miterlimit="10" stroke-linecap="round" stroke-linejoin="round"/>
<path d="M15.595 16.0841C15.595 16.0841 15.7085 16.3117 15.6954 16.4661" stroke="#F44D79" stroke-width="0.177812" stroke-miterlimit="10" stroke-linecap="round" stroke-linejoin="round"/>
<path d="M12.9546 22.2247C13.2331 22.3975 13.7435 23.0668 13.9991 25.6385C14.3497 29.2829 15.385 43.4322 15.385 43.4322C15.385 43.4322 15.395 43.8637 15.7961 43.8282C16.1785 43.7944 16.1531 43.4019 16.1498 43.3646C16.1536 42.8754 14.8515 29.6427 14.6055 25.9045C14.4117 22.97 15.1146 22.2029 15.4262 22.0061C15.4347 21.9959 15.4526 21.985 15.4619 21.9842C15.5239 21.9411 15.5705 21.937 15.5705 21.937" stroke="black" stroke-width="0.284499" stroke-miterlimit="10" stroke-linecap="round" stroke-linejoin="round"/>
<path d="M12.9443 22.2162C12.9443 22.2162 12.9452 22.2261 12.9552 22.2252" stroke="black" stroke-width="0.284499" stroke-miterlimit="10" stroke-linecap="round" stroke-linejoin="round"/>
<path d="M12.7615 22.1667C12.7615 22.1667 12.8353 22.1508 12.9445 22.2163" stroke="black" stroke-width="0.284499" stroke-miterlimit="10" stroke-linecap="round" stroke-linejoin="round"/>
<path d="M14.5111 40.4445C15.6253 42.7761 16.1778 43.7592 15.5691 44.0214C14.9512 44.2742 14.4924 42.7105 12.8538 40.8472C11.2152 38.9839 6.84247 37.2236 4.40799 33.5531C1.98288 29.8827 1.7207 23.5811 1.7207 23.5811C1.7207 23.5811 1.94543 22.9069 2.42296 23.9088C2.90049 24.9014 4.15519 25.3134 4.84807 25.9314C5.37242 26.3995 5.59714 26.6991 5.89677 27.6729C5.89677 27.6729 5.91549 27.7198 5.94359 27.8134C6.02786 28.1036 6.11212 28.4501 6.22449 28.8808C7.26382 33.0007 9.31441 33.525 11.3837 34.8921C11.5148 34.9764 11.6459 35.07 11.7582 35.1636C13.453 36.5026 13.4717 38.2723 14.5111 40.4445Z" fill="#95EBAE"/>
<path d="M11.7583 35.1636C11.6459 35.07 11.5148 34.9764 11.3837 34.8921C9.31442 33.525 7.26383 33.0007 6.22451 28.8808C6.11214 28.4501 6.02787 28.1036 5.9436 27.8134C6.09341 28.1879 6.59904 29.2553 7.74136 29.7703C8.76198 30.2291 9.23951 31.3434 9.69831 32.4482C10.1384 33.4969 11.6834 33.9277 11.7583 35.1636Z" fill="#3EA98F"/>
<path d="M5.89677 27.6729C5.59714 26.6991 5.37242 26.3995 4.84807 25.9314C4.15519 25.3134 2.90049 24.9014 2.42296 23.9088C1.94543 22.9069 1.7207 23.5811 1.7207 23.5811C1.7207 23.5811 1.98288 29.8827 4.40799 33.5531C6.84247 37.2236 11.2152 38.9839 12.8538 40.8472C14.4924 42.7105 14.9512 44.2742 15.5691 44.0214C16.1778 43.7592 15.6253 42.7761 14.5111 40.4445C13.4717 38.2723 13.453 36.5026 11.7582 35.1636C11.6459 35.07 11.5148 34.9764 11.3837 34.8921C9.31441 33.525 7.26382 33.0007 6.22449 28.8808C6.11212 28.4501 6.02786 28.1036 5.94359 27.8134" stroke="black" stroke-width="0.284499" stroke-miterlimit="10" stroke-linecap="round" stroke-linejoin="round"/>
<path d="M5.89673 27.6729C5.89673 27.6729 5.91545 27.7197 5.94355 27.8133C6.09336 28.1878 6.59898 29.2553 7.74131 29.7703C8.76192 30.2291 9.23946 31.3433 9.69826 32.4482C10.1383 33.4969 11.6833 33.9276 11.7582 35.1636" stroke="black" stroke-width="0.284499" stroke-miterlimit="10" stroke-linecap="round" stroke-linejoin="round"/>
<path d="M24.9224 23.9599C25.1377 23.9411 25.4186 23.9224 25.6059 24.0067C25.737 24.0629 26.1584 24.5966 26.2426 25.0928C26.3175 25.5985 26.2988 26.1883 25.9336 26.2914C25.7651 25.7577 25.4093 25.3457 25.0909 25.1116C25.0254 25.0647 24.9505 25.0273 24.8756 25.0086C24.5666 24.8307 24.7258 24.5685 24.5947 24.2689C24.4636 23.9693 23.7613 24.0254 23.7613 24.0254H23.752C23.6583 23.6228 23.443 23.2482 23.0029 23.0236C22.6284 22.8363 22.1976 22.7146 21.7576 22.6677V22.6584C21.7576 22.6584 22.5347 22.2838 23.1621 22.3962C23.7988 22.5086 23.855 22.9299 24.0048 22.9767C24.1452 23.0236 24.5853 22.8925 24.7445 23.2763C24.913 23.6509 24.9224 23.9599 24.9224 23.9599Z" fill="#FC87A5"/>
<path d="M24.8754 25.0085C24.9503 25.0273 25.0252 25.0647 25.0908 25.1116C25.4091 25.3456 25.765 25.7577 25.9335 26.2913C26.0365 26.6471 26.0552 27.0592 25.9148 27.5086C25.5683 28.6415 24.5383 30.2801 23.4522 30.4393C22.366 30.5985 21.9166 30.4299 21.5889 30.1584C21.5233 30.1022 21.4484 30.0461 21.3829 29.9899C21.1769 29.8307 20.9803 29.7183 20.9241 29.6809C21.0364 29.6996 21.1582 29.7277 21.2892 29.7651C22.4409 30.0929 23.6582 28.5479 23.9204 27.6677C24.2481 26.591 23.9859 25.3082 23.7331 25.4112C23.7331 25.4112 23.9204 24.6995 23.7518 24.0254H23.7612C23.7612 24.0254 24.4634 23.9692 24.5945 24.2689C24.7256 24.5685 24.5664 24.8306 24.8754 25.0085Z" fill="url(#paint5_linear_742_27201)"/>
<path d="M23.7333 25.4112C23.9861 25.3082 24.2483 26.591 23.9206 27.6678C23.6584 28.5479 22.4412 30.0929 21.2895 29.7652C21.1584 29.7277 21.0367 29.6996 20.9243 29.6809C20.915 29.6715 20.9056 29.6715 20.9056 29.6715C20.2033 29.5217 19.9599 29.5967 19.6134 29.3719C19.5105 29.297 19.3887 29.2034 19.2483 29.0536C17.5067 27.3026 18.0779 25.0741 19.0423 23.7445C19.7071 22.8269 20.7745 22.546 21.7577 22.6677C22.1977 22.7146 22.6285 22.8363 23.003 23.0236C23.4431 23.2483 23.6584 23.6228 23.7521 24.0255C23.9206 24.6996 23.7333 25.4112 23.7333 25.4112Z" fill="url(#paint6_linear_742_27201)"/>
<path d="M21.3829 29.9899V29.9992C21.3829 29.9992 19.454 32.2839 18.8548 36.4506C18.3772 39.8027 18.19 43.5855 18.19 43.5855C18.19 43.6136 18.1806 43.9132 17.8341 43.9132C17.5064 43.9132 17.4971 43.5293 17.4971 43.4918C17.4971 43.4918 17.5907 40.7484 17.7686 39.1379C17.9372 37.5274 18.396 34.8494 19.1918 32.3213C19.9877 29.8026 19.6132 29.3719 19.6132 29.3719C19.9596 29.5966 20.2031 29.5217 20.9053 29.6715C20.9053 29.6715 20.9147 29.6715 20.9241 29.6809C20.9802 29.7183 21.1769 29.8307 21.3829 29.9899Z" fill="#63A465"/>
<path d="M22.8474 22.9492C22.8474 22.9492 23.3892 22.7239 23.536 22.9492C23.6829 23.1744 23.934 23.4832 24.4075 23.5856C24.881 23.6881 24.5202 23.873 24.7282 23.9937C24.9363 24.1144 25.4648 24.173 25.5923 24.4571C25.7198 24.7412 25.5751 25.2649 25.6486 25.5733C25.6486 25.5733 25.119 24.79 24.5054 24.9532C23.8918 25.1164 23.8461 25.3057 23.8461 25.3057C23.8461 25.3057 23.9636 23.8108 23.5654 23.4975C23.1672 23.1841 22.8474 22.9492 22.8474 22.9492Z" fill="#F65061"/>
<path d="M20.5357 22.969C20.9218 22.9113 21.3219 22.8751 21.7101 22.9347C22.0635 22.9889 22.4329 23.1208 22.7592 23.2656C22.9066 23.331 23.086 23.4127 23.1989 23.5313C23.2925 23.6296 23.3232 23.7784 23.3775 23.8996C23.4412 24.0416 23.5341 24.1584 23.5695 24.3138C23.6102 24.4933 23.5917 24.6832 23.5169 24.8514C23.4524 24.9966 23.6669 25.1234 23.7319 24.9771C23.8953 24.6094 23.8582 24.2314 23.6535 23.8898C23.5704 23.7511 23.5374 23.5879 23.4509 23.4513C23.3547 23.2993 23.177 23.1976 23.0216 23.1165C22.6617 22.9286 22.2311 22.7754 21.8317 22.7039C21.3789 22.6228 20.9212 22.6614 20.4695 22.729C20.3116 22.7526 20.3787 22.9925 20.5357 22.969Z" fill="white"/>
<path d="M24.5315 25.2867C24.7344 25.275 24.9367 25.2725 25.1147 25.384C25.2579 25.4736 25.3644 25.6126 25.4427 25.7602C25.5379 25.9394 25.5889 26.1388 25.6364 26.3349C25.6617 26.4395 25.6856 26.5446 25.7128 26.6488C25.7397 26.752 25.7685 26.8521 25.7679 26.9595C25.7669 27.1197 26.0159 27.1199 26.0168 26.9595C26.0176 26.8357 25.9882 26.717 25.9569 26.598C25.9255 26.4783 25.8983 26.3575 25.8688 26.2373C25.8139 26.0138 25.7482 25.7881 25.6318 25.5879C25.5311 25.4148 25.3923 25.2573 25.2181 25.1556C25.0073 25.0325 24.769 25.0241 24.5315 25.0377C24.3722 25.0469 24.3711 25.2959 24.5315 25.2867Z" fill="white"/>
<path d="M23.2744 22.8549C23.2744 22.8549 23.5834 22.78 23.6583 22.9766C23.7332 23.1733 23.8269 23.4354 24.2014 23.501" stroke="#DC314F" stroke-width="0.248937" stroke-miterlimit="10" stroke-linecap="round" stroke-linejoin="round"/>
<path d="M25.3904 24.2689C25.3904 24.2689 25.6619 24.3438 25.6526 24.6715C25.6338 24.9993 25.6526 25.2333 25.6526 25.2333" stroke="#DC314F" stroke-width="0.248937" stroke-miterlimit="10" stroke-linecap="round" stroke-linejoin="round"/>
<path d="M23.7615 24.0254C23.7615 24.0254 24.4637 23.9692 24.5948 24.2689C24.7259 24.5685 24.5667 24.8306 24.8757 25.0085" stroke="#DC314F" stroke-width="0.248937" stroke-miterlimit="10" stroke-linecap="round" stroke-linejoin="round"/>
<path d="M20.9243 29.6809C21.0367 29.6996 21.1584 29.7277 21.2895 29.7652C22.4412 30.0929 23.6584 28.5479 23.9206 27.6678C24.2483 26.591 24.2015 25.5734 23.7333 25.4112C23.7333 25.4112 23.9206 24.6996 23.7521 24.0255C23.6584 23.6228 23.4431 23.2483 23.003 23.0236C22.6285 22.8363 22.1977 22.7146 21.7577 22.6677C20.7745 22.546 19.7071 22.8269 19.0423 23.7445C18.0779 25.0741 17.5067 27.3026 19.2483 29.0536C19.3887 29.2034 19.5105 29.297 19.6134 29.3719C19.9599 29.5967 20.2033 29.5217 20.9056 29.6715" stroke="black" stroke-width="0.248937" stroke-miterlimit="10" stroke-linecap="round" stroke-linejoin="round"/>
<path d="M23.8924 25.355C23.8924 25.355 24.3887 24.8587 24.8756 25.0086C24.9505 25.0273 25.0254 25.0647 25.0909 25.1116C25.4093 25.3456 25.7651 25.7577 25.9336 26.2914C26.0367 26.6472 26.0554 27.0592 25.9149 27.5086C25.5685 28.6415 24.5385 30.2801 23.4523 30.4393C22.3662 30.5985 21.9168 30.43 21.589 30.1584C21.5235 30.1022 21.4486 30.0461 21.3831 29.9899C21.1771 29.8307 20.9804 29.7184 20.9242 29.6809C20.9149 29.6715 20.9055 29.6715 20.9055 29.6715" stroke="black" stroke-width="0.248937" stroke-miterlimit="10" stroke-linecap="round" stroke-linejoin="round"/>
<path d="M21.7576 22.6584C21.7576 22.6584 22.5347 22.2838 23.1621 22.3962C23.7988 22.5086 23.855 22.9299 24.0048 22.9767C24.1452 23.0236 24.5853 22.8925 24.7445 23.2763C24.913 23.6509 24.9224 23.9599 24.9224 23.9599" stroke="black" stroke-width="0.248937" stroke-miterlimit="10" stroke-linecap="round" stroke-linejoin="round"/>
<path d="M24.6602 24.0067C24.6602 24.0067 24.7725 23.9786 24.9223 23.9599C25.1377 23.9411 25.4186 23.9224 25.6059 24.0067C25.7369 24.0628 26.1583 24.5966 26.2426 25.0928C26.3175 25.5985 26.2988 26.1883 25.9336 26.2913" stroke="black" stroke-width="0.248937" stroke-miterlimit="10" stroke-linecap="round" stroke-linejoin="round"/>
<path d="M19.6132 29.3719C19.6132 29.3719 19.9877 29.8026 19.1918 32.3213C18.396 34.8494 17.9372 37.5274 17.7686 39.1379C17.5907 40.7484 17.4971 43.4918 17.4971 43.4918C17.4971 43.5293 17.5064 43.9132 17.8341 43.9132C18.1806 43.9132 18.19 43.6136 18.19 43.5855C18.19 43.5855 18.3772 39.8027 18.8548 36.4506C19.454 32.2839 21.3829 29.9992 21.3829 29.9992" stroke="black" stroke-width="0.248937" stroke-miterlimit="10" stroke-linecap="round" stroke-linejoin="round"/>
<path d="M20.4467 23.4901C20.0313 23.9583 19.7932 24.5623 19.7801 25.1884C19.7777 25.3029 19.9555 25.3028 19.9579 25.1884C19.97 24.6107 20.1887 24.0483 20.5725 23.6159C20.6482 23.5305 20.5229 23.4043 20.4467 23.4901Z" fill="#F44D79"/>
<path d="M20.6964 24.1203C20.5143 24.3311 20.3821 24.5781 20.3224 24.8512C20.3121 24.898 20.3365 24.9473 20.3845 24.9605C20.4289 24.9728 20.4835 24.9455 20.4938 24.8984C20.547 24.6555 20.6598 24.434 20.8221 24.2461C20.8535 24.2098 20.8578 24.156 20.8221 24.1203C20.7901 24.0883 20.7279 24.0839 20.6964 24.1203Z" fill="#F44D79"/>
<path d="M21.1009 24.2787C20.9378 24.5041 20.8147 24.7573 20.7356 25.024C20.7029 25.1339 20.8745 25.1808 20.907 25.0712C20.9821 24.8184 21.0999 24.582 21.2544 24.3684C21.2826 24.3295 21.2611 24.2693 21.2225 24.2468C21.1777 24.2205 21.1291 24.2396 21.1009 24.2787Z" fill="#F44D79"/>
<path d="M25.1637 26.146C25.2967 26.4607 25.2687 26.8334 25.1007 27.1288C25.0441 27.2285 25.1976 27.3182 25.2543 27.2186C25.4567 26.8626 25.4759 26.4318 25.3172 26.0562C25.2985 26.012 25.2332 26.0023 25.1956 26.0243C25.1498 26.0511 25.1449 26.1015 25.1637 26.146Z" fill="#F44D79"/>
<path d="M24.7626 26.7727C24.7641 26.783 24.7641 26.7823 24.7625 26.7707C24.7631 26.7755 24.7637 26.7803 24.7642 26.7851C24.765 26.7923 24.7656 26.7996 24.7661 26.8068C24.7674 26.8237 24.768 26.8407 24.7679 26.8576C24.7679 26.8746 24.7672 26.8915 24.7658 26.9084C24.7652 26.9169 24.7641 26.9253 24.7634 26.9337C24.7626 26.9404 24.7629 26.9386 24.7642 26.9281C24.7636 26.9329 24.7628 26.9377 24.762 26.9425C24.7565 26.976 24.7486 27.009 24.7382 27.0413C24.7331 27.0572 24.7283 27.0742 24.7208 27.0891C24.7278 27.0753 24.7213 27.0876 24.7182 27.0945C24.7141 27.1033 24.7099 27.112 24.7055 27.1206C24.6845 27.1621 24.6932 27.2189 24.7374 27.2423C24.7779 27.2637 24.8365 27.2547 24.859 27.2104C24.9358 27.059 24.9601 26.8928 24.9341 26.7254C24.9269 26.6793 24.8668 26.6497 24.8247 26.6634C24.7746 26.6796 24.7549 26.7233 24.7626 26.7727Z" fill="#F44D79"/>
<path d="M25.1886 32.3007C25.7316 30.5123 27.1455 28.3119 28.344 27.722C29.5332 27.1227 30.8909 25.6339 30.8909 25.6339C30.8909 25.6339 31.0219 28.6771 28.0818 31.1209C25.6005 33.1808 23.3721 35.5217 21.9675 37.7595C20.563 39.9974 19.0274 42.5723 19.0555 43.2746C19.0555 43.2746 19.0181 43.8176 18.1473 43.8926C17.548 43.9394 17.342 43.6397 17.342 43.6397C17.342 43.6397 17.6229 39.3419 18.7934 37.1884C19.8702 35.2221 22.829 33.6677 25.1886 32.3007Z" fill="#95EBAE"/>
<path d="M25.1885 32.3007C26.2559 31.6827 27.2016 31.1022 27.7915 30.531" stroke="black" stroke-width="0.284499" stroke-miterlimit="10" stroke-linecap="round" stroke-linejoin="round"/>
<path d="M25.1886 32.3007C25.7316 30.5123 27.1455 28.3119 28.344 27.722C29.5332 27.1227 30.8909 25.6339 30.8909 25.6339C30.8909 25.6339 31.0219 28.6771 28.0818 31.1209C25.6005 33.1808 23.3721 35.5217 21.9675 37.7595C20.563 39.9974 19.0274 42.5723 19.0555 43.2746C19.0555 43.2746 19.0181 43.8176 18.1473 43.8926C17.548 43.9394 17.342 43.6397 17.342 43.6397C17.342 43.6397 17.6229 39.3419 18.7934 37.1884C19.8702 35.2221 22.829 33.6677 25.1886 32.3007Z" stroke="black" stroke-width="0.284499" stroke-miterlimit="10" stroke-linecap="round" stroke-linejoin="round"/>
</g>
<path d="M10.8931 44.2146C11.5164 44.2445 12.0371 43.9457 12.5645 43.6527C12.7774 43.5345 13.142 43.2779 13.3991 43.2924C13.5431 43.3005 13.6599 43.426 13.7851 43.4821C13.8781 43.5238 13.9738 43.5472 14.0743 43.5613C14.7063 43.6507 15.2696 43.3004 15.9102 43.4567C16.5404 43.6105 17.0849 43.7788 17.7438 43.7097C17.9917 43.6838 17.9944 43.2923 17.7438 43.3185C17.4062 43.3539 17.0714 43.3499 16.7378 43.2808C16.4512 43.2214 16.1784 43.1097 15.8919 43.0503C15.6013 42.9899 15.3232 42.9967 15.0326 43.0526C14.7268 43.1114 14.4165 43.2294 14.1016 43.169C13.855 43.1217 13.7021 42.8872 13.4422 42.8926C13.2033 42.8977 12.954 43.0181 12.7415 43.1182C12.1377 43.4029 11.5962 43.8571 10.8931 43.8235C10.6414 43.8114 10.6421 44.2026 10.8931 44.2146Z" fill="black"/>
<path d="M16.4758 43.5888C16.984 43.5367 17.3023 43.2192 17.7393 42.997C17.9876 42.8708 18.2576 42.7854 18.5386 42.7952C18.7908 42.804 19.0378 42.8834 19.2896 42.8202C19.3843 42.7964 19.4706 42.7501 19.5603 42.7133C19.7148 42.6499 19.7809 42.6544 19.8787 42.7949C20.0028 42.9731 20.0792 43.0942 20.2998 43.1658C20.5448 43.2453 20.8043 43.1895 21.0528 43.2423C21.3232 43.2998 21.5445 43.4508 21.7215 43.6586C21.8849 43.8506 22.1605 43.5727 21.9981 43.382C21.6584 42.9831 21.2143 42.839 20.7047 42.8262C20.5405 42.822 20.3494 42.8192 20.2468 42.6685C20.1864 42.5799 20.177 42.4765 20.0958 42.398C19.9539 42.2608 19.7417 42.2455 19.5589 42.2967C19.4428 42.3293 19.3398 42.3988 19.2238 42.431C19.0733 42.4728 18.924 42.4463 18.7715 42.4275C18.5096 42.3952 18.2605 42.4003 18.0048 42.4722C17.743 42.5459 17.495 42.6727 17.2669 42.819C17.0117 42.9828 16.7895 43.1654 16.4758 43.1976C16.2278 43.223 16.2252 43.6144 16.4758 43.5888Z" fill="black"/>
<path d="M18.533 44.4518C18.6936 44.4135 18.8306 44.3232 18.9738 44.2455C19.0929 44.1808 19.1903 44.1522 19.312 44.2243C19.4587 44.3112 19.5804 44.4211 19.7469 44.4727C19.8358 44.5003 19.9343 44.5132 20.0273 44.5083C20.0751 44.5057 20.124 44.4992 20.171 44.4898C20.203 44.4833 20.2525 44.4579 20.2846 44.4668C20.5276 44.5339 20.6313 44.1566 20.3886 44.0896C20.2726 44.0575 20.1801 44.0932 20.067 44.1126C19.9902 44.1257 19.9095 44.1171 19.8362 44.091C19.6778 44.0345 19.5585 43.8991 19.4024 43.8341C19.2198 43.758 19.0361 43.7854 18.8606 43.8654C18.7147 43.9319 18.5868 44.0369 18.429 44.0746C18.1843 44.1331 18.2879 44.5104 18.533 44.4518Z" fill="black"/>
<defs>
<linearGradient id="paint0_linear_742_27201" x1="23.1393" y1="11.3412" x2="29.3148" y2="5.1658" gradientUnits="userSpaceOnUse">
<stop stop-color="white"/>
<stop offset="0.039333" stop-color="#FFF1F4"/>
<stop offset="0.175537" stop-color="#FEC6D1"/>
<stop offset="0.307309" stop-color="#FEA3B6"/>
<stop offset="0.431779" stop-color="#FD8BA2"/>
<stop offset="0.545978" stop-color="#FD7C96"/>
<stop offset="0.640318" stop-color="#FD7792"/>
</linearGradient>
<linearGradient id="paint1_linear_742_27201" x1="20.0958" y1="10.0918" x2="25.2068" y2="-0.27911" gradientUnits="userSpaceOnUse">
<stop stop-color="white"/>
<stop offset="0.102919" stop-color="#FED5DE"/>
<stop offset="0.220603" stop-color="#FEADBD"/>
<stop offset="0.327925" stop-color="#FD8FA5"/>
<stop offset="0.420201" stop-color="#FD7D97"/>
<stop offset="0.486719" stop-color="#FD7792"/>
</linearGradient>
<linearGradient id="paint2_linear_742_27201" x1="21.1989" y1="11.4926" x2="25.8371" y2="3.57026" gradientUnits="userSpaceOnUse">
<stop stop-color="white"/>
<stop offset="0.024244" stop-color="#FFF8F9"/>
<stop offset="0.191746" stop-color="#FECAD4"/>
<stop offset="0.352204" stop-color="#FEA6B8"/>
<stop offset="0.501776" stop-color="#FD8CA3"/>
<stop offset="0.636269" stop-color="#FD7C96"/>
<stop offset="0.742728" stop-color="#FD7792"/>
</linearGradient>
<linearGradient id="paint3_linear_742_27201" x1="24.0615" y1="20.0614" x2="29.7471" y2="14.3758" gradientUnits="userSpaceOnUse">
<stop stop-color="white"/>
<stop offset="0.142926" stop-color="#FED3DB"/>
<stop offset="0.29371" stop-color="#FEABBC"/>
<stop offset="0.43206" stop-color="#FD8FA5"/>
<stop offset="0.552104" stop-color="#FD7D97"/>
<stop offset="0.640318" stop-color="#FD7792"/>
</linearGradient>
<linearGradient id="paint4_linear_742_27201" x1="14.2708" y1="22.295" x2="13.5768" y2="14.4498" gradientUnits="userSpaceOnUse">
<stop stop-color="white"/>
<stop offset="0.122248" stop-color="#FEDAE1"/>
<stop offset="0.283927" stop-color="#FEAFBF"/>
<stop offset="0.429945" stop-color="#FD91A6"/>
<stop offset="0.553658" stop-color="#FD7E97"/>
<stop offset="0.640318" stop-color="#FD7792"/>
</linearGradient>
<linearGradient id="paint5_linear_742_27201" x1="22.1693" y1="30.5181" x2="25.5081" y2="24.735" gradientUnits="userSpaceOnUse">
<stop stop-color="white"/>
<stop offset="0.020901" stop-color="#FFF8F9"/>
<stop offset="0.165308" stop-color="#FECAD4"/>
<stop offset="0.303641" stop-color="#FEA6B8"/>
<stop offset="0.43259" stop-color="#FD8CA3"/>
<stop offset="0.548538" stop-color="#FD7C96"/>
<stop offset="0.640318" stop-color="#FD7792"/>
</linearGradient>
<linearGradient id="paint6_linear_742_27201" x1="19.4431" y1="29.2755" x2="23.0413" y2="23.0433" gradientUnits="userSpaceOnUse">
<stop stop-color="white"/>
<stop offset="0.020901" stop-color="#FFF8F9"/>
<stop offset="0.165308" stop-color="#FECAD4"/>
<stop offset="0.303641" stop-color="#FEA6B8"/>
<stop offset="0.43259" stop-color="#FD8CA3"/>
<stop offset="0.548538" stop-color="#FD7C96"/>
<stop offset="0.640318" stop-color="#FD7792"/>
</linearGradient>
</defs>
</svg>
